G04 #@! TF.GenerationSoftware,KiCad,Pcbnew,5.1.5-52549c5~84~ubuntu18.04.1*
G04 #@! TF.CreationDate,2020-01-27T13:55:18+13:00*
G04 #@! TF.ProjectId,MOSSbp_Jetson_Nano_Board,4d4f5353-6270-45f4-9a65-74736f6e5f4e,V0.1*
G04 #@! TF.SameCoordinates,Original*
G04 #@! TF.FileFunction,Soldermask,Bot*
G04 #@! TF.FilePolarity,Negative*
%FSLAX46Y46*%
G04 Gerber Fmt 4.6, Leading zero omitted, Abs format (unit mm)*
G04 Created by KiCad (PCBNEW 5.1.5-52549c5~84~ubuntu18.04.1) date 2020-01-27 13:55:18*
%MOMM*%
%LPD*%
G04 APERTURE LIST*
%ADD10C,0.100000*%
G04 APERTURE END LIST*
D10*
G36*
X175113512Y-114263927D02*
G01*
X175262812Y-114293624D01*
X175426784Y-114361544D01*
X175574354Y-114460147D01*
X175699853Y-114585646D01*
X175798456Y-114733216D01*
X175866376Y-114897188D01*
X175901000Y-115071259D01*
X175901000Y-115248741D01*
X175866376Y-115422812D01*
X175798456Y-115586784D01*
X175699853Y-115734354D01*
X175574354Y-115859853D01*
X175426784Y-115958456D01*
X175262812Y-116026376D01*
X175113512Y-116056073D01*
X175088742Y-116061000D01*
X174911258Y-116061000D01*
X174886488Y-116056073D01*
X174737188Y-116026376D01*
X174573216Y-115958456D01*
X174425646Y-115859853D01*
X174300147Y-115734354D01*
X174201544Y-115586784D01*
X174133624Y-115422812D01*
X174099000Y-115248741D01*
X174099000Y-115071259D01*
X174133624Y-114897188D01*
X174201544Y-114733216D01*
X174300147Y-114585646D01*
X174425646Y-114460147D01*
X174573216Y-114361544D01*
X174737188Y-114293624D01*
X174886488Y-114263927D01*
X174911258Y-114259000D01*
X175088742Y-114259000D01*
X175113512Y-114263927D01*
G37*
G36*
X172573512Y-114263927D02*
G01*
X172722812Y-114293624D01*
X172886784Y-114361544D01*
X173034354Y-114460147D01*
X173159853Y-114585646D01*
X173258456Y-114733216D01*
X173326376Y-114897188D01*
X173361000Y-115071259D01*
X173361000Y-115248741D01*
X173326376Y-115422812D01*
X173258456Y-115586784D01*
X173159853Y-115734354D01*
X173034354Y-115859853D01*
X172886784Y-115958456D01*
X172722812Y-116026376D01*
X172573512Y-116056073D01*
X172548742Y-116061000D01*
X172371258Y-116061000D01*
X172346488Y-116056073D01*
X172197188Y-116026376D01*
X172033216Y-115958456D01*
X171885646Y-115859853D01*
X171760147Y-115734354D01*
X171661544Y-115586784D01*
X171593624Y-115422812D01*
X171559000Y-115248741D01*
X171559000Y-115071259D01*
X171593624Y-114897188D01*
X171661544Y-114733216D01*
X171760147Y-114585646D01*
X171885646Y-114460147D01*
X172033216Y-114361544D01*
X172197188Y-114293624D01*
X172346488Y-114263927D01*
X172371258Y-114259000D01*
X172548742Y-114259000D01*
X172573512Y-114263927D01*
G37*
G36*
X175113512Y-111723927D02*
G01*
X175262812Y-111753624D01*
X175426784Y-111821544D01*
X175574354Y-111920147D01*
X175699853Y-112045646D01*
X175798456Y-112193216D01*
X175866376Y-112357188D01*
X175901000Y-112531259D01*
X175901000Y-112708741D01*
X175866376Y-112882812D01*
X175798456Y-113046784D01*
X175699853Y-113194354D01*
X175574354Y-113319853D01*
X175426784Y-113418456D01*
X175262812Y-113486376D01*
X175113512Y-113516073D01*
X175088742Y-113521000D01*
X174911258Y-113521000D01*
X174886488Y-113516073D01*
X174737188Y-113486376D01*
X174573216Y-113418456D01*
X174425646Y-113319853D01*
X174300147Y-113194354D01*
X174201544Y-113046784D01*
X174133624Y-112882812D01*
X174099000Y-112708741D01*
X174099000Y-112531259D01*
X174133624Y-112357188D01*
X174201544Y-112193216D01*
X174300147Y-112045646D01*
X174425646Y-111920147D01*
X174573216Y-111821544D01*
X174737188Y-111753624D01*
X174886488Y-111723927D01*
X174911258Y-111719000D01*
X175088742Y-111719000D01*
X175113512Y-111723927D01*
G37*
G36*
X172573512Y-111723927D02*
G01*
X172722812Y-111753624D01*
X172886784Y-111821544D01*
X173034354Y-111920147D01*
X173159853Y-112045646D01*
X173258456Y-112193216D01*
X173326376Y-112357188D01*
X173361000Y-112531259D01*
X173361000Y-112708741D01*
X173326376Y-112882812D01*
X173258456Y-113046784D01*
X173159853Y-113194354D01*
X173034354Y-113319853D01*
X172886784Y-113418456D01*
X172722812Y-113486376D01*
X172573512Y-113516073D01*
X172548742Y-113521000D01*
X172371258Y-113521000D01*
X172346488Y-113516073D01*
X172197188Y-113486376D01*
X172033216Y-113418456D01*
X171885646Y-113319853D01*
X171760147Y-113194354D01*
X171661544Y-113046784D01*
X171593624Y-112882812D01*
X171559000Y-112708741D01*
X171559000Y-112531259D01*
X171593624Y-112357188D01*
X171661544Y-112193216D01*
X171760147Y-112045646D01*
X171885646Y-111920147D01*
X172033216Y-111821544D01*
X172197188Y-111753624D01*
X172346488Y-111723927D01*
X172371258Y-111719000D01*
X172548742Y-111719000D01*
X172573512Y-111723927D01*
G37*
G36*
X149671000Y-112041000D02*
G01*
X147469000Y-112041000D01*
X147469000Y-109839000D01*
X149671000Y-109839000D01*
X149671000Y-112041000D01*
G37*
G36*
X167834795Y-109860156D02*
G01*
X167941150Y-109881311D01*
X168141520Y-109964307D01*
X168321844Y-110084795D01*
X168475205Y-110238156D01*
X168595693Y-110418480D01*
X168678689Y-110618851D01*
X168721000Y-110831560D01*
X168721000Y-111048440D01*
X168678689Y-111261149D01*
X168595693Y-111461520D01*
X168475205Y-111641844D01*
X168321844Y-111795205D01*
X168141520Y-111915693D01*
X168041334Y-111957191D01*
X167941150Y-111998689D01*
X167834794Y-112019845D01*
X167728440Y-112041000D01*
X167511560Y-112041000D01*
X167405206Y-112019845D01*
X167298850Y-111998689D01*
X167198666Y-111957191D01*
X167098480Y-111915693D01*
X166918156Y-111795205D01*
X166764795Y-111641844D01*
X166644307Y-111461520D01*
X166561311Y-111261149D01*
X166519000Y-111048440D01*
X166519000Y-110831560D01*
X166561311Y-110618851D01*
X166644307Y-110418480D01*
X166764795Y-110238156D01*
X166918156Y-110084795D01*
X167098480Y-109964307D01*
X167298850Y-109881311D01*
X167405205Y-109860156D01*
X167511560Y-109839000D01*
X167728440Y-109839000D01*
X167834795Y-109860156D01*
G37*
G36*
X172573512Y-109183927D02*
G01*
X172722812Y-109213624D01*
X172886784Y-109281544D01*
X173034354Y-109380147D01*
X173159853Y-109505646D01*
X173258456Y-109653216D01*
X173326376Y-109817188D01*
X173361000Y-109991259D01*
X173361000Y-110168741D01*
X173326376Y-110342812D01*
X173258456Y-110506784D01*
X173159853Y-110654354D01*
X173034354Y-110779853D01*
X172886784Y-110878456D01*
X172722812Y-110946376D01*
X172573512Y-110976073D01*
X172548742Y-110981000D01*
X172371258Y-110981000D01*
X172346488Y-110976073D01*
X172197188Y-110946376D01*
X172033216Y-110878456D01*
X171885646Y-110779853D01*
X171760147Y-110654354D01*
X171661544Y-110506784D01*
X171593624Y-110342812D01*
X171559000Y-110168741D01*
X171559000Y-109991259D01*
X171593624Y-109817188D01*
X171661544Y-109653216D01*
X171760147Y-109505646D01*
X171885646Y-109380147D01*
X172033216Y-109281544D01*
X172197188Y-109213624D01*
X172346488Y-109183927D01*
X172371258Y-109179000D01*
X172548742Y-109179000D01*
X172573512Y-109183927D01*
G37*
G36*
X175113512Y-109183927D02*
G01*
X175262812Y-109213624D01*
X175426784Y-109281544D01*
X175574354Y-109380147D01*
X175699853Y-109505646D01*
X175798456Y-109653216D01*
X175866376Y-109817188D01*
X175901000Y-109991259D01*
X175901000Y-110168741D01*
X175866376Y-110342812D01*
X175798456Y-110506784D01*
X175699853Y-110654354D01*
X175574354Y-110779853D01*
X175426784Y-110878456D01*
X175262812Y-110946376D01*
X175113512Y-110976073D01*
X175088742Y-110981000D01*
X174911258Y-110981000D01*
X174886488Y-110976073D01*
X174737188Y-110946376D01*
X174573216Y-110878456D01*
X174425646Y-110779853D01*
X174300147Y-110654354D01*
X174201544Y-110506784D01*
X174133624Y-110342812D01*
X174099000Y-110168741D01*
X174099000Y-109991259D01*
X174133624Y-109817188D01*
X174201544Y-109653216D01*
X174300147Y-109505646D01*
X174425646Y-109380147D01*
X174573216Y-109281544D01*
X174737188Y-109213624D01*
X174886488Y-109183927D01*
X174911258Y-109179000D01*
X175088742Y-109179000D01*
X175113512Y-109183927D01*
G37*
G36*
X172573512Y-106643927D02*
G01*
X172722812Y-106673624D01*
X172886784Y-106741544D01*
X173034354Y-106840147D01*
X173159853Y-106965646D01*
X173258456Y-107113216D01*
X173326376Y-107277188D01*
X173361000Y-107451259D01*
X173361000Y-107628741D01*
X173326376Y-107802812D01*
X173258456Y-107966784D01*
X173159853Y-108114354D01*
X173034354Y-108239853D01*
X172886784Y-108338456D01*
X172722812Y-108406376D01*
X172573512Y-108436073D01*
X172548742Y-108441000D01*
X172371258Y-108441000D01*
X172346488Y-108436073D01*
X172197188Y-108406376D01*
X172033216Y-108338456D01*
X171885646Y-108239853D01*
X171760147Y-108114354D01*
X171661544Y-107966784D01*
X171593624Y-107802812D01*
X171559000Y-107628741D01*
X171559000Y-107451259D01*
X171593624Y-107277188D01*
X171661544Y-107113216D01*
X171760147Y-106965646D01*
X171885646Y-106840147D01*
X172033216Y-106741544D01*
X172197188Y-106673624D01*
X172346488Y-106643927D01*
X172371258Y-106639000D01*
X172548742Y-106639000D01*
X172573512Y-106643927D01*
G37*
G36*
X175113512Y-106643927D02*
G01*
X175262812Y-106673624D01*
X175426784Y-106741544D01*
X175574354Y-106840147D01*
X175699853Y-106965646D01*
X175798456Y-107113216D01*
X175866376Y-107277188D01*
X175901000Y-107451259D01*
X175901000Y-107628741D01*
X175866376Y-107802812D01*
X175798456Y-107966784D01*
X175699853Y-108114354D01*
X175574354Y-108239853D01*
X175426784Y-108338456D01*
X175262812Y-108406376D01*
X175113512Y-108436073D01*
X175088742Y-108441000D01*
X174911258Y-108441000D01*
X174886488Y-108436073D01*
X174737188Y-108406376D01*
X174573216Y-108338456D01*
X174425646Y-108239853D01*
X174300147Y-108114354D01*
X174201544Y-107966784D01*
X174133624Y-107802812D01*
X174099000Y-107628741D01*
X174099000Y-107451259D01*
X174133624Y-107277188D01*
X174201544Y-107113216D01*
X174300147Y-106965646D01*
X174425646Y-106840147D01*
X174573216Y-106741544D01*
X174737188Y-106673624D01*
X174886488Y-106643927D01*
X174911258Y-106639000D01*
X175088742Y-106639000D01*
X175113512Y-106643927D01*
G37*
G36*
X175113512Y-104103927D02*
G01*
X175262812Y-104133624D01*
X175426784Y-104201544D01*
X175574354Y-104300147D01*
X175699853Y-104425646D01*
X175798456Y-104573216D01*
X175866376Y-104737188D01*
X175901000Y-104911259D01*
X175901000Y-105088741D01*
X175866376Y-105262812D01*
X175798456Y-105426784D01*
X175699853Y-105574354D01*
X175574354Y-105699853D01*
X175426784Y-105798456D01*
X175262812Y-105866376D01*
X175113512Y-105896073D01*
X175088742Y-105901000D01*
X174911258Y-105901000D01*
X174886488Y-105896073D01*
X174737188Y-105866376D01*
X174573216Y-105798456D01*
X174425646Y-105699853D01*
X174300147Y-105574354D01*
X174201544Y-105426784D01*
X174133624Y-105262812D01*
X174099000Y-105088741D01*
X174099000Y-104911259D01*
X174133624Y-104737188D01*
X174201544Y-104573216D01*
X174300147Y-104425646D01*
X174425646Y-104300147D01*
X174573216Y-104201544D01*
X174737188Y-104133624D01*
X174886488Y-104103927D01*
X174911258Y-104099000D01*
X175088742Y-104099000D01*
X175113512Y-104103927D01*
G37*
G36*
X172573512Y-104103927D02*
G01*
X172722812Y-104133624D01*
X172886784Y-104201544D01*
X173034354Y-104300147D01*
X173159853Y-104425646D01*
X173258456Y-104573216D01*
X173326376Y-104737188D01*
X173361000Y-104911259D01*
X173361000Y-105088741D01*
X173326376Y-105262812D01*
X173258456Y-105426784D01*
X173159853Y-105574354D01*
X173034354Y-105699853D01*
X172886784Y-105798456D01*
X172722812Y-105866376D01*
X172573512Y-105896073D01*
X172548742Y-105901000D01*
X172371258Y-105901000D01*
X172346488Y-105896073D01*
X172197188Y-105866376D01*
X172033216Y-105798456D01*
X171885646Y-105699853D01*
X171760147Y-105574354D01*
X171661544Y-105426784D01*
X171593624Y-105262812D01*
X171559000Y-105088741D01*
X171559000Y-104911259D01*
X171593624Y-104737188D01*
X171661544Y-104573216D01*
X171760147Y-104425646D01*
X171885646Y-104300147D01*
X172033216Y-104201544D01*
X172197188Y-104133624D01*
X172346488Y-104103927D01*
X172371258Y-104099000D01*
X172548742Y-104099000D01*
X172573512Y-104103927D01*
G37*
G36*
X172573512Y-101563927D02*
G01*
X172722812Y-101593624D01*
X172886784Y-101661544D01*
X173034354Y-101760147D01*
X173159853Y-101885646D01*
X173258456Y-102033216D01*
X173326376Y-102197188D01*
X173361000Y-102371259D01*
X173361000Y-102548741D01*
X173326376Y-102722812D01*
X173258456Y-102886784D01*
X173159853Y-103034354D01*
X173034354Y-103159853D01*
X172886784Y-103258456D01*
X172722812Y-103326376D01*
X172573512Y-103356073D01*
X172548742Y-103361000D01*
X172371258Y-103361000D01*
X172346488Y-103356073D01*
X172197188Y-103326376D01*
X172033216Y-103258456D01*
X171885646Y-103159853D01*
X171760147Y-103034354D01*
X171661544Y-102886784D01*
X171593624Y-102722812D01*
X171559000Y-102548741D01*
X171559000Y-102371259D01*
X171593624Y-102197188D01*
X171661544Y-102033216D01*
X171760147Y-101885646D01*
X171885646Y-101760147D01*
X172033216Y-101661544D01*
X172197188Y-101593624D01*
X172346488Y-101563927D01*
X172371258Y-101559000D01*
X172548742Y-101559000D01*
X172573512Y-101563927D01*
G37*
G36*
X175113512Y-101563927D02*
G01*
X175262812Y-101593624D01*
X175426784Y-101661544D01*
X175574354Y-101760147D01*
X175699853Y-101885646D01*
X175798456Y-102033216D01*
X175866376Y-102197188D01*
X175901000Y-102371259D01*
X175901000Y-102548741D01*
X175866376Y-102722812D01*
X175798456Y-102886784D01*
X175699853Y-103034354D01*
X175574354Y-103159853D01*
X175426784Y-103258456D01*
X175262812Y-103326376D01*
X175113512Y-103356073D01*
X175088742Y-103361000D01*
X174911258Y-103361000D01*
X174886488Y-103356073D01*
X174737188Y-103326376D01*
X174573216Y-103258456D01*
X174425646Y-103159853D01*
X174300147Y-103034354D01*
X174201544Y-102886784D01*
X174133624Y-102722812D01*
X174099000Y-102548741D01*
X174099000Y-102371259D01*
X174133624Y-102197188D01*
X174201544Y-102033216D01*
X174300147Y-101885646D01*
X174425646Y-101760147D01*
X174573216Y-101661544D01*
X174737188Y-101593624D01*
X174886488Y-101563927D01*
X174911258Y-101559000D01*
X175088742Y-101559000D01*
X175113512Y-101563927D01*
G37*
G36*
X172573512Y-99023927D02*
G01*
X172722812Y-99053624D01*
X172886784Y-99121544D01*
X173034354Y-99220147D01*
X173159853Y-99345646D01*
X173258456Y-99493216D01*
X173326376Y-99657188D01*
X173361000Y-99831259D01*
X173361000Y-100008741D01*
X173326376Y-100182812D01*
X173258456Y-100346784D01*
X173159853Y-100494354D01*
X173034354Y-100619853D01*
X172886784Y-100718456D01*
X172722812Y-100786376D01*
X172573512Y-100816073D01*
X172548742Y-100821000D01*
X172371258Y-100821000D01*
X172346488Y-100816073D01*
X172197188Y-100786376D01*
X172033216Y-100718456D01*
X171885646Y-100619853D01*
X171760147Y-100494354D01*
X171661544Y-100346784D01*
X171593624Y-100182812D01*
X171559000Y-100008741D01*
X171559000Y-99831259D01*
X171593624Y-99657188D01*
X171661544Y-99493216D01*
X171760147Y-99345646D01*
X171885646Y-99220147D01*
X172033216Y-99121544D01*
X172197188Y-99053624D01*
X172346488Y-99023927D01*
X172371258Y-99019000D01*
X172548742Y-99019000D01*
X172573512Y-99023927D01*
G37*
G36*
X175113512Y-99023927D02*
G01*
X175262812Y-99053624D01*
X175426784Y-99121544D01*
X175574354Y-99220147D01*
X175699853Y-99345646D01*
X175798456Y-99493216D01*
X175866376Y-99657188D01*
X175901000Y-99831259D01*
X175901000Y-100008741D01*
X175866376Y-100182812D01*
X175798456Y-100346784D01*
X175699853Y-100494354D01*
X175574354Y-100619853D01*
X175426784Y-100718456D01*
X175262812Y-100786376D01*
X175113512Y-100816073D01*
X175088742Y-100821000D01*
X174911258Y-100821000D01*
X174886488Y-100816073D01*
X174737188Y-100786376D01*
X174573216Y-100718456D01*
X174425646Y-100619853D01*
X174300147Y-100494354D01*
X174201544Y-100346784D01*
X174133624Y-100182812D01*
X174099000Y-100008741D01*
X174099000Y-99831259D01*
X174133624Y-99657188D01*
X174201544Y-99493216D01*
X174300147Y-99345646D01*
X174425646Y-99220147D01*
X174573216Y-99121544D01*
X174737188Y-99053624D01*
X174886488Y-99023927D01*
X174911258Y-99019000D01*
X175088742Y-99019000D01*
X175113512Y-99023927D01*
G37*
G36*
X167834795Y-97160156D02*
G01*
X167941150Y-97181311D01*
X168141520Y-97264307D01*
X168321844Y-97384795D01*
X168475205Y-97538156D01*
X168595693Y-97718480D01*
X168678689Y-97918851D01*
X168721000Y-98131560D01*
X168721000Y-98348440D01*
X168678689Y-98561149D01*
X168595693Y-98761520D01*
X168475205Y-98941844D01*
X168321844Y-99095205D01*
X168141520Y-99215693D01*
X167941150Y-99298689D01*
X167834795Y-99319844D01*
X167728440Y-99341000D01*
X167511560Y-99341000D01*
X167405206Y-99319845D01*
X167298850Y-99298689D01*
X167098480Y-99215693D01*
X166918156Y-99095205D01*
X166764795Y-98941844D01*
X166644307Y-98761520D01*
X166561311Y-98561149D01*
X166519000Y-98348440D01*
X166519000Y-98131560D01*
X166561311Y-97918851D01*
X166644307Y-97718480D01*
X166764795Y-97538156D01*
X166918156Y-97384795D01*
X167098480Y-97264307D01*
X167298850Y-97181311D01*
X167405206Y-97160155D01*
X167511560Y-97139000D01*
X167728440Y-97139000D01*
X167834795Y-97160156D01*
G37*
G36*
X175113512Y-96483927D02*
G01*
X175262812Y-96513624D01*
X175426784Y-96581544D01*
X175574354Y-96680147D01*
X175699853Y-96805646D01*
X175798456Y-96953216D01*
X175866376Y-97117188D01*
X175901000Y-97291259D01*
X175901000Y-97468741D01*
X175866376Y-97642812D01*
X175798456Y-97806784D01*
X175699853Y-97954354D01*
X175574354Y-98079853D01*
X175426784Y-98178456D01*
X175262812Y-98246376D01*
X175113512Y-98276073D01*
X175088742Y-98281000D01*
X174911258Y-98281000D01*
X174886488Y-98276073D01*
X174737188Y-98246376D01*
X174573216Y-98178456D01*
X174425646Y-98079853D01*
X174300147Y-97954354D01*
X174201544Y-97806784D01*
X174133624Y-97642812D01*
X174099000Y-97468741D01*
X174099000Y-97291259D01*
X174133624Y-97117188D01*
X174201544Y-96953216D01*
X174300147Y-96805646D01*
X174425646Y-96680147D01*
X174573216Y-96581544D01*
X174737188Y-96513624D01*
X174886488Y-96483927D01*
X174911258Y-96479000D01*
X175088742Y-96479000D01*
X175113512Y-96483927D01*
G37*
G36*
X172573512Y-96483927D02*
G01*
X172722812Y-96513624D01*
X172886784Y-96581544D01*
X173034354Y-96680147D01*
X173159853Y-96805646D01*
X173258456Y-96953216D01*
X173326376Y-97117188D01*
X173361000Y-97291259D01*
X173361000Y-97468741D01*
X173326376Y-97642812D01*
X173258456Y-97806784D01*
X173159853Y-97954354D01*
X173034354Y-98079853D01*
X172886784Y-98178456D01*
X172722812Y-98246376D01*
X172573512Y-98276073D01*
X172548742Y-98281000D01*
X172371258Y-98281000D01*
X172346488Y-98276073D01*
X172197188Y-98246376D01*
X172033216Y-98178456D01*
X171885646Y-98079853D01*
X171760147Y-97954354D01*
X171661544Y-97806784D01*
X171593624Y-97642812D01*
X171559000Y-97468741D01*
X171559000Y-97291259D01*
X171593624Y-97117188D01*
X171661544Y-96953216D01*
X171760147Y-96805646D01*
X171885646Y-96680147D01*
X172033216Y-96581544D01*
X172197188Y-96513624D01*
X172346488Y-96483927D01*
X172371258Y-96479000D01*
X172548742Y-96479000D01*
X172573512Y-96483927D01*
G37*
G36*
X167801959Y-93973624D02*
G01*
X167941150Y-94001311D01*
X168038281Y-94041544D01*
X168141520Y-94084307D01*
X168321844Y-94204795D01*
X168475205Y-94358156D01*
X168595693Y-94538480D01*
X168678689Y-94738851D01*
X168721000Y-94951560D01*
X168721000Y-95168440D01*
X168678689Y-95381149D01*
X168595693Y-95581520D01*
X168475205Y-95761844D01*
X168321844Y-95915205D01*
X168141520Y-96035693D01*
X167941150Y-96118689D01*
X167834795Y-96139844D01*
X167728440Y-96161000D01*
X167511560Y-96161000D01*
X167405205Y-96139844D01*
X167298850Y-96118689D01*
X167198666Y-96077191D01*
X167098480Y-96035693D01*
X166918156Y-95915205D01*
X166764795Y-95761844D01*
X166644307Y-95581520D01*
X166561311Y-95381149D01*
X166519000Y-95168440D01*
X166519000Y-94951560D01*
X166561311Y-94738851D01*
X166644307Y-94538480D01*
X166764795Y-94358156D01*
X166918156Y-94204795D01*
X167098480Y-94084307D01*
X167201719Y-94041544D01*
X167298850Y-94001311D01*
X167438041Y-93973624D01*
X167511560Y-93959000D01*
X167728440Y-93959000D01*
X167801959Y-93973624D01*
G37*
G36*
X175113512Y-93943927D02*
G01*
X175262812Y-93973624D01*
X175426784Y-94041544D01*
X175574354Y-94140147D01*
X175699853Y-94265646D01*
X175798456Y-94413216D01*
X175866376Y-94577188D01*
X175901000Y-94751259D01*
X175901000Y-94928741D01*
X175866376Y-95102812D01*
X175798456Y-95266784D01*
X175699853Y-95414354D01*
X175574354Y-95539853D01*
X175426784Y-95638456D01*
X175262812Y-95706376D01*
X175113512Y-95736073D01*
X175088742Y-95741000D01*
X174911258Y-95741000D01*
X174886488Y-95736073D01*
X174737188Y-95706376D01*
X174573216Y-95638456D01*
X174425646Y-95539853D01*
X174300147Y-95414354D01*
X174201544Y-95266784D01*
X174133624Y-95102812D01*
X174099000Y-94928741D01*
X174099000Y-94751259D01*
X174133624Y-94577188D01*
X174201544Y-94413216D01*
X174300147Y-94265646D01*
X174425646Y-94140147D01*
X174573216Y-94041544D01*
X174737188Y-93973624D01*
X174886488Y-93943927D01*
X174911258Y-93939000D01*
X175088742Y-93939000D01*
X175113512Y-93943927D01*
G37*
G36*
X172573512Y-93943927D02*
G01*
X172722812Y-93973624D01*
X172886784Y-94041544D01*
X173034354Y-94140147D01*
X173159853Y-94265646D01*
X173258456Y-94413216D01*
X173326376Y-94577188D01*
X173361000Y-94751259D01*
X173361000Y-94928741D01*
X173326376Y-95102812D01*
X173258456Y-95266784D01*
X173159853Y-95414354D01*
X173034354Y-95539853D01*
X172886784Y-95638456D01*
X172722812Y-95706376D01*
X172573512Y-95736073D01*
X172548742Y-95741000D01*
X172371258Y-95741000D01*
X172346488Y-95736073D01*
X172197188Y-95706376D01*
X172033216Y-95638456D01*
X171885646Y-95539853D01*
X171760147Y-95414354D01*
X171661544Y-95266784D01*
X171593624Y-95102812D01*
X171559000Y-94928741D01*
X171559000Y-94751259D01*
X171593624Y-94577188D01*
X171661544Y-94413216D01*
X171760147Y-94265646D01*
X171885646Y-94140147D01*
X172033216Y-94041544D01*
X172197188Y-93973624D01*
X172346488Y-93943927D01*
X172371258Y-93939000D01*
X172548742Y-93939000D01*
X172573512Y-93943927D01*
G37*
G36*
X172573512Y-91403927D02*
G01*
X172722812Y-91433624D01*
X172886784Y-91501544D01*
X173034354Y-91600147D01*
X173159853Y-91725646D01*
X173258456Y-91873216D01*
X173326376Y-92037188D01*
X173361000Y-92211259D01*
X173361000Y-92388741D01*
X173326376Y-92562812D01*
X173258456Y-92726784D01*
X173159853Y-92874354D01*
X173034354Y-92999853D01*
X172886784Y-93098456D01*
X172722812Y-93166376D01*
X172573512Y-93196073D01*
X172548742Y-93201000D01*
X172371258Y-93201000D01*
X172346488Y-93196073D01*
X172197188Y-93166376D01*
X172033216Y-93098456D01*
X171885646Y-92999853D01*
X171760147Y-92874354D01*
X171661544Y-92726784D01*
X171593624Y-92562812D01*
X171559000Y-92388741D01*
X171559000Y-92211259D01*
X171593624Y-92037188D01*
X171661544Y-91873216D01*
X171760147Y-91725646D01*
X171885646Y-91600147D01*
X172033216Y-91501544D01*
X172197188Y-91433624D01*
X172346488Y-91403927D01*
X172371258Y-91399000D01*
X172548742Y-91399000D01*
X172573512Y-91403927D01*
G37*
G36*
X175113512Y-91403927D02*
G01*
X175262812Y-91433624D01*
X175426784Y-91501544D01*
X175574354Y-91600147D01*
X175699853Y-91725646D01*
X175798456Y-91873216D01*
X175866376Y-92037188D01*
X175901000Y-92211259D01*
X175901000Y-92388741D01*
X175866376Y-92562812D01*
X175798456Y-92726784D01*
X175699853Y-92874354D01*
X175574354Y-92999853D01*
X175426784Y-93098456D01*
X175262812Y-93166376D01*
X175113512Y-93196073D01*
X175088742Y-93201000D01*
X174911258Y-93201000D01*
X174886488Y-93196073D01*
X174737188Y-93166376D01*
X174573216Y-93098456D01*
X174425646Y-92999853D01*
X174300147Y-92874354D01*
X174201544Y-92726784D01*
X174133624Y-92562812D01*
X174099000Y-92388741D01*
X174099000Y-92211259D01*
X174133624Y-92037188D01*
X174201544Y-91873216D01*
X174300147Y-91725646D01*
X174425646Y-91600147D01*
X174573216Y-91501544D01*
X174737188Y-91433624D01*
X174886488Y-91403927D01*
X174911258Y-91399000D01*
X175088742Y-91399000D01*
X175113512Y-91403927D01*
G37*
G36*
X167844795Y-90800156D02*
G01*
X167951150Y-90821311D01*
X168151520Y-90904307D01*
X168331844Y-91024795D01*
X168485205Y-91178156D01*
X168605693Y-91358480D01*
X168636819Y-91433625D01*
X168688689Y-91558850D01*
X168731000Y-91771561D01*
X168731000Y-91988439D01*
X168688689Y-92201150D01*
X168605693Y-92401520D01*
X168485205Y-92581844D01*
X168331844Y-92735205D01*
X168151520Y-92855693D01*
X168106468Y-92874354D01*
X167951150Y-92938689D01*
X167844795Y-92959844D01*
X167738440Y-92981000D01*
X167521560Y-92981000D01*
X167415205Y-92959844D01*
X167308850Y-92938689D01*
X167153532Y-92874354D01*
X167108480Y-92855693D01*
X166928156Y-92735205D01*
X166774795Y-92581844D01*
X166654307Y-92401520D01*
X166571311Y-92201150D01*
X166529000Y-91988439D01*
X166529000Y-91771561D01*
X166571311Y-91558850D01*
X166623181Y-91433625D01*
X166654307Y-91358480D01*
X166774795Y-91178156D01*
X166928156Y-91024795D01*
X167108480Y-90904307D01*
X167208666Y-90862809D01*
X167308850Y-90821311D01*
X167415206Y-90800155D01*
X167521560Y-90779000D01*
X167738440Y-90779000D01*
X167844795Y-90800156D01*
G37*
G36*
X172573512Y-88863927D02*
G01*
X172722812Y-88893624D01*
X172886784Y-88961544D01*
X173034354Y-89060147D01*
X173159853Y-89185646D01*
X173258456Y-89333216D01*
X173326376Y-89497188D01*
X173361000Y-89671259D01*
X173361000Y-89848741D01*
X173326376Y-90022812D01*
X173258456Y-90186784D01*
X173159853Y-90334354D01*
X173034354Y-90459853D01*
X172886784Y-90558456D01*
X172722812Y-90626376D01*
X172573512Y-90656073D01*
X172548742Y-90661000D01*
X172371258Y-90661000D01*
X172346488Y-90656073D01*
X172197188Y-90626376D01*
X172033216Y-90558456D01*
X171885646Y-90459853D01*
X171760147Y-90334354D01*
X171661544Y-90186784D01*
X171593624Y-90022812D01*
X171559000Y-89848741D01*
X171559000Y-89671259D01*
X171593624Y-89497188D01*
X171661544Y-89333216D01*
X171760147Y-89185646D01*
X171885646Y-89060147D01*
X172033216Y-88961544D01*
X172197188Y-88893624D01*
X172346488Y-88863927D01*
X172371258Y-88859000D01*
X172548742Y-88859000D01*
X172573512Y-88863927D01*
G37*
G36*
X175113512Y-88863927D02*
G01*
X175262812Y-88893624D01*
X175426784Y-88961544D01*
X175574354Y-89060147D01*
X175699853Y-89185646D01*
X175798456Y-89333216D01*
X175866376Y-89497188D01*
X175901000Y-89671259D01*
X175901000Y-89848741D01*
X175866376Y-90022812D01*
X175798456Y-90186784D01*
X175699853Y-90334354D01*
X175574354Y-90459853D01*
X175426784Y-90558456D01*
X175262812Y-90626376D01*
X175113512Y-90656073D01*
X175088742Y-90661000D01*
X174911258Y-90661000D01*
X174886488Y-90656073D01*
X174737188Y-90626376D01*
X174573216Y-90558456D01*
X174425646Y-90459853D01*
X174300147Y-90334354D01*
X174201544Y-90186784D01*
X174133624Y-90022812D01*
X174099000Y-89848741D01*
X174099000Y-89671259D01*
X174133624Y-89497188D01*
X174201544Y-89333216D01*
X174300147Y-89185646D01*
X174425646Y-89060147D01*
X174573216Y-88961544D01*
X174737188Y-88893624D01*
X174886488Y-88863927D01*
X174911258Y-88859000D01*
X175088742Y-88859000D01*
X175113512Y-88863927D01*
G37*
G36*
X175113512Y-86323927D02*
G01*
X175262812Y-86353624D01*
X175426784Y-86421544D01*
X175574354Y-86520147D01*
X175699853Y-86645646D01*
X175798456Y-86793216D01*
X175866376Y-86957188D01*
X175901000Y-87131259D01*
X175901000Y-87308741D01*
X175866376Y-87482812D01*
X175798456Y-87646784D01*
X175699853Y-87794354D01*
X175574354Y-87919853D01*
X175426784Y-88018456D01*
X175262812Y-88086376D01*
X175113512Y-88116073D01*
X175088742Y-88121000D01*
X174911258Y-88121000D01*
X174886488Y-88116073D01*
X174737188Y-88086376D01*
X174573216Y-88018456D01*
X174425646Y-87919853D01*
X174300147Y-87794354D01*
X174201544Y-87646784D01*
X174133624Y-87482812D01*
X174099000Y-87308741D01*
X174099000Y-87131259D01*
X174133624Y-86957188D01*
X174201544Y-86793216D01*
X174300147Y-86645646D01*
X174425646Y-86520147D01*
X174573216Y-86421544D01*
X174737188Y-86353624D01*
X174886488Y-86323927D01*
X174911258Y-86319000D01*
X175088742Y-86319000D01*
X175113512Y-86323927D01*
G37*
G36*
X172573512Y-86323927D02*
G01*
X172722812Y-86353624D01*
X172886784Y-86421544D01*
X173034354Y-86520147D01*
X173159853Y-86645646D01*
X173258456Y-86793216D01*
X173326376Y-86957188D01*
X173361000Y-87131259D01*
X173361000Y-87308741D01*
X173326376Y-87482812D01*
X173258456Y-87646784D01*
X173159853Y-87794354D01*
X173034354Y-87919853D01*
X172886784Y-88018456D01*
X172722812Y-88086376D01*
X172573512Y-88116073D01*
X172548742Y-88121000D01*
X172371258Y-88121000D01*
X172346488Y-88116073D01*
X172197188Y-88086376D01*
X172033216Y-88018456D01*
X171885646Y-87919853D01*
X171760147Y-87794354D01*
X171661544Y-87646784D01*
X171593624Y-87482812D01*
X171559000Y-87308741D01*
X171559000Y-87131259D01*
X171593624Y-86957188D01*
X171661544Y-86793216D01*
X171760147Y-86645646D01*
X171885646Y-86520147D01*
X172033216Y-86421544D01*
X172197188Y-86353624D01*
X172346488Y-86323927D01*
X172371258Y-86319000D01*
X172548742Y-86319000D01*
X172573512Y-86323927D01*
G37*
G36*
X175113512Y-83783927D02*
G01*
X175262812Y-83813624D01*
X175426784Y-83881544D01*
X175574354Y-83980147D01*
X175699853Y-84105646D01*
X175798456Y-84253216D01*
X175866376Y-84417188D01*
X175901000Y-84591259D01*
X175901000Y-84768741D01*
X175866376Y-84942812D01*
X175798456Y-85106784D01*
X175699853Y-85254354D01*
X175574354Y-85379853D01*
X175426784Y-85478456D01*
X175262812Y-85546376D01*
X175113512Y-85576073D01*
X175088742Y-85581000D01*
X174911258Y-85581000D01*
X174886488Y-85576073D01*
X174737188Y-85546376D01*
X174573216Y-85478456D01*
X174425646Y-85379853D01*
X174300147Y-85254354D01*
X174201544Y-85106784D01*
X174133624Y-84942812D01*
X174099000Y-84768741D01*
X174099000Y-84591259D01*
X174133624Y-84417188D01*
X174201544Y-84253216D01*
X174300147Y-84105646D01*
X174425646Y-83980147D01*
X174573216Y-83881544D01*
X174737188Y-83813624D01*
X174886488Y-83783927D01*
X174911258Y-83779000D01*
X175088742Y-83779000D01*
X175113512Y-83783927D01*
G37*
G36*
X172573512Y-83783927D02*
G01*
X172722812Y-83813624D01*
X172886784Y-83881544D01*
X173034354Y-83980147D01*
X173159853Y-84105646D01*
X173258456Y-84253216D01*
X173326376Y-84417188D01*
X173361000Y-84591259D01*
X173361000Y-84768741D01*
X173326376Y-84942812D01*
X173258456Y-85106784D01*
X173159853Y-85254354D01*
X173034354Y-85379853D01*
X172886784Y-85478456D01*
X172722812Y-85546376D01*
X172573512Y-85576073D01*
X172548742Y-85581000D01*
X172371258Y-85581000D01*
X172346488Y-85576073D01*
X172197188Y-85546376D01*
X172033216Y-85478456D01*
X171885646Y-85379853D01*
X171760147Y-85254354D01*
X171661544Y-85106784D01*
X171593624Y-84942812D01*
X171559000Y-84768741D01*
X171559000Y-84591259D01*
X171593624Y-84417188D01*
X171661544Y-84253216D01*
X171760147Y-84105646D01*
X171885646Y-83980147D01*
X172033216Y-83881544D01*
X172197188Y-83813624D01*
X172346488Y-83783927D01*
X172371258Y-83779000D01*
X172548742Y-83779000D01*
X172573512Y-83783927D01*
G37*
G36*
X175113512Y-81243927D02*
G01*
X175262812Y-81273624D01*
X175426784Y-81341544D01*
X175574354Y-81440147D01*
X175699853Y-81565646D01*
X175798456Y-81713216D01*
X175866376Y-81877188D01*
X175901000Y-82051259D01*
X175901000Y-82228741D01*
X175866376Y-82402812D01*
X175798456Y-82566784D01*
X175699853Y-82714354D01*
X175574354Y-82839853D01*
X175426784Y-82938456D01*
X175262812Y-83006376D01*
X175113512Y-83036073D01*
X175088742Y-83041000D01*
X174911258Y-83041000D01*
X174886488Y-83036073D01*
X174737188Y-83006376D01*
X174573216Y-82938456D01*
X174425646Y-82839853D01*
X174300147Y-82714354D01*
X174201544Y-82566784D01*
X174133624Y-82402812D01*
X174099000Y-82228741D01*
X174099000Y-82051259D01*
X174133624Y-81877188D01*
X174201544Y-81713216D01*
X174300147Y-81565646D01*
X174425646Y-81440147D01*
X174573216Y-81341544D01*
X174737188Y-81273624D01*
X174886488Y-81243927D01*
X174911258Y-81239000D01*
X175088742Y-81239000D01*
X175113512Y-81243927D01*
G37*
G36*
X172573512Y-81243927D02*
G01*
X172722812Y-81273624D01*
X172886784Y-81341544D01*
X173034354Y-81440147D01*
X173159853Y-81565646D01*
X173258456Y-81713216D01*
X173326376Y-81877188D01*
X173361000Y-82051259D01*
X173361000Y-82228741D01*
X173326376Y-82402812D01*
X173258456Y-82566784D01*
X173159853Y-82714354D01*
X173034354Y-82839853D01*
X172886784Y-82938456D01*
X172722812Y-83006376D01*
X172573512Y-83036073D01*
X172548742Y-83041000D01*
X172371258Y-83041000D01*
X172346488Y-83036073D01*
X172197188Y-83006376D01*
X172033216Y-82938456D01*
X171885646Y-82839853D01*
X171760147Y-82714354D01*
X171661544Y-82566784D01*
X171593624Y-82402812D01*
X171559000Y-82228741D01*
X171559000Y-82051259D01*
X171593624Y-81877188D01*
X171661544Y-81713216D01*
X171760147Y-81565646D01*
X171885646Y-81440147D01*
X172033216Y-81341544D01*
X172197188Y-81273624D01*
X172346488Y-81243927D01*
X172371258Y-81239000D01*
X172548742Y-81239000D01*
X172573512Y-81243927D01*
G37*
G36*
X172573512Y-78703927D02*
G01*
X172722812Y-78733624D01*
X172886784Y-78801544D01*
X173034354Y-78900147D01*
X173159853Y-79025646D01*
X173258456Y-79173216D01*
X173326376Y-79337188D01*
X173361000Y-79511259D01*
X173361000Y-79688741D01*
X173326376Y-79862812D01*
X173258456Y-80026784D01*
X173159853Y-80174354D01*
X173034354Y-80299853D01*
X172886784Y-80398456D01*
X172722812Y-80466376D01*
X172573512Y-80496073D01*
X172548742Y-80501000D01*
X172371258Y-80501000D01*
X172346488Y-80496073D01*
X172197188Y-80466376D01*
X172033216Y-80398456D01*
X171885646Y-80299853D01*
X171760147Y-80174354D01*
X171661544Y-80026784D01*
X171593624Y-79862812D01*
X171559000Y-79688741D01*
X171559000Y-79511259D01*
X171593624Y-79337188D01*
X171661544Y-79173216D01*
X171760147Y-79025646D01*
X171885646Y-78900147D01*
X172033216Y-78801544D01*
X172197188Y-78733624D01*
X172346488Y-78703927D01*
X172371258Y-78699000D01*
X172548742Y-78699000D01*
X172573512Y-78703927D01*
G37*
G36*
X175113512Y-78703927D02*
G01*
X175262812Y-78733624D01*
X175426784Y-78801544D01*
X175574354Y-78900147D01*
X175699853Y-79025646D01*
X175798456Y-79173216D01*
X175866376Y-79337188D01*
X175901000Y-79511259D01*
X175901000Y-79688741D01*
X175866376Y-79862812D01*
X175798456Y-80026784D01*
X175699853Y-80174354D01*
X175574354Y-80299853D01*
X175426784Y-80398456D01*
X175262812Y-80466376D01*
X175113512Y-80496073D01*
X175088742Y-80501000D01*
X174911258Y-80501000D01*
X174886488Y-80496073D01*
X174737188Y-80466376D01*
X174573216Y-80398456D01*
X174425646Y-80299853D01*
X174300147Y-80174354D01*
X174201544Y-80026784D01*
X174133624Y-79862812D01*
X174099000Y-79688741D01*
X174099000Y-79511259D01*
X174133624Y-79337188D01*
X174201544Y-79173216D01*
X174300147Y-79025646D01*
X174425646Y-78900147D01*
X174573216Y-78801544D01*
X174737188Y-78733624D01*
X174886488Y-78703927D01*
X174911258Y-78699000D01*
X175088742Y-78699000D01*
X175113512Y-78703927D01*
G37*
G36*
X172573512Y-76163927D02*
G01*
X172722812Y-76193624D01*
X172886784Y-76261544D01*
X173034354Y-76360147D01*
X173159853Y-76485646D01*
X173258456Y-76633216D01*
X173326376Y-76797188D01*
X173361000Y-76971259D01*
X173361000Y-77148741D01*
X173326376Y-77322812D01*
X173258456Y-77486784D01*
X173159853Y-77634354D01*
X173034354Y-77759853D01*
X172886784Y-77858456D01*
X172722812Y-77926376D01*
X172573512Y-77956073D01*
X172548742Y-77961000D01*
X172371258Y-77961000D01*
X172346488Y-77956073D01*
X172197188Y-77926376D01*
X172033216Y-77858456D01*
X171885646Y-77759853D01*
X171760147Y-77634354D01*
X171661544Y-77486784D01*
X171593624Y-77322812D01*
X171559000Y-77148741D01*
X171559000Y-76971259D01*
X171593624Y-76797188D01*
X171661544Y-76633216D01*
X171760147Y-76485646D01*
X171885646Y-76360147D01*
X172033216Y-76261544D01*
X172197188Y-76193624D01*
X172346488Y-76163927D01*
X172371258Y-76159000D01*
X172548742Y-76159000D01*
X172573512Y-76163927D01*
G37*
G36*
X175113512Y-76163927D02*
G01*
X175262812Y-76193624D01*
X175426784Y-76261544D01*
X175574354Y-76360147D01*
X175699853Y-76485646D01*
X175798456Y-76633216D01*
X175866376Y-76797188D01*
X175901000Y-76971259D01*
X175901000Y-77148741D01*
X175866376Y-77322812D01*
X175798456Y-77486784D01*
X175699853Y-77634354D01*
X175574354Y-77759853D01*
X175426784Y-77858456D01*
X175262812Y-77926376D01*
X175113512Y-77956073D01*
X175088742Y-77961000D01*
X174911258Y-77961000D01*
X174886488Y-77956073D01*
X174737188Y-77926376D01*
X174573216Y-77858456D01*
X174425646Y-77759853D01*
X174300147Y-77634354D01*
X174201544Y-77486784D01*
X174133624Y-77322812D01*
X174099000Y-77148741D01*
X174099000Y-76971259D01*
X174133624Y-76797188D01*
X174201544Y-76633216D01*
X174300147Y-76485646D01*
X174425646Y-76360147D01*
X174573216Y-76261544D01*
X174737188Y-76193624D01*
X174886488Y-76163927D01*
X174911258Y-76159000D01*
X175088742Y-76159000D01*
X175113512Y-76163927D01*
G37*
G36*
X167834794Y-74920155D02*
G01*
X167941150Y-74941311D01*
X168141520Y-75024307D01*
X168321844Y-75144795D01*
X168475205Y-75298156D01*
X168595693Y-75478480D01*
X168595693Y-75478481D01*
X168670405Y-75658850D01*
X168678689Y-75678851D01*
X168721000Y-75891560D01*
X168721000Y-76108440D01*
X168678689Y-76321149D01*
X168595693Y-76521520D01*
X168475205Y-76701844D01*
X168321844Y-76855205D01*
X168141520Y-76975693D01*
X168041334Y-77017191D01*
X167941150Y-77058689D01*
X167834794Y-77079845D01*
X167728440Y-77101000D01*
X167511560Y-77101000D01*
X167405205Y-77079844D01*
X167298850Y-77058689D01*
X167198666Y-77017191D01*
X167098480Y-76975693D01*
X166918156Y-76855205D01*
X166764795Y-76701844D01*
X166644307Y-76521520D01*
X166561311Y-76321149D01*
X166519000Y-76108440D01*
X166519000Y-75891560D01*
X166561311Y-75678851D01*
X166569596Y-75658850D01*
X166644307Y-75478481D01*
X166644307Y-75478480D01*
X166764795Y-75298156D01*
X166918156Y-75144795D01*
X167098480Y-75024307D01*
X167298850Y-74941311D01*
X167405205Y-74920156D01*
X167511560Y-74899000D01*
X167728440Y-74899000D01*
X167834794Y-74920155D01*
G37*
G36*
X148768985Y-74899000D02*
G01*
X148881150Y-74921311D01*
X148942642Y-74946782D01*
X149081520Y-75004307D01*
X149261844Y-75124795D01*
X149415205Y-75278156D01*
X149535693Y-75458480D01*
X149618689Y-75658851D01*
X149661000Y-75871560D01*
X149661000Y-76088440D01*
X149640077Y-76193624D01*
X149618689Y-76301150D01*
X149594251Y-76360148D01*
X149535693Y-76501520D01*
X149415205Y-76681844D01*
X149261844Y-76835205D01*
X149081520Y-76955693D01*
X148981334Y-76997191D01*
X148881150Y-77038689D01*
X148780604Y-77058689D01*
X148668440Y-77081000D01*
X148451560Y-77081000D01*
X148339396Y-77058689D01*
X148238850Y-77038689D01*
X148138666Y-76997191D01*
X148038480Y-76955693D01*
X147858156Y-76835205D01*
X147704795Y-76681844D01*
X147584307Y-76501520D01*
X147525749Y-76360148D01*
X147501311Y-76301150D01*
X147479923Y-76193624D01*
X147459000Y-76088440D01*
X147459000Y-75871560D01*
X147501311Y-75658851D01*
X147584307Y-75458480D01*
X147704795Y-75278156D01*
X147858156Y-75124795D01*
X148038480Y-75004307D01*
X148177358Y-74946782D01*
X148238850Y-74921311D01*
X148351015Y-74899000D01*
X148451560Y-74879000D01*
X148668440Y-74879000D01*
X148768985Y-74899000D01*
G37*
G36*
X172573512Y-73623927D02*
G01*
X172722812Y-73653624D01*
X172886784Y-73721544D01*
X173034354Y-73820147D01*
X173159853Y-73945646D01*
X173258456Y-74093216D01*
X173326376Y-74257188D01*
X173361000Y-74431259D01*
X173361000Y-74608741D01*
X173326376Y-74782812D01*
X173258456Y-74946784D01*
X173159853Y-75094354D01*
X173034354Y-75219853D01*
X172886784Y-75318456D01*
X172722812Y-75386376D01*
X172573512Y-75416073D01*
X172548742Y-75421000D01*
X172371258Y-75421000D01*
X172346488Y-75416073D01*
X172197188Y-75386376D01*
X172033216Y-75318456D01*
X171885646Y-75219853D01*
X171760147Y-75094354D01*
X171661544Y-74946784D01*
X171593624Y-74782812D01*
X171559000Y-74608741D01*
X171559000Y-74431259D01*
X171593624Y-74257188D01*
X171661544Y-74093216D01*
X171760147Y-73945646D01*
X171885646Y-73820147D01*
X172033216Y-73721544D01*
X172197188Y-73653624D01*
X172346488Y-73623927D01*
X172371258Y-73619000D01*
X172548742Y-73619000D01*
X172573512Y-73623927D01*
G37*
G36*
X175113512Y-73623927D02*
G01*
X175262812Y-73653624D01*
X175426784Y-73721544D01*
X175574354Y-73820147D01*
X175699853Y-73945646D01*
X175798456Y-74093216D01*
X175866376Y-74257188D01*
X175901000Y-74431259D01*
X175901000Y-74608741D01*
X175866376Y-74782812D01*
X175798456Y-74946784D01*
X175699853Y-75094354D01*
X175574354Y-75219853D01*
X175426784Y-75318456D01*
X175262812Y-75386376D01*
X175113512Y-75416073D01*
X175088742Y-75421000D01*
X174911258Y-75421000D01*
X174886488Y-75416073D01*
X174737188Y-75386376D01*
X174573216Y-75318456D01*
X174425646Y-75219853D01*
X174300147Y-75094354D01*
X174201544Y-74946784D01*
X174133624Y-74782812D01*
X174099000Y-74608741D01*
X174099000Y-74431259D01*
X174133624Y-74257188D01*
X174201544Y-74093216D01*
X174300147Y-73945646D01*
X174425646Y-73820147D01*
X174573216Y-73721544D01*
X174737188Y-73653624D01*
X174886488Y-73623927D01*
X174911258Y-73619000D01*
X175088742Y-73619000D01*
X175113512Y-73623927D01*
G37*
G36*
X172573512Y-71083927D02*
G01*
X172722812Y-71113624D01*
X172886784Y-71181544D01*
X173034354Y-71280147D01*
X173159853Y-71405646D01*
X173258456Y-71553216D01*
X173326376Y-71717188D01*
X173361000Y-71891259D01*
X173361000Y-72068741D01*
X173326376Y-72242812D01*
X173258456Y-72406784D01*
X173159853Y-72554354D01*
X173034354Y-72679853D01*
X172886784Y-72778456D01*
X172722812Y-72846376D01*
X172573512Y-72876073D01*
X172548742Y-72881000D01*
X172371258Y-72881000D01*
X172346488Y-72876073D01*
X172197188Y-72846376D01*
X172033216Y-72778456D01*
X171885646Y-72679853D01*
X171760147Y-72554354D01*
X171661544Y-72406784D01*
X171593624Y-72242812D01*
X171559000Y-72068741D01*
X171559000Y-71891259D01*
X171593624Y-71717188D01*
X171661544Y-71553216D01*
X171760147Y-71405646D01*
X171885646Y-71280147D01*
X172033216Y-71181544D01*
X172197188Y-71113624D01*
X172346488Y-71083927D01*
X172371258Y-71079000D01*
X172548742Y-71079000D01*
X172573512Y-71083927D01*
G37*
G36*
X175113512Y-71083927D02*
G01*
X175262812Y-71113624D01*
X175426784Y-71181544D01*
X175574354Y-71280147D01*
X175699853Y-71405646D01*
X175798456Y-71553216D01*
X175866376Y-71717188D01*
X175901000Y-71891259D01*
X175901000Y-72068741D01*
X175866376Y-72242812D01*
X175798456Y-72406784D01*
X175699853Y-72554354D01*
X175574354Y-72679853D01*
X175426784Y-72778456D01*
X175262812Y-72846376D01*
X175113512Y-72876073D01*
X175088742Y-72881000D01*
X174911258Y-72881000D01*
X174886488Y-72876073D01*
X174737188Y-72846376D01*
X174573216Y-72778456D01*
X174425646Y-72679853D01*
X174300147Y-72554354D01*
X174201544Y-72406784D01*
X174133624Y-72242812D01*
X174099000Y-72068741D01*
X174099000Y-71891259D01*
X174133624Y-71717188D01*
X174201544Y-71553216D01*
X174300147Y-71405646D01*
X174425646Y-71280147D01*
X174573216Y-71181544D01*
X174737188Y-71113624D01*
X174886488Y-71083927D01*
X174911258Y-71079000D01*
X175088742Y-71079000D01*
X175113512Y-71083927D01*
G37*
G36*
X138089890Y-70124017D02*
G01*
X138208364Y-70173091D01*
X138314988Y-70244335D01*
X138405665Y-70335012D01*
X138476909Y-70441636D01*
X138525983Y-70560110D01*
X138551000Y-70685882D01*
X138551000Y-70814118D01*
X138525983Y-70939890D01*
X138476909Y-71058364D01*
X138405665Y-71164988D01*
X138314988Y-71255665D01*
X138208364Y-71326909D01*
X138208363Y-71326910D01*
X138208362Y-71326910D01*
X138089890Y-71375983D01*
X137964119Y-71401000D01*
X137835881Y-71401000D01*
X137710110Y-71375983D01*
X137591638Y-71326910D01*
X137591637Y-71326910D01*
X137591636Y-71326909D01*
X137485012Y-71255665D01*
X137394335Y-71164988D01*
X137323091Y-71058364D01*
X137274017Y-70939890D01*
X137249000Y-70814118D01*
X137249000Y-70685882D01*
X137274017Y-70560110D01*
X137323091Y-70441636D01*
X137394335Y-70335012D01*
X137485012Y-70244335D01*
X137591636Y-70173091D01*
X137710110Y-70124017D01*
X137835881Y-70099000D01*
X137964119Y-70099000D01*
X138089890Y-70124017D01*
G37*
G36*
X175113512Y-68543927D02*
G01*
X175262812Y-68573624D01*
X175426784Y-68641544D01*
X175574354Y-68740147D01*
X175699853Y-68865646D01*
X175798456Y-69013216D01*
X175866376Y-69177188D01*
X175901000Y-69351259D01*
X175901000Y-69528741D01*
X175866376Y-69702812D01*
X175798456Y-69866784D01*
X175699853Y-70014354D01*
X175574354Y-70139853D01*
X175426784Y-70238456D01*
X175262812Y-70306376D01*
X175118845Y-70335012D01*
X175088742Y-70341000D01*
X174911258Y-70341000D01*
X174881155Y-70335012D01*
X174737188Y-70306376D01*
X174573216Y-70238456D01*
X174425646Y-70139853D01*
X174300147Y-70014354D01*
X174201544Y-69866784D01*
X174133624Y-69702812D01*
X174099000Y-69528741D01*
X174099000Y-69351259D01*
X174133624Y-69177188D01*
X174201544Y-69013216D01*
X174300147Y-68865646D01*
X174425646Y-68740147D01*
X174573216Y-68641544D01*
X174737188Y-68573624D01*
X174886488Y-68543927D01*
X174911258Y-68539000D01*
X175088742Y-68539000D01*
X175113512Y-68543927D01*
G37*
G36*
X172573512Y-68543927D02*
G01*
X172722812Y-68573624D01*
X172886784Y-68641544D01*
X173034354Y-68740147D01*
X173159853Y-68865646D01*
X173258456Y-69013216D01*
X173326376Y-69177188D01*
X173361000Y-69351259D01*
X173361000Y-69528741D01*
X173326376Y-69702812D01*
X173258456Y-69866784D01*
X173159853Y-70014354D01*
X173034354Y-70139853D01*
X172886784Y-70238456D01*
X172722812Y-70306376D01*
X172578845Y-70335012D01*
X172548742Y-70341000D01*
X172371258Y-70341000D01*
X172341155Y-70335012D01*
X172197188Y-70306376D01*
X172033216Y-70238456D01*
X171885646Y-70139853D01*
X171760147Y-70014354D01*
X171661544Y-69866784D01*
X171593624Y-69702812D01*
X171559000Y-69528741D01*
X171559000Y-69351259D01*
X171593624Y-69177188D01*
X171661544Y-69013216D01*
X171760147Y-68865646D01*
X171885646Y-68740147D01*
X172033216Y-68641544D01*
X172197188Y-68573624D01*
X172346488Y-68543927D01*
X172371258Y-68539000D01*
X172548742Y-68539000D01*
X172573512Y-68543927D01*
G37*
G36*
X142176626Y-67712037D02*
G01*
X142346465Y-67763557D01*
X142346467Y-67763558D01*
X142502989Y-67847221D01*
X142640186Y-67959814D01*
X142723448Y-68061271D01*
X142752778Y-68097009D01*
X142836443Y-68253534D01*
X142887963Y-68423373D01*
X142901000Y-68555742D01*
X142901000Y-68944257D01*
X142887963Y-69076626D01*
X142836443Y-69246466D01*
X142752778Y-69402991D01*
X142723448Y-69438729D01*
X142640186Y-69540186D01*
X142545250Y-69618097D01*
X142502991Y-69652778D01*
X142346466Y-69736443D01*
X142176627Y-69787963D01*
X142000000Y-69805359D01*
X141823374Y-69787963D01*
X141653535Y-69736443D01*
X141497010Y-69652778D01*
X141359815Y-69540185D01*
X141247222Y-69402991D01*
X141163557Y-69246466D01*
X141112037Y-69076627D01*
X141099000Y-68944258D01*
X141099000Y-68555743D01*
X141112037Y-68423374D01*
X141163557Y-68253535D01*
X141236570Y-68116938D01*
X141247221Y-68097011D01*
X141359814Y-67959814D01*
X141461271Y-67876552D01*
X141497009Y-67847222D01*
X141653534Y-67763557D01*
X141823373Y-67712037D01*
X142000000Y-67694641D01*
X142176626Y-67712037D01*
G37*
G36*
X140258600Y-67702989D02*
G01*
X140291652Y-67713015D01*
X140322103Y-67729292D01*
X140348799Y-67751201D01*
X140370708Y-67777897D01*
X140386985Y-67808348D01*
X140397011Y-67841400D01*
X140401000Y-67881903D01*
X140401000Y-69618097D01*
X140397011Y-69658600D01*
X140386985Y-69691652D01*
X140370708Y-69722103D01*
X140348799Y-69748799D01*
X140322103Y-69770708D01*
X140291652Y-69786985D01*
X140258600Y-69797011D01*
X140218097Y-69801000D01*
X138781903Y-69801000D01*
X138741400Y-69797011D01*
X138708348Y-69786985D01*
X138677897Y-69770708D01*
X138651201Y-69748799D01*
X138629292Y-69722103D01*
X138613015Y-69691652D01*
X138602989Y-69658600D01*
X138599000Y-69618097D01*
X138599000Y-67881903D01*
X138602989Y-67841400D01*
X138613015Y-67808348D01*
X138629292Y-67777897D01*
X138651201Y-67751201D01*
X138677897Y-67729292D01*
X138708348Y-67713015D01*
X138741400Y-67702989D01*
X138781903Y-67699000D01*
X140218097Y-67699000D01*
X140258600Y-67702989D01*
G37*
G36*
X127394072Y-66950918D02*
G01*
X127639939Y-67052759D01*
X127861212Y-67200610D01*
X128049390Y-67388788D01*
X128190420Y-67599852D01*
X128197242Y-67610063D01*
X128299082Y-67855928D01*
X128351000Y-68116937D01*
X128351000Y-68383063D01*
X128299082Y-68644072D01*
X128207304Y-68865646D01*
X128197241Y-68889939D01*
X128122813Y-69001328D01*
X128072501Y-69076625D01*
X128049390Y-69111212D01*
X127861212Y-69299390D01*
X127639939Y-69447241D01*
X127639938Y-69447242D01*
X127639937Y-69447242D01*
X127394072Y-69549082D01*
X127133063Y-69601000D01*
X126866937Y-69601000D01*
X126605928Y-69549082D01*
X126360063Y-69447242D01*
X126360062Y-69447242D01*
X126360061Y-69447241D01*
X126138788Y-69299390D01*
X125950610Y-69111212D01*
X125927500Y-69076625D01*
X125877187Y-69001328D01*
X125802759Y-68889939D01*
X125792697Y-68865646D01*
X125700918Y-68644072D01*
X125649000Y-68383063D01*
X125649000Y-68116937D01*
X125700918Y-67855928D01*
X125802758Y-67610063D01*
X125809581Y-67599852D01*
X125950610Y-67388788D01*
X126138788Y-67200610D01*
X126360061Y-67052759D01*
X126605928Y-66950918D01*
X126866937Y-66899000D01*
X127133063Y-66899000D01*
X127394072Y-66950918D01*
G37*
G36*
X133351000Y-69601000D02*
G01*
X130649000Y-69601000D01*
X130649000Y-66899000D01*
X133351000Y-66899000D01*
X133351000Y-69601000D01*
G37*
G36*
X173361000Y-67801000D02*
G01*
X171559000Y-67801000D01*
X171559000Y-65999000D01*
X173361000Y-65999000D01*
X173361000Y-67801000D01*
G37*
G36*
X175113512Y-66003927D02*
G01*
X175262812Y-66033624D01*
X175426784Y-66101544D01*
X175574354Y-66200147D01*
X175699853Y-66325646D01*
X175798456Y-66473216D01*
X175866376Y-66637188D01*
X175901000Y-66811259D01*
X175901000Y-66988741D01*
X175866376Y-67162812D01*
X175798456Y-67326784D01*
X175699853Y-67474354D01*
X175574354Y-67599853D01*
X175426784Y-67698456D01*
X175262812Y-67766376D01*
X175113512Y-67796073D01*
X175088742Y-67801000D01*
X174911258Y-67801000D01*
X174886488Y-67796073D01*
X174737188Y-67766376D01*
X174573216Y-67698456D01*
X174425646Y-67599853D01*
X174300147Y-67474354D01*
X174201544Y-67326784D01*
X174133624Y-67162812D01*
X174099000Y-66988741D01*
X174099000Y-66811259D01*
X174133624Y-66637188D01*
X174201544Y-66473216D01*
X174300147Y-66325646D01*
X174425646Y-66200147D01*
X174573216Y-66101544D01*
X174737188Y-66033624D01*
X174886488Y-66003927D01*
X174911258Y-65999000D01*
X175088742Y-65999000D01*
X175113512Y-66003927D01*
G37*
M02*
