G04 #@! TF.GenerationSoftware,KiCad,Pcbnew,5.1.5-52549c5~84~ubuntu18.04.1*
G04 #@! TF.CreationDate,2020-01-27T13:55:18+13:00*
G04 #@! TF.ProjectId,MOSSbp_Jetson_Nano_Board,4d4f5353-6270-45f4-9a65-74736f6e5f4e,V0.1*
G04 #@! TF.SameCoordinates,Original*
G04 #@! TF.FileFunction,Paste,Top*
G04 #@! TF.FilePolarity,Positive*
%FSLAX46Y46*%
G04 Gerber Fmt 4.6, Leading zero omitted, Abs format (unit mm)*
G04 Created by KiCad (PCBNEW 5.1.5-52549c5~84~ubuntu18.04.1) date 2020-01-27 13:55:18*
%MOMM*%
%LPD*%
G04 APERTURE LIST*
%ADD10R,0.900000X1.200000*%
%ADD11R,8.200000X2.600000*%
%ADD12R,1.000000X1.400000*%
%ADD13R,1.200000X1.400000*%
%ADD14C,0.100000*%
%ADD15R,0.800000X0.900000*%
%ADD16R,0.900000X0.800000*%
%ADD17R,2.100000X1.400000*%
G04 APERTURE END LIST*
D10*
X125000000Y-108000000D03*
X128300000Y-108000000D03*
X132000000Y-108000000D03*
X135300000Y-108000000D03*
X117700000Y-108000000D03*
X121000000Y-108000000D03*
D11*
X140000000Y-91040000D03*
X140000000Y-85440000D03*
D12*
X126800000Y-99000000D03*
X128700000Y-99000000D03*
X128700000Y-101200000D03*
D13*
X126980000Y-101200000D03*
D14*
G36*
X136794703Y-77135722D02*
G01*
X136809264Y-77137882D01*
X136823543Y-77141459D01*
X136837403Y-77146418D01*
X136850710Y-77152712D01*
X136863336Y-77160280D01*
X136875159Y-77169048D01*
X136886066Y-77178934D01*
X136895952Y-77189841D01*
X136904720Y-77201664D01*
X136912288Y-77214290D01*
X136918582Y-77227597D01*
X136923541Y-77241457D01*
X136927118Y-77255736D01*
X136929278Y-77270297D01*
X136930000Y-77285000D01*
X136930000Y-77585000D01*
X136929278Y-77599703D01*
X136927118Y-77614264D01*
X136923541Y-77628543D01*
X136918582Y-77642403D01*
X136912288Y-77655710D01*
X136904720Y-77668336D01*
X136895952Y-77680159D01*
X136886066Y-77691066D01*
X136875159Y-77700952D01*
X136863336Y-77709720D01*
X136850710Y-77717288D01*
X136837403Y-77723582D01*
X136823543Y-77728541D01*
X136809264Y-77732118D01*
X136794703Y-77734278D01*
X136780000Y-77735000D01*
X135130000Y-77735000D01*
X135115297Y-77734278D01*
X135100736Y-77732118D01*
X135086457Y-77728541D01*
X135072597Y-77723582D01*
X135059290Y-77717288D01*
X135046664Y-77709720D01*
X135034841Y-77700952D01*
X135023934Y-77691066D01*
X135014048Y-77680159D01*
X135005280Y-77668336D01*
X134997712Y-77655710D01*
X134991418Y-77642403D01*
X134986459Y-77628543D01*
X134982882Y-77614264D01*
X134980722Y-77599703D01*
X134980000Y-77585000D01*
X134980000Y-77285000D01*
X134980722Y-77270297D01*
X134982882Y-77255736D01*
X134986459Y-77241457D01*
X134991418Y-77227597D01*
X134997712Y-77214290D01*
X135005280Y-77201664D01*
X135014048Y-77189841D01*
X135023934Y-77178934D01*
X135034841Y-77169048D01*
X135046664Y-77160280D01*
X135059290Y-77152712D01*
X135072597Y-77146418D01*
X135086457Y-77141459D01*
X135100736Y-77137882D01*
X135115297Y-77135722D01*
X135130000Y-77135000D01*
X136780000Y-77135000D01*
X136794703Y-77135722D01*
G37*
G36*
X136794703Y-78405722D02*
G01*
X136809264Y-78407882D01*
X136823543Y-78411459D01*
X136837403Y-78416418D01*
X136850710Y-78422712D01*
X136863336Y-78430280D01*
X136875159Y-78439048D01*
X136886066Y-78448934D01*
X136895952Y-78459841D01*
X136904720Y-78471664D01*
X136912288Y-78484290D01*
X136918582Y-78497597D01*
X136923541Y-78511457D01*
X136927118Y-78525736D01*
X136929278Y-78540297D01*
X136930000Y-78555000D01*
X136930000Y-78855000D01*
X136929278Y-78869703D01*
X136927118Y-78884264D01*
X136923541Y-78898543D01*
X136918582Y-78912403D01*
X136912288Y-78925710D01*
X136904720Y-78938336D01*
X136895952Y-78950159D01*
X136886066Y-78961066D01*
X136875159Y-78970952D01*
X136863336Y-78979720D01*
X136850710Y-78987288D01*
X136837403Y-78993582D01*
X136823543Y-78998541D01*
X136809264Y-79002118D01*
X136794703Y-79004278D01*
X136780000Y-79005000D01*
X135130000Y-79005000D01*
X135115297Y-79004278D01*
X135100736Y-79002118D01*
X135086457Y-78998541D01*
X135072597Y-78993582D01*
X135059290Y-78987288D01*
X135046664Y-78979720D01*
X135034841Y-78970952D01*
X135023934Y-78961066D01*
X135014048Y-78950159D01*
X135005280Y-78938336D01*
X134997712Y-78925710D01*
X134991418Y-78912403D01*
X134986459Y-78898543D01*
X134982882Y-78884264D01*
X134980722Y-78869703D01*
X134980000Y-78855000D01*
X134980000Y-78555000D01*
X134980722Y-78540297D01*
X134982882Y-78525736D01*
X134986459Y-78511457D01*
X134991418Y-78497597D01*
X134997712Y-78484290D01*
X135005280Y-78471664D01*
X135014048Y-78459841D01*
X135023934Y-78448934D01*
X135034841Y-78439048D01*
X135046664Y-78430280D01*
X135059290Y-78422712D01*
X135072597Y-78416418D01*
X135086457Y-78411459D01*
X135100736Y-78407882D01*
X135115297Y-78405722D01*
X135130000Y-78405000D01*
X136780000Y-78405000D01*
X136794703Y-78405722D01*
G37*
G36*
X136794703Y-79675722D02*
G01*
X136809264Y-79677882D01*
X136823543Y-79681459D01*
X136837403Y-79686418D01*
X136850710Y-79692712D01*
X136863336Y-79700280D01*
X136875159Y-79709048D01*
X136886066Y-79718934D01*
X136895952Y-79729841D01*
X136904720Y-79741664D01*
X136912288Y-79754290D01*
X136918582Y-79767597D01*
X136923541Y-79781457D01*
X136927118Y-79795736D01*
X136929278Y-79810297D01*
X136930000Y-79825000D01*
X136930000Y-80125000D01*
X136929278Y-80139703D01*
X136927118Y-80154264D01*
X136923541Y-80168543D01*
X136918582Y-80182403D01*
X136912288Y-80195710D01*
X136904720Y-80208336D01*
X136895952Y-80220159D01*
X136886066Y-80231066D01*
X136875159Y-80240952D01*
X136863336Y-80249720D01*
X136850710Y-80257288D01*
X136837403Y-80263582D01*
X136823543Y-80268541D01*
X136809264Y-80272118D01*
X136794703Y-80274278D01*
X136780000Y-80275000D01*
X135130000Y-80275000D01*
X135115297Y-80274278D01*
X135100736Y-80272118D01*
X135086457Y-80268541D01*
X135072597Y-80263582D01*
X135059290Y-80257288D01*
X135046664Y-80249720D01*
X135034841Y-80240952D01*
X135023934Y-80231066D01*
X135014048Y-80220159D01*
X135005280Y-80208336D01*
X134997712Y-80195710D01*
X134991418Y-80182403D01*
X134986459Y-80168543D01*
X134982882Y-80154264D01*
X134980722Y-80139703D01*
X134980000Y-80125000D01*
X134980000Y-79825000D01*
X134980722Y-79810297D01*
X134982882Y-79795736D01*
X134986459Y-79781457D01*
X134991418Y-79767597D01*
X134997712Y-79754290D01*
X135005280Y-79741664D01*
X135014048Y-79729841D01*
X135023934Y-79718934D01*
X135034841Y-79709048D01*
X135046664Y-79700280D01*
X135059290Y-79692712D01*
X135072597Y-79686418D01*
X135086457Y-79681459D01*
X135100736Y-79677882D01*
X135115297Y-79675722D01*
X135130000Y-79675000D01*
X136780000Y-79675000D01*
X136794703Y-79675722D01*
G37*
G36*
X136794703Y-80945722D02*
G01*
X136809264Y-80947882D01*
X136823543Y-80951459D01*
X136837403Y-80956418D01*
X136850710Y-80962712D01*
X136863336Y-80970280D01*
X136875159Y-80979048D01*
X136886066Y-80988934D01*
X136895952Y-80999841D01*
X136904720Y-81011664D01*
X136912288Y-81024290D01*
X136918582Y-81037597D01*
X136923541Y-81051457D01*
X136927118Y-81065736D01*
X136929278Y-81080297D01*
X136930000Y-81095000D01*
X136930000Y-81395000D01*
X136929278Y-81409703D01*
X136927118Y-81424264D01*
X136923541Y-81438543D01*
X136918582Y-81452403D01*
X136912288Y-81465710D01*
X136904720Y-81478336D01*
X136895952Y-81490159D01*
X136886066Y-81501066D01*
X136875159Y-81510952D01*
X136863336Y-81519720D01*
X136850710Y-81527288D01*
X136837403Y-81533582D01*
X136823543Y-81538541D01*
X136809264Y-81542118D01*
X136794703Y-81544278D01*
X136780000Y-81545000D01*
X135130000Y-81545000D01*
X135115297Y-81544278D01*
X135100736Y-81542118D01*
X135086457Y-81538541D01*
X135072597Y-81533582D01*
X135059290Y-81527288D01*
X135046664Y-81519720D01*
X135034841Y-81510952D01*
X135023934Y-81501066D01*
X135014048Y-81490159D01*
X135005280Y-81478336D01*
X134997712Y-81465710D01*
X134991418Y-81452403D01*
X134986459Y-81438543D01*
X134982882Y-81424264D01*
X134980722Y-81409703D01*
X134980000Y-81395000D01*
X134980000Y-81095000D01*
X134980722Y-81080297D01*
X134982882Y-81065736D01*
X134986459Y-81051457D01*
X134991418Y-81037597D01*
X134997712Y-81024290D01*
X135005280Y-81011664D01*
X135014048Y-80999841D01*
X135023934Y-80988934D01*
X135034841Y-80979048D01*
X135046664Y-80970280D01*
X135059290Y-80962712D01*
X135072597Y-80956418D01*
X135086457Y-80951459D01*
X135100736Y-80947882D01*
X135115297Y-80945722D01*
X135130000Y-80945000D01*
X136780000Y-80945000D01*
X136794703Y-80945722D01*
G37*
G36*
X131844703Y-80945722D02*
G01*
X131859264Y-80947882D01*
X131873543Y-80951459D01*
X131887403Y-80956418D01*
X131900710Y-80962712D01*
X131913336Y-80970280D01*
X131925159Y-80979048D01*
X131936066Y-80988934D01*
X131945952Y-80999841D01*
X131954720Y-81011664D01*
X131962288Y-81024290D01*
X131968582Y-81037597D01*
X131973541Y-81051457D01*
X131977118Y-81065736D01*
X131979278Y-81080297D01*
X131980000Y-81095000D01*
X131980000Y-81395000D01*
X131979278Y-81409703D01*
X131977118Y-81424264D01*
X131973541Y-81438543D01*
X131968582Y-81452403D01*
X131962288Y-81465710D01*
X131954720Y-81478336D01*
X131945952Y-81490159D01*
X131936066Y-81501066D01*
X131925159Y-81510952D01*
X131913336Y-81519720D01*
X131900710Y-81527288D01*
X131887403Y-81533582D01*
X131873543Y-81538541D01*
X131859264Y-81542118D01*
X131844703Y-81544278D01*
X131830000Y-81545000D01*
X130180000Y-81545000D01*
X130165297Y-81544278D01*
X130150736Y-81542118D01*
X130136457Y-81538541D01*
X130122597Y-81533582D01*
X130109290Y-81527288D01*
X130096664Y-81519720D01*
X130084841Y-81510952D01*
X130073934Y-81501066D01*
X130064048Y-81490159D01*
X130055280Y-81478336D01*
X130047712Y-81465710D01*
X130041418Y-81452403D01*
X130036459Y-81438543D01*
X130032882Y-81424264D01*
X130030722Y-81409703D01*
X130030000Y-81395000D01*
X130030000Y-81095000D01*
X130030722Y-81080297D01*
X130032882Y-81065736D01*
X130036459Y-81051457D01*
X130041418Y-81037597D01*
X130047712Y-81024290D01*
X130055280Y-81011664D01*
X130064048Y-80999841D01*
X130073934Y-80988934D01*
X130084841Y-80979048D01*
X130096664Y-80970280D01*
X130109290Y-80962712D01*
X130122597Y-80956418D01*
X130136457Y-80951459D01*
X130150736Y-80947882D01*
X130165297Y-80945722D01*
X130180000Y-80945000D01*
X131830000Y-80945000D01*
X131844703Y-80945722D01*
G37*
G36*
X131844703Y-79675722D02*
G01*
X131859264Y-79677882D01*
X131873543Y-79681459D01*
X131887403Y-79686418D01*
X131900710Y-79692712D01*
X131913336Y-79700280D01*
X131925159Y-79709048D01*
X131936066Y-79718934D01*
X131945952Y-79729841D01*
X131954720Y-79741664D01*
X131962288Y-79754290D01*
X131968582Y-79767597D01*
X131973541Y-79781457D01*
X131977118Y-79795736D01*
X131979278Y-79810297D01*
X131980000Y-79825000D01*
X131980000Y-80125000D01*
X131979278Y-80139703D01*
X131977118Y-80154264D01*
X131973541Y-80168543D01*
X131968582Y-80182403D01*
X131962288Y-80195710D01*
X131954720Y-80208336D01*
X131945952Y-80220159D01*
X131936066Y-80231066D01*
X131925159Y-80240952D01*
X131913336Y-80249720D01*
X131900710Y-80257288D01*
X131887403Y-80263582D01*
X131873543Y-80268541D01*
X131859264Y-80272118D01*
X131844703Y-80274278D01*
X131830000Y-80275000D01*
X130180000Y-80275000D01*
X130165297Y-80274278D01*
X130150736Y-80272118D01*
X130136457Y-80268541D01*
X130122597Y-80263582D01*
X130109290Y-80257288D01*
X130096664Y-80249720D01*
X130084841Y-80240952D01*
X130073934Y-80231066D01*
X130064048Y-80220159D01*
X130055280Y-80208336D01*
X130047712Y-80195710D01*
X130041418Y-80182403D01*
X130036459Y-80168543D01*
X130032882Y-80154264D01*
X130030722Y-80139703D01*
X130030000Y-80125000D01*
X130030000Y-79825000D01*
X130030722Y-79810297D01*
X130032882Y-79795736D01*
X130036459Y-79781457D01*
X130041418Y-79767597D01*
X130047712Y-79754290D01*
X130055280Y-79741664D01*
X130064048Y-79729841D01*
X130073934Y-79718934D01*
X130084841Y-79709048D01*
X130096664Y-79700280D01*
X130109290Y-79692712D01*
X130122597Y-79686418D01*
X130136457Y-79681459D01*
X130150736Y-79677882D01*
X130165297Y-79675722D01*
X130180000Y-79675000D01*
X131830000Y-79675000D01*
X131844703Y-79675722D01*
G37*
G36*
X131844703Y-78405722D02*
G01*
X131859264Y-78407882D01*
X131873543Y-78411459D01*
X131887403Y-78416418D01*
X131900710Y-78422712D01*
X131913336Y-78430280D01*
X131925159Y-78439048D01*
X131936066Y-78448934D01*
X131945952Y-78459841D01*
X131954720Y-78471664D01*
X131962288Y-78484290D01*
X131968582Y-78497597D01*
X131973541Y-78511457D01*
X131977118Y-78525736D01*
X131979278Y-78540297D01*
X131980000Y-78555000D01*
X131980000Y-78855000D01*
X131979278Y-78869703D01*
X131977118Y-78884264D01*
X131973541Y-78898543D01*
X131968582Y-78912403D01*
X131962288Y-78925710D01*
X131954720Y-78938336D01*
X131945952Y-78950159D01*
X131936066Y-78961066D01*
X131925159Y-78970952D01*
X131913336Y-78979720D01*
X131900710Y-78987288D01*
X131887403Y-78993582D01*
X131873543Y-78998541D01*
X131859264Y-79002118D01*
X131844703Y-79004278D01*
X131830000Y-79005000D01*
X130180000Y-79005000D01*
X130165297Y-79004278D01*
X130150736Y-79002118D01*
X130136457Y-78998541D01*
X130122597Y-78993582D01*
X130109290Y-78987288D01*
X130096664Y-78979720D01*
X130084841Y-78970952D01*
X130073934Y-78961066D01*
X130064048Y-78950159D01*
X130055280Y-78938336D01*
X130047712Y-78925710D01*
X130041418Y-78912403D01*
X130036459Y-78898543D01*
X130032882Y-78884264D01*
X130030722Y-78869703D01*
X130030000Y-78855000D01*
X130030000Y-78555000D01*
X130030722Y-78540297D01*
X130032882Y-78525736D01*
X130036459Y-78511457D01*
X130041418Y-78497597D01*
X130047712Y-78484290D01*
X130055280Y-78471664D01*
X130064048Y-78459841D01*
X130073934Y-78448934D01*
X130084841Y-78439048D01*
X130096664Y-78430280D01*
X130109290Y-78422712D01*
X130122597Y-78416418D01*
X130136457Y-78411459D01*
X130150736Y-78407882D01*
X130165297Y-78405722D01*
X130180000Y-78405000D01*
X131830000Y-78405000D01*
X131844703Y-78405722D01*
G37*
G36*
X131844703Y-77135722D02*
G01*
X131859264Y-77137882D01*
X131873543Y-77141459D01*
X131887403Y-77146418D01*
X131900710Y-77152712D01*
X131913336Y-77160280D01*
X131925159Y-77169048D01*
X131936066Y-77178934D01*
X131945952Y-77189841D01*
X131954720Y-77201664D01*
X131962288Y-77214290D01*
X131968582Y-77227597D01*
X131973541Y-77241457D01*
X131977118Y-77255736D01*
X131979278Y-77270297D01*
X131980000Y-77285000D01*
X131980000Y-77585000D01*
X131979278Y-77599703D01*
X131977118Y-77614264D01*
X131973541Y-77628543D01*
X131968582Y-77642403D01*
X131962288Y-77655710D01*
X131954720Y-77668336D01*
X131945952Y-77680159D01*
X131936066Y-77691066D01*
X131925159Y-77700952D01*
X131913336Y-77709720D01*
X131900710Y-77717288D01*
X131887403Y-77723582D01*
X131873543Y-77728541D01*
X131859264Y-77732118D01*
X131844703Y-77734278D01*
X131830000Y-77735000D01*
X130180000Y-77735000D01*
X130165297Y-77734278D01*
X130150736Y-77732118D01*
X130136457Y-77728541D01*
X130122597Y-77723582D01*
X130109290Y-77717288D01*
X130096664Y-77709720D01*
X130084841Y-77700952D01*
X130073934Y-77691066D01*
X130064048Y-77680159D01*
X130055280Y-77668336D01*
X130047712Y-77655710D01*
X130041418Y-77642403D01*
X130036459Y-77628543D01*
X130032882Y-77614264D01*
X130030722Y-77599703D01*
X130030000Y-77585000D01*
X130030000Y-77285000D01*
X130030722Y-77270297D01*
X130032882Y-77255736D01*
X130036459Y-77241457D01*
X130041418Y-77227597D01*
X130047712Y-77214290D01*
X130055280Y-77201664D01*
X130064048Y-77189841D01*
X130073934Y-77178934D01*
X130084841Y-77169048D01*
X130096664Y-77160280D01*
X130109290Y-77152712D01*
X130122597Y-77146418D01*
X130136457Y-77141459D01*
X130150736Y-77137882D01*
X130165297Y-77135722D01*
X130180000Y-77135000D01*
X131830000Y-77135000D01*
X131844703Y-77135722D01*
G37*
G36*
X134346269Y-79501168D02*
G01*
X134369809Y-79504660D01*
X134392894Y-79510442D01*
X134415301Y-79518459D01*
X134436814Y-79528634D01*
X134457226Y-79540869D01*
X134476340Y-79555045D01*
X134493973Y-79571027D01*
X134509955Y-79588660D01*
X134524131Y-79607774D01*
X134536366Y-79628186D01*
X134546541Y-79649699D01*
X134554558Y-79672106D01*
X134560340Y-79695191D01*
X134563832Y-79718731D01*
X134565000Y-79742500D01*
X134565000Y-80587500D01*
X134563832Y-80611269D01*
X134560340Y-80634809D01*
X134554558Y-80657894D01*
X134546541Y-80680301D01*
X134536366Y-80701814D01*
X134524131Y-80722226D01*
X134509955Y-80741340D01*
X134493973Y-80758973D01*
X134476340Y-80774955D01*
X134457226Y-80789131D01*
X134436814Y-80801366D01*
X134415301Y-80811541D01*
X134392894Y-80819558D01*
X134369809Y-80825340D01*
X134346269Y-80828832D01*
X134322500Y-80830000D01*
X133837500Y-80830000D01*
X133813731Y-80828832D01*
X133790191Y-80825340D01*
X133767106Y-80819558D01*
X133744699Y-80811541D01*
X133723186Y-80801366D01*
X133702774Y-80789131D01*
X133683660Y-80774955D01*
X133666027Y-80758973D01*
X133650045Y-80741340D01*
X133635869Y-80722226D01*
X133623634Y-80701814D01*
X133613459Y-80680301D01*
X133605442Y-80657894D01*
X133599660Y-80634809D01*
X133596168Y-80611269D01*
X133595000Y-80587500D01*
X133595000Y-79742500D01*
X133596168Y-79718731D01*
X133599660Y-79695191D01*
X133605442Y-79672106D01*
X133613459Y-79649699D01*
X133623634Y-79628186D01*
X133635869Y-79607774D01*
X133650045Y-79588660D01*
X133666027Y-79571027D01*
X133683660Y-79555045D01*
X133702774Y-79540869D01*
X133723186Y-79528634D01*
X133744699Y-79518459D01*
X133767106Y-79510442D01*
X133790191Y-79504660D01*
X133813731Y-79501168D01*
X133837500Y-79500000D01*
X134322500Y-79500000D01*
X134346269Y-79501168D01*
G37*
G36*
X134346269Y-77851168D02*
G01*
X134369809Y-77854660D01*
X134392894Y-77860442D01*
X134415301Y-77868459D01*
X134436814Y-77878634D01*
X134457226Y-77890869D01*
X134476340Y-77905045D01*
X134493973Y-77921027D01*
X134509955Y-77938660D01*
X134524131Y-77957774D01*
X134536366Y-77978186D01*
X134546541Y-77999699D01*
X134554558Y-78022106D01*
X134560340Y-78045191D01*
X134563832Y-78068731D01*
X134565000Y-78092500D01*
X134565000Y-78937500D01*
X134563832Y-78961269D01*
X134560340Y-78984809D01*
X134554558Y-79007894D01*
X134546541Y-79030301D01*
X134536366Y-79051814D01*
X134524131Y-79072226D01*
X134509955Y-79091340D01*
X134493973Y-79108973D01*
X134476340Y-79124955D01*
X134457226Y-79139131D01*
X134436814Y-79151366D01*
X134415301Y-79161541D01*
X134392894Y-79169558D01*
X134369809Y-79175340D01*
X134346269Y-79178832D01*
X134322500Y-79180000D01*
X133837500Y-79180000D01*
X133813731Y-79178832D01*
X133790191Y-79175340D01*
X133767106Y-79169558D01*
X133744699Y-79161541D01*
X133723186Y-79151366D01*
X133702774Y-79139131D01*
X133683660Y-79124955D01*
X133666027Y-79108973D01*
X133650045Y-79091340D01*
X133635869Y-79072226D01*
X133623634Y-79051814D01*
X133613459Y-79030301D01*
X133605442Y-79007894D01*
X133599660Y-78984809D01*
X133596168Y-78961269D01*
X133595000Y-78937500D01*
X133595000Y-78092500D01*
X133596168Y-78068731D01*
X133599660Y-78045191D01*
X133605442Y-78022106D01*
X133613459Y-77999699D01*
X133623634Y-77978186D01*
X133635869Y-77957774D01*
X133650045Y-77938660D01*
X133666027Y-77921027D01*
X133683660Y-77905045D01*
X133702774Y-77890869D01*
X133723186Y-77878634D01*
X133744699Y-77868459D01*
X133767106Y-77860442D01*
X133790191Y-77854660D01*
X133813731Y-77851168D01*
X133837500Y-77850000D01*
X134322500Y-77850000D01*
X134346269Y-77851168D01*
G37*
G36*
X133146269Y-79501168D02*
G01*
X133169809Y-79504660D01*
X133192894Y-79510442D01*
X133215301Y-79518459D01*
X133236814Y-79528634D01*
X133257226Y-79540869D01*
X133276340Y-79555045D01*
X133293973Y-79571027D01*
X133309955Y-79588660D01*
X133324131Y-79607774D01*
X133336366Y-79628186D01*
X133346541Y-79649699D01*
X133354558Y-79672106D01*
X133360340Y-79695191D01*
X133363832Y-79718731D01*
X133365000Y-79742500D01*
X133365000Y-80587500D01*
X133363832Y-80611269D01*
X133360340Y-80634809D01*
X133354558Y-80657894D01*
X133346541Y-80680301D01*
X133336366Y-80701814D01*
X133324131Y-80722226D01*
X133309955Y-80741340D01*
X133293973Y-80758973D01*
X133276340Y-80774955D01*
X133257226Y-80789131D01*
X133236814Y-80801366D01*
X133215301Y-80811541D01*
X133192894Y-80819558D01*
X133169809Y-80825340D01*
X133146269Y-80828832D01*
X133122500Y-80830000D01*
X132637500Y-80830000D01*
X132613731Y-80828832D01*
X132590191Y-80825340D01*
X132567106Y-80819558D01*
X132544699Y-80811541D01*
X132523186Y-80801366D01*
X132502774Y-80789131D01*
X132483660Y-80774955D01*
X132466027Y-80758973D01*
X132450045Y-80741340D01*
X132435869Y-80722226D01*
X132423634Y-80701814D01*
X132413459Y-80680301D01*
X132405442Y-80657894D01*
X132399660Y-80634809D01*
X132396168Y-80611269D01*
X132395000Y-80587500D01*
X132395000Y-79742500D01*
X132396168Y-79718731D01*
X132399660Y-79695191D01*
X132405442Y-79672106D01*
X132413459Y-79649699D01*
X132423634Y-79628186D01*
X132435869Y-79607774D01*
X132450045Y-79588660D01*
X132466027Y-79571027D01*
X132483660Y-79555045D01*
X132502774Y-79540869D01*
X132523186Y-79528634D01*
X132544699Y-79518459D01*
X132567106Y-79510442D01*
X132590191Y-79504660D01*
X132613731Y-79501168D01*
X132637500Y-79500000D01*
X133122500Y-79500000D01*
X133146269Y-79501168D01*
G37*
G36*
X133146269Y-77851168D02*
G01*
X133169809Y-77854660D01*
X133192894Y-77860442D01*
X133215301Y-77868459D01*
X133236814Y-77878634D01*
X133257226Y-77890869D01*
X133276340Y-77905045D01*
X133293973Y-77921027D01*
X133309955Y-77938660D01*
X133324131Y-77957774D01*
X133336366Y-77978186D01*
X133346541Y-77999699D01*
X133354558Y-78022106D01*
X133360340Y-78045191D01*
X133363832Y-78068731D01*
X133365000Y-78092500D01*
X133365000Y-78937500D01*
X133363832Y-78961269D01*
X133360340Y-78984809D01*
X133354558Y-79007894D01*
X133346541Y-79030301D01*
X133336366Y-79051814D01*
X133324131Y-79072226D01*
X133309955Y-79091340D01*
X133293973Y-79108973D01*
X133276340Y-79124955D01*
X133257226Y-79139131D01*
X133236814Y-79151366D01*
X133215301Y-79161541D01*
X133192894Y-79169558D01*
X133169809Y-79175340D01*
X133146269Y-79178832D01*
X133122500Y-79180000D01*
X132637500Y-79180000D01*
X132613731Y-79178832D01*
X132590191Y-79175340D01*
X132567106Y-79169558D01*
X132544699Y-79161541D01*
X132523186Y-79151366D01*
X132502774Y-79139131D01*
X132483660Y-79124955D01*
X132466027Y-79108973D01*
X132450045Y-79091340D01*
X132435869Y-79072226D01*
X132423634Y-79051814D01*
X132413459Y-79030301D01*
X132405442Y-79007894D01*
X132399660Y-78984809D01*
X132396168Y-78961269D01*
X132395000Y-78937500D01*
X132395000Y-78092500D01*
X132396168Y-78068731D01*
X132399660Y-78045191D01*
X132405442Y-78022106D01*
X132413459Y-77999699D01*
X132423634Y-77978186D01*
X132435869Y-77957774D01*
X132450045Y-77938660D01*
X132466027Y-77921027D01*
X132483660Y-77905045D01*
X132502774Y-77890869D01*
X132523186Y-77878634D01*
X132544699Y-77868459D01*
X132567106Y-77860442D01*
X132590191Y-77854660D01*
X132613731Y-77851168D01*
X132637500Y-77850000D01*
X133122500Y-77850000D01*
X133146269Y-77851168D01*
G37*
D12*
X135600000Y-99300000D03*
X137500000Y-99300000D03*
X137500000Y-101500000D03*
D13*
X135780000Y-101500000D03*
D12*
X117850000Y-99050000D03*
X119750000Y-99050000D03*
X119750000Y-101250000D03*
D13*
X118030000Y-101250000D03*
D14*
G36*
X143685779Y-103526144D02*
G01*
X143708834Y-103529563D01*
X143731443Y-103535227D01*
X143753387Y-103543079D01*
X143774457Y-103553044D01*
X143794448Y-103565026D01*
X143813168Y-103578910D01*
X143830438Y-103594562D01*
X143846090Y-103611832D01*
X143859974Y-103630552D01*
X143871956Y-103650543D01*
X143881921Y-103671613D01*
X143889773Y-103693557D01*
X143895437Y-103716166D01*
X143898856Y-103739221D01*
X143900000Y-103762500D01*
X143900000Y-104237500D01*
X143898856Y-104260779D01*
X143895437Y-104283834D01*
X143889773Y-104306443D01*
X143881921Y-104328387D01*
X143871956Y-104349457D01*
X143859974Y-104369448D01*
X143846090Y-104388168D01*
X143830438Y-104405438D01*
X143813168Y-104421090D01*
X143794448Y-104434974D01*
X143774457Y-104446956D01*
X143753387Y-104456921D01*
X143731443Y-104464773D01*
X143708834Y-104470437D01*
X143685779Y-104473856D01*
X143662500Y-104475000D01*
X143087500Y-104475000D01*
X143064221Y-104473856D01*
X143041166Y-104470437D01*
X143018557Y-104464773D01*
X142996613Y-104456921D01*
X142975543Y-104446956D01*
X142955552Y-104434974D01*
X142936832Y-104421090D01*
X142919562Y-104405438D01*
X142903910Y-104388168D01*
X142890026Y-104369448D01*
X142878044Y-104349457D01*
X142868079Y-104328387D01*
X142860227Y-104306443D01*
X142854563Y-104283834D01*
X142851144Y-104260779D01*
X142850000Y-104237500D01*
X142850000Y-103762500D01*
X142851144Y-103739221D01*
X142854563Y-103716166D01*
X142860227Y-103693557D01*
X142868079Y-103671613D01*
X142878044Y-103650543D01*
X142890026Y-103630552D01*
X142903910Y-103611832D01*
X142919562Y-103594562D01*
X142936832Y-103578910D01*
X142955552Y-103565026D01*
X142975543Y-103553044D01*
X142996613Y-103543079D01*
X143018557Y-103535227D01*
X143041166Y-103529563D01*
X143064221Y-103526144D01*
X143087500Y-103525000D01*
X143662500Y-103525000D01*
X143685779Y-103526144D01*
G37*
G36*
X145435779Y-103526144D02*
G01*
X145458834Y-103529563D01*
X145481443Y-103535227D01*
X145503387Y-103543079D01*
X145524457Y-103553044D01*
X145544448Y-103565026D01*
X145563168Y-103578910D01*
X145580438Y-103594562D01*
X145596090Y-103611832D01*
X145609974Y-103630552D01*
X145621956Y-103650543D01*
X145631921Y-103671613D01*
X145639773Y-103693557D01*
X145645437Y-103716166D01*
X145648856Y-103739221D01*
X145650000Y-103762500D01*
X145650000Y-104237500D01*
X145648856Y-104260779D01*
X145645437Y-104283834D01*
X145639773Y-104306443D01*
X145631921Y-104328387D01*
X145621956Y-104349457D01*
X145609974Y-104369448D01*
X145596090Y-104388168D01*
X145580438Y-104405438D01*
X145563168Y-104421090D01*
X145544448Y-104434974D01*
X145524457Y-104446956D01*
X145503387Y-104456921D01*
X145481443Y-104464773D01*
X145458834Y-104470437D01*
X145435779Y-104473856D01*
X145412500Y-104475000D01*
X144837500Y-104475000D01*
X144814221Y-104473856D01*
X144791166Y-104470437D01*
X144768557Y-104464773D01*
X144746613Y-104456921D01*
X144725543Y-104446956D01*
X144705552Y-104434974D01*
X144686832Y-104421090D01*
X144669562Y-104405438D01*
X144653910Y-104388168D01*
X144640026Y-104369448D01*
X144628044Y-104349457D01*
X144618079Y-104328387D01*
X144610227Y-104306443D01*
X144604563Y-104283834D01*
X144601144Y-104260779D01*
X144600000Y-104237500D01*
X144600000Y-103762500D01*
X144601144Y-103739221D01*
X144604563Y-103716166D01*
X144610227Y-103693557D01*
X144618079Y-103671613D01*
X144628044Y-103650543D01*
X144640026Y-103630552D01*
X144653910Y-103611832D01*
X144669562Y-103594562D01*
X144686832Y-103578910D01*
X144705552Y-103565026D01*
X144725543Y-103553044D01*
X144746613Y-103543079D01*
X144768557Y-103535227D01*
X144791166Y-103529563D01*
X144814221Y-103526144D01*
X144837500Y-103525000D01*
X145412500Y-103525000D01*
X145435779Y-103526144D01*
G37*
G36*
X164310779Y-113526144D02*
G01*
X164333834Y-113529563D01*
X164356443Y-113535227D01*
X164378387Y-113543079D01*
X164399457Y-113553044D01*
X164419448Y-113565026D01*
X164438168Y-113578910D01*
X164455438Y-113594562D01*
X164471090Y-113611832D01*
X164484974Y-113630552D01*
X164496956Y-113650543D01*
X164506921Y-113671613D01*
X164514773Y-113693557D01*
X164520437Y-113716166D01*
X164523856Y-113739221D01*
X164525000Y-113762500D01*
X164525000Y-114237500D01*
X164523856Y-114260779D01*
X164520437Y-114283834D01*
X164514773Y-114306443D01*
X164506921Y-114328387D01*
X164496956Y-114349457D01*
X164484974Y-114369448D01*
X164471090Y-114388168D01*
X164455438Y-114405438D01*
X164438168Y-114421090D01*
X164419448Y-114434974D01*
X164399457Y-114446956D01*
X164378387Y-114456921D01*
X164356443Y-114464773D01*
X164333834Y-114470437D01*
X164310779Y-114473856D01*
X164287500Y-114475000D01*
X163712500Y-114475000D01*
X163689221Y-114473856D01*
X163666166Y-114470437D01*
X163643557Y-114464773D01*
X163621613Y-114456921D01*
X163600543Y-114446956D01*
X163580552Y-114434974D01*
X163561832Y-114421090D01*
X163544562Y-114405438D01*
X163528910Y-114388168D01*
X163515026Y-114369448D01*
X163503044Y-114349457D01*
X163493079Y-114328387D01*
X163485227Y-114306443D01*
X163479563Y-114283834D01*
X163476144Y-114260779D01*
X163475000Y-114237500D01*
X163475000Y-113762500D01*
X163476144Y-113739221D01*
X163479563Y-113716166D01*
X163485227Y-113693557D01*
X163493079Y-113671613D01*
X163503044Y-113650543D01*
X163515026Y-113630552D01*
X163528910Y-113611832D01*
X163544562Y-113594562D01*
X163561832Y-113578910D01*
X163580552Y-113565026D01*
X163600543Y-113553044D01*
X163621613Y-113543079D01*
X163643557Y-113535227D01*
X163666166Y-113529563D01*
X163689221Y-113526144D01*
X163712500Y-113525000D01*
X164287500Y-113525000D01*
X164310779Y-113526144D01*
G37*
G36*
X162560779Y-113526144D02*
G01*
X162583834Y-113529563D01*
X162606443Y-113535227D01*
X162628387Y-113543079D01*
X162649457Y-113553044D01*
X162669448Y-113565026D01*
X162688168Y-113578910D01*
X162705438Y-113594562D01*
X162721090Y-113611832D01*
X162734974Y-113630552D01*
X162746956Y-113650543D01*
X162756921Y-113671613D01*
X162764773Y-113693557D01*
X162770437Y-113716166D01*
X162773856Y-113739221D01*
X162775000Y-113762500D01*
X162775000Y-114237500D01*
X162773856Y-114260779D01*
X162770437Y-114283834D01*
X162764773Y-114306443D01*
X162756921Y-114328387D01*
X162746956Y-114349457D01*
X162734974Y-114369448D01*
X162721090Y-114388168D01*
X162705438Y-114405438D01*
X162688168Y-114421090D01*
X162669448Y-114434974D01*
X162649457Y-114446956D01*
X162628387Y-114456921D01*
X162606443Y-114464773D01*
X162583834Y-114470437D01*
X162560779Y-114473856D01*
X162537500Y-114475000D01*
X161962500Y-114475000D01*
X161939221Y-114473856D01*
X161916166Y-114470437D01*
X161893557Y-114464773D01*
X161871613Y-114456921D01*
X161850543Y-114446956D01*
X161830552Y-114434974D01*
X161811832Y-114421090D01*
X161794562Y-114405438D01*
X161778910Y-114388168D01*
X161765026Y-114369448D01*
X161753044Y-114349457D01*
X161743079Y-114328387D01*
X161735227Y-114306443D01*
X161729563Y-114283834D01*
X161726144Y-114260779D01*
X161725000Y-114237500D01*
X161725000Y-113762500D01*
X161726144Y-113739221D01*
X161729563Y-113716166D01*
X161735227Y-113693557D01*
X161743079Y-113671613D01*
X161753044Y-113650543D01*
X161765026Y-113630552D01*
X161778910Y-113611832D01*
X161794562Y-113594562D01*
X161811832Y-113578910D01*
X161830552Y-113565026D01*
X161850543Y-113553044D01*
X161871613Y-113543079D01*
X161893557Y-113535227D01*
X161916166Y-113529563D01*
X161939221Y-113526144D01*
X161962500Y-113525000D01*
X162537500Y-113525000D01*
X162560779Y-113526144D01*
G37*
G36*
X125260779Y-100226144D02*
G01*
X125283834Y-100229563D01*
X125306443Y-100235227D01*
X125328387Y-100243079D01*
X125349457Y-100253044D01*
X125369448Y-100265026D01*
X125388168Y-100278910D01*
X125405438Y-100294562D01*
X125421090Y-100311832D01*
X125434974Y-100330552D01*
X125446956Y-100350543D01*
X125456921Y-100371613D01*
X125464773Y-100393557D01*
X125470437Y-100416166D01*
X125473856Y-100439221D01*
X125475000Y-100462500D01*
X125475000Y-101037500D01*
X125473856Y-101060779D01*
X125470437Y-101083834D01*
X125464773Y-101106443D01*
X125456921Y-101128387D01*
X125446956Y-101149457D01*
X125434974Y-101169448D01*
X125421090Y-101188168D01*
X125405438Y-101205438D01*
X125388168Y-101221090D01*
X125369448Y-101234974D01*
X125349457Y-101246956D01*
X125328387Y-101256921D01*
X125306443Y-101264773D01*
X125283834Y-101270437D01*
X125260779Y-101273856D01*
X125237500Y-101275000D01*
X124762500Y-101275000D01*
X124739221Y-101273856D01*
X124716166Y-101270437D01*
X124693557Y-101264773D01*
X124671613Y-101256921D01*
X124650543Y-101246956D01*
X124630552Y-101234974D01*
X124611832Y-101221090D01*
X124594562Y-101205438D01*
X124578910Y-101188168D01*
X124565026Y-101169448D01*
X124553044Y-101149457D01*
X124543079Y-101128387D01*
X124535227Y-101106443D01*
X124529563Y-101083834D01*
X124526144Y-101060779D01*
X124525000Y-101037500D01*
X124525000Y-100462500D01*
X124526144Y-100439221D01*
X124529563Y-100416166D01*
X124535227Y-100393557D01*
X124543079Y-100371613D01*
X124553044Y-100350543D01*
X124565026Y-100330552D01*
X124578910Y-100311832D01*
X124594562Y-100294562D01*
X124611832Y-100278910D01*
X124630552Y-100265026D01*
X124650543Y-100253044D01*
X124671613Y-100243079D01*
X124693557Y-100235227D01*
X124716166Y-100229563D01*
X124739221Y-100226144D01*
X124762500Y-100225000D01*
X125237500Y-100225000D01*
X125260779Y-100226144D01*
G37*
G36*
X125260779Y-98476144D02*
G01*
X125283834Y-98479563D01*
X125306443Y-98485227D01*
X125328387Y-98493079D01*
X125349457Y-98503044D01*
X125369448Y-98515026D01*
X125388168Y-98528910D01*
X125405438Y-98544562D01*
X125421090Y-98561832D01*
X125434974Y-98580552D01*
X125446956Y-98600543D01*
X125456921Y-98621613D01*
X125464773Y-98643557D01*
X125470437Y-98666166D01*
X125473856Y-98689221D01*
X125475000Y-98712500D01*
X125475000Y-99287500D01*
X125473856Y-99310779D01*
X125470437Y-99333834D01*
X125464773Y-99356443D01*
X125456921Y-99378387D01*
X125446956Y-99399457D01*
X125434974Y-99419448D01*
X125421090Y-99438168D01*
X125405438Y-99455438D01*
X125388168Y-99471090D01*
X125369448Y-99484974D01*
X125349457Y-99496956D01*
X125328387Y-99506921D01*
X125306443Y-99514773D01*
X125283834Y-99520437D01*
X125260779Y-99523856D01*
X125237500Y-99525000D01*
X124762500Y-99525000D01*
X124739221Y-99523856D01*
X124716166Y-99520437D01*
X124693557Y-99514773D01*
X124671613Y-99506921D01*
X124650543Y-99496956D01*
X124630552Y-99484974D01*
X124611832Y-99471090D01*
X124594562Y-99455438D01*
X124578910Y-99438168D01*
X124565026Y-99419448D01*
X124553044Y-99399457D01*
X124543079Y-99378387D01*
X124535227Y-99356443D01*
X124529563Y-99333834D01*
X124526144Y-99310779D01*
X124525000Y-99287500D01*
X124525000Y-98712500D01*
X124526144Y-98689221D01*
X124529563Y-98666166D01*
X124535227Y-98643557D01*
X124543079Y-98621613D01*
X124553044Y-98600543D01*
X124565026Y-98580552D01*
X124578910Y-98561832D01*
X124594562Y-98544562D01*
X124611832Y-98528910D01*
X124630552Y-98515026D01*
X124650543Y-98503044D01*
X124671613Y-98493079D01*
X124693557Y-98485227D01*
X124716166Y-98479563D01*
X124739221Y-98476144D01*
X124762500Y-98475000D01*
X125237500Y-98475000D01*
X125260779Y-98476144D01*
G37*
G36*
X145560779Y-102026144D02*
G01*
X145583834Y-102029563D01*
X145606443Y-102035227D01*
X145628387Y-102043079D01*
X145649457Y-102053044D01*
X145669448Y-102065026D01*
X145688168Y-102078910D01*
X145705438Y-102094562D01*
X145721090Y-102111832D01*
X145734974Y-102130552D01*
X145746956Y-102150543D01*
X145756921Y-102171613D01*
X145764773Y-102193557D01*
X145770437Y-102216166D01*
X145773856Y-102239221D01*
X145775000Y-102262500D01*
X145775000Y-102737500D01*
X145773856Y-102760779D01*
X145770437Y-102783834D01*
X145764773Y-102806443D01*
X145756921Y-102828387D01*
X145746956Y-102849457D01*
X145734974Y-102869448D01*
X145721090Y-102888168D01*
X145705438Y-102905438D01*
X145688168Y-102921090D01*
X145669448Y-102934974D01*
X145649457Y-102946956D01*
X145628387Y-102956921D01*
X145606443Y-102964773D01*
X145583834Y-102970437D01*
X145560779Y-102973856D01*
X145537500Y-102975000D01*
X144962500Y-102975000D01*
X144939221Y-102973856D01*
X144916166Y-102970437D01*
X144893557Y-102964773D01*
X144871613Y-102956921D01*
X144850543Y-102946956D01*
X144830552Y-102934974D01*
X144811832Y-102921090D01*
X144794562Y-102905438D01*
X144778910Y-102888168D01*
X144765026Y-102869448D01*
X144753044Y-102849457D01*
X144743079Y-102828387D01*
X144735227Y-102806443D01*
X144729563Y-102783834D01*
X144726144Y-102760779D01*
X144725000Y-102737500D01*
X144725000Y-102262500D01*
X144726144Y-102239221D01*
X144729563Y-102216166D01*
X144735227Y-102193557D01*
X144743079Y-102171613D01*
X144753044Y-102150543D01*
X144765026Y-102130552D01*
X144778910Y-102111832D01*
X144794562Y-102094562D01*
X144811832Y-102078910D01*
X144830552Y-102065026D01*
X144850543Y-102053044D01*
X144871613Y-102043079D01*
X144893557Y-102035227D01*
X144916166Y-102029563D01*
X144939221Y-102026144D01*
X144962500Y-102025000D01*
X145537500Y-102025000D01*
X145560779Y-102026144D01*
G37*
G36*
X143810779Y-102026144D02*
G01*
X143833834Y-102029563D01*
X143856443Y-102035227D01*
X143878387Y-102043079D01*
X143899457Y-102053044D01*
X143919448Y-102065026D01*
X143938168Y-102078910D01*
X143955438Y-102094562D01*
X143971090Y-102111832D01*
X143984974Y-102130552D01*
X143996956Y-102150543D01*
X144006921Y-102171613D01*
X144014773Y-102193557D01*
X144020437Y-102216166D01*
X144023856Y-102239221D01*
X144025000Y-102262500D01*
X144025000Y-102737500D01*
X144023856Y-102760779D01*
X144020437Y-102783834D01*
X144014773Y-102806443D01*
X144006921Y-102828387D01*
X143996956Y-102849457D01*
X143984974Y-102869448D01*
X143971090Y-102888168D01*
X143955438Y-102905438D01*
X143938168Y-102921090D01*
X143919448Y-102934974D01*
X143899457Y-102946956D01*
X143878387Y-102956921D01*
X143856443Y-102964773D01*
X143833834Y-102970437D01*
X143810779Y-102973856D01*
X143787500Y-102975000D01*
X143212500Y-102975000D01*
X143189221Y-102973856D01*
X143166166Y-102970437D01*
X143143557Y-102964773D01*
X143121613Y-102956921D01*
X143100543Y-102946956D01*
X143080552Y-102934974D01*
X143061832Y-102921090D01*
X143044562Y-102905438D01*
X143028910Y-102888168D01*
X143015026Y-102869448D01*
X143003044Y-102849457D01*
X142993079Y-102828387D01*
X142985227Y-102806443D01*
X142979563Y-102783834D01*
X142976144Y-102760779D01*
X142975000Y-102737500D01*
X142975000Y-102262500D01*
X142976144Y-102239221D01*
X142979563Y-102216166D01*
X142985227Y-102193557D01*
X142993079Y-102171613D01*
X143003044Y-102150543D01*
X143015026Y-102130552D01*
X143028910Y-102111832D01*
X143044562Y-102094562D01*
X143061832Y-102078910D01*
X143080552Y-102065026D01*
X143100543Y-102053044D01*
X143121613Y-102043079D01*
X143143557Y-102035227D01*
X143166166Y-102029563D01*
X143189221Y-102026144D01*
X143212500Y-102025000D01*
X143787500Y-102025000D01*
X143810779Y-102026144D01*
G37*
G36*
X143660779Y-96926144D02*
G01*
X143683834Y-96929563D01*
X143706443Y-96935227D01*
X143728387Y-96943079D01*
X143749457Y-96953044D01*
X143769448Y-96965026D01*
X143788168Y-96978910D01*
X143805438Y-96994562D01*
X143821090Y-97011832D01*
X143834974Y-97030552D01*
X143846956Y-97050543D01*
X143856921Y-97071613D01*
X143864773Y-97093557D01*
X143870437Y-97116166D01*
X143873856Y-97139221D01*
X143875000Y-97162500D01*
X143875000Y-97637500D01*
X143873856Y-97660779D01*
X143870437Y-97683834D01*
X143864773Y-97706443D01*
X143856921Y-97728387D01*
X143846956Y-97749457D01*
X143834974Y-97769448D01*
X143821090Y-97788168D01*
X143805438Y-97805438D01*
X143788168Y-97821090D01*
X143769448Y-97834974D01*
X143749457Y-97846956D01*
X143728387Y-97856921D01*
X143706443Y-97864773D01*
X143683834Y-97870437D01*
X143660779Y-97873856D01*
X143637500Y-97875000D01*
X143062500Y-97875000D01*
X143039221Y-97873856D01*
X143016166Y-97870437D01*
X142993557Y-97864773D01*
X142971613Y-97856921D01*
X142950543Y-97846956D01*
X142930552Y-97834974D01*
X142911832Y-97821090D01*
X142894562Y-97805438D01*
X142878910Y-97788168D01*
X142865026Y-97769448D01*
X142853044Y-97749457D01*
X142843079Y-97728387D01*
X142835227Y-97706443D01*
X142829563Y-97683834D01*
X142826144Y-97660779D01*
X142825000Y-97637500D01*
X142825000Y-97162500D01*
X142826144Y-97139221D01*
X142829563Y-97116166D01*
X142835227Y-97093557D01*
X142843079Y-97071613D01*
X142853044Y-97050543D01*
X142865026Y-97030552D01*
X142878910Y-97011832D01*
X142894562Y-96994562D01*
X142911832Y-96978910D01*
X142930552Y-96965026D01*
X142950543Y-96953044D01*
X142971613Y-96943079D01*
X142993557Y-96935227D01*
X143016166Y-96929563D01*
X143039221Y-96926144D01*
X143062500Y-96925000D01*
X143637500Y-96925000D01*
X143660779Y-96926144D01*
G37*
G36*
X145410779Y-96926144D02*
G01*
X145433834Y-96929563D01*
X145456443Y-96935227D01*
X145478387Y-96943079D01*
X145499457Y-96953044D01*
X145519448Y-96965026D01*
X145538168Y-96978910D01*
X145555438Y-96994562D01*
X145571090Y-97011832D01*
X145584974Y-97030552D01*
X145596956Y-97050543D01*
X145606921Y-97071613D01*
X145614773Y-97093557D01*
X145620437Y-97116166D01*
X145623856Y-97139221D01*
X145625000Y-97162500D01*
X145625000Y-97637500D01*
X145623856Y-97660779D01*
X145620437Y-97683834D01*
X145614773Y-97706443D01*
X145606921Y-97728387D01*
X145596956Y-97749457D01*
X145584974Y-97769448D01*
X145571090Y-97788168D01*
X145555438Y-97805438D01*
X145538168Y-97821090D01*
X145519448Y-97834974D01*
X145499457Y-97846956D01*
X145478387Y-97856921D01*
X145456443Y-97864773D01*
X145433834Y-97870437D01*
X145410779Y-97873856D01*
X145387500Y-97875000D01*
X144812500Y-97875000D01*
X144789221Y-97873856D01*
X144766166Y-97870437D01*
X144743557Y-97864773D01*
X144721613Y-97856921D01*
X144700543Y-97846956D01*
X144680552Y-97834974D01*
X144661832Y-97821090D01*
X144644562Y-97805438D01*
X144628910Y-97788168D01*
X144615026Y-97769448D01*
X144603044Y-97749457D01*
X144593079Y-97728387D01*
X144585227Y-97706443D01*
X144579563Y-97683834D01*
X144576144Y-97660779D01*
X144575000Y-97637500D01*
X144575000Y-97162500D01*
X144576144Y-97139221D01*
X144579563Y-97116166D01*
X144585227Y-97093557D01*
X144593079Y-97071613D01*
X144603044Y-97050543D01*
X144615026Y-97030552D01*
X144628910Y-97011832D01*
X144644562Y-96994562D01*
X144661832Y-96978910D01*
X144680552Y-96965026D01*
X144700543Y-96953044D01*
X144721613Y-96943079D01*
X144743557Y-96935227D01*
X144766166Y-96929563D01*
X144789221Y-96926144D01*
X144812500Y-96925000D01*
X145387500Y-96925000D01*
X145410779Y-96926144D01*
G37*
G36*
X127390779Y-91516144D02*
G01*
X127413834Y-91519563D01*
X127436443Y-91525227D01*
X127458387Y-91533079D01*
X127479457Y-91543044D01*
X127499448Y-91555026D01*
X127518168Y-91568910D01*
X127535438Y-91584562D01*
X127551090Y-91601832D01*
X127564974Y-91620552D01*
X127576956Y-91640543D01*
X127586921Y-91661613D01*
X127594773Y-91683557D01*
X127600437Y-91706166D01*
X127603856Y-91729221D01*
X127605000Y-91752500D01*
X127605000Y-92327500D01*
X127603856Y-92350779D01*
X127600437Y-92373834D01*
X127594773Y-92396443D01*
X127586921Y-92418387D01*
X127576956Y-92439457D01*
X127564974Y-92459448D01*
X127551090Y-92478168D01*
X127535438Y-92495438D01*
X127518168Y-92511090D01*
X127499448Y-92524974D01*
X127479457Y-92536956D01*
X127458387Y-92546921D01*
X127436443Y-92554773D01*
X127413834Y-92560437D01*
X127390779Y-92563856D01*
X127367500Y-92565000D01*
X126892500Y-92565000D01*
X126869221Y-92563856D01*
X126846166Y-92560437D01*
X126823557Y-92554773D01*
X126801613Y-92546921D01*
X126780543Y-92536956D01*
X126760552Y-92524974D01*
X126741832Y-92511090D01*
X126724562Y-92495438D01*
X126708910Y-92478168D01*
X126695026Y-92459448D01*
X126683044Y-92439457D01*
X126673079Y-92418387D01*
X126665227Y-92396443D01*
X126659563Y-92373834D01*
X126656144Y-92350779D01*
X126655000Y-92327500D01*
X126655000Y-91752500D01*
X126656144Y-91729221D01*
X126659563Y-91706166D01*
X126665227Y-91683557D01*
X126673079Y-91661613D01*
X126683044Y-91640543D01*
X126695026Y-91620552D01*
X126708910Y-91601832D01*
X126724562Y-91584562D01*
X126741832Y-91568910D01*
X126760552Y-91555026D01*
X126780543Y-91543044D01*
X126801613Y-91533079D01*
X126823557Y-91525227D01*
X126846166Y-91519563D01*
X126869221Y-91516144D01*
X126892500Y-91515000D01*
X127367500Y-91515000D01*
X127390779Y-91516144D01*
G37*
G36*
X127390779Y-89766144D02*
G01*
X127413834Y-89769563D01*
X127436443Y-89775227D01*
X127458387Y-89783079D01*
X127479457Y-89793044D01*
X127499448Y-89805026D01*
X127518168Y-89818910D01*
X127535438Y-89834562D01*
X127551090Y-89851832D01*
X127564974Y-89870552D01*
X127576956Y-89890543D01*
X127586921Y-89911613D01*
X127594773Y-89933557D01*
X127600437Y-89956166D01*
X127603856Y-89979221D01*
X127605000Y-90002500D01*
X127605000Y-90577500D01*
X127603856Y-90600779D01*
X127600437Y-90623834D01*
X127594773Y-90646443D01*
X127586921Y-90668387D01*
X127576956Y-90689457D01*
X127564974Y-90709448D01*
X127551090Y-90728168D01*
X127535438Y-90745438D01*
X127518168Y-90761090D01*
X127499448Y-90774974D01*
X127479457Y-90786956D01*
X127458387Y-90796921D01*
X127436443Y-90804773D01*
X127413834Y-90810437D01*
X127390779Y-90813856D01*
X127367500Y-90815000D01*
X126892500Y-90815000D01*
X126869221Y-90813856D01*
X126846166Y-90810437D01*
X126823557Y-90804773D01*
X126801613Y-90796921D01*
X126780543Y-90786956D01*
X126760552Y-90774974D01*
X126741832Y-90761090D01*
X126724562Y-90745438D01*
X126708910Y-90728168D01*
X126695026Y-90709448D01*
X126683044Y-90689457D01*
X126673079Y-90668387D01*
X126665227Y-90646443D01*
X126659563Y-90623834D01*
X126656144Y-90600779D01*
X126655000Y-90577500D01*
X126655000Y-90002500D01*
X126656144Y-89979221D01*
X126659563Y-89956166D01*
X126665227Y-89933557D01*
X126673079Y-89911613D01*
X126683044Y-89890543D01*
X126695026Y-89870552D01*
X126708910Y-89851832D01*
X126724562Y-89834562D01*
X126741832Y-89818910D01*
X126760552Y-89805026D01*
X126780543Y-89793044D01*
X126801613Y-89783079D01*
X126823557Y-89775227D01*
X126846166Y-89769563D01*
X126869221Y-89766144D01*
X126892500Y-89765000D01*
X127367500Y-89765000D01*
X127390779Y-89766144D01*
G37*
G36*
X127390779Y-88186144D02*
G01*
X127413834Y-88189563D01*
X127436443Y-88195227D01*
X127458387Y-88203079D01*
X127479457Y-88213044D01*
X127499448Y-88225026D01*
X127518168Y-88238910D01*
X127535438Y-88254562D01*
X127551090Y-88271832D01*
X127564974Y-88290552D01*
X127576956Y-88310543D01*
X127586921Y-88331613D01*
X127594773Y-88353557D01*
X127600437Y-88376166D01*
X127603856Y-88399221D01*
X127605000Y-88422500D01*
X127605000Y-88997500D01*
X127603856Y-89020779D01*
X127600437Y-89043834D01*
X127594773Y-89066443D01*
X127586921Y-89088387D01*
X127576956Y-89109457D01*
X127564974Y-89129448D01*
X127551090Y-89148168D01*
X127535438Y-89165438D01*
X127518168Y-89181090D01*
X127499448Y-89194974D01*
X127479457Y-89206956D01*
X127458387Y-89216921D01*
X127436443Y-89224773D01*
X127413834Y-89230437D01*
X127390779Y-89233856D01*
X127367500Y-89235000D01*
X126892500Y-89235000D01*
X126869221Y-89233856D01*
X126846166Y-89230437D01*
X126823557Y-89224773D01*
X126801613Y-89216921D01*
X126780543Y-89206956D01*
X126760552Y-89194974D01*
X126741832Y-89181090D01*
X126724562Y-89165438D01*
X126708910Y-89148168D01*
X126695026Y-89129448D01*
X126683044Y-89109457D01*
X126673079Y-89088387D01*
X126665227Y-89066443D01*
X126659563Y-89043834D01*
X126656144Y-89020779D01*
X126655000Y-88997500D01*
X126655000Y-88422500D01*
X126656144Y-88399221D01*
X126659563Y-88376166D01*
X126665227Y-88353557D01*
X126673079Y-88331613D01*
X126683044Y-88310543D01*
X126695026Y-88290552D01*
X126708910Y-88271832D01*
X126724562Y-88254562D01*
X126741832Y-88238910D01*
X126760552Y-88225026D01*
X126780543Y-88213044D01*
X126801613Y-88203079D01*
X126823557Y-88195227D01*
X126846166Y-88189563D01*
X126869221Y-88186144D01*
X126892500Y-88185000D01*
X127367500Y-88185000D01*
X127390779Y-88186144D01*
G37*
G36*
X127390779Y-86436144D02*
G01*
X127413834Y-86439563D01*
X127436443Y-86445227D01*
X127458387Y-86453079D01*
X127479457Y-86463044D01*
X127499448Y-86475026D01*
X127518168Y-86488910D01*
X127535438Y-86504562D01*
X127551090Y-86521832D01*
X127564974Y-86540552D01*
X127576956Y-86560543D01*
X127586921Y-86581613D01*
X127594773Y-86603557D01*
X127600437Y-86626166D01*
X127603856Y-86649221D01*
X127605000Y-86672500D01*
X127605000Y-87247500D01*
X127603856Y-87270779D01*
X127600437Y-87293834D01*
X127594773Y-87316443D01*
X127586921Y-87338387D01*
X127576956Y-87359457D01*
X127564974Y-87379448D01*
X127551090Y-87398168D01*
X127535438Y-87415438D01*
X127518168Y-87431090D01*
X127499448Y-87444974D01*
X127479457Y-87456956D01*
X127458387Y-87466921D01*
X127436443Y-87474773D01*
X127413834Y-87480437D01*
X127390779Y-87483856D01*
X127367500Y-87485000D01*
X126892500Y-87485000D01*
X126869221Y-87483856D01*
X126846166Y-87480437D01*
X126823557Y-87474773D01*
X126801613Y-87466921D01*
X126780543Y-87456956D01*
X126760552Y-87444974D01*
X126741832Y-87431090D01*
X126724562Y-87415438D01*
X126708910Y-87398168D01*
X126695026Y-87379448D01*
X126683044Y-87359457D01*
X126673079Y-87338387D01*
X126665227Y-87316443D01*
X126659563Y-87293834D01*
X126656144Y-87270779D01*
X126655000Y-87247500D01*
X126655000Y-86672500D01*
X126656144Y-86649221D01*
X126659563Y-86626166D01*
X126665227Y-86603557D01*
X126673079Y-86581613D01*
X126683044Y-86560543D01*
X126695026Y-86540552D01*
X126708910Y-86521832D01*
X126724562Y-86504562D01*
X126741832Y-86488910D01*
X126760552Y-86475026D01*
X126780543Y-86463044D01*
X126801613Y-86453079D01*
X126823557Y-86445227D01*
X126846166Y-86439563D01*
X126869221Y-86436144D01*
X126892500Y-86435000D01*
X127367500Y-86435000D01*
X127390779Y-86436144D01*
G37*
G36*
X134260779Y-100476144D02*
G01*
X134283834Y-100479563D01*
X134306443Y-100485227D01*
X134328387Y-100493079D01*
X134349457Y-100503044D01*
X134369448Y-100515026D01*
X134388168Y-100528910D01*
X134405438Y-100544562D01*
X134421090Y-100561832D01*
X134434974Y-100580552D01*
X134446956Y-100600543D01*
X134456921Y-100621613D01*
X134464773Y-100643557D01*
X134470437Y-100666166D01*
X134473856Y-100689221D01*
X134475000Y-100712500D01*
X134475000Y-101287500D01*
X134473856Y-101310779D01*
X134470437Y-101333834D01*
X134464773Y-101356443D01*
X134456921Y-101378387D01*
X134446956Y-101399457D01*
X134434974Y-101419448D01*
X134421090Y-101438168D01*
X134405438Y-101455438D01*
X134388168Y-101471090D01*
X134369448Y-101484974D01*
X134349457Y-101496956D01*
X134328387Y-101506921D01*
X134306443Y-101514773D01*
X134283834Y-101520437D01*
X134260779Y-101523856D01*
X134237500Y-101525000D01*
X133762500Y-101525000D01*
X133739221Y-101523856D01*
X133716166Y-101520437D01*
X133693557Y-101514773D01*
X133671613Y-101506921D01*
X133650543Y-101496956D01*
X133630552Y-101484974D01*
X133611832Y-101471090D01*
X133594562Y-101455438D01*
X133578910Y-101438168D01*
X133565026Y-101419448D01*
X133553044Y-101399457D01*
X133543079Y-101378387D01*
X133535227Y-101356443D01*
X133529563Y-101333834D01*
X133526144Y-101310779D01*
X133525000Y-101287500D01*
X133525000Y-100712500D01*
X133526144Y-100689221D01*
X133529563Y-100666166D01*
X133535227Y-100643557D01*
X133543079Y-100621613D01*
X133553044Y-100600543D01*
X133565026Y-100580552D01*
X133578910Y-100561832D01*
X133594562Y-100544562D01*
X133611832Y-100528910D01*
X133630552Y-100515026D01*
X133650543Y-100503044D01*
X133671613Y-100493079D01*
X133693557Y-100485227D01*
X133716166Y-100479563D01*
X133739221Y-100476144D01*
X133762500Y-100475000D01*
X134237500Y-100475000D01*
X134260779Y-100476144D01*
G37*
G36*
X134260779Y-98726144D02*
G01*
X134283834Y-98729563D01*
X134306443Y-98735227D01*
X134328387Y-98743079D01*
X134349457Y-98753044D01*
X134369448Y-98765026D01*
X134388168Y-98778910D01*
X134405438Y-98794562D01*
X134421090Y-98811832D01*
X134434974Y-98830552D01*
X134446956Y-98850543D01*
X134456921Y-98871613D01*
X134464773Y-98893557D01*
X134470437Y-98916166D01*
X134473856Y-98939221D01*
X134475000Y-98962500D01*
X134475000Y-99537500D01*
X134473856Y-99560779D01*
X134470437Y-99583834D01*
X134464773Y-99606443D01*
X134456921Y-99628387D01*
X134446956Y-99649457D01*
X134434974Y-99669448D01*
X134421090Y-99688168D01*
X134405438Y-99705438D01*
X134388168Y-99721090D01*
X134369448Y-99734974D01*
X134349457Y-99746956D01*
X134328387Y-99756921D01*
X134306443Y-99764773D01*
X134283834Y-99770437D01*
X134260779Y-99773856D01*
X134237500Y-99775000D01*
X133762500Y-99775000D01*
X133739221Y-99773856D01*
X133716166Y-99770437D01*
X133693557Y-99764773D01*
X133671613Y-99756921D01*
X133650543Y-99746956D01*
X133630552Y-99734974D01*
X133611832Y-99721090D01*
X133594562Y-99705438D01*
X133578910Y-99688168D01*
X133565026Y-99669448D01*
X133553044Y-99649457D01*
X133543079Y-99628387D01*
X133535227Y-99606443D01*
X133529563Y-99583834D01*
X133526144Y-99560779D01*
X133525000Y-99537500D01*
X133525000Y-98962500D01*
X133526144Y-98939221D01*
X133529563Y-98916166D01*
X133535227Y-98893557D01*
X133543079Y-98871613D01*
X133553044Y-98850543D01*
X133565026Y-98830552D01*
X133578910Y-98811832D01*
X133594562Y-98794562D01*
X133611832Y-98778910D01*
X133630552Y-98765026D01*
X133650543Y-98753044D01*
X133671613Y-98743079D01*
X133693557Y-98735227D01*
X133716166Y-98729563D01*
X133739221Y-98726144D01*
X133762500Y-98725000D01*
X134237500Y-98725000D01*
X134260779Y-98726144D01*
G37*
G36*
X116510779Y-100226144D02*
G01*
X116533834Y-100229563D01*
X116556443Y-100235227D01*
X116578387Y-100243079D01*
X116599457Y-100253044D01*
X116619448Y-100265026D01*
X116638168Y-100278910D01*
X116655438Y-100294562D01*
X116671090Y-100311832D01*
X116684974Y-100330552D01*
X116696956Y-100350543D01*
X116706921Y-100371613D01*
X116714773Y-100393557D01*
X116720437Y-100416166D01*
X116723856Y-100439221D01*
X116725000Y-100462500D01*
X116725000Y-101037500D01*
X116723856Y-101060779D01*
X116720437Y-101083834D01*
X116714773Y-101106443D01*
X116706921Y-101128387D01*
X116696956Y-101149457D01*
X116684974Y-101169448D01*
X116671090Y-101188168D01*
X116655438Y-101205438D01*
X116638168Y-101221090D01*
X116619448Y-101234974D01*
X116599457Y-101246956D01*
X116578387Y-101256921D01*
X116556443Y-101264773D01*
X116533834Y-101270437D01*
X116510779Y-101273856D01*
X116487500Y-101275000D01*
X116012500Y-101275000D01*
X115989221Y-101273856D01*
X115966166Y-101270437D01*
X115943557Y-101264773D01*
X115921613Y-101256921D01*
X115900543Y-101246956D01*
X115880552Y-101234974D01*
X115861832Y-101221090D01*
X115844562Y-101205438D01*
X115828910Y-101188168D01*
X115815026Y-101169448D01*
X115803044Y-101149457D01*
X115793079Y-101128387D01*
X115785227Y-101106443D01*
X115779563Y-101083834D01*
X115776144Y-101060779D01*
X115775000Y-101037500D01*
X115775000Y-100462500D01*
X115776144Y-100439221D01*
X115779563Y-100416166D01*
X115785227Y-100393557D01*
X115793079Y-100371613D01*
X115803044Y-100350543D01*
X115815026Y-100330552D01*
X115828910Y-100311832D01*
X115844562Y-100294562D01*
X115861832Y-100278910D01*
X115880552Y-100265026D01*
X115900543Y-100253044D01*
X115921613Y-100243079D01*
X115943557Y-100235227D01*
X115966166Y-100229563D01*
X115989221Y-100226144D01*
X116012500Y-100225000D01*
X116487500Y-100225000D01*
X116510779Y-100226144D01*
G37*
G36*
X116510779Y-98476144D02*
G01*
X116533834Y-98479563D01*
X116556443Y-98485227D01*
X116578387Y-98493079D01*
X116599457Y-98503044D01*
X116619448Y-98515026D01*
X116638168Y-98528910D01*
X116655438Y-98544562D01*
X116671090Y-98561832D01*
X116684974Y-98580552D01*
X116696956Y-98600543D01*
X116706921Y-98621613D01*
X116714773Y-98643557D01*
X116720437Y-98666166D01*
X116723856Y-98689221D01*
X116725000Y-98712500D01*
X116725000Y-99287500D01*
X116723856Y-99310779D01*
X116720437Y-99333834D01*
X116714773Y-99356443D01*
X116706921Y-99378387D01*
X116696956Y-99399457D01*
X116684974Y-99419448D01*
X116671090Y-99438168D01*
X116655438Y-99455438D01*
X116638168Y-99471090D01*
X116619448Y-99484974D01*
X116599457Y-99496956D01*
X116578387Y-99506921D01*
X116556443Y-99514773D01*
X116533834Y-99520437D01*
X116510779Y-99523856D01*
X116487500Y-99525000D01*
X116012500Y-99525000D01*
X115989221Y-99523856D01*
X115966166Y-99520437D01*
X115943557Y-99514773D01*
X115921613Y-99506921D01*
X115900543Y-99496956D01*
X115880552Y-99484974D01*
X115861832Y-99471090D01*
X115844562Y-99455438D01*
X115828910Y-99438168D01*
X115815026Y-99419448D01*
X115803044Y-99399457D01*
X115793079Y-99378387D01*
X115785227Y-99356443D01*
X115779563Y-99333834D01*
X115776144Y-99310779D01*
X115775000Y-99287500D01*
X115775000Y-98712500D01*
X115776144Y-98689221D01*
X115779563Y-98666166D01*
X115785227Y-98643557D01*
X115793079Y-98621613D01*
X115803044Y-98600543D01*
X115815026Y-98580552D01*
X115828910Y-98561832D01*
X115844562Y-98544562D01*
X115861832Y-98528910D01*
X115880552Y-98515026D01*
X115900543Y-98503044D01*
X115921613Y-98493079D01*
X115943557Y-98485227D01*
X115966166Y-98479563D01*
X115989221Y-98476144D01*
X116012500Y-98475000D01*
X116487500Y-98475000D01*
X116510779Y-98476144D01*
G37*
G36*
X134425779Y-82676144D02*
G01*
X134448834Y-82679563D01*
X134471443Y-82685227D01*
X134493387Y-82693079D01*
X134514457Y-82703044D01*
X134534448Y-82715026D01*
X134553168Y-82728910D01*
X134570438Y-82744562D01*
X134586090Y-82761832D01*
X134599974Y-82780552D01*
X134611956Y-82800543D01*
X134621921Y-82821613D01*
X134629773Y-82843557D01*
X134635437Y-82866166D01*
X134638856Y-82889221D01*
X134640000Y-82912500D01*
X134640000Y-83387500D01*
X134638856Y-83410779D01*
X134635437Y-83433834D01*
X134629773Y-83456443D01*
X134621921Y-83478387D01*
X134611956Y-83499457D01*
X134599974Y-83519448D01*
X134586090Y-83538168D01*
X134570438Y-83555438D01*
X134553168Y-83571090D01*
X134534448Y-83584974D01*
X134514457Y-83596956D01*
X134493387Y-83606921D01*
X134471443Y-83614773D01*
X134448834Y-83620437D01*
X134425779Y-83623856D01*
X134402500Y-83625000D01*
X133827500Y-83625000D01*
X133804221Y-83623856D01*
X133781166Y-83620437D01*
X133758557Y-83614773D01*
X133736613Y-83606921D01*
X133715543Y-83596956D01*
X133695552Y-83584974D01*
X133676832Y-83571090D01*
X133659562Y-83555438D01*
X133643910Y-83538168D01*
X133630026Y-83519448D01*
X133618044Y-83499457D01*
X133608079Y-83478387D01*
X133600227Y-83456443D01*
X133594563Y-83433834D01*
X133591144Y-83410779D01*
X133590000Y-83387500D01*
X133590000Y-82912500D01*
X133591144Y-82889221D01*
X133594563Y-82866166D01*
X133600227Y-82843557D01*
X133608079Y-82821613D01*
X133618044Y-82800543D01*
X133630026Y-82780552D01*
X133643910Y-82761832D01*
X133659562Y-82744562D01*
X133676832Y-82728910D01*
X133695552Y-82715026D01*
X133715543Y-82703044D01*
X133736613Y-82693079D01*
X133758557Y-82685227D01*
X133781166Y-82679563D01*
X133804221Y-82676144D01*
X133827500Y-82675000D01*
X134402500Y-82675000D01*
X134425779Y-82676144D01*
G37*
G36*
X132675779Y-82676144D02*
G01*
X132698834Y-82679563D01*
X132721443Y-82685227D01*
X132743387Y-82693079D01*
X132764457Y-82703044D01*
X132784448Y-82715026D01*
X132803168Y-82728910D01*
X132820438Y-82744562D01*
X132836090Y-82761832D01*
X132849974Y-82780552D01*
X132861956Y-82800543D01*
X132871921Y-82821613D01*
X132879773Y-82843557D01*
X132885437Y-82866166D01*
X132888856Y-82889221D01*
X132890000Y-82912500D01*
X132890000Y-83387500D01*
X132888856Y-83410779D01*
X132885437Y-83433834D01*
X132879773Y-83456443D01*
X132871921Y-83478387D01*
X132861956Y-83499457D01*
X132849974Y-83519448D01*
X132836090Y-83538168D01*
X132820438Y-83555438D01*
X132803168Y-83571090D01*
X132784448Y-83584974D01*
X132764457Y-83596956D01*
X132743387Y-83606921D01*
X132721443Y-83614773D01*
X132698834Y-83620437D01*
X132675779Y-83623856D01*
X132652500Y-83625000D01*
X132077500Y-83625000D01*
X132054221Y-83623856D01*
X132031166Y-83620437D01*
X132008557Y-83614773D01*
X131986613Y-83606921D01*
X131965543Y-83596956D01*
X131945552Y-83584974D01*
X131926832Y-83571090D01*
X131909562Y-83555438D01*
X131893910Y-83538168D01*
X131880026Y-83519448D01*
X131868044Y-83499457D01*
X131858079Y-83478387D01*
X131850227Y-83456443D01*
X131844563Y-83433834D01*
X131841144Y-83410779D01*
X131840000Y-83387500D01*
X131840000Y-82912500D01*
X131841144Y-82889221D01*
X131844563Y-82866166D01*
X131850227Y-82843557D01*
X131858079Y-82821613D01*
X131868044Y-82800543D01*
X131880026Y-82780552D01*
X131893910Y-82761832D01*
X131909562Y-82744562D01*
X131926832Y-82728910D01*
X131945552Y-82715026D01*
X131965543Y-82703044D01*
X131986613Y-82693079D01*
X132008557Y-82685227D01*
X132031166Y-82679563D01*
X132054221Y-82676144D01*
X132077500Y-82675000D01*
X132652500Y-82675000D01*
X132675779Y-82676144D01*
G37*
D15*
X127750000Y-105000000D03*
X126800000Y-103000000D03*
X128700000Y-103000000D03*
D16*
X143250000Y-99950000D03*
X145250000Y-99000000D03*
X145250000Y-100900000D03*
D15*
X136550000Y-105250000D03*
X135600000Y-103250000D03*
X137500000Y-103250000D03*
X118800000Y-105000000D03*
X117850000Y-103000000D03*
X119750000Y-103000000D03*
D14*
G36*
X154274504Y-67601204D02*
G01*
X154298773Y-67604804D01*
X154322571Y-67610765D01*
X154345671Y-67619030D01*
X154367849Y-67629520D01*
X154388893Y-67642133D01*
X154408598Y-67656747D01*
X154426777Y-67673223D01*
X154443253Y-67691402D01*
X154457867Y-67711107D01*
X154470480Y-67732151D01*
X154480970Y-67754329D01*
X154489235Y-67777429D01*
X154495196Y-67801227D01*
X154498796Y-67825496D01*
X154500000Y-67850000D01*
X154500000Y-70150000D01*
X154498796Y-70174504D01*
X154495196Y-70198773D01*
X154489235Y-70222571D01*
X154480970Y-70245671D01*
X154470480Y-70267849D01*
X154457867Y-70288893D01*
X154443253Y-70308598D01*
X154426777Y-70326777D01*
X154408598Y-70343253D01*
X154388893Y-70357867D01*
X154367849Y-70370480D01*
X154345671Y-70380970D01*
X154322571Y-70389235D01*
X154298773Y-70395196D01*
X154274504Y-70398796D01*
X154250000Y-70400000D01*
X153750000Y-70400000D01*
X153725496Y-70398796D01*
X153701227Y-70395196D01*
X153677429Y-70389235D01*
X153654329Y-70380970D01*
X153632151Y-70370480D01*
X153611107Y-70357867D01*
X153591402Y-70343253D01*
X153573223Y-70326777D01*
X153556747Y-70308598D01*
X153542133Y-70288893D01*
X153529520Y-70267849D01*
X153519030Y-70245671D01*
X153510765Y-70222571D01*
X153504804Y-70198773D01*
X153501204Y-70174504D01*
X153500000Y-70150000D01*
X153500000Y-67850000D01*
X153501204Y-67825496D01*
X153504804Y-67801227D01*
X153510765Y-67777429D01*
X153519030Y-67754329D01*
X153529520Y-67732151D01*
X153542133Y-67711107D01*
X153556747Y-67691402D01*
X153573223Y-67673223D01*
X153591402Y-67656747D01*
X153611107Y-67642133D01*
X153632151Y-67629520D01*
X153654329Y-67619030D01*
X153677429Y-67610765D01*
X153701227Y-67604804D01*
X153725496Y-67601204D01*
X153750000Y-67600000D01*
X154250000Y-67600000D01*
X154274504Y-67601204D01*
G37*
G36*
X146824504Y-67601204D02*
G01*
X146848773Y-67604804D01*
X146872571Y-67610765D01*
X146895671Y-67619030D01*
X146917849Y-67629520D01*
X146938893Y-67642133D01*
X146958598Y-67656747D01*
X146976777Y-67673223D01*
X146993253Y-67691402D01*
X147007867Y-67711107D01*
X147020480Y-67732151D01*
X147030970Y-67754329D01*
X147039235Y-67777429D01*
X147045196Y-67801227D01*
X147048796Y-67825496D01*
X147050000Y-67850000D01*
X147050000Y-70150000D01*
X147048796Y-70174504D01*
X147045196Y-70198773D01*
X147039235Y-70222571D01*
X147030970Y-70245671D01*
X147020480Y-70267849D01*
X147007867Y-70288893D01*
X146993253Y-70308598D01*
X146976777Y-70326777D01*
X146958598Y-70343253D01*
X146938893Y-70357867D01*
X146917849Y-70370480D01*
X146895671Y-70380970D01*
X146872571Y-70389235D01*
X146848773Y-70395196D01*
X146824504Y-70398796D01*
X146800000Y-70400000D01*
X146300000Y-70400000D01*
X146275496Y-70398796D01*
X146251227Y-70395196D01*
X146227429Y-70389235D01*
X146204329Y-70380970D01*
X146182151Y-70370480D01*
X146161107Y-70357867D01*
X146141402Y-70343253D01*
X146123223Y-70326777D01*
X146106747Y-70308598D01*
X146092133Y-70288893D01*
X146079520Y-70267849D01*
X146069030Y-70245671D01*
X146060765Y-70222571D01*
X146054804Y-70198773D01*
X146051204Y-70174504D01*
X146050000Y-70150000D01*
X146050000Y-67850000D01*
X146051204Y-67825496D01*
X146054804Y-67801227D01*
X146060765Y-67777429D01*
X146069030Y-67754329D01*
X146079520Y-67732151D01*
X146092133Y-67711107D01*
X146106747Y-67691402D01*
X146123223Y-67673223D01*
X146141402Y-67656747D01*
X146161107Y-67642133D01*
X146182151Y-67629520D01*
X146204329Y-67619030D01*
X146227429Y-67610765D01*
X146251227Y-67604804D01*
X146275496Y-67601204D01*
X146300000Y-67600000D01*
X146800000Y-67600000D01*
X146824504Y-67601204D01*
G37*
G36*
X152314703Y-71500722D02*
G01*
X152329264Y-71502882D01*
X152343543Y-71506459D01*
X152357403Y-71511418D01*
X152370710Y-71517712D01*
X152383336Y-71525280D01*
X152395159Y-71534048D01*
X152406066Y-71543934D01*
X152415952Y-71554841D01*
X152424720Y-71566664D01*
X152432288Y-71579290D01*
X152438582Y-71592597D01*
X152443541Y-71606457D01*
X152447118Y-71620736D01*
X152449278Y-71635297D01*
X152450000Y-71650000D01*
X152450000Y-73050000D01*
X152449278Y-73064703D01*
X152447118Y-73079264D01*
X152443541Y-73093543D01*
X152438582Y-73107403D01*
X152432288Y-73120710D01*
X152424720Y-73133336D01*
X152415952Y-73145159D01*
X152406066Y-73156066D01*
X152395159Y-73165952D01*
X152383336Y-73174720D01*
X152370710Y-73182288D01*
X152357403Y-73188582D01*
X152343543Y-73193541D01*
X152329264Y-73197118D01*
X152314703Y-73199278D01*
X152300000Y-73200000D01*
X152000000Y-73200000D01*
X151985297Y-73199278D01*
X151970736Y-73197118D01*
X151956457Y-73193541D01*
X151942597Y-73188582D01*
X151929290Y-73182288D01*
X151916664Y-73174720D01*
X151904841Y-73165952D01*
X151893934Y-73156066D01*
X151884048Y-73145159D01*
X151875280Y-73133336D01*
X151867712Y-73120710D01*
X151861418Y-73107403D01*
X151856459Y-73093543D01*
X151852882Y-73079264D01*
X151850722Y-73064703D01*
X151850000Y-73050000D01*
X151850000Y-71650000D01*
X151850722Y-71635297D01*
X151852882Y-71620736D01*
X151856459Y-71606457D01*
X151861418Y-71592597D01*
X151867712Y-71579290D01*
X151875280Y-71566664D01*
X151884048Y-71554841D01*
X151893934Y-71543934D01*
X151904841Y-71534048D01*
X151916664Y-71525280D01*
X151929290Y-71517712D01*
X151942597Y-71511418D01*
X151956457Y-71506459D01*
X151970736Y-71502882D01*
X151985297Y-71500722D01*
X152000000Y-71500000D01*
X152300000Y-71500000D01*
X152314703Y-71500722D01*
G37*
G36*
X151064703Y-71500722D02*
G01*
X151079264Y-71502882D01*
X151093543Y-71506459D01*
X151107403Y-71511418D01*
X151120710Y-71517712D01*
X151133336Y-71525280D01*
X151145159Y-71534048D01*
X151156066Y-71543934D01*
X151165952Y-71554841D01*
X151174720Y-71566664D01*
X151182288Y-71579290D01*
X151188582Y-71592597D01*
X151193541Y-71606457D01*
X151197118Y-71620736D01*
X151199278Y-71635297D01*
X151200000Y-71650000D01*
X151200000Y-73050000D01*
X151199278Y-73064703D01*
X151197118Y-73079264D01*
X151193541Y-73093543D01*
X151188582Y-73107403D01*
X151182288Y-73120710D01*
X151174720Y-73133336D01*
X151165952Y-73145159D01*
X151156066Y-73156066D01*
X151145159Y-73165952D01*
X151133336Y-73174720D01*
X151120710Y-73182288D01*
X151107403Y-73188582D01*
X151093543Y-73193541D01*
X151079264Y-73197118D01*
X151064703Y-73199278D01*
X151050000Y-73200000D01*
X150750000Y-73200000D01*
X150735297Y-73199278D01*
X150720736Y-73197118D01*
X150706457Y-73193541D01*
X150692597Y-73188582D01*
X150679290Y-73182288D01*
X150666664Y-73174720D01*
X150654841Y-73165952D01*
X150643934Y-73156066D01*
X150634048Y-73145159D01*
X150625280Y-73133336D01*
X150617712Y-73120710D01*
X150611418Y-73107403D01*
X150606459Y-73093543D01*
X150602882Y-73079264D01*
X150600722Y-73064703D01*
X150600000Y-73050000D01*
X150600000Y-71650000D01*
X150600722Y-71635297D01*
X150602882Y-71620736D01*
X150606459Y-71606457D01*
X150611418Y-71592597D01*
X150617712Y-71579290D01*
X150625280Y-71566664D01*
X150634048Y-71554841D01*
X150643934Y-71543934D01*
X150654841Y-71534048D01*
X150666664Y-71525280D01*
X150679290Y-71517712D01*
X150692597Y-71511418D01*
X150706457Y-71506459D01*
X150720736Y-71502882D01*
X150735297Y-71500722D01*
X150750000Y-71500000D01*
X151050000Y-71500000D01*
X151064703Y-71500722D01*
G37*
G36*
X149814703Y-71500722D02*
G01*
X149829264Y-71502882D01*
X149843543Y-71506459D01*
X149857403Y-71511418D01*
X149870710Y-71517712D01*
X149883336Y-71525280D01*
X149895159Y-71534048D01*
X149906066Y-71543934D01*
X149915952Y-71554841D01*
X149924720Y-71566664D01*
X149932288Y-71579290D01*
X149938582Y-71592597D01*
X149943541Y-71606457D01*
X149947118Y-71620736D01*
X149949278Y-71635297D01*
X149950000Y-71650000D01*
X149950000Y-73050000D01*
X149949278Y-73064703D01*
X149947118Y-73079264D01*
X149943541Y-73093543D01*
X149938582Y-73107403D01*
X149932288Y-73120710D01*
X149924720Y-73133336D01*
X149915952Y-73145159D01*
X149906066Y-73156066D01*
X149895159Y-73165952D01*
X149883336Y-73174720D01*
X149870710Y-73182288D01*
X149857403Y-73188582D01*
X149843543Y-73193541D01*
X149829264Y-73197118D01*
X149814703Y-73199278D01*
X149800000Y-73200000D01*
X149500000Y-73200000D01*
X149485297Y-73199278D01*
X149470736Y-73197118D01*
X149456457Y-73193541D01*
X149442597Y-73188582D01*
X149429290Y-73182288D01*
X149416664Y-73174720D01*
X149404841Y-73165952D01*
X149393934Y-73156066D01*
X149384048Y-73145159D01*
X149375280Y-73133336D01*
X149367712Y-73120710D01*
X149361418Y-73107403D01*
X149356459Y-73093543D01*
X149352882Y-73079264D01*
X149350722Y-73064703D01*
X149350000Y-73050000D01*
X149350000Y-71650000D01*
X149350722Y-71635297D01*
X149352882Y-71620736D01*
X149356459Y-71606457D01*
X149361418Y-71592597D01*
X149367712Y-71579290D01*
X149375280Y-71566664D01*
X149384048Y-71554841D01*
X149393934Y-71543934D01*
X149404841Y-71534048D01*
X149416664Y-71525280D01*
X149429290Y-71517712D01*
X149442597Y-71511418D01*
X149456457Y-71506459D01*
X149470736Y-71502882D01*
X149485297Y-71500722D01*
X149500000Y-71500000D01*
X149800000Y-71500000D01*
X149814703Y-71500722D01*
G37*
G36*
X148564703Y-71500722D02*
G01*
X148579264Y-71502882D01*
X148593543Y-71506459D01*
X148607403Y-71511418D01*
X148620710Y-71517712D01*
X148633336Y-71525280D01*
X148645159Y-71534048D01*
X148656066Y-71543934D01*
X148665952Y-71554841D01*
X148674720Y-71566664D01*
X148682288Y-71579290D01*
X148688582Y-71592597D01*
X148693541Y-71606457D01*
X148697118Y-71620736D01*
X148699278Y-71635297D01*
X148700000Y-71650000D01*
X148700000Y-73050000D01*
X148699278Y-73064703D01*
X148697118Y-73079264D01*
X148693541Y-73093543D01*
X148688582Y-73107403D01*
X148682288Y-73120710D01*
X148674720Y-73133336D01*
X148665952Y-73145159D01*
X148656066Y-73156066D01*
X148645159Y-73165952D01*
X148633336Y-73174720D01*
X148620710Y-73182288D01*
X148607403Y-73188582D01*
X148593543Y-73193541D01*
X148579264Y-73197118D01*
X148564703Y-73199278D01*
X148550000Y-73200000D01*
X148250000Y-73200000D01*
X148235297Y-73199278D01*
X148220736Y-73197118D01*
X148206457Y-73193541D01*
X148192597Y-73188582D01*
X148179290Y-73182288D01*
X148166664Y-73174720D01*
X148154841Y-73165952D01*
X148143934Y-73156066D01*
X148134048Y-73145159D01*
X148125280Y-73133336D01*
X148117712Y-73120710D01*
X148111418Y-73107403D01*
X148106459Y-73093543D01*
X148102882Y-73079264D01*
X148100722Y-73064703D01*
X148100000Y-73050000D01*
X148100000Y-71650000D01*
X148100722Y-71635297D01*
X148102882Y-71620736D01*
X148106459Y-71606457D01*
X148111418Y-71592597D01*
X148117712Y-71579290D01*
X148125280Y-71566664D01*
X148134048Y-71554841D01*
X148143934Y-71543934D01*
X148154841Y-71534048D01*
X148166664Y-71525280D01*
X148179290Y-71517712D01*
X148192597Y-71511418D01*
X148206457Y-71506459D01*
X148220736Y-71502882D01*
X148235297Y-71500722D01*
X148250000Y-71500000D01*
X148550000Y-71500000D01*
X148564703Y-71500722D01*
G37*
G36*
X124324504Y-112601204D02*
G01*
X124348773Y-112604804D01*
X124372571Y-112610765D01*
X124395671Y-112619030D01*
X124417849Y-112629520D01*
X124438893Y-112642133D01*
X124458598Y-112656747D01*
X124476777Y-112673223D01*
X124493253Y-112691402D01*
X124507867Y-112711107D01*
X124520480Y-112732151D01*
X124530970Y-112754329D01*
X124539235Y-112777429D01*
X124545196Y-112801227D01*
X124548796Y-112825496D01*
X124550000Y-112850000D01*
X124550000Y-115150000D01*
X124548796Y-115174504D01*
X124545196Y-115198773D01*
X124539235Y-115222571D01*
X124530970Y-115245671D01*
X124520480Y-115267849D01*
X124507867Y-115288893D01*
X124493253Y-115308598D01*
X124476777Y-115326777D01*
X124458598Y-115343253D01*
X124438893Y-115357867D01*
X124417849Y-115370480D01*
X124395671Y-115380970D01*
X124372571Y-115389235D01*
X124348773Y-115395196D01*
X124324504Y-115398796D01*
X124300000Y-115400000D01*
X123800000Y-115400000D01*
X123775496Y-115398796D01*
X123751227Y-115395196D01*
X123727429Y-115389235D01*
X123704329Y-115380970D01*
X123682151Y-115370480D01*
X123661107Y-115357867D01*
X123641402Y-115343253D01*
X123623223Y-115326777D01*
X123606747Y-115308598D01*
X123592133Y-115288893D01*
X123579520Y-115267849D01*
X123569030Y-115245671D01*
X123560765Y-115222571D01*
X123554804Y-115198773D01*
X123551204Y-115174504D01*
X123550000Y-115150000D01*
X123550000Y-112850000D01*
X123551204Y-112825496D01*
X123554804Y-112801227D01*
X123560765Y-112777429D01*
X123569030Y-112754329D01*
X123579520Y-112732151D01*
X123592133Y-112711107D01*
X123606747Y-112691402D01*
X123623223Y-112673223D01*
X123641402Y-112656747D01*
X123661107Y-112642133D01*
X123682151Y-112629520D01*
X123704329Y-112619030D01*
X123727429Y-112610765D01*
X123751227Y-112604804D01*
X123775496Y-112601204D01*
X123800000Y-112600000D01*
X124300000Y-112600000D01*
X124324504Y-112601204D01*
G37*
G36*
X129274504Y-112601204D02*
G01*
X129298773Y-112604804D01*
X129322571Y-112610765D01*
X129345671Y-112619030D01*
X129367849Y-112629520D01*
X129388893Y-112642133D01*
X129408598Y-112656747D01*
X129426777Y-112673223D01*
X129443253Y-112691402D01*
X129457867Y-112711107D01*
X129470480Y-112732151D01*
X129480970Y-112754329D01*
X129489235Y-112777429D01*
X129495196Y-112801227D01*
X129498796Y-112825496D01*
X129500000Y-112850000D01*
X129500000Y-115150000D01*
X129498796Y-115174504D01*
X129495196Y-115198773D01*
X129489235Y-115222571D01*
X129480970Y-115245671D01*
X129470480Y-115267849D01*
X129457867Y-115288893D01*
X129443253Y-115308598D01*
X129426777Y-115326777D01*
X129408598Y-115343253D01*
X129388893Y-115357867D01*
X129367849Y-115370480D01*
X129345671Y-115380970D01*
X129322571Y-115389235D01*
X129298773Y-115395196D01*
X129274504Y-115398796D01*
X129250000Y-115400000D01*
X128750000Y-115400000D01*
X128725496Y-115398796D01*
X128701227Y-115395196D01*
X128677429Y-115389235D01*
X128654329Y-115380970D01*
X128632151Y-115370480D01*
X128611107Y-115357867D01*
X128591402Y-115343253D01*
X128573223Y-115326777D01*
X128556747Y-115308598D01*
X128542133Y-115288893D01*
X128529520Y-115267849D01*
X128519030Y-115245671D01*
X128510765Y-115222571D01*
X128504804Y-115198773D01*
X128501204Y-115174504D01*
X128500000Y-115150000D01*
X128500000Y-112850000D01*
X128501204Y-112825496D01*
X128504804Y-112801227D01*
X128510765Y-112777429D01*
X128519030Y-112754329D01*
X128529520Y-112732151D01*
X128542133Y-112711107D01*
X128556747Y-112691402D01*
X128573223Y-112673223D01*
X128591402Y-112656747D01*
X128611107Y-112642133D01*
X128632151Y-112629520D01*
X128654329Y-112619030D01*
X128677429Y-112610765D01*
X128701227Y-112604804D01*
X128725496Y-112601204D01*
X128750000Y-112600000D01*
X129250000Y-112600000D01*
X129274504Y-112601204D01*
G37*
G36*
X126064703Y-109800722D02*
G01*
X126079264Y-109802882D01*
X126093543Y-109806459D01*
X126107403Y-109811418D01*
X126120710Y-109817712D01*
X126133336Y-109825280D01*
X126145159Y-109834048D01*
X126156066Y-109843934D01*
X126165952Y-109854841D01*
X126174720Y-109866664D01*
X126182288Y-109879290D01*
X126188582Y-109892597D01*
X126193541Y-109906457D01*
X126197118Y-109920736D01*
X126199278Y-109935297D01*
X126200000Y-109950000D01*
X126200000Y-111350000D01*
X126199278Y-111364703D01*
X126197118Y-111379264D01*
X126193541Y-111393543D01*
X126188582Y-111407403D01*
X126182288Y-111420710D01*
X126174720Y-111433336D01*
X126165952Y-111445159D01*
X126156066Y-111456066D01*
X126145159Y-111465952D01*
X126133336Y-111474720D01*
X126120710Y-111482288D01*
X126107403Y-111488582D01*
X126093543Y-111493541D01*
X126079264Y-111497118D01*
X126064703Y-111499278D01*
X126050000Y-111500000D01*
X125750000Y-111500000D01*
X125735297Y-111499278D01*
X125720736Y-111497118D01*
X125706457Y-111493541D01*
X125692597Y-111488582D01*
X125679290Y-111482288D01*
X125666664Y-111474720D01*
X125654841Y-111465952D01*
X125643934Y-111456066D01*
X125634048Y-111445159D01*
X125625280Y-111433336D01*
X125617712Y-111420710D01*
X125611418Y-111407403D01*
X125606459Y-111393543D01*
X125602882Y-111379264D01*
X125600722Y-111364703D01*
X125600000Y-111350000D01*
X125600000Y-109950000D01*
X125600722Y-109935297D01*
X125602882Y-109920736D01*
X125606459Y-109906457D01*
X125611418Y-109892597D01*
X125617712Y-109879290D01*
X125625280Y-109866664D01*
X125634048Y-109854841D01*
X125643934Y-109843934D01*
X125654841Y-109834048D01*
X125666664Y-109825280D01*
X125679290Y-109817712D01*
X125692597Y-109811418D01*
X125706457Y-109806459D01*
X125720736Y-109802882D01*
X125735297Y-109800722D01*
X125750000Y-109800000D01*
X126050000Y-109800000D01*
X126064703Y-109800722D01*
G37*
G36*
X127314703Y-109800722D02*
G01*
X127329264Y-109802882D01*
X127343543Y-109806459D01*
X127357403Y-109811418D01*
X127370710Y-109817712D01*
X127383336Y-109825280D01*
X127395159Y-109834048D01*
X127406066Y-109843934D01*
X127415952Y-109854841D01*
X127424720Y-109866664D01*
X127432288Y-109879290D01*
X127438582Y-109892597D01*
X127443541Y-109906457D01*
X127447118Y-109920736D01*
X127449278Y-109935297D01*
X127450000Y-109950000D01*
X127450000Y-111350000D01*
X127449278Y-111364703D01*
X127447118Y-111379264D01*
X127443541Y-111393543D01*
X127438582Y-111407403D01*
X127432288Y-111420710D01*
X127424720Y-111433336D01*
X127415952Y-111445159D01*
X127406066Y-111456066D01*
X127395159Y-111465952D01*
X127383336Y-111474720D01*
X127370710Y-111482288D01*
X127357403Y-111488582D01*
X127343543Y-111493541D01*
X127329264Y-111497118D01*
X127314703Y-111499278D01*
X127300000Y-111500000D01*
X127000000Y-111500000D01*
X126985297Y-111499278D01*
X126970736Y-111497118D01*
X126956457Y-111493541D01*
X126942597Y-111488582D01*
X126929290Y-111482288D01*
X126916664Y-111474720D01*
X126904841Y-111465952D01*
X126893934Y-111456066D01*
X126884048Y-111445159D01*
X126875280Y-111433336D01*
X126867712Y-111420710D01*
X126861418Y-111407403D01*
X126856459Y-111393543D01*
X126852882Y-111379264D01*
X126850722Y-111364703D01*
X126850000Y-111350000D01*
X126850000Y-109950000D01*
X126850722Y-109935297D01*
X126852882Y-109920736D01*
X126856459Y-109906457D01*
X126861418Y-109892597D01*
X126867712Y-109879290D01*
X126875280Y-109866664D01*
X126884048Y-109854841D01*
X126893934Y-109843934D01*
X126904841Y-109834048D01*
X126916664Y-109825280D01*
X126929290Y-109817712D01*
X126942597Y-109811418D01*
X126956457Y-109806459D01*
X126970736Y-109802882D01*
X126985297Y-109800722D01*
X127000000Y-109800000D01*
X127300000Y-109800000D01*
X127314703Y-109800722D01*
G37*
G36*
X138324504Y-112601204D02*
G01*
X138348773Y-112604804D01*
X138372571Y-112610765D01*
X138395671Y-112619030D01*
X138417849Y-112629520D01*
X138438893Y-112642133D01*
X138458598Y-112656747D01*
X138476777Y-112673223D01*
X138493253Y-112691402D01*
X138507867Y-112711107D01*
X138520480Y-112732151D01*
X138530970Y-112754329D01*
X138539235Y-112777429D01*
X138545196Y-112801227D01*
X138548796Y-112825496D01*
X138550000Y-112850000D01*
X138550000Y-115150000D01*
X138548796Y-115174504D01*
X138545196Y-115198773D01*
X138539235Y-115222571D01*
X138530970Y-115245671D01*
X138520480Y-115267849D01*
X138507867Y-115288893D01*
X138493253Y-115308598D01*
X138476777Y-115326777D01*
X138458598Y-115343253D01*
X138438893Y-115357867D01*
X138417849Y-115370480D01*
X138395671Y-115380970D01*
X138372571Y-115389235D01*
X138348773Y-115395196D01*
X138324504Y-115398796D01*
X138300000Y-115400000D01*
X137800000Y-115400000D01*
X137775496Y-115398796D01*
X137751227Y-115395196D01*
X137727429Y-115389235D01*
X137704329Y-115380970D01*
X137682151Y-115370480D01*
X137661107Y-115357867D01*
X137641402Y-115343253D01*
X137623223Y-115326777D01*
X137606747Y-115308598D01*
X137592133Y-115288893D01*
X137579520Y-115267849D01*
X137569030Y-115245671D01*
X137560765Y-115222571D01*
X137554804Y-115198773D01*
X137551204Y-115174504D01*
X137550000Y-115150000D01*
X137550000Y-112850000D01*
X137551204Y-112825496D01*
X137554804Y-112801227D01*
X137560765Y-112777429D01*
X137569030Y-112754329D01*
X137579520Y-112732151D01*
X137592133Y-112711107D01*
X137606747Y-112691402D01*
X137623223Y-112673223D01*
X137641402Y-112656747D01*
X137661107Y-112642133D01*
X137682151Y-112629520D01*
X137704329Y-112619030D01*
X137727429Y-112610765D01*
X137751227Y-112604804D01*
X137775496Y-112601204D01*
X137800000Y-112600000D01*
X138300000Y-112600000D01*
X138324504Y-112601204D01*
G37*
G36*
X143274504Y-112601204D02*
G01*
X143298773Y-112604804D01*
X143322571Y-112610765D01*
X143345671Y-112619030D01*
X143367849Y-112629520D01*
X143388893Y-112642133D01*
X143408598Y-112656747D01*
X143426777Y-112673223D01*
X143443253Y-112691402D01*
X143457867Y-112711107D01*
X143470480Y-112732151D01*
X143480970Y-112754329D01*
X143489235Y-112777429D01*
X143495196Y-112801227D01*
X143498796Y-112825496D01*
X143500000Y-112850000D01*
X143500000Y-115150000D01*
X143498796Y-115174504D01*
X143495196Y-115198773D01*
X143489235Y-115222571D01*
X143480970Y-115245671D01*
X143470480Y-115267849D01*
X143457867Y-115288893D01*
X143443253Y-115308598D01*
X143426777Y-115326777D01*
X143408598Y-115343253D01*
X143388893Y-115357867D01*
X143367849Y-115370480D01*
X143345671Y-115380970D01*
X143322571Y-115389235D01*
X143298773Y-115395196D01*
X143274504Y-115398796D01*
X143250000Y-115400000D01*
X142750000Y-115400000D01*
X142725496Y-115398796D01*
X142701227Y-115395196D01*
X142677429Y-115389235D01*
X142654329Y-115380970D01*
X142632151Y-115370480D01*
X142611107Y-115357867D01*
X142591402Y-115343253D01*
X142573223Y-115326777D01*
X142556747Y-115308598D01*
X142542133Y-115288893D01*
X142529520Y-115267849D01*
X142519030Y-115245671D01*
X142510765Y-115222571D01*
X142504804Y-115198773D01*
X142501204Y-115174504D01*
X142500000Y-115150000D01*
X142500000Y-112850000D01*
X142501204Y-112825496D01*
X142504804Y-112801227D01*
X142510765Y-112777429D01*
X142519030Y-112754329D01*
X142529520Y-112732151D01*
X142542133Y-112711107D01*
X142556747Y-112691402D01*
X142573223Y-112673223D01*
X142591402Y-112656747D01*
X142611107Y-112642133D01*
X142632151Y-112629520D01*
X142654329Y-112619030D01*
X142677429Y-112610765D01*
X142701227Y-112604804D01*
X142725496Y-112601204D01*
X142750000Y-112600000D01*
X143250000Y-112600000D01*
X143274504Y-112601204D01*
G37*
G36*
X140064703Y-109800722D02*
G01*
X140079264Y-109802882D01*
X140093543Y-109806459D01*
X140107403Y-109811418D01*
X140120710Y-109817712D01*
X140133336Y-109825280D01*
X140145159Y-109834048D01*
X140156066Y-109843934D01*
X140165952Y-109854841D01*
X140174720Y-109866664D01*
X140182288Y-109879290D01*
X140188582Y-109892597D01*
X140193541Y-109906457D01*
X140197118Y-109920736D01*
X140199278Y-109935297D01*
X140200000Y-109950000D01*
X140200000Y-111350000D01*
X140199278Y-111364703D01*
X140197118Y-111379264D01*
X140193541Y-111393543D01*
X140188582Y-111407403D01*
X140182288Y-111420710D01*
X140174720Y-111433336D01*
X140165952Y-111445159D01*
X140156066Y-111456066D01*
X140145159Y-111465952D01*
X140133336Y-111474720D01*
X140120710Y-111482288D01*
X140107403Y-111488582D01*
X140093543Y-111493541D01*
X140079264Y-111497118D01*
X140064703Y-111499278D01*
X140050000Y-111500000D01*
X139750000Y-111500000D01*
X139735297Y-111499278D01*
X139720736Y-111497118D01*
X139706457Y-111493541D01*
X139692597Y-111488582D01*
X139679290Y-111482288D01*
X139666664Y-111474720D01*
X139654841Y-111465952D01*
X139643934Y-111456066D01*
X139634048Y-111445159D01*
X139625280Y-111433336D01*
X139617712Y-111420710D01*
X139611418Y-111407403D01*
X139606459Y-111393543D01*
X139602882Y-111379264D01*
X139600722Y-111364703D01*
X139600000Y-111350000D01*
X139600000Y-109950000D01*
X139600722Y-109935297D01*
X139602882Y-109920736D01*
X139606459Y-109906457D01*
X139611418Y-109892597D01*
X139617712Y-109879290D01*
X139625280Y-109866664D01*
X139634048Y-109854841D01*
X139643934Y-109843934D01*
X139654841Y-109834048D01*
X139666664Y-109825280D01*
X139679290Y-109817712D01*
X139692597Y-109811418D01*
X139706457Y-109806459D01*
X139720736Y-109802882D01*
X139735297Y-109800722D01*
X139750000Y-109800000D01*
X140050000Y-109800000D01*
X140064703Y-109800722D01*
G37*
G36*
X141314703Y-109800722D02*
G01*
X141329264Y-109802882D01*
X141343543Y-109806459D01*
X141357403Y-109811418D01*
X141370710Y-109817712D01*
X141383336Y-109825280D01*
X141395159Y-109834048D01*
X141406066Y-109843934D01*
X141415952Y-109854841D01*
X141424720Y-109866664D01*
X141432288Y-109879290D01*
X141438582Y-109892597D01*
X141443541Y-109906457D01*
X141447118Y-109920736D01*
X141449278Y-109935297D01*
X141450000Y-109950000D01*
X141450000Y-111350000D01*
X141449278Y-111364703D01*
X141447118Y-111379264D01*
X141443541Y-111393543D01*
X141438582Y-111407403D01*
X141432288Y-111420710D01*
X141424720Y-111433336D01*
X141415952Y-111445159D01*
X141406066Y-111456066D01*
X141395159Y-111465952D01*
X141383336Y-111474720D01*
X141370710Y-111482288D01*
X141357403Y-111488582D01*
X141343543Y-111493541D01*
X141329264Y-111497118D01*
X141314703Y-111499278D01*
X141300000Y-111500000D01*
X141000000Y-111500000D01*
X140985297Y-111499278D01*
X140970736Y-111497118D01*
X140956457Y-111493541D01*
X140942597Y-111488582D01*
X140929290Y-111482288D01*
X140916664Y-111474720D01*
X140904841Y-111465952D01*
X140893934Y-111456066D01*
X140884048Y-111445159D01*
X140875280Y-111433336D01*
X140867712Y-111420710D01*
X140861418Y-111407403D01*
X140856459Y-111393543D01*
X140852882Y-111379264D01*
X140850722Y-111364703D01*
X140850000Y-111350000D01*
X140850000Y-109950000D01*
X140850722Y-109935297D01*
X140852882Y-109920736D01*
X140856459Y-109906457D01*
X140861418Y-109892597D01*
X140867712Y-109879290D01*
X140875280Y-109866664D01*
X140884048Y-109854841D01*
X140893934Y-109843934D01*
X140904841Y-109834048D01*
X140916664Y-109825280D01*
X140929290Y-109817712D01*
X140942597Y-109811418D01*
X140956457Y-109806459D01*
X140970736Y-109802882D01*
X140985297Y-109800722D01*
X141000000Y-109800000D01*
X141300000Y-109800000D01*
X141314703Y-109800722D01*
G37*
G36*
X131324504Y-112601204D02*
G01*
X131348773Y-112604804D01*
X131372571Y-112610765D01*
X131395671Y-112619030D01*
X131417849Y-112629520D01*
X131438893Y-112642133D01*
X131458598Y-112656747D01*
X131476777Y-112673223D01*
X131493253Y-112691402D01*
X131507867Y-112711107D01*
X131520480Y-112732151D01*
X131530970Y-112754329D01*
X131539235Y-112777429D01*
X131545196Y-112801227D01*
X131548796Y-112825496D01*
X131550000Y-112850000D01*
X131550000Y-115150000D01*
X131548796Y-115174504D01*
X131545196Y-115198773D01*
X131539235Y-115222571D01*
X131530970Y-115245671D01*
X131520480Y-115267849D01*
X131507867Y-115288893D01*
X131493253Y-115308598D01*
X131476777Y-115326777D01*
X131458598Y-115343253D01*
X131438893Y-115357867D01*
X131417849Y-115370480D01*
X131395671Y-115380970D01*
X131372571Y-115389235D01*
X131348773Y-115395196D01*
X131324504Y-115398796D01*
X131300000Y-115400000D01*
X130800000Y-115400000D01*
X130775496Y-115398796D01*
X130751227Y-115395196D01*
X130727429Y-115389235D01*
X130704329Y-115380970D01*
X130682151Y-115370480D01*
X130661107Y-115357867D01*
X130641402Y-115343253D01*
X130623223Y-115326777D01*
X130606747Y-115308598D01*
X130592133Y-115288893D01*
X130579520Y-115267849D01*
X130569030Y-115245671D01*
X130560765Y-115222571D01*
X130554804Y-115198773D01*
X130551204Y-115174504D01*
X130550000Y-115150000D01*
X130550000Y-112850000D01*
X130551204Y-112825496D01*
X130554804Y-112801227D01*
X130560765Y-112777429D01*
X130569030Y-112754329D01*
X130579520Y-112732151D01*
X130592133Y-112711107D01*
X130606747Y-112691402D01*
X130623223Y-112673223D01*
X130641402Y-112656747D01*
X130661107Y-112642133D01*
X130682151Y-112629520D01*
X130704329Y-112619030D01*
X130727429Y-112610765D01*
X130751227Y-112604804D01*
X130775496Y-112601204D01*
X130800000Y-112600000D01*
X131300000Y-112600000D01*
X131324504Y-112601204D01*
G37*
G36*
X136274504Y-112601204D02*
G01*
X136298773Y-112604804D01*
X136322571Y-112610765D01*
X136345671Y-112619030D01*
X136367849Y-112629520D01*
X136388893Y-112642133D01*
X136408598Y-112656747D01*
X136426777Y-112673223D01*
X136443253Y-112691402D01*
X136457867Y-112711107D01*
X136470480Y-112732151D01*
X136480970Y-112754329D01*
X136489235Y-112777429D01*
X136495196Y-112801227D01*
X136498796Y-112825496D01*
X136500000Y-112850000D01*
X136500000Y-115150000D01*
X136498796Y-115174504D01*
X136495196Y-115198773D01*
X136489235Y-115222571D01*
X136480970Y-115245671D01*
X136470480Y-115267849D01*
X136457867Y-115288893D01*
X136443253Y-115308598D01*
X136426777Y-115326777D01*
X136408598Y-115343253D01*
X136388893Y-115357867D01*
X136367849Y-115370480D01*
X136345671Y-115380970D01*
X136322571Y-115389235D01*
X136298773Y-115395196D01*
X136274504Y-115398796D01*
X136250000Y-115400000D01*
X135750000Y-115400000D01*
X135725496Y-115398796D01*
X135701227Y-115395196D01*
X135677429Y-115389235D01*
X135654329Y-115380970D01*
X135632151Y-115370480D01*
X135611107Y-115357867D01*
X135591402Y-115343253D01*
X135573223Y-115326777D01*
X135556747Y-115308598D01*
X135542133Y-115288893D01*
X135529520Y-115267849D01*
X135519030Y-115245671D01*
X135510765Y-115222571D01*
X135504804Y-115198773D01*
X135501204Y-115174504D01*
X135500000Y-115150000D01*
X135500000Y-112850000D01*
X135501204Y-112825496D01*
X135504804Y-112801227D01*
X135510765Y-112777429D01*
X135519030Y-112754329D01*
X135529520Y-112732151D01*
X135542133Y-112711107D01*
X135556747Y-112691402D01*
X135573223Y-112673223D01*
X135591402Y-112656747D01*
X135611107Y-112642133D01*
X135632151Y-112629520D01*
X135654329Y-112619030D01*
X135677429Y-112610765D01*
X135701227Y-112604804D01*
X135725496Y-112601204D01*
X135750000Y-112600000D01*
X136250000Y-112600000D01*
X136274504Y-112601204D01*
G37*
G36*
X133064703Y-109800722D02*
G01*
X133079264Y-109802882D01*
X133093543Y-109806459D01*
X133107403Y-109811418D01*
X133120710Y-109817712D01*
X133133336Y-109825280D01*
X133145159Y-109834048D01*
X133156066Y-109843934D01*
X133165952Y-109854841D01*
X133174720Y-109866664D01*
X133182288Y-109879290D01*
X133188582Y-109892597D01*
X133193541Y-109906457D01*
X133197118Y-109920736D01*
X133199278Y-109935297D01*
X133200000Y-109950000D01*
X133200000Y-111350000D01*
X133199278Y-111364703D01*
X133197118Y-111379264D01*
X133193541Y-111393543D01*
X133188582Y-111407403D01*
X133182288Y-111420710D01*
X133174720Y-111433336D01*
X133165952Y-111445159D01*
X133156066Y-111456066D01*
X133145159Y-111465952D01*
X133133336Y-111474720D01*
X133120710Y-111482288D01*
X133107403Y-111488582D01*
X133093543Y-111493541D01*
X133079264Y-111497118D01*
X133064703Y-111499278D01*
X133050000Y-111500000D01*
X132750000Y-111500000D01*
X132735297Y-111499278D01*
X132720736Y-111497118D01*
X132706457Y-111493541D01*
X132692597Y-111488582D01*
X132679290Y-111482288D01*
X132666664Y-111474720D01*
X132654841Y-111465952D01*
X132643934Y-111456066D01*
X132634048Y-111445159D01*
X132625280Y-111433336D01*
X132617712Y-111420710D01*
X132611418Y-111407403D01*
X132606459Y-111393543D01*
X132602882Y-111379264D01*
X132600722Y-111364703D01*
X132600000Y-111350000D01*
X132600000Y-109950000D01*
X132600722Y-109935297D01*
X132602882Y-109920736D01*
X132606459Y-109906457D01*
X132611418Y-109892597D01*
X132617712Y-109879290D01*
X132625280Y-109866664D01*
X132634048Y-109854841D01*
X132643934Y-109843934D01*
X132654841Y-109834048D01*
X132666664Y-109825280D01*
X132679290Y-109817712D01*
X132692597Y-109811418D01*
X132706457Y-109806459D01*
X132720736Y-109802882D01*
X132735297Y-109800722D01*
X132750000Y-109800000D01*
X133050000Y-109800000D01*
X133064703Y-109800722D01*
G37*
G36*
X134314703Y-109800722D02*
G01*
X134329264Y-109802882D01*
X134343543Y-109806459D01*
X134357403Y-109811418D01*
X134370710Y-109817712D01*
X134383336Y-109825280D01*
X134395159Y-109834048D01*
X134406066Y-109843934D01*
X134415952Y-109854841D01*
X134424720Y-109866664D01*
X134432288Y-109879290D01*
X134438582Y-109892597D01*
X134443541Y-109906457D01*
X134447118Y-109920736D01*
X134449278Y-109935297D01*
X134450000Y-109950000D01*
X134450000Y-111350000D01*
X134449278Y-111364703D01*
X134447118Y-111379264D01*
X134443541Y-111393543D01*
X134438582Y-111407403D01*
X134432288Y-111420710D01*
X134424720Y-111433336D01*
X134415952Y-111445159D01*
X134406066Y-111456066D01*
X134395159Y-111465952D01*
X134383336Y-111474720D01*
X134370710Y-111482288D01*
X134357403Y-111488582D01*
X134343543Y-111493541D01*
X134329264Y-111497118D01*
X134314703Y-111499278D01*
X134300000Y-111500000D01*
X134000000Y-111500000D01*
X133985297Y-111499278D01*
X133970736Y-111497118D01*
X133956457Y-111493541D01*
X133942597Y-111488582D01*
X133929290Y-111482288D01*
X133916664Y-111474720D01*
X133904841Y-111465952D01*
X133893934Y-111456066D01*
X133884048Y-111445159D01*
X133875280Y-111433336D01*
X133867712Y-111420710D01*
X133861418Y-111407403D01*
X133856459Y-111393543D01*
X133852882Y-111379264D01*
X133850722Y-111364703D01*
X133850000Y-111350000D01*
X133850000Y-109950000D01*
X133850722Y-109935297D01*
X133852882Y-109920736D01*
X133856459Y-109906457D01*
X133861418Y-109892597D01*
X133867712Y-109879290D01*
X133875280Y-109866664D01*
X133884048Y-109854841D01*
X133893934Y-109843934D01*
X133904841Y-109834048D01*
X133916664Y-109825280D01*
X133929290Y-109817712D01*
X133942597Y-109811418D01*
X133956457Y-109806459D01*
X133970736Y-109802882D01*
X133985297Y-109800722D01*
X134000000Y-109800000D01*
X134300000Y-109800000D01*
X134314703Y-109800722D01*
G37*
G36*
X117324504Y-112601204D02*
G01*
X117348773Y-112604804D01*
X117372571Y-112610765D01*
X117395671Y-112619030D01*
X117417849Y-112629520D01*
X117438893Y-112642133D01*
X117458598Y-112656747D01*
X117476777Y-112673223D01*
X117493253Y-112691402D01*
X117507867Y-112711107D01*
X117520480Y-112732151D01*
X117530970Y-112754329D01*
X117539235Y-112777429D01*
X117545196Y-112801227D01*
X117548796Y-112825496D01*
X117550000Y-112850000D01*
X117550000Y-115150000D01*
X117548796Y-115174504D01*
X117545196Y-115198773D01*
X117539235Y-115222571D01*
X117530970Y-115245671D01*
X117520480Y-115267849D01*
X117507867Y-115288893D01*
X117493253Y-115308598D01*
X117476777Y-115326777D01*
X117458598Y-115343253D01*
X117438893Y-115357867D01*
X117417849Y-115370480D01*
X117395671Y-115380970D01*
X117372571Y-115389235D01*
X117348773Y-115395196D01*
X117324504Y-115398796D01*
X117300000Y-115400000D01*
X116800000Y-115400000D01*
X116775496Y-115398796D01*
X116751227Y-115395196D01*
X116727429Y-115389235D01*
X116704329Y-115380970D01*
X116682151Y-115370480D01*
X116661107Y-115357867D01*
X116641402Y-115343253D01*
X116623223Y-115326777D01*
X116606747Y-115308598D01*
X116592133Y-115288893D01*
X116579520Y-115267849D01*
X116569030Y-115245671D01*
X116560765Y-115222571D01*
X116554804Y-115198773D01*
X116551204Y-115174504D01*
X116550000Y-115150000D01*
X116550000Y-112850000D01*
X116551204Y-112825496D01*
X116554804Y-112801227D01*
X116560765Y-112777429D01*
X116569030Y-112754329D01*
X116579520Y-112732151D01*
X116592133Y-112711107D01*
X116606747Y-112691402D01*
X116623223Y-112673223D01*
X116641402Y-112656747D01*
X116661107Y-112642133D01*
X116682151Y-112629520D01*
X116704329Y-112619030D01*
X116727429Y-112610765D01*
X116751227Y-112604804D01*
X116775496Y-112601204D01*
X116800000Y-112600000D01*
X117300000Y-112600000D01*
X117324504Y-112601204D01*
G37*
G36*
X122274504Y-112601204D02*
G01*
X122298773Y-112604804D01*
X122322571Y-112610765D01*
X122345671Y-112619030D01*
X122367849Y-112629520D01*
X122388893Y-112642133D01*
X122408598Y-112656747D01*
X122426777Y-112673223D01*
X122443253Y-112691402D01*
X122457867Y-112711107D01*
X122470480Y-112732151D01*
X122480970Y-112754329D01*
X122489235Y-112777429D01*
X122495196Y-112801227D01*
X122498796Y-112825496D01*
X122500000Y-112850000D01*
X122500000Y-115150000D01*
X122498796Y-115174504D01*
X122495196Y-115198773D01*
X122489235Y-115222571D01*
X122480970Y-115245671D01*
X122470480Y-115267849D01*
X122457867Y-115288893D01*
X122443253Y-115308598D01*
X122426777Y-115326777D01*
X122408598Y-115343253D01*
X122388893Y-115357867D01*
X122367849Y-115370480D01*
X122345671Y-115380970D01*
X122322571Y-115389235D01*
X122298773Y-115395196D01*
X122274504Y-115398796D01*
X122250000Y-115400000D01*
X121750000Y-115400000D01*
X121725496Y-115398796D01*
X121701227Y-115395196D01*
X121677429Y-115389235D01*
X121654329Y-115380970D01*
X121632151Y-115370480D01*
X121611107Y-115357867D01*
X121591402Y-115343253D01*
X121573223Y-115326777D01*
X121556747Y-115308598D01*
X121542133Y-115288893D01*
X121529520Y-115267849D01*
X121519030Y-115245671D01*
X121510765Y-115222571D01*
X121504804Y-115198773D01*
X121501204Y-115174504D01*
X121500000Y-115150000D01*
X121500000Y-112850000D01*
X121501204Y-112825496D01*
X121504804Y-112801227D01*
X121510765Y-112777429D01*
X121519030Y-112754329D01*
X121529520Y-112732151D01*
X121542133Y-112711107D01*
X121556747Y-112691402D01*
X121573223Y-112673223D01*
X121591402Y-112656747D01*
X121611107Y-112642133D01*
X121632151Y-112629520D01*
X121654329Y-112619030D01*
X121677429Y-112610765D01*
X121701227Y-112604804D01*
X121725496Y-112601204D01*
X121750000Y-112600000D01*
X122250000Y-112600000D01*
X122274504Y-112601204D01*
G37*
G36*
X119064703Y-109800722D02*
G01*
X119079264Y-109802882D01*
X119093543Y-109806459D01*
X119107403Y-109811418D01*
X119120710Y-109817712D01*
X119133336Y-109825280D01*
X119145159Y-109834048D01*
X119156066Y-109843934D01*
X119165952Y-109854841D01*
X119174720Y-109866664D01*
X119182288Y-109879290D01*
X119188582Y-109892597D01*
X119193541Y-109906457D01*
X119197118Y-109920736D01*
X119199278Y-109935297D01*
X119200000Y-109950000D01*
X119200000Y-111350000D01*
X119199278Y-111364703D01*
X119197118Y-111379264D01*
X119193541Y-111393543D01*
X119188582Y-111407403D01*
X119182288Y-111420710D01*
X119174720Y-111433336D01*
X119165952Y-111445159D01*
X119156066Y-111456066D01*
X119145159Y-111465952D01*
X119133336Y-111474720D01*
X119120710Y-111482288D01*
X119107403Y-111488582D01*
X119093543Y-111493541D01*
X119079264Y-111497118D01*
X119064703Y-111499278D01*
X119050000Y-111500000D01*
X118750000Y-111500000D01*
X118735297Y-111499278D01*
X118720736Y-111497118D01*
X118706457Y-111493541D01*
X118692597Y-111488582D01*
X118679290Y-111482288D01*
X118666664Y-111474720D01*
X118654841Y-111465952D01*
X118643934Y-111456066D01*
X118634048Y-111445159D01*
X118625280Y-111433336D01*
X118617712Y-111420710D01*
X118611418Y-111407403D01*
X118606459Y-111393543D01*
X118602882Y-111379264D01*
X118600722Y-111364703D01*
X118600000Y-111350000D01*
X118600000Y-109950000D01*
X118600722Y-109935297D01*
X118602882Y-109920736D01*
X118606459Y-109906457D01*
X118611418Y-109892597D01*
X118617712Y-109879290D01*
X118625280Y-109866664D01*
X118634048Y-109854841D01*
X118643934Y-109843934D01*
X118654841Y-109834048D01*
X118666664Y-109825280D01*
X118679290Y-109817712D01*
X118692597Y-109811418D01*
X118706457Y-109806459D01*
X118720736Y-109802882D01*
X118735297Y-109800722D01*
X118750000Y-109800000D01*
X119050000Y-109800000D01*
X119064703Y-109800722D01*
G37*
G36*
X120314703Y-109800722D02*
G01*
X120329264Y-109802882D01*
X120343543Y-109806459D01*
X120357403Y-109811418D01*
X120370710Y-109817712D01*
X120383336Y-109825280D01*
X120395159Y-109834048D01*
X120406066Y-109843934D01*
X120415952Y-109854841D01*
X120424720Y-109866664D01*
X120432288Y-109879290D01*
X120438582Y-109892597D01*
X120443541Y-109906457D01*
X120447118Y-109920736D01*
X120449278Y-109935297D01*
X120450000Y-109950000D01*
X120450000Y-111350000D01*
X120449278Y-111364703D01*
X120447118Y-111379264D01*
X120443541Y-111393543D01*
X120438582Y-111407403D01*
X120432288Y-111420710D01*
X120424720Y-111433336D01*
X120415952Y-111445159D01*
X120406066Y-111456066D01*
X120395159Y-111465952D01*
X120383336Y-111474720D01*
X120370710Y-111482288D01*
X120357403Y-111488582D01*
X120343543Y-111493541D01*
X120329264Y-111497118D01*
X120314703Y-111499278D01*
X120300000Y-111500000D01*
X120000000Y-111500000D01*
X119985297Y-111499278D01*
X119970736Y-111497118D01*
X119956457Y-111493541D01*
X119942597Y-111488582D01*
X119929290Y-111482288D01*
X119916664Y-111474720D01*
X119904841Y-111465952D01*
X119893934Y-111456066D01*
X119884048Y-111445159D01*
X119875280Y-111433336D01*
X119867712Y-111420710D01*
X119861418Y-111407403D01*
X119856459Y-111393543D01*
X119852882Y-111379264D01*
X119850722Y-111364703D01*
X119850000Y-111350000D01*
X119850000Y-109950000D01*
X119850722Y-109935297D01*
X119852882Y-109920736D01*
X119856459Y-109906457D01*
X119861418Y-109892597D01*
X119867712Y-109879290D01*
X119875280Y-109866664D01*
X119884048Y-109854841D01*
X119893934Y-109843934D01*
X119904841Y-109834048D01*
X119916664Y-109825280D01*
X119929290Y-109817712D01*
X119942597Y-109811418D01*
X119956457Y-109806459D01*
X119970736Y-109802882D01*
X119985297Y-109800722D01*
X120000000Y-109800000D01*
X120300000Y-109800000D01*
X120314703Y-109800722D01*
G37*
D17*
X140500000Y-81200000D03*
X140500000Y-76800000D03*
D14*
G36*
X159524504Y-67751204D02*
G01*
X159548773Y-67754804D01*
X159572571Y-67760765D01*
X159595671Y-67769030D01*
X159617849Y-67779520D01*
X159638893Y-67792133D01*
X159658598Y-67806747D01*
X159676777Y-67823223D01*
X159693253Y-67841402D01*
X159707867Y-67861107D01*
X159720480Y-67882151D01*
X159730970Y-67904329D01*
X159739235Y-67927429D01*
X159745196Y-67951227D01*
X159748796Y-67975496D01*
X159750000Y-68000000D01*
X159750000Y-70000000D01*
X159748796Y-70024504D01*
X159745196Y-70048773D01*
X159739235Y-70072571D01*
X159730970Y-70095671D01*
X159720480Y-70117849D01*
X159707867Y-70138893D01*
X159693253Y-70158598D01*
X159676777Y-70176777D01*
X159658598Y-70193253D01*
X159638893Y-70207867D01*
X159617849Y-70220480D01*
X159595671Y-70230970D01*
X159572571Y-70239235D01*
X159548773Y-70245196D01*
X159524504Y-70248796D01*
X159500000Y-70250000D01*
X156500000Y-70250000D01*
X156475496Y-70248796D01*
X156451227Y-70245196D01*
X156427429Y-70239235D01*
X156404329Y-70230970D01*
X156382151Y-70220480D01*
X156361107Y-70207867D01*
X156341402Y-70193253D01*
X156323223Y-70176777D01*
X156306747Y-70158598D01*
X156292133Y-70138893D01*
X156279520Y-70117849D01*
X156269030Y-70095671D01*
X156260765Y-70072571D01*
X156254804Y-70048773D01*
X156251204Y-70024504D01*
X156250000Y-70000000D01*
X156250000Y-68000000D01*
X156251204Y-67975496D01*
X156254804Y-67951227D01*
X156260765Y-67927429D01*
X156269030Y-67904329D01*
X156279520Y-67882151D01*
X156292133Y-67861107D01*
X156306747Y-67841402D01*
X156323223Y-67823223D01*
X156341402Y-67806747D01*
X156361107Y-67792133D01*
X156382151Y-67779520D01*
X156404329Y-67769030D01*
X156427429Y-67760765D01*
X156451227Y-67754804D01*
X156475496Y-67751204D01*
X156500000Y-67750000D01*
X159500000Y-67750000D01*
X159524504Y-67751204D01*
G37*
G36*
X166024504Y-67751204D02*
G01*
X166048773Y-67754804D01*
X166072571Y-67760765D01*
X166095671Y-67769030D01*
X166117849Y-67779520D01*
X166138893Y-67792133D01*
X166158598Y-67806747D01*
X166176777Y-67823223D01*
X166193253Y-67841402D01*
X166207867Y-67861107D01*
X166220480Y-67882151D01*
X166230970Y-67904329D01*
X166239235Y-67927429D01*
X166245196Y-67951227D01*
X166248796Y-67975496D01*
X166250000Y-68000000D01*
X166250000Y-70000000D01*
X166248796Y-70024504D01*
X166245196Y-70048773D01*
X166239235Y-70072571D01*
X166230970Y-70095671D01*
X166220480Y-70117849D01*
X166207867Y-70138893D01*
X166193253Y-70158598D01*
X166176777Y-70176777D01*
X166158598Y-70193253D01*
X166138893Y-70207867D01*
X166117849Y-70220480D01*
X166095671Y-70230970D01*
X166072571Y-70239235D01*
X166048773Y-70245196D01*
X166024504Y-70248796D01*
X166000000Y-70250000D01*
X163000000Y-70250000D01*
X162975496Y-70248796D01*
X162951227Y-70245196D01*
X162927429Y-70239235D01*
X162904329Y-70230970D01*
X162882151Y-70220480D01*
X162861107Y-70207867D01*
X162841402Y-70193253D01*
X162823223Y-70176777D01*
X162806747Y-70158598D01*
X162792133Y-70138893D01*
X162779520Y-70117849D01*
X162769030Y-70095671D01*
X162760765Y-70072571D01*
X162754804Y-70048773D01*
X162751204Y-70024504D01*
X162750000Y-70000000D01*
X162750000Y-68000000D01*
X162751204Y-67975496D01*
X162754804Y-67951227D01*
X162760765Y-67927429D01*
X162769030Y-67904329D01*
X162779520Y-67882151D01*
X162792133Y-67861107D01*
X162806747Y-67841402D01*
X162823223Y-67823223D01*
X162841402Y-67806747D01*
X162861107Y-67792133D01*
X162882151Y-67779520D01*
X162904329Y-67769030D01*
X162927429Y-67760765D01*
X162951227Y-67754804D01*
X162975496Y-67751204D01*
X163000000Y-67750000D01*
X166000000Y-67750000D01*
X166024504Y-67751204D01*
G37*
G36*
X127310779Y-96776144D02*
G01*
X127333834Y-96779563D01*
X127356443Y-96785227D01*
X127378387Y-96793079D01*
X127399457Y-96803044D01*
X127419448Y-96815026D01*
X127438168Y-96828910D01*
X127455438Y-96844562D01*
X127471090Y-96861832D01*
X127484974Y-96880552D01*
X127496956Y-96900543D01*
X127506921Y-96921613D01*
X127514773Y-96943557D01*
X127520437Y-96966166D01*
X127523856Y-96989221D01*
X127525000Y-97012500D01*
X127525000Y-97487500D01*
X127523856Y-97510779D01*
X127520437Y-97533834D01*
X127514773Y-97556443D01*
X127506921Y-97578387D01*
X127496956Y-97599457D01*
X127484974Y-97619448D01*
X127471090Y-97638168D01*
X127455438Y-97655438D01*
X127438168Y-97671090D01*
X127419448Y-97684974D01*
X127399457Y-97696956D01*
X127378387Y-97706921D01*
X127356443Y-97714773D01*
X127333834Y-97720437D01*
X127310779Y-97723856D01*
X127287500Y-97725000D01*
X126712500Y-97725000D01*
X126689221Y-97723856D01*
X126666166Y-97720437D01*
X126643557Y-97714773D01*
X126621613Y-97706921D01*
X126600543Y-97696956D01*
X126580552Y-97684974D01*
X126561832Y-97671090D01*
X126544562Y-97655438D01*
X126528910Y-97638168D01*
X126515026Y-97619448D01*
X126503044Y-97599457D01*
X126493079Y-97578387D01*
X126485227Y-97556443D01*
X126479563Y-97533834D01*
X126476144Y-97510779D01*
X126475000Y-97487500D01*
X126475000Y-97012500D01*
X126476144Y-96989221D01*
X126479563Y-96966166D01*
X126485227Y-96943557D01*
X126493079Y-96921613D01*
X126503044Y-96900543D01*
X126515026Y-96880552D01*
X126528910Y-96861832D01*
X126544562Y-96844562D01*
X126561832Y-96828910D01*
X126580552Y-96815026D01*
X126600543Y-96803044D01*
X126621613Y-96793079D01*
X126643557Y-96785227D01*
X126666166Y-96779563D01*
X126689221Y-96776144D01*
X126712500Y-96775000D01*
X127287500Y-96775000D01*
X127310779Y-96776144D01*
G37*
G36*
X129060779Y-96776144D02*
G01*
X129083834Y-96779563D01*
X129106443Y-96785227D01*
X129128387Y-96793079D01*
X129149457Y-96803044D01*
X129169448Y-96815026D01*
X129188168Y-96828910D01*
X129205438Y-96844562D01*
X129221090Y-96861832D01*
X129234974Y-96880552D01*
X129246956Y-96900543D01*
X129256921Y-96921613D01*
X129264773Y-96943557D01*
X129270437Y-96966166D01*
X129273856Y-96989221D01*
X129275000Y-97012500D01*
X129275000Y-97487500D01*
X129273856Y-97510779D01*
X129270437Y-97533834D01*
X129264773Y-97556443D01*
X129256921Y-97578387D01*
X129246956Y-97599457D01*
X129234974Y-97619448D01*
X129221090Y-97638168D01*
X129205438Y-97655438D01*
X129188168Y-97671090D01*
X129169448Y-97684974D01*
X129149457Y-97696956D01*
X129128387Y-97706921D01*
X129106443Y-97714773D01*
X129083834Y-97720437D01*
X129060779Y-97723856D01*
X129037500Y-97725000D01*
X128462500Y-97725000D01*
X128439221Y-97723856D01*
X128416166Y-97720437D01*
X128393557Y-97714773D01*
X128371613Y-97706921D01*
X128350543Y-97696956D01*
X128330552Y-97684974D01*
X128311832Y-97671090D01*
X128294562Y-97655438D01*
X128278910Y-97638168D01*
X128265026Y-97619448D01*
X128253044Y-97599457D01*
X128243079Y-97578387D01*
X128235227Y-97556443D01*
X128229563Y-97533834D01*
X128226144Y-97510779D01*
X128225000Y-97487500D01*
X128225000Y-97012500D01*
X128226144Y-96989221D01*
X128229563Y-96966166D01*
X128235227Y-96943557D01*
X128243079Y-96921613D01*
X128253044Y-96900543D01*
X128265026Y-96880552D01*
X128278910Y-96861832D01*
X128294562Y-96844562D01*
X128311832Y-96828910D01*
X128330552Y-96815026D01*
X128350543Y-96803044D01*
X128371613Y-96793079D01*
X128393557Y-96785227D01*
X128416166Y-96779563D01*
X128439221Y-96776144D01*
X128462500Y-96775000D01*
X129037500Y-96775000D01*
X129060779Y-96776144D01*
G37*
G36*
X166060779Y-113526144D02*
G01*
X166083834Y-113529563D01*
X166106443Y-113535227D01*
X166128387Y-113543079D01*
X166149457Y-113553044D01*
X166169448Y-113565026D01*
X166188168Y-113578910D01*
X166205438Y-113594562D01*
X166221090Y-113611832D01*
X166234974Y-113630552D01*
X166246956Y-113650543D01*
X166256921Y-113671613D01*
X166264773Y-113693557D01*
X166270437Y-113716166D01*
X166273856Y-113739221D01*
X166275000Y-113762500D01*
X166275000Y-114237500D01*
X166273856Y-114260779D01*
X166270437Y-114283834D01*
X166264773Y-114306443D01*
X166256921Y-114328387D01*
X166246956Y-114349457D01*
X166234974Y-114369448D01*
X166221090Y-114388168D01*
X166205438Y-114405438D01*
X166188168Y-114421090D01*
X166169448Y-114434974D01*
X166149457Y-114446956D01*
X166128387Y-114456921D01*
X166106443Y-114464773D01*
X166083834Y-114470437D01*
X166060779Y-114473856D01*
X166037500Y-114475000D01*
X165462500Y-114475000D01*
X165439221Y-114473856D01*
X165416166Y-114470437D01*
X165393557Y-114464773D01*
X165371613Y-114456921D01*
X165350543Y-114446956D01*
X165330552Y-114434974D01*
X165311832Y-114421090D01*
X165294562Y-114405438D01*
X165278910Y-114388168D01*
X165265026Y-114369448D01*
X165253044Y-114349457D01*
X165243079Y-114328387D01*
X165235227Y-114306443D01*
X165229563Y-114283834D01*
X165226144Y-114260779D01*
X165225000Y-114237500D01*
X165225000Y-113762500D01*
X165226144Y-113739221D01*
X165229563Y-113716166D01*
X165235227Y-113693557D01*
X165243079Y-113671613D01*
X165253044Y-113650543D01*
X165265026Y-113630552D01*
X165278910Y-113611832D01*
X165294562Y-113594562D01*
X165311832Y-113578910D01*
X165330552Y-113565026D01*
X165350543Y-113553044D01*
X165371613Y-113543079D01*
X165393557Y-113535227D01*
X165416166Y-113529563D01*
X165439221Y-113526144D01*
X165462500Y-113525000D01*
X166037500Y-113525000D01*
X166060779Y-113526144D01*
G37*
G36*
X167810779Y-113526144D02*
G01*
X167833834Y-113529563D01*
X167856443Y-113535227D01*
X167878387Y-113543079D01*
X167899457Y-113553044D01*
X167919448Y-113565026D01*
X167938168Y-113578910D01*
X167955438Y-113594562D01*
X167971090Y-113611832D01*
X167984974Y-113630552D01*
X167996956Y-113650543D01*
X168006921Y-113671613D01*
X168014773Y-113693557D01*
X168020437Y-113716166D01*
X168023856Y-113739221D01*
X168025000Y-113762500D01*
X168025000Y-114237500D01*
X168023856Y-114260779D01*
X168020437Y-114283834D01*
X168014773Y-114306443D01*
X168006921Y-114328387D01*
X167996956Y-114349457D01*
X167984974Y-114369448D01*
X167971090Y-114388168D01*
X167955438Y-114405438D01*
X167938168Y-114421090D01*
X167919448Y-114434974D01*
X167899457Y-114446956D01*
X167878387Y-114456921D01*
X167856443Y-114464773D01*
X167833834Y-114470437D01*
X167810779Y-114473856D01*
X167787500Y-114475000D01*
X167212500Y-114475000D01*
X167189221Y-114473856D01*
X167166166Y-114470437D01*
X167143557Y-114464773D01*
X167121613Y-114456921D01*
X167100543Y-114446956D01*
X167080552Y-114434974D01*
X167061832Y-114421090D01*
X167044562Y-114405438D01*
X167028910Y-114388168D01*
X167015026Y-114369448D01*
X167003044Y-114349457D01*
X166993079Y-114328387D01*
X166985227Y-114306443D01*
X166979563Y-114283834D01*
X166976144Y-114260779D01*
X166975000Y-114237500D01*
X166975000Y-113762500D01*
X166976144Y-113739221D01*
X166979563Y-113716166D01*
X166985227Y-113693557D01*
X166993079Y-113671613D01*
X167003044Y-113650543D01*
X167015026Y-113630552D01*
X167028910Y-113611832D01*
X167044562Y-113594562D01*
X167061832Y-113578910D01*
X167080552Y-113565026D01*
X167100543Y-113553044D01*
X167121613Y-113543079D01*
X167143557Y-113535227D01*
X167166166Y-113529563D01*
X167189221Y-113526144D01*
X167212500Y-113525000D01*
X167787500Y-113525000D01*
X167810779Y-113526144D01*
G37*
G36*
X131399504Y-101013704D02*
G01*
X131423773Y-101017304D01*
X131447571Y-101023265D01*
X131470671Y-101031530D01*
X131492849Y-101042020D01*
X131513893Y-101054633D01*
X131533598Y-101069247D01*
X131551777Y-101085723D01*
X131568253Y-101103902D01*
X131582867Y-101123607D01*
X131595480Y-101144651D01*
X131605970Y-101166829D01*
X131614235Y-101189929D01*
X131620196Y-101213727D01*
X131623796Y-101237996D01*
X131625000Y-101262500D01*
X131625000Y-102187500D01*
X131623796Y-102212004D01*
X131620196Y-102236273D01*
X131614235Y-102260071D01*
X131605970Y-102283171D01*
X131595480Y-102305349D01*
X131582867Y-102326393D01*
X131568253Y-102346098D01*
X131551777Y-102364277D01*
X131533598Y-102380753D01*
X131513893Y-102395367D01*
X131492849Y-102407980D01*
X131470671Y-102418470D01*
X131447571Y-102426735D01*
X131423773Y-102432696D01*
X131399504Y-102436296D01*
X131375000Y-102437500D01*
X130125000Y-102437500D01*
X130100496Y-102436296D01*
X130076227Y-102432696D01*
X130052429Y-102426735D01*
X130029329Y-102418470D01*
X130007151Y-102407980D01*
X129986107Y-102395367D01*
X129966402Y-102380753D01*
X129948223Y-102364277D01*
X129931747Y-102346098D01*
X129917133Y-102326393D01*
X129904520Y-102305349D01*
X129894030Y-102283171D01*
X129885765Y-102260071D01*
X129879804Y-102236273D01*
X129876204Y-102212004D01*
X129875000Y-102187500D01*
X129875000Y-101262500D01*
X129876204Y-101237996D01*
X129879804Y-101213727D01*
X129885765Y-101189929D01*
X129894030Y-101166829D01*
X129904520Y-101144651D01*
X129917133Y-101123607D01*
X129931747Y-101103902D01*
X129948223Y-101085723D01*
X129966402Y-101069247D01*
X129986107Y-101054633D01*
X130007151Y-101042020D01*
X130029329Y-101031530D01*
X130052429Y-101023265D01*
X130076227Y-101017304D01*
X130100496Y-101013704D01*
X130125000Y-101012500D01*
X131375000Y-101012500D01*
X131399504Y-101013704D01*
G37*
G36*
X131399504Y-98038704D02*
G01*
X131423773Y-98042304D01*
X131447571Y-98048265D01*
X131470671Y-98056530D01*
X131492849Y-98067020D01*
X131513893Y-98079633D01*
X131533598Y-98094247D01*
X131551777Y-98110723D01*
X131568253Y-98128902D01*
X131582867Y-98148607D01*
X131595480Y-98169651D01*
X131605970Y-98191829D01*
X131614235Y-98214929D01*
X131620196Y-98238727D01*
X131623796Y-98262996D01*
X131625000Y-98287500D01*
X131625000Y-99212500D01*
X131623796Y-99237004D01*
X131620196Y-99261273D01*
X131614235Y-99285071D01*
X131605970Y-99308171D01*
X131595480Y-99330349D01*
X131582867Y-99351393D01*
X131568253Y-99371098D01*
X131551777Y-99389277D01*
X131533598Y-99405753D01*
X131513893Y-99420367D01*
X131492849Y-99432980D01*
X131470671Y-99443470D01*
X131447571Y-99451735D01*
X131423773Y-99457696D01*
X131399504Y-99461296D01*
X131375000Y-99462500D01*
X130125000Y-99462500D01*
X130100496Y-99461296D01*
X130076227Y-99457696D01*
X130052429Y-99451735D01*
X130029329Y-99443470D01*
X130007151Y-99432980D01*
X129986107Y-99420367D01*
X129966402Y-99405753D01*
X129948223Y-99389277D01*
X129931747Y-99371098D01*
X129917133Y-99351393D01*
X129904520Y-99330349D01*
X129894030Y-99308171D01*
X129885765Y-99285071D01*
X129879804Y-99261273D01*
X129876204Y-99237004D01*
X129875000Y-99212500D01*
X129875000Y-98287500D01*
X129876204Y-98262996D01*
X129879804Y-98238727D01*
X129885765Y-98214929D01*
X129894030Y-98191829D01*
X129904520Y-98169651D01*
X129917133Y-98148607D01*
X129931747Y-98128902D01*
X129948223Y-98110723D01*
X129966402Y-98094247D01*
X129986107Y-98079633D01*
X130007151Y-98067020D01*
X130029329Y-98056530D01*
X130052429Y-98048265D01*
X130076227Y-98042304D01*
X130100496Y-98038704D01*
X130125000Y-98037500D01*
X131375000Y-98037500D01*
X131399504Y-98038704D01*
G37*
G36*
X134684505Y-84763704D02*
G01*
X134708773Y-84767304D01*
X134732572Y-84773265D01*
X134755671Y-84781530D01*
X134777850Y-84792020D01*
X134798893Y-84804632D01*
X134818599Y-84819247D01*
X134836777Y-84835723D01*
X134853253Y-84853901D01*
X134867868Y-84873607D01*
X134880480Y-84894650D01*
X134890970Y-84916829D01*
X134899235Y-84939928D01*
X134905196Y-84963727D01*
X134908796Y-84987995D01*
X134910000Y-85012499D01*
X134910000Y-86487501D01*
X134908796Y-86512005D01*
X134905196Y-86536273D01*
X134899235Y-86560072D01*
X134890970Y-86583171D01*
X134880480Y-86605350D01*
X134867868Y-86626393D01*
X134853253Y-86646099D01*
X134836777Y-86664277D01*
X134818599Y-86680753D01*
X134798893Y-86695368D01*
X134777850Y-86707980D01*
X134755671Y-86718470D01*
X134732572Y-86726735D01*
X134708773Y-86732696D01*
X134684505Y-86736296D01*
X134660001Y-86737500D01*
X129759999Y-86737500D01*
X129735495Y-86736296D01*
X129711227Y-86732696D01*
X129687428Y-86726735D01*
X129664329Y-86718470D01*
X129642150Y-86707980D01*
X129621107Y-86695368D01*
X129601401Y-86680753D01*
X129583223Y-86664277D01*
X129566747Y-86646099D01*
X129552132Y-86626393D01*
X129539520Y-86605350D01*
X129529030Y-86583171D01*
X129520765Y-86560072D01*
X129514804Y-86536273D01*
X129511204Y-86512005D01*
X129510000Y-86487501D01*
X129510000Y-85012499D01*
X129511204Y-84987995D01*
X129514804Y-84963727D01*
X129520765Y-84939928D01*
X129529030Y-84916829D01*
X129539520Y-84894650D01*
X129552132Y-84873607D01*
X129566747Y-84853901D01*
X129583223Y-84835723D01*
X129601401Y-84819247D01*
X129621107Y-84804632D01*
X129642150Y-84792020D01*
X129664329Y-84781530D01*
X129687428Y-84773265D01*
X129711227Y-84767304D01*
X129735495Y-84763704D01*
X129759999Y-84762500D01*
X134660001Y-84762500D01*
X134684505Y-84763704D01*
G37*
G36*
X134684505Y-90038704D02*
G01*
X134708773Y-90042304D01*
X134732572Y-90048265D01*
X134755671Y-90056530D01*
X134777850Y-90067020D01*
X134798893Y-90079632D01*
X134818599Y-90094247D01*
X134836777Y-90110723D01*
X134853253Y-90128901D01*
X134867868Y-90148607D01*
X134880480Y-90169650D01*
X134890970Y-90191829D01*
X134899235Y-90214928D01*
X134905196Y-90238727D01*
X134908796Y-90262995D01*
X134910000Y-90287499D01*
X134910000Y-91762501D01*
X134908796Y-91787005D01*
X134905196Y-91811273D01*
X134899235Y-91835072D01*
X134890970Y-91858171D01*
X134880480Y-91880350D01*
X134867868Y-91901393D01*
X134853253Y-91921099D01*
X134836777Y-91939277D01*
X134818599Y-91955753D01*
X134798893Y-91970368D01*
X134777850Y-91982980D01*
X134755671Y-91993470D01*
X134732572Y-92001735D01*
X134708773Y-92007696D01*
X134684505Y-92011296D01*
X134660001Y-92012500D01*
X129759999Y-92012500D01*
X129735495Y-92011296D01*
X129711227Y-92007696D01*
X129687428Y-92001735D01*
X129664329Y-91993470D01*
X129642150Y-91982980D01*
X129621107Y-91970368D01*
X129601401Y-91955753D01*
X129583223Y-91939277D01*
X129566747Y-91921099D01*
X129552132Y-91901393D01*
X129539520Y-91880350D01*
X129529030Y-91858171D01*
X129520765Y-91835072D01*
X129514804Y-91811273D01*
X129511204Y-91787005D01*
X129510000Y-91762501D01*
X129510000Y-90287499D01*
X129511204Y-90262995D01*
X129514804Y-90238727D01*
X129520765Y-90214928D01*
X129529030Y-90191829D01*
X129539520Y-90169650D01*
X129552132Y-90148607D01*
X129566747Y-90128901D01*
X129583223Y-90110723D01*
X129601401Y-90094247D01*
X129621107Y-90079632D01*
X129642150Y-90067020D01*
X129664329Y-90056530D01*
X129687428Y-90048265D01*
X129711227Y-90042304D01*
X129735495Y-90038704D01*
X129759999Y-90037500D01*
X134660001Y-90037500D01*
X134684505Y-90038704D01*
G37*
G36*
X132675779Y-75056144D02*
G01*
X132698834Y-75059563D01*
X132721443Y-75065227D01*
X132743387Y-75073079D01*
X132764457Y-75083044D01*
X132784448Y-75095026D01*
X132803168Y-75108910D01*
X132820438Y-75124562D01*
X132836090Y-75141832D01*
X132849974Y-75160552D01*
X132861956Y-75180543D01*
X132871921Y-75201613D01*
X132879773Y-75223557D01*
X132885437Y-75246166D01*
X132888856Y-75269221D01*
X132890000Y-75292500D01*
X132890000Y-75767500D01*
X132888856Y-75790779D01*
X132885437Y-75813834D01*
X132879773Y-75836443D01*
X132871921Y-75858387D01*
X132861956Y-75879457D01*
X132849974Y-75899448D01*
X132836090Y-75918168D01*
X132820438Y-75935438D01*
X132803168Y-75951090D01*
X132784448Y-75964974D01*
X132764457Y-75976956D01*
X132743387Y-75986921D01*
X132721443Y-75994773D01*
X132698834Y-76000437D01*
X132675779Y-76003856D01*
X132652500Y-76005000D01*
X132077500Y-76005000D01*
X132054221Y-76003856D01*
X132031166Y-76000437D01*
X132008557Y-75994773D01*
X131986613Y-75986921D01*
X131965543Y-75976956D01*
X131945552Y-75964974D01*
X131926832Y-75951090D01*
X131909562Y-75935438D01*
X131893910Y-75918168D01*
X131880026Y-75899448D01*
X131868044Y-75879457D01*
X131858079Y-75858387D01*
X131850227Y-75836443D01*
X131844563Y-75813834D01*
X131841144Y-75790779D01*
X131840000Y-75767500D01*
X131840000Y-75292500D01*
X131841144Y-75269221D01*
X131844563Y-75246166D01*
X131850227Y-75223557D01*
X131858079Y-75201613D01*
X131868044Y-75180543D01*
X131880026Y-75160552D01*
X131893910Y-75141832D01*
X131909562Y-75124562D01*
X131926832Y-75108910D01*
X131945552Y-75095026D01*
X131965543Y-75083044D01*
X131986613Y-75073079D01*
X132008557Y-75065227D01*
X132031166Y-75059563D01*
X132054221Y-75056144D01*
X132077500Y-75055000D01*
X132652500Y-75055000D01*
X132675779Y-75056144D01*
G37*
G36*
X134425779Y-75056144D02*
G01*
X134448834Y-75059563D01*
X134471443Y-75065227D01*
X134493387Y-75073079D01*
X134514457Y-75083044D01*
X134534448Y-75095026D01*
X134553168Y-75108910D01*
X134570438Y-75124562D01*
X134586090Y-75141832D01*
X134599974Y-75160552D01*
X134611956Y-75180543D01*
X134621921Y-75201613D01*
X134629773Y-75223557D01*
X134635437Y-75246166D01*
X134638856Y-75269221D01*
X134640000Y-75292500D01*
X134640000Y-75767500D01*
X134638856Y-75790779D01*
X134635437Y-75813834D01*
X134629773Y-75836443D01*
X134621921Y-75858387D01*
X134611956Y-75879457D01*
X134599974Y-75899448D01*
X134586090Y-75918168D01*
X134570438Y-75935438D01*
X134553168Y-75951090D01*
X134534448Y-75964974D01*
X134514457Y-75976956D01*
X134493387Y-75986921D01*
X134471443Y-75994773D01*
X134448834Y-76000437D01*
X134425779Y-76003856D01*
X134402500Y-76005000D01*
X133827500Y-76005000D01*
X133804221Y-76003856D01*
X133781166Y-76000437D01*
X133758557Y-75994773D01*
X133736613Y-75986921D01*
X133715543Y-75976956D01*
X133695552Y-75964974D01*
X133676832Y-75951090D01*
X133659562Y-75935438D01*
X133643910Y-75918168D01*
X133630026Y-75899448D01*
X133618044Y-75879457D01*
X133608079Y-75858387D01*
X133600227Y-75836443D01*
X133594563Y-75813834D01*
X133591144Y-75790779D01*
X133590000Y-75767500D01*
X133590000Y-75292500D01*
X133591144Y-75269221D01*
X133594563Y-75246166D01*
X133600227Y-75223557D01*
X133608079Y-75201613D01*
X133618044Y-75180543D01*
X133630026Y-75160552D01*
X133643910Y-75141832D01*
X133659562Y-75124562D01*
X133676832Y-75108910D01*
X133695552Y-75095026D01*
X133715543Y-75083044D01*
X133736613Y-75073079D01*
X133758557Y-75065227D01*
X133781166Y-75059563D01*
X133804221Y-75056144D01*
X133827500Y-75055000D01*
X134402500Y-75055000D01*
X134425779Y-75056144D01*
G37*
G36*
X138260779Y-77546144D02*
G01*
X138283834Y-77549563D01*
X138306443Y-77555227D01*
X138328387Y-77563079D01*
X138349457Y-77573044D01*
X138369448Y-77585026D01*
X138388168Y-77598910D01*
X138405438Y-77614562D01*
X138421090Y-77631832D01*
X138434974Y-77650552D01*
X138446956Y-77670543D01*
X138456921Y-77691613D01*
X138464773Y-77713557D01*
X138470437Y-77736166D01*
X138473856Y-77759221D01*
X138475000Y-77782500D01*
X138475000Y-78357500D01*
X138473856Y-78380779D01*
X138470437Y-78403834D01*
X138464773Y-78426443D01*
X138456921Y-78448387D01*
X138446956Y-78469457D01*
X138434974Y-78489448D01*
X138421090Y-78508168D01*
X138405438Y-78525438D01*
X138388168Y-78541090D01*
X138369448Y-78554974D01*
X138349457Y-78566956D01*
X138328387Y-78576921D01*
X138306443Y-78584773D01*
X138283834Y-78590437D01*
X138260779Y-78593856D01*
X138237500Y-78595000D01*
X137762500Y-78595000D01*
X137739221Y-78593856D01*
X137716166Y-78590437D01*
X137693557Y-78584773D01*
X137671613Y-78576921D01*
X137650543Y-78566956D01*
X137630552Y-78554974D01*
X137611832Y-78541090D01*
X137594562Y-78525438D01*
X137578910Y-78508168D01*
X137565026Y-78489448D01*
X137553044Y-78469457D01*
X137543079Y-78448387D01*
X137535227Y-78426443D01*
X137529563Y-78403834D01*
X137526144Y-78380779D01*
X137525000Y-78357500D01*
X137525000Y-77782500D01*
X137526144Y-77759221D01*
X137529563Y-77736166D01*
X137535227Y-77713557D01*
X137543079Y-77691613D01*
X137553044Y-77670543D01*
X137565026Y-77650552D01*
X137578910Y-77631832D01*
X137594562Y-77614562D01*
X137611832Y-77598910D01*
X137630552Y-77585026D01*
X137650543Y-77573044D01*
X137671613Y-77563079D01*
X137693557Y-77555227D01*
X137716166Y-77549563D01*
X137739221Y-77546144D01*
X137762500Y-77545000D01*
X138237500Y-77545000D01*
X138260779Y-77546144D01*
G37*
G36*
X138260779Y-79296144D02*
G01*
X138283834Y-79299563D01*
X138306443Y-79305227D01*
X138328387Y-79313079D01*
X138349457Y-79323044D01*
X138369448Y-79335026D01*
X138388168Y-79348910D01*
X138405438Y-79364562D01*
X138421090Y-79381832D01*
X138434974Y-79400552D01*
X138446956Y-79420543D01*
X138456921Y-79441613D01*
X138464773Y-79463557D01*
X138470437Y-79486166D01*
X138473856Y-79509221D01*
X138475000Y-79532500D01*
X138475000Y-80107500D01*
X138473856Y-80130779D01*
X138470437Y-80153834D01*
X138464773Y-80176443D01*
X138456921Y-80198387D01*
X138446956Y-80219457D01*
X138434974Y-80239448D01*
X138421090Y-80258168D01*
X138405438Y-80275438D01*
X138388168Y-80291090D01*
X138369448Y-80304974D01*
X138349457Y-80316956D01*
X138328387Y-80326921D01*
X138306443Y-80334773D01*
X138283834Y-80340437D01*
X138260779Y-80343856D01*
X138237500Y-80345000D01*
X137762500Y-80345000D01*
X137739221Y-80343856D01*
X137716166Y-80340437D01*
X137693557Y-80334773D01*
X137671613Y-80326921D01*
X137650543Y-80316956D01*
X137630552Y-80304974D01*
X137611832Y-80291090D01*
X137594562Y-80275438D01*
X137578910Y-80258168D01*
X137565026Y-80239448D01*
X137553044Y-80219457D01*
X137543079Y-80198387D01*
X137535227Y-80176443D01*
X137529563Y-80153834D01*
X137526144Y-80130779D01*
X137525000Y-80107500D01*
X137525000Y-79532500D01*
X137526144Y-79509221D01*
X137529563Y-79486166D01*
X137535227Y-79463557D01*
X137543079Y-79441613D01*
X137553044Y-79420543D01*
X137565026Y-79400552D01*
X137578910Y-79381832D01*
X137594562Y-79364562D01*
X137611832Y-79348910D01*
X137630552Y-79335026D01*
X137650543Y-79323044D01*
X137671613Y-79313079D01*
X137693557Y-79305227D01*
X137716166Y-79299563D01*
X137739221Y-79296144D01*
X137762500Y-79295000D01*
X138237500Y-79295000D01*
X138260779Y-79296144D01*
G37*
G36*
X136060779Y-97026144D02*
G01*
X136083834Y-97029563D01*
X136106443Y-97035227D01*
X136128387Y-97043079D01*
X136149457Y-97053044D01*
X136169448Y-97065026D01*
X136188168Y-97078910D01*
X136205438Y-97094562D01*
X136221090Y-97111832D01*
X136234974Y-97130552D01*
X136246956Y-97150543D01*
X136256921Y-97171613D01*
X136264773Y-97193557D01*
X136270437Y-97216166D01*
X136273856Y-97239221D01*
X136275000Y-97262500D01*
X136275000Y-97737500D01*
X136273856Y-97760779D01*
X136270437Y-97783834D01*
X136264773Y-97806443D01*
X136256921Y-97828387D01*
X136246956Y-97849457D01*
X136234974Y-97869448D01*
X136221090Y-97888168D01*
X136205438Y-97905438D01*
X136188168Y-97921090D01*
X136169448Y-97934974D01*
X136149457Y-97946956D01*
X136128387Y-97956921D01*
X136106443Y-97964773D01*
X136083834Y-97970437D01*
X136060779Y-97973856D01*
X136037500Y-97975000D01*
X135462500Y-97975000D01*
X135439221Y-97973856D01*
X135416166Y-97970437D01*
X135393557Y-97964773D01*
X135371613Y-97956921D01*
X135350543Y-97946956D01*
X135330552Y-97934974D01*
X135311832Y-97921090D01*
X135294562Y-97905438D01*
X135278910Y-97888168D01*
X135265026Y-97869448D01*
X135253044Y-97849457D01*
X135243079Y-97828387D01*
X135235227Y-97806443D01*
X135229563Y-97783834D01*
X135226144Y-97760779D01*
X135225000Y-97737500D01*
X135225000Y-97262500D01*
X135226144Y-97239221D01*
X135229563Y-97216166D01*
X135235227Y-97193557D01*
X135243079Y-97171613D01*
X135253044Y-97150543D01*
X135265026Y-97130552D01*
X135278910Y-97111832D01*
X135294562Y-97094562D01*
X135311832Y-97078910D01*
X135330552Y-97065026D01*
X135350543Y-97053044D01*
X135371613Y-97043079D01*
X135393557Y-97035227D01*
X135416166Y-97029563D01*
X135439221Y-97026144D01*
X135462500Y-97025000D01*
X136037500Y-97025000D01*
X136060779Y-97026144D01*
G37*
G36*
X137810779Y-97026144D02*
G01*
X137833834Y-97029563D01*
X137856443Y-97035227D01*
X137878387Y-97043079D01*
X137899457Y-97053044D01*
X137919448Y-97065026D01*
X137938168Y-97078910D01*
X137955438Y-97094562D01*
X137971090Y-97111832D01*
X137984974Y-97130552D01*
X137996956Y-97150543D01*
X138006921Y-97171613D01*
X138014773Y-97193557D01*
X138020437Y-97216166D01*
X138023856Y-97239221D01*
X138025000Y-97262500D01*
X138025000Y-97737500D01*
X138023856Y-97760779D01*
X138020437Y-97783834D01*
X138014773Y-97806443D01*
X138006921Y-97828387D01*
X137996956Y-97849457D01*
X137984974Y-97869448D01*
X137971090Y-97888168D01*
X137955438Y-97905438D01*
X137938168Y-97921090D01*
X137919448Y-97934974D01*
X137899457Y-97946956D01*
X137878387Y-97956921D01*
X137856443Y-97964773D01*
X137833834Y-97970437D01*
X137810779Y-97973856D01*
X137787500Y-97975000D01*
X137212500Y-97975000D01*
X137189221Y-97973856D01*
X137166166Y-97970437D01*
X137143557Y-97964773D01*
X137121613Y-97956921D01*
X137100543Y-97946956D01*
X137080552Y-97934974D01*
X137061832Y-97921090D01*
X137044562Y-97905438D01*
X137028910Y-97888168D01*
X137015026Y-97869448D01*
X137003044Y-97849457D01*
X136993079Y-97828387D01*
X136985227Y-97806443D01*
X136979563Y-97783834D01*
X136976144Y-97760779D01*
X136975000Y-97737500D01*
X136975000Y-97262500D01*
X136976144Y-97239221D01*
X136979563Y-97216166D01*
X136985227Y-97193557D01*
X136993079Y-97171613D01*
X137003044Y-97150543D01*
X137015026Y-97130552D01*
X137028910Y-97111832D01*
X137044562Y-97094562D01*
X137061832Y-97078910D01*
X137080552Y-97065026D01*
X137100543Y-97053044D01*
X137121613Y-97043079D01*
X137143557Y-97035227D01*
X137166166Y-97029563D01*
X137189221Y-97026144D01*
X137212500Y-97025000D01*
X137787500Y-97025000D01*
X137810779Y-97026144D01*
G37*
G36*
X118310779Y-96776144D02*
G01*
X118333834Y-96779563D01*
X118356443Y-96785227D01*
X118378387Y-96793079D01*
X118399457Y-96803044D01*
X118419448Y-96815026D01*
X118438168Y-96828910D01*
X118455438Y-96844562D01*
X118471090Y-96861832D01*
X118484974Y-96880552D01*
X118496956Y-96900543D01*
X118506921Y-96921613D01*
X118514773Y-96943557D01*
X118520437Y-96966166D01*
X118523856Y-96989221D01*
X118525000Y-97012500D01*
X118525000Y-97487500D01*
X118523856Y-97510779D01*
X118520437Y-97533834D01*
X118514773Y-97556443D01*
X118506921Y-97578387D01*
X118496956Y-97599457D01*
X118484974Y-97619448D01*
X118471090Y-97638168D01*
X118455438Y-97655438D01*
X118438168Y-97671090D01*
X118419448Y-97684974D01*
X118399457Y-97696956D01*
X118378387Y-97706921D01*
X118356443Y-97714773D01*
X118333834Y-97720437D01*
X118310779Y-97723856D01*
X118287500Y-97725000D01*
X117712500Y-97725000D01*
X117689221Y-97723856D01*
X117666166Y-97720437D01*
X117643557Y-97714773D01*
X117621613Y-97706921D01*
X117600543Y-97696956D01*
X117580552Y-97684974D01*
X117561832Y-97671090D01*
X117544562Y-97655438D01*
X117528910Y-97638168D01*
X117515026Y-97619448D01*
X117503044Y-97599457D01*
X117493079Y-97578387D01*
X117485227Y-97556443D01*
X117479563Y-97533834D01*
X117476144Y-97510779D01*
X117475000Y-97487500D01*
X117475000Y-97012500D01*
X117476144Y-96989221D01*
X117479563Y-96966166D01*
X117485227Y-96943557D01*
X117493079Y-96921613D01*
X117503044Y-96900543D01*
X117515026Y-96880552D01*
X117528910Y-96861832D01*
X117544562Y-96844562D01*
X117561832Y-96828910D01*
X117580552Y-96815026D01*
X117600543Y-96803044D01*
X117621613Y-96793079D01*
X117643557Y-96785227D01*
X117666166Y-96779563D01*
X117689221Y-96776144D01*
X117712500Y-96775000D01*
X118287500Y-96775000D01*
X118310779Y-96776144D01*
G37*
G36*
X120060779Y-96776144D02*
G01*
X120083834Y-96779563D01*
X120106443Y-96785227D01*
X120128387Y-96793079D01*
X120149457Y-96803044D01*
X120169448Y-96815026D01*
X120188168Y-96828910D01*
X120205438Y-96844562D01*
X120221090Y-96861832D01*
X120234974Y-96880552D01*
X120246956Y-96900543D01*
X120256921Y-96921613D01*
X120264773Y-96943557D01*
X120270437Y-96966166D01*
X120273856Y-96989221D01*
X120275000Y-97012500D01*
X120275000Y-97487500D01*
X120273856Y-97510779D01*
X120270437Y-97533834D01*
X120264773Y-97556443D01*
X120256921Y-97578387D01*
X120246956Y-97599457D01*
X120234974Y-97619448D01*
X120221090Y-97638168D01*
X120205438Y-97655438D01*
X120188168Y-97671090D01*
X120169448Y-97684974D01*
X120149457Y-97696956D01*
X120128387Y-97706921D01*
X120106443Y-97714773D01*
X120083834Y-97720437D01*
X120060779Y-97723856D01*
X120037500Y-97725000D01*
X119462500Y-97725000D01*
X119439221Y-97723856D01*
X119416166Y-97720437D01*
X119393557Y-97714773D01*
X119371613Y-97706921D01*
X119350543Y-97696956D01*
X119330552Y-97684974D01*
X119311832Y-97671090D01*
X119294562Y-97655438D01*
X119278910Y-97638168D01*
X119265026Y-97619448D01*
X119253044Y-97599457D01*
X119243079Y-97578387D01*
X119235227Y-97556443D01*
X119229563Y-97533834D01*
X119226144Y-97510779D01*
X119225000Y-97487500D01*
X119225000Y-97012500D01*
X119226144Y-96989221D01*
X119229563Y-96966166D01*
X119235227Y-96943557D01*
X119243079Y-96921613D01*
X119253044Y-96900543D01*
X119265026Y-96880552D01*
X119278910Y-96861832D01*
X119294562Y-96844562D01*
X119311832Y-96828910D01*
X119330552Y-96815026D01*
X119350543Y-96803044D01*
X119371613Y-96793079D01*
X119393557Y-96785227D01*
X119416166Y-96779563D01*
X119439221Y-96776144D01*
X119462500Y-96775000D01*
X120037500Y-96775000D01*
X120060779Y-96776144D01*
G37*
G36*
X129049504Y-81013704D02*
G01*
X129073773Y-81017304D01*
X129097571Y-81023265D01*
X129120671Y-81031530D01*
X129142849Y-81042020D01*
X129163893Y-81054633D01*
X129183598Y-81069247D01*
X129201777Y-81085723D01*
X129218253Y-81103902D01*
X129232867Y-81123607D01*
X129245480Y-81144651D01*
X129255970Y-81166829D01*
X129264235Y-81189929D01*
X129270196Y-81213727D01*
X129273796Y-81237996D01*
X129275000Y-81262500D01*
X129275000Y-82187500D01*
X129273796Y-82212004D01*
X129270196Y-82236273D01*
X129264235Y-82260071D01*
X129255970Y-82283171D01*
X129245480Y-82305349D01*
X129232867Y-82326393D01*
X129218253Y-82346098D01*
X129201777Y-82364277D01*
X129183598Y-82380753D01*
X129163893Y-82395367D01*
X129142849Y-82407980D01*
X129120671Y-82418470D01*
X129097571Y-82426735D01*
X129073773Y-82432696D01*
X129049504Y-82436296D01*
X129025000Y-82437500D01*
X127775000Y-82437500D01*
X127750496Y-82436296D01*
X127726227Y-82432696D01*
X127702429Y-82426735D01*
X127679329Y-82418470D01*
X127657151Y-82407980D01*
X127636107Y-82395367D01*
X127616402Y-82380753D01*
X127598223Y-82364277D01*
X127581747Y-82346098D01*
X127567133Y-82326393D01*
X127554520Y-82305349D01*
X127544030Y-82283171D01*
X127535765Y-82260071D01*
X127529804Y-82236273D01*
X127526204Y-82212004D01*
X127525000Y-82187500D01*
X127525000Y-81262500D01*
X127526204Y-81237996D01*
X127529804Y-81213727D01*
X127535765Y-81189929D01*
X127544030Y-81166829D01*
X127554520Y-81144651D01*
X127567133Y-81123607D01*
X127581747Y-81103902D01*
X127598223Y-81085723D01*
X127616402Y-81069247D01*
X127636107Y-81054633D01*
X127657151Y-81042020D01*
X127679329Y-81031530D01*
X127702429Y-81023265D01*
X127726227Y-81017304D01*
X127750496Y-81013704D01*
X127775000Y-81012500D01*
X129025000Y-81012500D01*
X129049504Y-81013704D01*
G37*
G36*
X129049504Y-78038704D02*
G01*
X129073773Y-78042304D01*
X129097571Y-78048265D01*
X129120671Y-78056530D01*
X129142849Y-78067020D01*
X129163893Y-78079633D01*
X129183598Y-78094247D01*
X129201777Y-78110723D01*
X129218253Y-78128902D01*
X129232867Y-78148607D01*
X129245480Y-78169651D01*
X129255970Y-78191829D01*
X129264235Y-78214929D01*
X129270196Y-78238727D01*
X129273796Y-78262996D01*
X129275000Y-78287500D01*
X129275000Y-79212500D01*
X129273796Y-79237004D01*
X129270196Y-79261273D01*
X129264235Y-79285071D01*
X129255970Y-79308171D01*
X129245480Y-79330349D01*
X129232867Y-79351393D01*
X129218253Y-79371098D01*
X129201777Y-79389277D01*
X129183598Y-79405753D01*
X129163893Y-79420367D01*
X129142849Y-79432980D01*
X129120671Y-79443470D01*
X129097571Y-79451735D01*
X129073773Y-79457696D01*
X129049504Y-79461296D01*
X129025000Y-79462500D01*
X127775000Y-79462500D01*
X127750496Y-79461296D01*
X127726227Y-79457696D01*
X127702429Y-79451735D01*
X127679329Y-79443470D01*
X127657151Y-79432980D01*
X127636107Y-79420367D01*
X127616402Y-79405753D01*
X127598223Y-79389277D01*
X127581747Y-79371098D01*
X127567133Y-79351393D01*
X127554520Y-79330349D01*
X127544030Y-79308171D01*
X127535765Y-79285071D01*
X127529804Y-79261273D01*
X127526204Y-79237004D01*
X127525000Y-79212500D01*
X127525000Y-78287500D01*
X127526204Y-78262996D01*
X127529804Y-78238727D01*
X127535765Y-78214929D01*
X127544030Y-78191829D01*
X127554520Y-78169651D01*
X127567133Y-78148607D01*
X127581747Y-78128902D01*
X127598223Y-78110723D01*
X127616402Y-78094247D01*
X127636107Y-78079633D01*
X127657151Y-78067020D01*
X127679329Y-78056530D01*
X127702429Y-78048265D01*
X127726227Y-78042304D01*
X127750496Y-78038704D01*
X127775000Y-78037500D01*
X129025000Y-78037500D01*
X129049504Y-78038704D01*
G37*
G36*
X123024504Y-81751204D02*
G01*
X123048773Y-81754804D01*
X123072571Y-81760765D01*
X123095671Y-81769030D01*
X123117849Y-81779520D01*
X123138893Y-81792133D01*
X123158598Y-81806747D01*
X123176777Y-81823223D01*
X123193253Y-81841402D01*
X123207867Y-81861107D01*
X123220480Y-81882151D01*
X123230970Y-81904329D01*
X123239235Y-81927429D01*
X123245196Y-81951227D01*
X123248796Y-81975496D01*
X123250000Y-82000000D01*
X123250000Y-85900000D01*
X123248796Y-85924504D01*
X123245196Y-85948773D01*
X123239235Y-85972571D01*
X123230970Y-85995671D01*
X123220480Y-86017849D01*
X123207867Y-86038893D01*
X123193253Y-86058598D01*
X123176777Y-86076777D01*
X123158598Y-86093253D01*
X123138893Y-86107867D01*
X123117849Y-86120480D01*
X123095671Y-86130970D01*
X123072571Y-86139235D01*
X123048773Y-86145196D01*
X123024504Y-86148796D01*
X123000000Y-86150000D01*
X121000000Y-86150000D01*
X120975496Y-86148796D01*
X120951227Y-86145196D01*
X120927429Y-86139235D01*
X120904329Y-86130970D01*
X120882151Y-86120480D01*
X120861107Y-86107867D01*
X120841402Y-86093253D01*
X120823223Y-86076777D01*
X120806747Y-86058598D01*
X120792133Y-86038893D01*
X120779520Y-86017849D01*
X120769030Y-85995671D01*
X120760765Y-85972571D01*
X120754804Y-85948773D01*
X120751204Y-85924504D01*
X120750000Y-85900000D01*
X120750000Y-82000000D01*
X120751204Y-81975496D01*
X120754804Y-81951227D01*
X120760765Y-81927429D01*
X120769030Y-81904329D01*
X120779520Y-81882151D01*
X120792133Y-81861107D01*
X120806747Y-81841402D01*
X120823223Y-81823223D01*
X120841402Y-81806747D01*
X120861107Y-81792133D01*
X120882151Y-81779520D01*
X120904329Y-81769030D01*
X120927429Y-81760765D01*
X120951227Y-81754804D01*
X120975496Y-81751204D01*
X121000000Y-81750000D01*
X123000000Y-81750000D01*
X123024504Y-81751204D01*
G37*
G36*
X123024504Y-74351204D02*
G01*
X123048773Y-74354804D01*
X123072571Y-74360765D01*
X123095671Y-74369030D01*
X123117849Y-74379520D01*
X123138893Y-74392133D01*
X123158598Y-74406747D01*
X123176777Y-74423223D01*
X123193253Y-74441402D01*
X123207867Y-74461107D01*
X123220480Y-74482151D01*
X123230970Y-74504329D01*
X123239235Y-74527429D01*
X123245196Y-74551227D01*
X123248796Y-74575496D01*
X123250000Y-74600000D01*
X123250000Y-78500000D01*
X123248796Y-78524504D01*
X123245196Y-78548773D01*
X123239235Y-78572571D01*
X123230970Y-78595671D01*
X123220480Y-78617849D01*
X123207867Y-78638893D01*
X123193253Y-78658598D01*
X123176777Y-78676777D01*
X123158598Y-78693253D01*
X123138893Y-78707867D01*
X123117849Y-78720480D01*
X123095671Y-78730970D01*
X123072571Y-78739235D01*
X123048773Y-78745196D01*
X123024504Y-78748796D01*
X123000000Y-78750000D01*
X121000000Y-78750000D01*
X120975496Y-78748796D01*
X120951227Y-78745196D01*
X120927429Y-78739235D01*
X120904329Y-78730970D01*
X120882151Y-78720480D01*
X120861107Y-78707867D01*
X120841402Y-78693253D01*
X120823223Y-78676777D01*
X120806747Y-78658598D01*
X120792133Y-78638893D01*
X120779520Y-78617849D01*
X120769030Y-78595671D01*
X120760765Y-78572571D01*
X120754804Y-78548773D01*
X120751204Y-78524504D01*
X120750000Y-78500000D01*
X120750000Y-74600000D01*
X120751204Y-74575496D01*
X120754804Y-74551227D01*
X120760765Y-74527429D01*
X120769030Y-74504329D01*
X120779520Y-74482151D01*
X120792133Y-74461107D01*
X120806747Y-74441402D01*
X120823223Y-74423223D01*
X120841402Y-74406747D01*
X120861107Y-74392133D01*
X120882151Y-74379520D01*
X120904329Y-74369030D01*
X120927429Y-74360765D01*
X120951227Y-74354804D01*
X120975496Y-74351204D01*
X121000000Y-74350000D01*
X123000000Y-74350000D01*
X123024504Y-74351204D01*
G37*
G36*
X140149504Y-101276204D02*
G01*
X140173773Y-101279804D01*
X140197571Y-101285765D01*
X140220671Y-101294030D01*
X140242849Y-101304520D01*
X140263893Y-101317133D01*
X140283598Y-101331747D01*
X140301777Y-101348223D01*
X140318253Y-101366402D01*
X140332867Y-101386107D01*
X140345480Y-101407151D01*
X140355970Y-101429329D01*
X140364235Y-101452429D01*
X140370196Y-101476227D01*
X140373796Y-101500496D01*
X140375000Y-101525000D01*
X140375000Y-102450000D01*
X140373796Y-102474504D01*
X140370196Y-102498773D01*
X140364235Y-102522571D01*
X140355970Y-102545671D01*
X140345480Y-102567849D01*
X140332867Y-102588893D01*
X140318253Y-102608598D01*
X140301777Y-102626777D01*
X140283598Y-102643253D01*
X140263893Y-102657867D01*
X140242849Y-102670480D01*
X140220671Y-102680970D01*
X140197571Y-102689235D01*
X140173773Y-102695196D01*
X140149504Y-102698796D01*
X140125000Y-102700000D01*
X138875000Y-102700000D01*
X138850496Y-102698796D01*
X138826227Y-102695196D01*
X138802429Y-102689235D01*
X138779329Y-102680970D01*
X138757151Y-102670480D01*
X138736107Y-102657867D01*
X138716402Y-102643253D01*
X138698223Y-102626777D01*
X138681747Y-102608598D01*
X138667133Y-102588893D01*
X138654520Y-102567849D01*
X138644030Y-102545671D01*
X138635765Y-102522571D01*
X138629804Y-102498773D01*
X138626204Y-102474504D01*
X138625000Y-102450000D01*
X138625000Y-101525000D01*
X138626204Y-101500496D01*
X138629804Y-101476227D01*
X138635765Y-101452429D01*
X138644030Y-101429329D01*
X138654520Y-101407151D01*
X138667133Y-101386107D01*
X138681747Y-101366402D01*
X138698223Y-101348223D01*
X138716402Y-101331747D01*
X138736107Y-101317133D01*
X138757151Y-101304520D01*
X138779329Y-101294030D01*
X138802429Y-101285765D01*
X138826227Y-101279804D01*
X138850496Y-101276204D01*
X138875000Y-101275000D01*
X140125000Y-101275000D01*
X140149504Y-101276204D01*
G37*
G36*
X140149504Y-98301204D02*
G01*
X140173773Y-98304804D01*
X140197571Y-98310765D01*
X140220671Y-98319030D01*
X140242849Y-98329520D01*
X140263893Y-98342133D01*
X140283598Y-98356747D01*
X140301777Y-98373223D01*
X140318253Y-98391402D01*
X140332867Y-98411107D01*
X140345480Y-98432151D01*
X140355970Y-98454329D01*
X140364235Y-98477429D01*
X140370196Y-98501227D01*
X140373796Y-98525496D01*
X140375000Y-98550000D01*
X140375000Y-99475000D01*
X140373796Y-99499504D01*
X140370196Y-99523773D01*
X140364235Y-99547571D01*
X140355970Y-99570671D01*
X140345480Y-99592849D01*
X140332867Y-99613893D01*
X140318253Y-99633598D01*
X140301777Y-99651777D01*
X140283598Y-99668253D01*
X140263893Y-99682867D01*
X140242849Y-99695480D01*
X140220671Y-99705970D01*
X140197571Y-99714235D01*
X140173773Y-99720196D01*
X140149504Y-99723796D01*
X140125000Y-99725000D01*
X138875000Y-99725000D01*
X138850496Y-99723796D01*
X138826227Y-99720196D01*
X138802429Y-99714235D01*
X138779329Y-99705970D01*
X138757151Y-99695480D01*
X138736107Y-99682867D01*
X138716402Y-99668253D01*
X138698223Y-99651777D01*
X138681747Y-99633598D01*
X138667133Y-99613893D01*
X138654520Y-99592849D01*
X138644030Y-99570671D01*
X138635765Y-99547571D01*
X138629804Y-99523773D01*
X138626204Y-99499504D01*
X138625000Y-99475000D01*
X138625000Y-98550000D01*
X138626204Y-98525496D01*
X138629804Y-98501227D01*
X138635765Y-98477429D01*
X138644030Y-98454329D01*
X138654520Y-98432151D01*
X138667133Y-98411107D01*
X138681747Y-98391402D01*
X138698223Y-98373223D01*
X138716402Y-98356747D01*
X138736107Y-98342133D01*
X138757151Y-98329520D01*
X138779329Y-98319030D01*
X138802429Y-98310765D01*
X138826227Y-98304804D01*
X138850496Y-98301204D01*
X138875000Y-98300000D01*
X140125000Y-98300000D01*
X140149504Y-98301204D01*
G37*
G36*
X122399504Y-101038704D02*
G01*
X122423773Y-101042304D01*
X122447571Y-101048265D01*
X122470671Y-101056530D01*
X122492849Y-101067020D01*
X122513893Y-101079633D01*
X122533598Y-101094247D01*
X122551777Y-101110723D01*
X122568253Y-101128902D01*
X122582867Y-101148607D01*
X122595480Y-101169651D01*
X122605970Y-101191829D01*
X122614235Y-101214929D01*
X122620196Y-101238727D01*
X122623796Y-101262996D01*
X122625000Y-101287500D01*
X122625000Y-102212500D01*
X122623796Y-102237004D01*
X122620196Y-102261273D01*
X122614235Y-102285071D01*
X122605970Y-102308171D01*
X122595480Y-102330349D01*
X122582867Y-102351393D01*
X122568253Y-102371098D01*
X122551777Y-102389277D01*
X122533598Y-102405753D01*
X122513893Y-102420367D01*
X122492849Y-102432980D01*
X122470671Y-102443470D01*
X122447571Y-102451735D01*
X122423773Y-102457696D01*
X122399504Y-102461296D01*
X122375000Y-102462500D01*
X121125000Y-102462500D01*
X121100496Y-102461296D01*
X121076227Y-102457696D01*
X121052429Y-102451735D01*
X121029329Y-102443470D01*
X121007151Y-102432980D01*
X120986107Y-102420367D01*
X120966402Y-102405753D01*
X120948223Y-102389277D01*
X120931747Y-102371098D01*
X120917133Y-102351393D01*
X120904520Y-102330349D01*
X120894030Y-102308171D01*
X120885765Y-102285071D01*
X120879804Y-102261273D01*
X120876204Y-102237004D01*
X120875000Y-102212500D01*
X120875000Y-101287500D01*
X120876204Y-101262996D01*
X120879804Y-101238727D01*
X120885765Y-101214929D01*
X120894030Y-101191829D01*
X120904520Y-101169651D01*
X120917133Y-101148607D01*
X120931747Y-101128902D01*
X120948223Y-101110723D01*
X120966402Y-101094247D01*
X120986107Y-101079633D01*
X121007151Y-101067020D01*
X121029329Y-101056530D01*
X121052429Y-101048265D01*
X121076227Y-101042304D01*
X121100496Y-101038704D01*
X121125000Y-101037500D01*
X122375000Y-101037500D01*
X122399504Y-101038704D01*
G37*
G36*
X122399504Y-98063704D02*
G01*
X122423773Y-98067304D01*
X122447571Y-98073265D01*
X122470671Y-98081530D01*
X122492849Y-98092020D01*
X122513893Y-98104633D01*
X122533598Y-98119247D01*
X122551777Y-98135723D01*
X122568253Y-98153902D01*
X122582867Y-98173607D01*
X122595480Y-98194651D01*
X122605970Y-98216829D01*
X122614235Y-98239929D01*
X122620196Y-98263727D01*
X122623796Y-98287996D01*
X122625000Y-98312500D01*
X122625000Y-99237500D01*
X122623796Y-99262004D01*
X122620196Y-99286273D01*
X122614235Y-99310071D01*
X122605970Y-99333171D01*
X122595480Y-99355349D01*
X122582867Y-99376393D01*
X122568253Y-99396098D01*
X122551777Y-99414277D01*
X122533598Y-99430753D01*
X122513893Y-99445367D01*
X122492849Y-99457980D01*
X122470671Y-99468470D01*
X122447571Y-99476735D01*
X122423773Y-99482696D01*
X122399504Y-99486296D01*
X122375000Y-99487500D01*
X121125000Y-99487500D01*
X121100496Y-99486296D01*
X121076227Y-99482696D01*
X121052429Y-99476735D01*
X121029329Y-99468470D01*
X121007151Y-99457980D01*
X120986107Y-99445367D01*
X120966402Y-99430753D01*
X120948223Y-99414277D01*
X120931747Y-99396098D01*
X120917133Y-99376393D01*
X120904520Y-99355349D01*
X120894030Y-99333171D01*
X120885765Y-99310071D01*
X120879804Y-99286273D01*
X120876204Y-99262004D01*
X120875000Y-99237500D01*
X120875000Y-98312500D01*
X120876204Y-98287996D01*
X120879804Y-98263727D01*
X120885765Y-98239929D01*
X120894030Y-98216829D01*
X120904520Y-98194651D01*
X120917133Y-98173607D01*
X120931747Y-98153902D01*
X120948223Y-98135723D01*
X120966402Y-98119247D01*
X120986107Y-98104633D01*
X121007151Y-98092020D01*
X121029329Y-98081530D01*
X121052429Y-98073265D01*
X121076227Y-98067304D01*
X121100496Y-98063704D01*
X121125000Y-98062500D01*
X122375000Y-98062500D01*
X122399504Y-98063704D01*
G37*
M02*
