G04 #@! TF.GenerationSoftware,KiCad,Pcbnew,5.1.5-52549c5~84~ubuntu18.04.1*
G04 #@! TF.CreationDate,2020-01-27T13:55:18+13:00*
G04 #@! TF.ProjectId,MOSSbp_Jetson_Nano_Board,4d4f5353-6270-45f4-9a65-74736f6e5f4e,V0.1*
G04 #@! TF.SameCoordinates,Original*
G04 #@! TF.FileFunction,Copper,L2,Bot*
G04 #@! TF.FilePolarity,Positive*
%FSLAX46Y46*%
G04 Gerber Fmt 4.6, Leading zero omitted, Abs format (unit mm)*
G04 Created by KiCad (PCBNEW 5.1.5-52549c5~84~ubuntu18.04.1) date 2020-01-27 13:55:18*
%MOMM*%
%LPD*%
G04 APERTURE LIST*
%ADD10O,2.100000X2.100000*%
%ADD11R,2.100000X2.100000*%
%ADD12O,1.700000X1.700000*%
%ADD13R,1.700000X1.700000*%
%ADD14O,1.700000X2.000000*%
%ADD15C,0.100000*%
%ADD16C,2.600000*%
%ADD17R,2.600000X2.600000*%
%ADD18C,0.800000*%
%ADD19C,0.250000*%
%ADD20C,0.500000*%
G04 APERTURE END LIST*
D10*
X148560000Y-75980000D03*
X167620000Y-76000000D03*
X167630000Y-91880000D03*
X167620000Y-95060000D03*
X167620000Y-98240000D03*
X167620000Y-110940000D03*
D11*
X148570000Y-110940000D03*
D12*
X175000000Y-115160000D03*
X172460000Y-115160000D03*
X175000000Y-112620000D03*
X172460000Y-112620000D03*
X175000000Y-110080000D03*
X172460000Y-110080000D03*
X175000000Y-107540000D03*
X172460000Y-107540000D03*
X175000000Y-105000000D03*
X172460000Y-105000000D03*
X175000000Y-102460000D03*
X172460000Y-102460000D03*
X175000000Y-99920000D03*
X172460000Y-99920000D03*
X175000000Y-97380000D03*
X172460000Y-97380000D03*
X175000000Y-94840000D03*
X172460000Y-94840000D03*
X175000000Y-92300000D03*
X172460000Y-92300000D03*
X175000000Y-89760000D03*
X172460000Y-89760000D03*
X175000000Y-87220000D03*
X172460000Y-87220000D03*
X175000000Y-84680000D03*
X172460000Y-84680000D03*
X175000000Y-82140000D03*
X172460000Y-82140000D03*
X175000000Y-79600000D03*
X172460000Y-79600000D03*
X175000000Y-77060000D03*
X172460000Y-77060000D03*
X175000000Y-74520000D03*
X172460000Y-74520000D03*
X175000000Y-71980000D03*
X172460000Y-71980000D03*
X175000000Y-69440000D03*
X172460000Y-69440000D03*
X175000000Y-66900000D03*
D13*
X172460000Y-66900000D03*
D14*
X142000000Y-68750000D03*
G04 #@! TA.AperFunction,ComponentPad*
D15*
G36*
X140124504Y-67751204D02*
G01*
X140148773Y-67754804D01*
X140172571Y-67760765D01*
X140195671Y-67769030D01*
X140217849Y-67779520D01*
X140238893Y-67792133D01*
X140258598Y-67806747D01*
X140276777Y-67823223D01*
X140293253Y-67841402D01*
X140307867Y-67861107D01*
X140320480Y-67882151D01*
X140330970Y-67904329D01*
X140339235Y-67927429D01*
X140345196Y-67951227D01*
X140348796Y-67975496D01*
X140350000Y-68000000D01*
X140350000Y-69500000D01*
X140348796Y-69524504D01*
X140345196Y-69548773D01*
X140339235Y-69572571D01*
X140330970Y-69595671D01*
X140320480Y-69617849D01*
X140307867Y-69638893D01*
X140293253Y-69658598D01*
X140276777Y-69676777D01*
X140258598Y-69693253D01*
X140238893Y-69707867D01*
X140217849Y-69720480D01*
X140195671Y-69730970D01*
X140172571Y-69739235D01*
X140148773Y-69745196D01*
X140124504Y-69748796D01*
X140100000Y-69750000D01*
X138900000Y-69750000D01*
X138875496Y-69748796D01*
X138851227Y-69745196D01*
X138827429Y-69739235D01*
X138804329Y-69730970D01*
X138782151Y-69720480D01*
X138761107Y-69707867D01*
X138741402Y-69693253D01*
X138723223Y-69676777D01*
X138706747Y-69658598D01*
X138692133Y-69638893D01*
X138679520Y-69617849D01*
X138669030Y-69595671D01*
X138660765Y-69572571D01*
X138654804Y-69548773D01*
X138651204Y-69524504D01*
X138650000Y-69500000D01*
X138650000Y-68000000D01*
X138651204Y-67975496D01*
X138654804Y-67951227D01*
X138660765Y-67927429D01*
X138669030Y-67904329D01*
X138679520Y-67882151D01*
X138692133Y-67861107D01*
X138706747Y-67841402D01*
X138723223Y-67823223D01*
X138741402Y-67806747D01*
X138761107Y-67792133D01*
X138782151Y-67779520D01*
X138804329Y-67769030D01*
X138827429Y-67760765D01*
X138851227Y-67754804D01*
X138875496Y-67751204D01*
X138900000Y-67750000D01*
X140100000Y-67750000D01*
X140124504Y-67751204D01*
G37*
G04 #@! TD.AperFunction*
D16*
X127000000Y-68250000D03*
D17*
X132000000Y-68250000D03*
D18*
X137500000Y-83000000D03*
X139000000Y-83000000D03*
X140500000Y-83000000D03*
X142000000Y-83000000D03*
X143250000Y-82500000D03*
X143250000Y-81000000D03*
X142750000Y-79500000D03*
X155000000Y-75000000D03*
X160000000Y-75000000D03*
X155000000Y-80000000D03*
X160000000Y-80000000D03*
X160000000Y-85000000D03*
X160000000Y-90000000D03*
X155000000Y-85000000D03*
X130000000Y-88000000D03*
X134000000Y-88000000D03*
X137000000Y-88000000D03*
X141000000Y-88000000D03*
X144000000Y-88000000D03*
X139000000Y-104000000D03*
X143250000Y-106000000D03*
X118000000Y-95750000D03*
X128000000Y-96000000D03*
X130000000Y-103250000D03*
X136500000Y-96700000D03*
X117500000Y-62500000D03*
X122500000Y-62500000D03*
X127500000Y-62500000D03*
X132500000Y-62500000D03*
X137500000Y-62500000D03*
X142500000Y-62500000D03*
X147500000Y-62500000D03*
X152500000Y-62500000D03*
X117500000Y-67500000D03*
X122500000Y-67500000D03*
X152500000Y-65000000D03*
X147500000Y-65000000D03*
X142500000Y-65000000D03*
X117500000Y-72500000D03*
X117500000Y-77500000D03*
X117500000Y-82500000D03*
X117500000Y-87500000D03*
X117500000Y-92500000D03*
X122500000Y-92500000D03*
X122500000Y-90000000D03*
X120000000Y-90000000D03*
X125000000Y-85000000D03*
X127500000Y-85000000D03*
X125000000Y-82500000D03*
X125000000Y-80000000D03*
X178000000Y-72000000D03*
X178000000Y-76000000D03*
X178000000Y-79500000D03*
X178000000Y-83000000D03*
X178000000Y-87000000D03*
X178000000Y-90500000D03*
X178000000Y-94000000D03*
X178000000Y-98500000D03*
X178000000Y-103000000D03*
X178000000Y-107000000D03*
X178000000Y-111500000D03*
X178000000Y-116000000D03*
X117000000Y-118000000D03*
X121000000Y-118000000D03*
X124000000Y-118000000D03*
X129000000Y-118000000D03*
X131000000Y-118000000D03*
X136000000Y-118000000D03*
X138000000Y-118000000D03*
X144000000Y-118000000D03*
X147000000Y-118000000D03*
X151000000Y-118000000D03*
X155000000Y-118000000D03*
X159000000Y-118000000D03*
X164000000Y-118000000D03*
X169000000Y-118000000D03*
X174000000Y-118000000D03*
X151000000Y-115000000D03*
X155000000Y-115000000D03*
X159000000Y-115000000D03*
X169000000Y-115000000D03*
X147000000Y-115000000D03*
X136000000Y-71000000D03*
X131000000Y-71000000D03*
X134000000Y-71000000D03*
X136000000Y-69000000D03*
X136000000Y-67000000D03*
X121750000Y-103250000D03*
X121000000Y-104250000D03*
X116250000Y-105500000D03*
X116250000Y-107500000D03*
X116500000Y-109750000D03*
X123000000Y-109750000D03*
X123250000Y-107250000D03*
X124500000Y-105500000D03*
X130000000Y-110250000D03*
X130250000Y-108000000D03*
X131250000Y-106250000D03*
X132750000Y-104750000D03*
X137250000Y-110250000D03*
X139250000Y-108750000D03*
X140250000Y-107000000D03*
X141750000Y-108000000D03*
X142000000Y-106500000D03*
X145000000Y-113500000D03*
X144750000Y-109500000D03*
X146650000Y-100000000D03*
X148850000Y-100000000D03*
X163560152Y-95189848D03*
X161250000Y-97500000D03*
X164500000Y-63750000D03*
X146500000Y-78500000D03*
X146522817Y-74977183D03*
X131225010Y-95250000D03*
X133425010Y-95250000D03*
X139500000Y-94750000D03*
X142250000Y-94750000D03*
X145750000Y-94750000D03*
X149000000Y-94750000D03*
X149500000Y-105250000D03*
X170000000Y-107500000D03*
X142051984Y-104753171D03*
X124750000Y-95500000D03*
X122400000Y-95500000D03*
X133425010Y-94249997D03*
X130500000Y-94500000D03*
X138667948Y-94195299D03*
X142250000Y-93750000D03*
X145750000Y-93750000D03*
X149000000Y-93750000D03*
X139975010Y-95975000D03*
X142175010Y-96000000D03*
X145750000Y-96000000D03*
X149000000Y-96000000D03*
X159750000Y-96000000D03*
X162060152Y-93689848D03*
X165000000Y-81750000D03*
X164000000Y-112040000D03*
X164000000Y-106775000D03*
X165560152Y-97189848D03*
X163987347Y-100012653D03*
D19*
X146650000Y-100000000D02*
X148850000Y-100000000D01*
X161250000Y-97500000D02*
X163560152Y-95189848D01*
D20*
X167650000Y-66900000D02*
X164500000Y-63750000D01*
X172460000Y-66900000D02*
X167650000Y-66900000D01*
D19*
X146500000Y-78500000D02*
X146500000Y-75000000D01*
X146500000Y-75000000D02*
X146522817Y-74977183D01*
X131225010Y-95250000D02*
X133425010Y-95250000D01*
X139500000Y-94750000D02*
X142250000Y-94750000D01*
X145750000Y-94750000D02*
X149000000Y-94750000D01*
X172420000Y-107500000D02*
X172460000Y-107540000D01*
X170000000Y-107500000D02*
X172420000Y-107500000D01*
X149500000Y-105250000D02*
X142548813Y-105250000D01*
X142548813Y-105250000D02*
X142051984Y-104753171D01*
X124750000Y-95500000D02*
X122400000Y-95500000D01*
X133175007Y-94500000D02*
X133425010Y-94249997D01*
X130500000Y-94500000D02*
X133175007Y-94500000D01*
X138667948Y-94195299D02*
X139113247Y-93750000D01*
X139113247Y-93750000D02*
X142250000Y-93750000D01*
X145750000Y-93750000D02*
X149000000Y-93750000D01*
X139975010Y-95975000D02*
X141650010Y-95975000D01*
X141650010Y-95975000D02*
X142150010Y-95975000D01*
X142150010Y-95975000D02*
X142175010Y-96000000D01*
X145750000Y-96000000D02*
X149000000Y-96000000D01*
X159750000Y-96000000D02*
X162060152Y-93689848D01*
X174150001Y-80449999D02*
X175000000Y-79600000D01*
X173824999Y-80775001D02*
X174150001Y-80449999D01*
X166224999Y-80775001D02*
X173824999Y-80775001D01*
X165974999Y-80775001D02*
X165000000Y-81750000D01*
X166224999Y-80775001D02*
X165974999Y-80775001D01*
X166025001Y-80775001D02*
X166224999Y-80775001D01*
X164000000Y-112040000D02*
X164000000Y-106775000D01*
X165560152Y-97189848D02*
X165560152Y-98439848D01*
X165560152Y-98439848D02*
X163987347Y-100012653D01*
G36*
X179600000Y-119600000D02*
G01*
X115400000Y-119600000D01*
X115400000Y-115530412D01*
X171239992Y-115530412D01*
X171335397Y-115760760D01*
X171474208Y-115968616D01*
X171650903Y-116145397D01*
X171858691Y-116284310D01*
X172089587Y-116380016D01*
X172285000Y-116316691D01*
X172285000Y-115335000D01*
X172635000Y-115335000D01*
X172635000Y-116316691D01*
X172830413Y-116380016D01*
X173061309Y-116284310D01*
X173269097Y-116145397D01*
X173445792Y-115968616D01*
X173584603Y-115760760D01*
X173680008Y-115530412D01*
X173615574Y-115335000D01*
X172635000Y-115335000D01*
X172285000Y-115335000D01*
X171304426Y-115335000D01*
X171239992Y-115530412D01*
X115400000Y-115530412D01*
X115400000Y-115039348D01*
X173775000Y-115039348D01*
X173775000Y-115280652D01*
X173822076Y-115517319D01*
X173914419Y-115740255D01*
X174048481Y-115940892D01*
X174219108Y-116111519D01*
X174419745Y-116245581D01*
X174642681Y-116337924D01*
X174879348Y-116385000D01*
X175120652Y-116385000D01*
X175357319Y-116337924D01*
X175580255Y-116245581D01*
X175780892Y-116111519D01*
X175951519Y-115940892D01*
X176085581Y-115740255D01*
X176177924Y-115517319D01*
X176225000Y-115280652D01*
X176225000Y-115039348D01*
X176177924Y-114802681D01*
X176085581Y-114579745D01*
X175951519Y-114379108D01*
X175780892Y-114208481D01*
X175580255Y-114074419D01*
X175357319Y-113982076D01*
X175120652Y-113935000D01*
X174879348Y-113935000D01*
X174642681Y-113982076D01*
X174419745Y-114074419D01*
X174219108Y-114208481D01*
X174048481Y-114379108D01*
X173914419Y-114579745D01*
X173822076Y-114802681D01*
X173775000Y-115039348D01*
X115400000Y-115039348D01*
X115400000Y-114789588D01*
X171239992Y-114789588D01*
X171304426Y-114985000D01*
X172285000Y-114985000D01*
X172285000Y-114003309D01*
X172635000Y-114003309D01*
X172635000Y-114985000D01*
X173615574Y-114985000D01*
X173680008Y-114789588D01*
X173584603Y-114559240D01*
X173445792Y-114351384D01*
X173269097Y-114174603D01*
X173061309Y-114035690D01*
X172830413Y-113939984D01*
X172635000Y-114003309D01*
X172285000Y-114003309D01*
X172089587Y-113939984D01*
X171858691Y-114035690D01*
X171650903Y-114174603D01*
X171474208Y-114351384D01*
X171335397Y-114559240D01*
X171239992Y-114789588D01*
X115400000Y-114789588D01*
X115400000Y-111990000D01*
X147092944Y-111990000D01*
X147101150Y-112073314D01*
X147125452Y-112153427D01*
X147164916Y-112227260D01*
X147218026Y-112291974D01*
X147282740Y-112345084D01*
X147356573Y-112384548D01*
X147436686Y-112408850D01*
X147520000Y-112417056D01*
X148288750Y-112415000D01*
X148395000Y-112308750D01*
X148395000Y-111115000D01*
X148745000Y-111115000D01*
X148745000Y-112308750D01*
X148851250Y-112415000D01*
X149620000Y-112417056D01*
X149703314Y-112408850D01*
X149783427Y-112384548D01*
X149857260Y-112345084D01*
X149921974Y-112291974D01*
X149975084Y-112227260D01*
X150014548Y-112153427D01*
X150038850Y-112073314D01*
X150047056Y-111990000D01*
X150045000Y-111221250D01*
X149938750Y-111115000D01*
X148745000Y-111115000D01*
X148395000Y-111115000D01*
X147201250Y-111115000D01*
X147095000Y-111221250D01*
X147092944Y-111990000D01*
X115400000Y-111990000D01*
X115400000Y-109890000D01*
X147092944Y-109890000D01*
X147095000Y-110658750D01*
X147201250Y-110765000D01*
X148395000Y-110765000D01*
X148395000Y-109571250D01*
X148745000Y-109571250D01*
X148745000Y-110765000D01*
X149938750Y-110765000D01*
X150045000Y-110658750D01*
X150047056Y-109890000D01*
X150038850Y-109806686D01*
X150014548Y-109726573D01*
X149975084Y-109652740D01*
X149921974Y-109588026D01*
X149857260Y-109534916D01*
X149783427Y-109495452D01*
X149703314Y-109471150D01*
X149620000Y-109462944D01*
X148851250Y-109465000D01*
X148745000Y-109571250D01*
X148395000Y-109571250D01*
X148288750Y-109465000D01*
X147520000Y-109462944D01*
X147436686Y-109471150D01*
X147356573Y-109495452D01*
X147282740Y-109534916D01*
X147218026Y-109588026D01*
X147164916Y-109652740D01*
X147125452Y-109726573D01*
X147101150Y-109806686D01*
X147092944Y-109890000D01*
X115400000Y-109890000D01*
X115400000Y-106698669D01*
X163225000Y-106698669D01*
X163225000Y-106851331D01*
X163254783Y-107001059D01*
X163313204Y-107142100D01*
X163398018Y-107269034D01*
X163500001Y-107371017D01*
X163500000Y-111443984D01*
X163398018Y-111545966D01*
X163313204Y-111672900D01*
X163254783Y-111813941D01*
X163225000Y-111963669D01*
X163225000Y-112116331D01*
X163254783Y-112266059D01*
X163313204Y-112407100D01*
X163398018Y-112534034D01*
X163505966Y-112641982D01*
X163632900Y-112726796D01*
X163773941Y-112785217D01*
X163923669Y-112815000D01*
X164076331Y-112815000D01*
X164226059Y-112785217D01*
X164367100Y-112726796D01*
X164494034Y-112641982D01*
X164601982Y-112534034D01*
X164625158Y-112499348D01*
X171235000Y-112499348D01*
X171235000Y-112740652D01*
X171282076Y-112977319D01*
X171374419Y-113200255D01*
X171508481Y-113400892D01*
X171679108Y-113571519D01*
X171879745Y-113705581D01*
X172102681Y-113797924D01*
X172339348Y-113845000D01*
X172580652Y-113845000D01*
X172817319Y-113797924D01*
X173040255Y-113705581D01*
X173240892Y-113571519D01*
X173411519Y-113400892D01*
X173545581Y-113200255D01*
X173637924Y-112977319D01*
X173685000Y-112740652D01*
X173685000Y-112499348D01*
X173775000Y-112499348D01*
X173775000Y-112740652D01*
X173822076Y-112977319D01*
X173914419Y-113200255D01*
X174048481Y-113400892D01*
X174219108Y-113571519D01*
X174419745Y-113705581D01*
X174642681Y-113797924D01*
X174879348Y-113845000D01*
X175120652Y-113845000D01*
X175357319Y-113797924D01*
X175580255Y-113705581D01*
X175780892Y-113571519D01*
X175951519Y-113400892D01*
X176085581Y-113200255D01*
X176177924Y-112977319D01*
X176225000Y-112740652D01*
X176225000Y-112499348D01*
X176177924Y-112262681D01*
X176085581Y-112039745D01*
X175951519Y-111839108D01*
X175780892Y-111668481D01*
X175580255Y-111534419D01*
X175357319Y-111442076D01*
X175120652Y-111395000D01*
X174879348Y-111395000D01*
X174642681Y-111442076D01*
X174419745Y-111534419D01*
X174219108Y-111668481D01*
X174048481Y-111839108D01*
X173914419Y-112039745D01*
X173822076Y-112262681D01*
X173775000Y-112499348D01*
X173685000Y-112499348D01*
X173637924Y-112262681D01*
X173545581Y-112039745D01*
X173411519Y-111839108D01*
X173240892Y-111668481D01*
X173040255Y-111534419D01*
X172817319Y-111442076D01*
X172580652Y-111395000D01*
X172339348Y-111395000D01*
X172102681Y-111442076D01*
X171879745Y-111534419D01*
X171679108Y-111668481D01*
X171508481Y-111839108D01*
X171374419Y-112039745D01*
X171282076Y-112262681D01*
X171235000Y-112499348D01*
X164625158Y-112499348D01*
X164686796Y-112407100D01*
X164745217Y-112266059D01*
X164775000Y-112116331D01*
X164775000Y-111963669D01*
X164745217Y-111813941D01*
X164686796Y-111672900D01*
X164601982Y-111545966D01*
X164500000Y-111443984D01*
X164500000Y-110799650D01*
X166195000Y-110799650D01*
X166195000Y-111080350D01*
X166249762Y-111355657D01*
X166357181Y-111614991D01*
X166513130Y-111848385D01*
X166711615Y-112046870D01*
X166945009Y-112202819D01*
X167204343Y-112310238D01*
X167479650Y-112365000D01*
X167760350Y-112365000D01*
X168035657Y-112310238D01*
X168294991Y-112202819D01*
X168528385Y-112046870D01*
X168726870Y-111848385D01*
X168882819Y-111614991D01*
X168990238Y-111355657D01*
X169045000Y-111080350D01*
X169045000Y-110799650D01*
X168990238Y-110524343D01*
X168882819Y-110265009D01*
X168726870Y-110031615D01*
X168654603Y-109959348D01*
X171235000Y-109959348D01*
X171235000Y-110200652D01*
X171282076Y-110437319D01*
X171374419Y-110660255D01*
X171508481Y-110860892D01*
X171679108Y-111031519D01*
X171879745Y-111165581D01*
X172102681Y-111257924D01*
X172339348Y-111305000D01*
X172580652Y-111305000D01*
X172817319Y-111257924D01*
X173040255Y-111165581D01*
X173240892Y-111031519D01*
X173411519Y-110860892D01*
X173545581Y-110660255D01*
X173637924Y-110437319D01*
X173685000Y-110200652D01*
X173685000Y-109959348D01*
X173775000Y-109959348D01*
X173775000Y-110200652D01*
X173822076Y-110437319D01*
X173914419Y-110660255D01*
X174048481Y-110860892D01*
X174219108Y-111031519D01*
X174419745Y-111165581D01*
X174642681Y-111257924D01*
X174879348Y-111305000D01*
X175120652Y-111305000D01*
X175357319Y-111257924D01*
X175580255Y-111165581D01*
X175780892Y-111031519D01*
X175951519Y-110860892D01*
X176085581Y-110660255D01*
X176177924Y-110437319D01*
X176225000Y-110200652D01*
X176225000Y-109959348D01*
X176177924Y-109722681D01*
X176085581Y-109499745D01*
X175951519Y-109299108D01*
X175780892Y-109128481D01*
X175580255Y-108994419D01*
X175357319Y-108902076D01*
X175120652Y-108855000D01*
X174879348Y-108855000D01*
X174642681Y-108902076D01*
X174419745Y-108994419D01*
X174219108Y-109128481D01*
X174048481Y-109299108D01*
X173914419Y-109499745D01*
X173822076Y-109722681D01*
X173775000Y-109959348D01*
X173685000Y-109959348D01*
X173637924Y-109722681D01*
X173545581Y-109499745D01*
X173411519Y-109299108D01*
X173240892Y-109128481D01*
X173040255Y-108994419D01*
X172817319Y-108902076D01*
X172580652Y-108855000D01*
X172339348Y-108855000D01*
X172102681Y-108902076D01*
X171879745Y-108994419D01*
X171679108Y-109128481D01*
X171508481Y-109299108D01*
X171374419Y-109499745D01*
X171282076Y-109722681D01*
X171235000Y-109959348D01*
X168654603Y-109959348D01*
X168528385Y-109833130D01*
X168294991Y-109677181D01*
X168035657Y-109569762D01*
X167760350Y-109515000D01*
X167479650Y-109515000D01*
X167204343Y-109569762D01*
X166945009Y-109677181D01*
X166711615Y-109833130D01*
X166513130Y-110031615D01*
X166357181Y-110265009D01*
X166249762Y-110524343D01*
X166195000Y-110799650D01*
X164500000Y-110799650D01*
X164500000Y-107423669D01*
X169225000Y-107423669D01*
X169225000Y-107576331D01*
X169254783Y-107726059D01*
X169313204Y-107867100D01*
X169398018Y-107994034D01*
X169505966Y-108101982D01*
X169632900Y-108186796D01*
X169773941Y-108245217D01*
X169923669Y-108275000D01*
X170076331Y-108275000D01*
X170226059Y-108245217D01*
X170367100Y-108186796D01*
X170494034Y-108101982D01*
X170596016Y-108000000D01*
X171324608Y-108000000D01*
X171374419Y-108120255D01*
X171508481Y-108320892D01*
X171679108Y-108491519D01*
X171879745Y-108625581D01*
X172102681Y-108717924D01*
X172339348Y-108765000D01*
X172580652Y-108765000D01*
X172817319Y-108717924D01*
X173040255Y-108625581D01*
X173240892Y-108491519D01*
X173411519Y-108320892D01*
X173545581Y-108120255D01*
X173632500Y-107910412D01*
X173779992Y-107910412D01*
X173875397Y-108140760D01*
X174014208Y-108348616D01*
X174190903Y-108525397D01*
X174398691Y-108664310D01*
X174629587Y-108760016D01*
X174825000Y-108696691D01*
X174825000Y-107715000D01*
X175175000Y-107715000D01*
X175175000Y-108696691D01*
X175370413Y-108760016D01*
X175601309Y-108664310D01*
X175809097Y-108525397D01*
X175985792Y-108348616D01*
X176124603Y-108140760D01*
X176220008Y-107910412D01*
X176155574Y-107715000D01*
X175175000Y-107715000D01*
X174825000Y-107715000D01*
X173844426Y-107715000D01*
X173779992Y-107910412D01*
X173632500Y-107910412D01*
X173637924Y-107897319D01*
X173685000Y-107660652D01*
X173685000Y-107419348D01*
X173637924Y-107182681D01*
X173632501Y-107169588D01*
X173779992Y-107169588D01*
X173844426Y-107365000D01*
X174825000Y-107365000D01*
X174825000Y-106383309D01*
X175175000Y-106383309D01*
X175175000Y-107365000D01*
X176155574Y-107365000D01*
X176220008Y-107169588D01*
X176124603Y-106939240D01*
X175985792Y-106731384D01*
X175809097Y-106554603D01*
X175601309Y-106415690D01*
X175370413Y-106319984D01*
X175175000Y-106383309D01*
X174825000Y-106383309D01*
X174629587Y-106319984D01*
X174398691Y-106415690D01*
X174190903Y-106554603D01*
X174014208Y-106731384D01*
X173875397Y-106939240D01*
X173779992Y-107169588D01*
X173632501Y-107169588D01*
X173545581Y-106959745D01*
X173411519Y-106759108D01*
X173240892Y-106588481D01*
X173040255Y-106454419D01*
X172817319Y-106362076D01*
X172580652Y-106315000D01*
X172339348Y-106315000D01*
X172102681Y-106362076D01*
X171879745Y-106454419D01*
X171679108Y-106588481D01*
X171508481Y-106759108D01*
X171374419Y-106959745D01*
X171357745Y-107000000D01*
X170596016Y-107000000D01*
X170494034Y-106898018D01*
X170367100Y-106813204D01*
X170226059Y-106754783D01*
X170076331Y-106725000D01*
X169923669Y-106725000D01*
X169773941Y-106754783D01*
X169632900Y-106813204D01*
X169505966Y-106898018D01*
X169398018Y-107005966D01*
X169313204Y-107132900D01*
X169254783Y-107273941D01*
X169225000Y-107423669D01*
X164500000Y-107423669D01*
X164500000Y-107371016D01*
X164601982Y-107269034D01*
X164686796Y-107142100D01*
X164745217Y-107001059D01*
X164775000Y-106851331D01*
X164775000Y-106698669D01*
X164745217Y-106548941D01*
X164686796Y-106407900D01*
X164601982Y-106280966D01*
X164494034Y-106173018D01*
X164367100Y-106088204D01*
X164226059Y-106029783D01*
X164076331Y-106000000D01*
X163923669Y-106000000D01*
X163773941Y-106029783D01*
X163632900Y-106088204D01*
X163505966Y-106173018D01*
X163398018Y-106280966D01*
X163313204Y-106407900D01*
X163254783Y-106548941D01*
X163225000Y-106698669D01*
X115400000Y-106698669D01*
X115400000Y-104676840D01*
X141276984Y-104676840D01*
X141276984Y-104829502D01*
X141306767Y-104979230D01*
X141365188Y-105120271D01*
X141450002Y-105247205D01*
X141557950Y-105355153D01*
X141684884Y-105439967D01*
X141825925Y-105498388D01*
X141975653Y-105528171D01*
X142119877Y-105528171D01*
X142177892Y-105586186D01*
X142193549Y-105605264D01*
X142269684Y-105667746D01*
X142356546Y-105714175D01*
X142450796Y-105742765D01*
X142524253Y-105750000D01*
X142524262Y-105750000D01*
X142548812Y-105752418D01*
X142573362Y-105750000D01*
X148903984Y-105750000D01*
X149005966Y-105851982D01*
X149132900Y-105936796D01*
X149273941Y-105995217D01*
X149423669Y-106025000D01*
X149576331Y-106025000D01*
X149726059Y-105995217D01*
X149867100Y-105936796D01*
X149994034Y-105851982D01*
X150101982Y-105744034D01*
X150186796Y-105617100D01*
X150245217Y-105476059D01*
X150275000Y-105326331D01*
X150275000Y-105173669D01*
X150245217Y-105023941D01*
X150186796Y-104882900D01*
X150184423Y-104879348D01*
X171235000Y-104879348D01*
X171235000Y-105120652D01*
X171282076Y-105357319D01*
X171374419Y-105580255D01*
X171508481Y-105780892D01*
X171679108Y-105951519D01*
X171879745Y-106085581D01*
X172102681Y-106177924D01*
X172339348Y-106225000D01*
X172580652Y-106225000D01*
X172817319Y-106177924D01*
X173040255Y-106085581D01*
X173240892Y-105951519D01*
X173411519Y-105780892D01*
X173545581Y-105580255D01*
X173637924Y-105357319D01*
X173685000Y-105120652D01*
X173685000Y-104879348D01*
X173775000Y-104879348D01*
X173775000Y-105120652D01*
X173822076Y-105357319D01*
X173914419Y-105580255D01*
X174048481Y-105780892D01*
X174219108Y-105951519D01*
X174419745Y-106085581D01*
X174642681Y-106177924D01*
X174879348Y-106225000D01*
X175120652Y-106225000D01*
X175357319Y-106177924D01*
X175580255Y-106085581D01*
X175780892Y-105951519D01*
X175951519Y-105780892D01*
X176085581Y-105580255D01*
X176177924Y-105357319D01*
X176225000Y-105120652D01*
X176225000Y-104879348D01*
X176177924Y-104642681D01*
X176085581Y-104419745D01*
X175951519Y-104219108D01*
X175780892Y-104048481D01*
X175580255Y-103914419D01*
X175357319Y-103822076D01*
X175120652Y-103775000D01*
X174879348Y-103775000D01*
X174642681Y-103822076D01*
X174419745Y-103914419D01*
X174219108Y-104048481D01*
X174048481Y-104219108D01*
X173914419Y-104419745D01*
X173822076Y-104642681D01*
X173775000Y-104879348D01*
X173685000Y-104879348D01*
X173637924Y-104642681D01*
X173545581Y-104419745D01*
X173411519Y-104219108D01*
X173240892Y-104048481D01*
X173040255Y-103914419D01*
X172817319Y-103822076D01*
X172580652Y-103775000D01*
X172339348Y-103775000D01*
X172102681Y-103822076D01*
X171879745Y-103914419D01*
X171679108Y-104048481D01*
X171508481Y-104219108D01*
X171374419Y-104419745D01*
X171282076Y-104642681D01*
X171235000Y-104879348D01*
X150184423Y-104879348D01*
X150101982Y-104755966D01*
X149994034Y-104648018D01*
X149867100Y-104563204D01*
X149726059Y-104504783D01*
X149576331Y-104475000D01*
X149423669Y-104475000D01*
X149273941Y-104504783D01*
X149132900Y-104563204D01*
X149005966Y-104648018D01*
X148903984Y-104750000D01*
X142826984Y-104750000D01*
X142826984Y-104676840D01*
X142797201Y-104527112D01*
X142738780Y-104386071D01*
X142653966Y-104259137D01*
X142546018Y-104151189D01*
X142419084Y-104066375D01*
X142278043Y-104007954D01*
X142128315Y-103978171D01*
X141975653Y-103978171D01*
X141825925Y-104007954D01*
X141684884Y-104066375D01*
X141557950Y-104151189D01*
X141450002Y-104259137D01*
X141365188Y-104386071D01*
X141306767Y-104527112D01*
X141276984Y-104676840D01*
X115400000Y-104676840D01*
X115400000Y-102339348D01*
X171235000Y-102339348D01*
X171235000Y-102580652D01*
X171282076Y-102817319D01*
X171374419Y-103040255D01*
X171508481Y-103240892D01*
X171679108Y-103411519D01*
X171879745Y-103545581D01*
X172102681Y-103637924D01*
X172339348Y-103685000D01*
X172580652Y-103685000D01*
X172817319Y-103637924D01*
X173040255Y-103545581D01*
X173240892Y-103411519D01*
X173411519Y-103240892D01*
X173545581Y-103040255D01*
X173632500Y-102830412D01*
X173779992Y-102830412D01*
X173875397Y-103060760D01*
X174014208Y-103268616D01*
X174190903Y-103445397D01*
X174398691Y-103584310D01*
X174629587Y-103680016D01*
X174825000Y-103616691D01*
X174825000Y-102635000D01*
X175175000Y-102635000D01*
X175175000Y-103616691D01*
X175370413Y-103680016D01*
X175601309Y-103584310D01*
X175809097Y-103445397D01*
X175985792Y-103268616D01*
X176124603Y-103060760D01*
X176220008Y-102830412D01*
X176155574Y-102635000D01*
X175175000Y-102635000D01*
X174825000Y-102635000D01*
X173844426Y-102635000D01*
X173779992Y-102830412D01*
X173632500Y-102830412D01*
X173637924Y-102817319D01*
X173685000Y-102580652D01*
X173685000Y-102339348D01*
X173637924Y-102102681D01*
X173632501Y-102089588D01*
X173779992Y-102089588D01*
X173844426Y-102285000D01*
X174825000Y-102285000D01*
X174825000Y-101303309D01*
X175175000Y-101303309D01*
X175175000Y-102285000D01*
X176155574Y-102285000D01*
X176220008Y-102089588D01*
X176124603Y-101859240D01*
X175985792Y-101651384D01*
X175809097Y-101474603D01*
X175601309Y-101335690D01*
X175370413Y-101239984D01*
X175175000Y-101303309D01*
X174825000Y-101303309D01*
X174629587Y-101239984D01*
X174398691Y-101335690D01*
X174190903Y-101474603D01*
X174014208Y-101651384D01*
X173875397Y-101859240D01*
X173779992Y-102089588D01*
X173632501Y-102089588D01*
X173545581Y-101879745D01*
X173411519Y-101679108D01*
X173240892Y-101508481D01*
X173040255Y-101374419D01*
X172817319Y-101282076D01*
X172580652Y-101235000D01*
X172339348Y-101235000D01*
X172102681Y-101282076D01*
X171879745Y-101374419D01*
X171679108Y-101508481D01*
X171508481Y-101679108D01*
X171374419Y-101879745D01*
X171282076Y-102102681D01*
X171235000Y-102339348D01*
X115400000Y-102339348D01*
X115400000Y-99923669D01*
X145875000Y-99923669D01*
X145875000Y-100076331D01*
X145904783Y-100226059D01*
X145963204Y-100367100D01*
X146048018Y-100494034D01*
X146155966Y-100601982D01*
X146282900Y-100686796D01*
X146423941Y-100745217D01*
X146573669Y-100775000D01*
X146726331Y-100775000D01*
X146876059Y-100745217D01*
X147017100Y-100686796D01*
X147144034Y-100601982D01*
X147246016Y-100500000D01*
X148253984Y-100500000D01*
X148355966Y-100601982D01*
X148482900Y-100686796D01*
X148623941Y-100745217D01*
X148773669Y-100775000D01*
X148926331Y-100775000D01*
X149076059Y-100745217D01*
X149217100Y-100686796D01*
X149344034Y-100601982D01*
X149451982Y-100494034D01*
X149536796Y-100367100D01*
X149595217Y-100226059D01*
X149625000Y-100076331D01*
X149625000Y-99936322D01*
X163212347Y-99936322D01*
X163212347Y-100088984D01*
X163242130Y-100238712D01*
X163300551Y-100379753D01*
X163385365Y-100506687D01*
X163493313Y-100614635D01*
X163620247Y-100699449D01*
X163761288Y-100757870D01*
X163911016Y-100787653D01*
X164063678Y-100787653D01*
X164213406Y-100757870D01*
X164354447Y-100699449D01*
X164481381Y-100614635D01*
X164589329Y-100506687D01*
X164674143Y-100379753D01*
X164732564Y-100238712D01*
X164762347Y-100088984D01*
X164762347Y-99944758D01*
X164907757Y-99799348D01*
X171235000Y-99799348D01*
X171235000Y-100040652D01*
X171282076Y-100277319D01*
X171374419Y-100500255D01*
X171508481Y-100700892D01*
X171679108Y-100871519D01*
X171879745Y-101005581D01*
X172102681Y-101097924D01*
X172339348Y-101145000D01*
X172580652Y-101145000D01*
X172817319Y-101097924D01*
X173040255Y-101005581D01*
X173240892Y-100871519D01*
X173411519Y-100700892D01*
X173545581Y-100500255D01*
X173637924Y-100277319D01*
X173685000Y-100040652D01*
X173685000Y-99799348D01*
X173775000Y-99799348D01*
X173775000Y-100040652D01*
X173822076Y-100277319D01*
X173914419Y-100500255D01*
X174048481Y-100700892D01*
X174219108Y-100871519D01*
X174419745Y-101005581D01*
X174642681Y-101097924D01*
X174879348Y-101145000D01*
X175120652Y-101145000D01*
X175357319Y-101097924D01*
X175580255Y-101005581D01*
X175780892Y-100871519D01*
X175951519Y-100700892D01*
X176085581Y-100500255D01*
X176177924Y-100277319D01*
X176225000Y-100040652D01*
X176225000Y-99799348D01*
X176177924Y-99562681D01*
X176085581Y-99339745D01*
X175951519Y-99139108D01*
X175780892Y-98968481D01*
X175580255Y-98834419D01*
X175357319Y-98742076D01*
X175120652Y-98695000D01*
X174879348Y-98695000D01*
X174642681Y-98742076D01*
X174419745Y-98834419D01*
X174219108Y-98968481D01*
X174048481Y-99139108D01*
X173914419Y-99339745D01*
X173822076Y-99562681D01*
X173775000Y-99799348D01*
X173685000Y-99799348D01*
X173637924Y-99562681D01*
X173545581Y-99339745D01*
X173411519Y-99139108D01*
X173240892Y-98968481D01*
X173040255Y-98834419D01*
X172817319Y-98742076D01*
X172580652Y-98695000D01*
X172339348Y-98695000D01*
X172102681Y-98742076D01*
X171879745Y-98834419D01*
X171679108Y-98968481D01*
X171508481Y-99139108D01*
X171374419Y-99339745D01*
X171282076Y-99562681D01*
X171235000Y-99799348D01*
X164907757Y-99799348D01*
X165896333Y-98810773D01*
X165915416Y-98795112D01*
X165977898Y-98718977D01*
X166024327Y-98632115D01*
X166052917Y-98537865D01*
X166060152Y-98464408D01*
X166060152Y-98464407D01*
X166062571Y-98439849D01*
X166060152Y-98415291D01*
X166060152Y-98099650D01*
X166195000Y-98099650D01*
X166195000Y-98380350D01*
X166249762Y-98655657D01*
X166357181Y-98914991D01*
X166513130Y-99148385D01*
X166711615Y-99346870D01*
X166945009Y-99502819D01*
X167204343Y-99610238D01*
X167479650Y-99665000D01*
X167760350Y-99665000D01*
X168035657Y-99610238D01*
X168294991Y-99502819D01*
X168528385Y-99346870D01*
X168726870Y-99148385D01*
X168882819Y-98914991D01*
X168990238Y-98655657D01*
X169045000Y-98380350D01*
X169045000Y-98099650D01*
X168990238Y-97824343D01*
X168959615Y-97750412D01*
X171239992Y-97750412D01*
X171335397Y-97980760D01*
X171474208Y-98188616D01*
X171650903Y-98365397D01*
X171858691Y-98504310D01*
X172089587Y-98600016D01*
X172285000Y-98536691D01*
X172285000Y-97555000D01*
X172635000Y-97555000D01*
X172635000Y-98536691D01*
X172830413Y-98600016D01*
X173061309Y-98504310D01*
X173269097Y-98365397D01*
X173445792Y-98188616D01*
X173584603Y-97980760D01*
X173680008Y-97750412D01*
X173615574Y-97555000D01*
X172635000Y-97555000D01*
X172285000Y-97555000D01*
X171304426Y-97555000D01*
X171239992Y-97750412D01*
X168959615Y-97750412D01*
X168882819Y-97565009D01*
X168726870Y-97331615D01*
X168654603Y-97259348D01*
X173775000Y-97259348D01*
X173775000Y-97500652D01*
X173822076Y-97737319D01*
X173914419Y-97960255D01*
X174048481Y-98160892D01*
X174219108Y-98331519D01*
X174419745Y-98465581D01*
X174642681Y-98557924D01*
X174879348Y-98605000D01*
X175120652Y-98605000D01*
X175357319Y-98557924D01*
X175580255Y-98465581D01*
X175780892Y-98331519D01*
X175951519Y-98160892D01*
X176085581Y-97960255D01*
X176177924Y-97737319D01*
X176225000Y-97500652D01*
X176225000Y-97259348D01*
X176177924Y-97022681D01*
X176085581Y-96799745D01*
X175951519Y-96599108D01*
X175780892Y-96428481D01*
X175580255Y-96294419D01*
X175357319Y-96202076D01*
X175120652Y-96155000D01*
X174879348Y-96155000D01*
X174642681Y-96202076D01*
X174419745Y-96294419D01*
X174219108Y-96428481D01*
X174048481Y-96599108D01*
X173914419Y-96799745D01*
X173822076Y-97022681D01*
X173775000Y-97259348D01*
X168654603Y-97259348D01*
X168528385Y-97133130D01*
X168343492Y-97009588D01*
X171239992Y-97009588D01*
X171304426Y-97205000D01*
X172285000Y-97205000D01*
X172285000Y-96223309D01*
X172635000Y-96223309D01*
X172635000Y-97205000D01*
X173615574Y-97205000D01*
X173680008Y-97009588D01*
X173584603Y-96779240D01*
X173445792Y-96571384D01*
X173269097Y-96394603D01*
X173061309Y-96255690D01*
X172830413Y-96159984D01*
X172635000Y-96223309D01*
X172285000Y-96223309D01*
X172089587Y-96159984D01*
X171858691Y-96255690D01*
X171650903Y-96394603D01*
X171474208Y-96571384D01*
X171335397Y-96779240D01*
X171239992Y-97009588D01*
X168343492Y-97009588D01*
X168294991Y-96977181D01*
X168035657Y-96869762D01*
X167760350Y-96815000D01*
X167479650Y-96815000D01*
X167204343Y-96869762D01*
X166945009Y-96977181D01*
X166711615Y-97133130D01*
X166513130Y-97331615D01*
X166357181Y-97565009D01*
X166249762Y-97824343D01*
X166195000Y-98099650D01*
X166060152Y-98099650D01*
X166060152Y-97785864D01*
X166162134Y-97683882D01*
X166246948Y-97556948D01*
X166305369Y-97415907D01*
X166335152Y-97266179D01*
X166335152Y-97113517D01*
X166305369Y-96963789D01*
X166246948Y-96822748D01*
X166162134Y-96695814D01*
X166054186Y-96587866D01*
X165927252Y-96503052D01*
X165786211Y-96444631D01*
X165636483Y-96414848D01*
X165483821Y-96414848D01*
X165334093Y-96444631D01*
X165193052Y-96503052D01*
X165066118Y-96587866D01*
X164958170Y-96695814D01*
X164873356Y-96822748D01*
X164814935Y-96963789D01*
X164785152Y-97113517D01*
X164785152Y-97266179D01*
X164814935Y-97415907D01*
X164873356Y-97556948D01*
X164958170Y-97683882D01*
X165060152Y-97785864D01*
X165060153Y-98232741D01*
X164055242Y-99237653D01*
X163911016Y-99237653D01*
X163761288Y-99267436D01*
X163620247Y-99325857D01*
X163493313Y-99410671D01*
X163385365Y-99518619D01*
X163300551Y-99645553D01*
X163242130Y-99786594D01*
X163212347Y-99936322D01*
X149625000Y-99936322D01*
X149625000Y-99923669D01*
X149595217Y-99773941D01*
X149536796Y-99632900D01*
X149451982Y-99505966D01*
X149344034Y-99398018D01*
X149217100Y-99313204D01*
X149076059Y-99254783D01*
X148926331Y-99225000D01*
X148773669Y-99225000D01*
X148623941Y-99254783D01*
X148482900Y-99313204D01*
X148355966Y-99398018D01*
X148253984Y-99500000D01*
X147246016Y-99500000D01*
X147144034Y-99398018D01*
X147017100Y-99313204D01*
X146876059Y-99254783D01*
X146726331Y-99225000D01*
X146573669Y-99225000D01*
X146423941Y-99254783D01*
X146282900Y-99313204D01*
X146155966Y-99398018D01*
X146048018Y-99505966D01*
X145963204Y-99632900D01*
X145904783Y-99773941D01*
X145875000Y-99923669D01*
X115400000Y-99923669D01*
X115400000Y-97423669D01*
X160475000Y-97423669D01*
X160475000Y-97576331D01*
X160504783Y-97726059D01*
X160563204Y-97867100D01*
X160648018Y-97994034D01*
X160755966Y-98101982D01*
X160882900Y-98186796D01*
X161023941Y-98245217D01*
X161173669Y-98275000D01*
X161326331Y-98275000D01*
X161476059Y-98245217D01*
X161617100Y-98186796D01*
X161744034Y-98101982D01*
X161851982Y-97994034D01*
X161936796Y-97867100D01*
X161995217Y-97726059D01*
X162025000Y-97576331D01*
X162025000Y-97432105D01*
X163492259Y-95964848D01*
X163636483Y-95964848D01*
X163786211Y-95935065D01*
X163927252Y-95876644D01*
X164054186Y-95791830D01*
X164162134Y-95683882D01*
X164246948Y-95556948D01*
X164305369Y-95415907D01*
X164335152Y-95266179D01*
X164335152Y-95113517D01*
X164305369Y-94963789D01*
X164287087Y-94919650D01*
X166195000Y-94919650D01*
X166195000Y-95200350D01*
X166249762Y-95475657D01*
X166357181Y-95734991D01*
X166513130Y-95968385D01*
X166711615Y-96166870D01*
X166945009Y-96322819D01*
X167204343Y-96430238D01*
X167479650Y-96485000D01*
X167760350Y-96485000D01*
X168035657Y-96430238D01*
X168294991Y-96322819D01*
X168528385Y-96166870D01*
X168726870Y-95968385D01*
X168882819Y-95734991D01*
X168990238Y-95475657D01*
X169045000Y-95200350D01*
X169045000Y-94919650D01*
X169005158Y-94719348D01*
X171235000Y-94719348D01*
X171235000Y-94960652D01*
X171282076Y-95197319D01*
X171374419Y-95420255D01*
X171508481Y-95620892D01*
X171679108Y-95791519D01*
X171879745Y-95925581D01*
X172102681Y-96017924D01*
X172339348Y-96065000D01*
X172580652Y-96065000D01*
X172817319Y-96017924D01*
X173040255Y-95925581D01*
X173240892Y-95791519D01*
X173411519Y-95620892D01*
X173545581Y-95420255D01*
X173637924Y-95197319D01*
X173685000Y-94960652D01*
X173685000Y-94719348D01*
X173775000Y-94719348D01*
X173775000Y-94960652D01*
X173822076Y-95197319D01*
X173914419Y-95420255D01*
X174048481Y-95620892D01*
X174219108Y-95791519D01*
X174419745Y-95925581D01*
X174642681Y-96017924D01*
X174879348Y-96065000D01*
X175120652Y-96065000D01*
X175357319Y-96017924D01*
X175580255Y-95925581D01*
X175780892Y-95791519D01*
X175951519Y-95620892D01*
X176085581Y-95420255D01*
X176177924Y-95197319D01*
X176225000Y-94960652D01*
X176225000Y-94719348D01*
X176177924Y-94482681D01*
X176085581Y-94259745D01*
X175951519Y-94059108D01*
X175780892Y-93888481D01*
X175580255Y-93754419D01*
X175357319Y-93662076D01*
X175120652Y-93615000D01*
X174879348Y-93615000D01*
X174642681Y-93662076D01*
X174419745Y-93754419D01*
X174219108Y-93888481D01*
X174048481Y-94059108D01*
X173914419Y-94259745D01*
X173822076Y-94482681D01*
X173775000Y-94719348D01*
X173685000Y-94719348D01*
X173637924Y-94482681D01*
X173545581Y-94259745D01*
X173411519Y-94059108D01*
X173240892Y-93888481D01*
X173040255Y-93754419D01*
X172817319Y-93662076D01*
X172580652Y-93615000D01*
X172339348Y-93615000D01*
X172102681Y-93662076D01*
X171879745Y-93754419D01*
X171679108Y-93888481D01*
X171508481Y-94059108D01*
X171374419Y-94259745D01*
X171282076Y-94482681D01*
X171235000Y-94719348D01*
X169005158Y-94719348D01*
X168990238Y-94644343D01*
X168882819Y-94385009D01*
X168726870Y-94151615D01*
X168528385Y-93953130D01*
X168294991Y-93797181D01*
X168035657Y-93689762D01*
X167760350Y-93635000D01*
X167479650Y-93635000D01*
X167204343Y-93689762D01*
X166945009Y-93797181D01*
X166711615Y-93953130D01*
X166513130Y-94151615D01*
X166357181Y-94385009D01*
X166249762Y-94644343D01*
X166195000Y-94919650D01*
X164287087Y-94919650D01*
X164246948Y-94822748D01*
X164162134Y-94695814D01*
X164054186Y-94587866D01*
X163927252Y-94503052D01*
X163786211Y-94444631D01*
X163636483Y-94414848D01*
X163483821Y-94414848D01*
X163334093Y-94444631D01*
X163193052Y-94503052D01*
X163066118Y-94587866D01*
X162958170Y-94695814D01*
X162873356Y-94822748D01*
X162814935Y-94963789D01*
X162785152Y-95113517D01*
X162785152Y-95257741D01*
X161317895Y-96725000D01*
X161173669Y-96725000D01*
X161023941Y-96754783D01*
X160882900Y-96813204D01*
X160755966Y-96898018D01*
X160648018Y-97005966D01*
X160563204Y-97132900D01*
X160504783Y-97273941D01*
X160475000Y-97423669D01*
X115400000Y-97423669D01*
X115400000Y-95423669D01*
X121625000Y-95423669D01*
X121625000Y-95576331D01*
X121654783Y-95726059D01*
X121713204Y-95867100D01*
X121798018Y-95994034D01*
X121905966Y-96101982D01*
X122032900Y-96186796D01*
X122173941Y-96245217D01*
X122323669Y-96275000D01*
X122476331Y-96275000D01*
X122626059Y-96245217D01*
X122767100Y-96186796D01*
X122894034Y-96101982D01*
X122996016Y-96000000D01*
X124153984Y-96000000D01*
X124255966Y-96101982D01*
X124382900Y-96186796D01*
X124523941Y-96245217D01*
X124673669Y-96275000D01*
X124826331Y-96275000D01*
X124976059Y-96245217D01*
X125117100Y-96186796D01*
X125244034Y-96101982D01*
X125351982Y-95994034D01*
X125436796Y-95867100D01*
X125495217Y-95726059D01*
X125525000Y-95576331D01*
X125525000Y-95423669D01*
X125495217Y-95273941D01*
X125436796Y-95132900D01*
X125351982Y-95005966D01*
X125244034Y-94898018D01*
X125117100Y-94813204D01*
X124976059Y-94754783D01*
X124826331Y-94725000D01*
X124673669Y-94725000D01*
X124523941Y-94754783D01*
X124382900Y-94813204D01*
X124255966Y-94898018D01*
X124153984Y-95000000D01*
X122996016Y-95000000D01*
X122894034Y-94898018D01*
X122767100Y-94813204D01*
X122626059Y-94754783D01*
X122476331Y-94725000D01*
X122323669Y-94725000D01*
X122173941Y-94754783D01*
X122032900Y-94813204D01*
X121905966Y-94898018D01*
X121798018Y-95005966D01*
X121713204Y-95132900D01*
X121654783Y-95273941D01*
X121625000Y-95423669D01*
X115400000Y-95423669D01*
X115400000Y-94423669D01*
X129725000Y-94423669D01*
X129725000Y-94576331D01*
X129754783Y-94726059D01*
X129813204Y-94867100D01*
X129898018Y-94994034D01*
X130005966Y-95101982D01*
X130132900Y-95186796D01*
X130273941Y-95245217D01*
X130423669Y-95275000D01*
X130450010Y-95275000D01*
X130450010Y-95326331D01*
X130479793Y-95476059D01*
X130538214Y-95617100D01*
X130623028Y-95744034D01*
X130730976Y-95851982D01*
X130857910Y-95936796D01*
X130998951Y-95995217D01*
X131148679Y-96025000D01*
X131301341Y-96025000D01*
X131451069Y-95995217D01*
X131592110Y-95936796D01*
X131719044Y-95851982D01*
X131821026Y-95750000D01*
X132828994Y-95750000D01*
X132930976Y-95851982D01*
X133057910Y-95936796D01*
X133198951Y-95995217D01*
X133348679Y-96025000D01*
X133501341Y-96025000D01*
X133651069Y-95995217D01*
X133792110Y-95936796D01*
X133919044Y-95851982D01*
X134026992Y-95744034D01*
X134111806Y-95617100D01*
X134170227Y-95476059D01*
X134200010Y-95326331D01*
X134200010Y-95173669D01*
X134170227Y-95023941D01*
X134111806Y-94882900D01*
X134026992Y-94755966D01*
X134021025Y-94749999D01*
X134026992Y-94744031D01*
X134111806Y-94617097D01*
X134170227Y-94476056D01*
X134200010Y-94326328D01*
X134200010Y-94173666D01*
X134189130Y-94118968D01*
X137892948Y-94118968D01*
X137892948Y-94271630D01*
X137922731Y-94421358D01*
X137981152Y-94562399D01*
X138065966Y-94689333D01*
X138173914Y-94797281D01*
X138300848Y-94882095D01*
X138441889Y-94940516D01*
X138591617Y-94970299D01*
X138744279Y-94970299D01*
X138753281Y-94968508D01*
X138754783Y-94976059D01*
X138813204Y-95117100D01*
X138898018Y-95244034D01*
X139005966Y-95351982D01*
X139132900Y-95436796D01*
X139273941Y-95495217D01*
X139352998Y-95510943D01*
X139288214Y-95607900D01*
X139229793Y-95748941D01*
X139200010Y-95898669D01*
X139200010Y-96051331D01*
X139229793Y-96201059D01*
X139288214Y-96342100D01*
X139373028Y-96469034D01*
X139480976Y-96576982D01*
X139607910Y-96661796D01*
X139748951Y-96720217D01*
X139898679Y-96750000D01*
X140051341Y-96750000D01*
X140201069Y-96720217D01*
X140342110Y-96661796D01*
X140469044Y-96576982D01*
X140571026Y-96475000D01*
X141560310Y-96475000D01*
X141573028Y-96494034D01*
X141680976Y-96601982D01*
X141807910Y-96686796D01*
X141948951Y-96745217D01*
X142098679Y-96775000D01*
X142251341Y-96775000D01*
X142401069Y-96745217D01*
X142542110Y-96686796D01*
X142669044Y-96601982D01*
X142776992Y-96494034D01*
X142861806Y-96367100D01*
X142920227Y-96226059D01*
X142950010Y-96076331D01*
X142950010Y-95923669D01*
X142920227Y-95773941D01*
X142861806Y-95632900D01*
X142776992Y-95505966D01*
X142671484Y-95400458D01*
X142744034Y-95351982D01*
X142851982Y-95244034D01*
X142936796Y-95117100D01*
X142995217Y-94976059D01*
X143025000Y-94826331D01*
X143025000Y-94673669D01*
X142995217Y-94523941D01*
X142936796Y-94382900D01*
X142851982Y-94255966D01*
X142846016Y-94250000D01*
X142851982Y-94244034D01*
X142936796Y-94117100D01*
X142995217Y-93976059D01*
X143025000Y-93826331D01*
X143025000Y-93673669D01*
X144975000Y-93673669D01*
X144975000Y-93826331D01*
X145004783Y-93976059D01*
X145063204Y-94117100D01*
X145148018Y-94244034D01*
X145153984Y-94250000D01*
X145148018Y-94255966D01*
X145063204Y-94382900D01*
X145004783Y-94523941D01*
X144975000Y-94673669D01*
X144975000Y-94826331D01*
X145004783Y-94976059D01*
X145063204Y-95117100D01*
X145148018Y-95244034D01*
X145255966Y-95351982D01*
X145290415Y-95375000D01*
X145255966Y-95398018D01*
X145148018Y-95505966D01*
X145063204Y-95632900D01*
X145004783Y-95773941D01*
X144975000Y-95923669D01*
X144975000Y-96076331D01*
X145004783Y-96226059D01*
X145063204Y-96367100D01*
X145148018Y-96494034D01*
X145255966Y-96601982D01*
X145382900Y-96686796D01*
X145523941Y-96745217D01*
X145673669Y-96775000D01*
X145826331Y-96775000D01*
X145976059Y-96745217D01*
X146117100Y-96686796D01*
X146244034Y-96601982D01*
X146346016Y-96500000D01*
X148403984Y-96500000D01*
X148505966Y-96601982D01*
X148632900Y-96686796D01*
X148773941Y-96745217D01*
X148923669Y-96775000D01*
X149076331Y-96775000D01*
X149226059Y-96745217D01*
X149367100Y-96686796D01*
X149494034Y-96601982D01*
X149601982Y-96494034D01*
X149686796Y-96367100D01*
X149745217Y-96226059D01*
X149775000Y-96076331D01*
X149775000Y-95923669D01*
X158975000Y-95923669D01*
X158975000Y-96076331D01*
X159004783Y-96226059D01*
X159063204Y-96367100D01*
X159148018Y-96494034D01*
X159255966Y-96601982D01*
X159382900Y-96686796D01*
X159523941Y-96745217D01*
X159673669Y-96775000D01*
X159826331Y-96775000D01*
X159976059Y-96745217D01*
X160117100Y-96686796D01*
X160244034Y-96601982D01*
X160351982Y-96494034D01*
X160436796Y-96367100D01*
X160495217Y-96226059D01*
X160525000Y-96076331D01*
X160525000Y-95932105D01*
X161992259Y-94464848D01*
X162136483Y-94464848D01*
X162286211Y-94435065D01*
X162427252Y-94376644D01*
X162554186Y-94291830D01*
X162662134Y-94183882D01*
X162746948Y-94056948D01*
X162805369Y-93915907D01*
X162835152Y-93766179D01*
X162835152Y-93613517D01*
X162805369Y-93463789D01*
X162746948Y-93322748D01*
X162662134Y-93195814D01*
X162554186Y-93087866D01*
X162427252Y-93003052D01*
X162286211Y-92944631D01*
X162136483Y-92914848D01*
X161983821Y-92914848D01*
X161834093Y-92944631D01*
X161693052Y-93003052D01*
X161566118Y-93087866D01*
X161458170Y-93195814D01*
X161373356Y-93322748D01*
X161314935Y-93463789D01*
X161285152Y-93613517D01*
X161285152Y-93757741D01*
X159817895Y-95225000D01*
X159673669Y-95225000D01*
X159523941Y-95254783D01*
X159382900Y-95313204D01*
X159255966Y-95398018D01*
X159148018Y-95505966D01*
X159063204Y-95632900D01*
X159004783Y-95773941D01*
X158975000Y-95923669D01*
X149775000Y-95923669D01*
X149745217Y-95773941D01*
X149686796Y-95632900D01*
X149601982Y-95505966D01*
X149494034Y-95398018D01*
X149459585Y-95375000D01*
X149494034Y-95351982D01*
X149601982Y-95244034D01*
X149686796Y-95117100D01*
X149745217Y-94976059D01*
X149775000Y-94826331D01*
X149775000Y-94673669D01*
X149745217Y-94523941D01*
X149686796Y-94382900D01*
X149601982Y-94255966D01*
X149596016Y-94250000D01*
X149601982Y-94244034D01*
X149686796Y-94117100D01*
X149745217Y-93976059D01*
X149775000Y-93826331D01*
X149775000Y-93673669D01*
X149745217Y-93523941D01*
X149686796Y-93382900D01*
X149601982Y-93255966D01*
X149494034Y-93148018D01*
X149367100Y-93063204D01*
X149226059Y-93004783D01*
X149076331Y-92975000D01*
X148923669Y-92975000D01*
X148773941Y-93004783D01*
X148632900Y-93063204D01*
X148505966Y-93148018D01*
X148403984Y-93250000D01*
X146346016Y-93250000D01*
X146244034Y-93148018D01*
X146117100Y-93063204D01*
X145976059Y-93004783D01*
X145826331Y-92975000D01*
X145673669Y-92975000D01*
X145523941Y-93004783D01*
X145382900Y-93063204D01*
X145255966Y-93148018D01*
X145148018Y-93255966D01*
X145063204Y-93382900D01*
X145004783Y-93523941D01*
X144975000Y-93673669D01*
X143025000Y-93673669D01*
X142995217Y-93523941D01*
X142936796Y-93382900D01*
X142851982Y-93255966D01*
X142744034Y-93148018D01*
X142617100Y-93063204D01*
X142476059Y-93004783D01*
X142326331Y-92975000D01*
X142173669Y-92975000D01*
X142023941Y-93004783D01*
X141882900Y-93063204D01*
X141755966Y-93148018D01*
X141653984Y-93250000D01*
X139137807Y-93250000D01*
X139113247Y-93247581D01*
X139073265Y-93251519D01*
X139015230Y-93257235D01*
X138920980Y-93285825D01*
X138834118Y-93332254D01*
X138757983Y-93394736D01*
X138742326Y-93413814D01*
X138735841Y-93420299D01*
X138591617Y-93420299D01*
X138441889Y-93450082D01*
X138300848Y-93508503D01*
X138173914Y-93593317D01*
X138065966Y-93701265D01*
X137981152Y-93828199D01*
X137922731Y-93969240D01*
X137892948Y-94118968D01*
X134189130Y-94118968D01*
X134170227Y-94023938D01*
X134111806Y-93882897D01*
X134026992Y-93755963D01*
X133919044Y-93648015D01*
X133792110Y-93563201D01*
X133651069Y-93504780D01*
X133501341Y-93474997D01*
X133348679Y-93474997D01*
X133198951Y-93504780D01*
X133057910Y-93563201D01*
X132930976Y-93648015D01*
X132823028Y-93755963D01*
X132738214Y-93882897D01*
X132689708Y-94000000D01*
X131096016Y-94000000D01*
X130994034Y-93898018D01*
X130867100Y-93813204D01*
X130726059Y-93754783D01*
X130576331Y-93725000D01*
X130423669Y-93725000D01*
X130273941Y-93754783D01*
X130132900Y-93813204D01*
X130005966Y-93898018D01*
X129898018Y-94005966D01*
X129813204Y-94132900D01*
X129754783Y-94273941D01*
X129725000Y-94423669D01*
X115400000Y-94423669D01*
X115400000Y-91739650D01*
X166205000Y-91739650D01*
X166205000Y-92020350D01*
X166259762Y-92295657D01*
X166367181Y-92554991D01*
X166523130Y-92788385D01*
X166721615Y-92986870D01*
X166955009Y-93142819D01*
X167214343Y-93250238D01*
X167489650Y-93305000D01*
X167770350Y-93305000D01*
X168045657Y-93250238D01*
X168304991Y-93142819D01*
X168538385Y-92986870D01*
X168736870Y-92788385D01*
X168892819Y-92554991D01*
X169000238Y-92295657D01*
X169023373Y-92179348D01*
X171235000Y-92179348D01*
X171235000Y-92420652D01*
X171282076Y-92657319D01*
X171374419Y-92880255D01*
X171508481Y-93080892D01*
X171679108Y-93251519D01*
X171879745Y-93385581D01*
X172102681Y-93477924D01*
X172339348Y-93525000D01*
X172580652Y-93525000D01*
X172817319Y-93477924D01*
X173040255Y-93385581D01*
X173240892Y-93251519D01*
X173411519Y-93080892D01*
X173545581Y-92880255D01*
X173637924Y-92657319D01*
X173685000Y-92420652D01*
X173685000Y-92179348D01*
X173775000Y-92179348D01*
X173775000Y-92420652D01*
X173822076Y-92657319D01*
X173914419Y-92880255D01*
X174048481Y-93080892D01*
X174219108Y-93251519D01*
X174419745Y-93385581D01*
X174642681Y-93477924D01*
X174879348Y-93525000D01*
X175120652Y-93525000D01*
X175357319Y-93477924D01*
X175580255Y-93385581D01*
X175780892Y-93251519D01*
X175951519Y-93080892D01*
X176085581Y-92880255D01*
X176177924Y-92657319D01*
X176225000Y-92420652D01*
X176225000Y-92179348D01*
X176177924Y-91942681D01*
X176085581Y-91719745D01*
X175951519Y-91519108D01*
X175780892Y-91348481D01*
X175580255Y-91214419D01*
X175357319Y-91122076D01*
X175120652Y-91075000D01*
X174879348Y-91075000D01*
X174642681Y-91122076D01*
X174419745Y-91214419D01*
X174219108Y-91348481D01*
X174048481Y-91519108D01*
X173914419Y-91719745D01*
X173822076Y-91942681D01*
X173775000Y-92179348D01*
X173685000Y-92179348D01*
X173637924Y-91942681D01*
X173545581Y-91719745D01*
X173411519Y-91519108D01*
X173240892Y-91348481D01*
X173040255Y-91214419D01*
X172817319Y-91122076D01*
X172580652Y-91075000D01*
X172339348Y-91075000D01*
X172102681Y-91122076D01*
X171879745Y-91214419D01*
X171679108Y-91348481D01*
X171508481Y-91519108D01*
X171374419Y-91719745D01*
X171282076Y-91942681D01*
X171235000Y-92179348D01*
X169023373Y-92179348D01*
X169055000Y-92020350D01*
X169055000Y-91739650D01*
X169000238Y-91464343D01*
X168892819Y-91205009D01*
X168736870Y-90971615D01*
X168538385Y-90773130D01*
X168304991Y-90617181D01*
X168045657Y-90509762D01*
X167770350Y-90455000D01*
X167489650Y-90455000D01*
X167214343Y-90509762D01*
X166955009Y-90617181D01*
X166721615Y-90773130D01*
X166523130Y-90971615D01*
X166367181Y-91205009D01*
X166259762Y-91464343D01*
X166205000Y-91739650D01*
X115400000Y-91739650D01*
X115400000Y-89639348D01*
X171235000Y-89639348D01*
X171235000Y-89880652D01*
X171282076Y-90117319D01*
X171374419Y-90340255D01*
X171508481Y-90540892D01*
X171679108Y-90711519D01*
X171879745Y-90845581D01*
X172102681Y-90937924D01*
X172339348Y-90985000D01*
X172580652Y-90985000D01*
X172817319Y-90937924D01*
X173040255Y-90845581D01*
X173240892Y-90711519D01*
X173411519Y-90540892D01*
X173545581Y-90340255D01*
X173632500Y-90130412D01*
X173779992Y-90130412D01*
X173875397Y-90360760D01*
X174014208Y-90568616D01*
X174190903Y-90745397D01*
X174398691Y-90884310D01*
X174629587Y-90980016D01*
X174825000Y-90916691D01*
X174825000Y-89935000D01*
X175175000Y-89935000D01*
X175175000Y-90916691D01*
X175370413Y-90980016D01*
X175601309Y-90884310D01*
X175809097Y-90745397D01*
X175985792Y-90568616D01*
X176124603Y-90360760D01*
X176220008Y-90130412D01*
X176155574Y-89935000D01*
X175175000Y-89935000D01*
X174825000Y-89935000D01*
X173844426Y-89935000D01*
X173779992Y-90130412D01*
X173632500Y-90130412D01*
X173637924Y-90117319D01*
X173685000Y-89880652D01*
X173685000Y-89639348D01*
X173637924Y-89402681D01*
X173632501Y-89389588D01*
X173779992Y-89389588D01*
X173844426Y-89585000D01*
X174825000Y-89585000D01*
X174825000Y-88603309D01*
X175175000Y-88603309D01*
X175175000Y-89585000D01*
X176155574Y-89585000D01*
X176220008Y-89389588D01*
X176124603Y-89159240D01*
X175985792Y-88951384D01*
X175809097Y-88774603D01*
X175601309Y-88635690D01*
X175370413Y-88539984D01*
X175175000Y-88603309D01*
X174825000Y-88603309D01*
X174629587Y-88539984D01*
X174398691Y-88635690D01*
X174190903Y-88774603D01*
X174014208Y-88951384D01*
X173875397Y-89159240D01*
X173779992Y-89389588D01*
X173632501Y-89389588D01*
X173545581Y-89179745D01*
X173411519Y-88979108D01*
X173240892Y-88808481D01*
X173040255Y-88674419D01*
X172817319Y-88582076D01*
X172580652Y-88535000D01*
X172339348Y-88535000D01*
X172102681Y-88582076D01*
X171879745Y-88674419D01*
X171679108Y-88808481D01*
X171508481Y-88979108D01*
X171374419Y-89179745D01*
X171282076Y-89402681D01*
X171235000Y-89639348D01*
X115400000Y-89639348D01*
X115400000Y-87099348D01*
X171235000Y-87099348D01*
X171235000Y-87340652D01*
X171282076Y-87577319D01*
X171374419Y-87800255D01*
X171508481Y-88000892D01*
X171679108Y-88171519D01*
X171879745Y-88305581D01*
X172102681Y-88397924D01*
X172339348Y-88445000D01*
X172580652Y-88445000D01*
X172817319Y-88397924D01*
X173040255Y-88305581D01*
X173240892Y-88171519D01*
X173411519Y-88000892D01*
X173545581Y-87800255D01*
X173637924Y-87577319D01*
X173685000Y-87340652D01*
X173685000Y-87099348D01*
X173775000Y-87099348D01*
X173775000Y-87340652D01*
X173822076Y-87577319D01*
X173914419Y-87800255D01*
X174048481Y-88000892D01*
X174219108Y-88171519D01*
X174419745Y-88305581D01*
X174642681Y-88397924D01*
X174879348Y-88445000D01*
X175120652Y-88445000D01*
X175357319Y-88397924D01*
X175580255Y-88305581D01*
X175780892Y-88171519D01*
X175951519Y-88000892D01*
X176085581Y-87800255D01*
X176177924Y-87577319D01*
X176225000Y-87340652D01*
X176225000Y-87099348D01*
X176177924Y-86862681D01*
X176085581Y-86639745D01*
X175951519Y-86439108D01*
X175780892Y-86268481D01*
X175580255Y-86134419D01*
X175357319Y-86042076D01*
X175120652Y-85995000D01*
X174879348Y-85995000D01*
X174642681Y-86042076D01*
X174419745Y-86134419D01*
X174219108Y-86268481D01*
X174048481Y-86439108D01*
X173914419Y-86639745D01*
X173822076Y-86862681D01*
X173775000Y-87099348D01*
X173685000Y-87099348D01*
X173637924Y-86862681D01*
X173545581Y-86639745D01*
X173411519Y-86439108D01*
X173240892Y-86268481D01*
X173040255Y-86134419D01*
X172817319Y-86042076D01*
X172580652Y-85995000D01*
X172339348Y-85995000D01*
X172102681Y-86042076D01*
X171879745Y-86134419D01*
X171679108Y-86268481D01*
X171508481Y-86439108D01*
X171374419Y-86639745D01*
X171282076Y-86862681D01*
X171235000Y-87099348D01*
X115400000Y-87099348D01*
X115400000Y-84559348D01*
X171235000Y-84559348D01*
X171235000Y-84800652D01*
X171282076Y-85037319D01*
X171374419Y-85260255D01*
X171508481Y-85460892D01*
X171679108Y-85631519D01*
X171879745Y-85765581D01*
X172102681Y-85857924D01*
X172339348Y-85905000D01*
X172580652Y-85905000D01*
X172817319Y-85857924D01*
X173040255Y-85765581D01*
X173240892Y-85631519D01*
X173411519Y-85460892D01*
X173545581Y-85260255D01*
X173637924Y-85037319D01*
X173685000Y-84800652D01*
X173685000Y-84559348D01*
X173775000Y-84559348D01*
X173775000Y-84800652D01*
X173822076Y-85037319D01*
X173914419Y-85260255D01*
X174048481Y-85460892D01*
X174219108Y-85631519D01*
X174419745Y-85765581D01*
X174642681Y-85857924D01*
X174879348Y-85905000D01*
X175120652Y-85905000D01*
X175357319Y-85857924D01*
X175580255Y-85765581D01*
X175780892Y-85631519D01*
X175951519Y-85460892D01*
X176085581Y-85260255D01*
X176177924Y-85037319D01*
X176225000Y-84800652D01*
X176225000Y-84559348D01*
X176177924Y-84322681D01*
X176085581Y-84099745D01*
X175951519Y-83899108D01*
X175780892Y-83728481D01*
X175580255Y-83594419D01*
X175357319Y-83502076D01*
X175120652Y-83455000D01*
X174879348Y-83455000D01*
X174642681Y-83502076D01*
X174419745Y-83594419D01*
X174219108Y-83728481D01*
X174048481Y-83899108D01*
X173914419Y-84099745D01*
X173822076Y-84322681D01*
X173775000Y-84559348D01*
X173685000Y-84559348D01*
X173637924Y-84322681D01*
X173545581Y-84099745D01*
X173411519Y-83899108D01*
X173240892Y-83728481D01*
X173040255Y-83594419D01*
X172817319Y-83502076D01*
X172580652Y-83455000D01*
X172339348Y-83455000D01*
X172102681Y-83502076D01*
X171879745Y-83594419D01*
X171679108Y-83728481D01*
X171508481Y-83899108D01*
X171374419Y-84099745D01*
X171282076Y-84322681D01*
X171235000Y-84559348D01*
X115400000Y-84559348D01*
X115400000Y-81673669D01*
X164225000Y-81673669D01*
X164225000Y-81826331D01*
X164254783Y-81976059D01*
X164313204Y-82117100D01*
X164398018Y-82244034D01*
X164505966Y-82351982D01*
X164632900Y-82436796D01*
X164773941Y-82495217D01*
X164923669Y-82525000D01*
X165076331Y-82525000D01*
X165226059Y-82495217D01*
X165367100Y-82436796D01*
X165494034Y-82351982D01*
X165601982Y-82244034D01*
X165686796Y-82117100D01*
X165745217Y-81976059D01*
X165775000Y-81826331D01*
X165775000Y-81682106D01*
X166182106Y-81275001D01*
X171592588Y-81275001D01*
X171508481Y-81359108D01*
X171374419Y-81559745D01*
X171282076Y-81782681D01*
X171235000Y-82019348D01*
X171235000Y-82260652D01*
X171282076Y-82497319D01*
X171374419Y-82720255D01*
X171508481Y-82920892D01*
X171679108Y-83091519D01*
X171879745Y-83225581D01*
X172102681Y-83317924D01*
X172339348Y-83365000D01*
X172580652Y-83365000D01*
X172817319Y-83317924D01*
X173040255Y-83225581D01*
X173240892Y-83091519D01*
X173411519Y-82920892D01*
X173545581Y-82720255D01*
X173632500Y-82510412D01*
X173779992Y-82510412D01*
X173875397Y-82740760D01*
X174014208Y-82948616D01*
X174190903Y-83125397D01*
X174398691Y-83264310D01*
X174629587Y-83360016D01*
X174825000Y-83296691D01*
X174825000Y-82315000D01*
X175175000Y-82315000D01*
X175175000Y-83296691D01*
X175370413Y-83360016D01*
X175601309Y-83264310D01*
X175809097Y-83125397D01*
X175985792Y-82948616D01*
X176124603Y-82740760D01*
X176220008Y-82510412D01*
X176155574Y-82315000D01*
X175175000Y-82315000D01*
X174825000Y-82315000D01*
X173844426Y-82315000D01*
X173779992Y-82510412D01*
X173632500Y-82510412D01*
X173637924Y-82497319D01*
X173685000Y-82260652D01*
X173685000Y-82019348D01*
X173637924Y-81782681D01*
X173632501Y-81769588D01*
X173779992Y-81769588D01*
X173844426Y-81965000D01*
X174825000Y-81965000D01*
X174825000Y-80983309D01*
X175175000Y-80983309D01*
X175175000Y-81965000D01*
X176155574Y-81965000D01*
X176220008Y-81769588D01*
X176124603Y-81539240D01*
X175985792Y-81331384D01*
X175809097Y-81154603D01*
X175601309Y-81015690D01*
X175370413Y-80919984D01*
X175175000Y-80983309D01*
X174825000Y-80983309D01*
X174629587Y-80919984D01*
X174398691Y-81015690D01*
X174190903Y-81154603D01*
X174014208Y-81331384D01*
X173875397Y-81539240D01*
X173779992Y-81769588D01*
X173632501Y-81769588D01*
X173545581Y-81559745D01*
X173411519Y-81359108D01*
X173327412Y-81275001D01*
X173800439Y-81275001D01*
X173824999Y-81277420D01*
X173849559Y-81275001D01*
X173923016Y-81267766D01*
X174017266Y-81239176D01*
X174104128Y-81192747D01*
X174180263Y-81130265D01*
X174195928Y-81111177D01*
X174520920Y-80786186D01*
X174520924Y-80786181D01*
X174562424Y-80744681D01*
X174642681Y-80777924D01*
X174879348Y-80825000D01*
X175120652Y-80825000D01*
X175357319Y-80777924D01*
X175580255Y-80685581D01*
X175780892Y-80551519D01*
X175951519Y-80380892D01*
X176085581Y-80180255D01*
X176177924Y-79957319D01*
X176225000Y-79720652D01*
X176225000Y-79479348D01*
X176177924Y-79242681D01*
X176085581Y-79019745D01*
X175951519Y-78819108D01*
X175780892Y-78648481D01*
X175580255Y-78514419D01*
X175357319Y-78422076D01*
X175120652Y-78375000D01*
X174879348Y-78375000D01*
X174642681Y-78422076D01*
X174419745Y-78514419D01*
X174219108Y-78648481D01*
X174048481Y-78819108D01*
X173914419Y-79019745D01*
X173822076Y-79242681D01*
X173775000Y-79479348D01*
X173775000Y-79720652D01*
X173822076Y-79957319D01*
X173855319Y-80037576D01*
X173813819Y-80079076D01*
X173813814Y-80079080D01*
X173617894Y-80275001D01*
X173482273Y-80275001D01*
X173545581Y-80180255D01*
X173637924Y-79957319D01*
X173685000Y-79720652D01*
X173685000Y-79479348D01*
X173637924Y-79242681D01*
X173545581Y-79019745D01*
X173411519Y-78819108D01*
X173240892Y-78648481D01*
X173040255Y-78514419D01*
X172817319Y-78422076D01*
X172580652Y-78375000D01*
X172339348Y-78375000D01*
X172102681Y-78422076D01*
X171879745Y-78514419D01*
X171679108Y-78648481D01*
X171508481Y-78819108D01*
X171374419Y-79019745D01*
X171282076Y-79242681D01*
X171235000Y-79479348D01*
X171235000Y-79720652D01*
X171282076Y-79957319D01*
X171374419Y-80180255D01*
X171437727Y-80275001D01*
X165999559Y-80275001D01*
X165974999Y-80272582D01*
X165950439Y-80275001D01*
X165876982Y-80282236D01*
X165782732Y-80310826D01*
X165695870Y-80357255D01*
X165619735Y-80419737D01*
X165604079Y-80438814D01*
X165067894Y-80975000D01*
X164923669Y-80975000D01*
X164773941Y-81004783D01*
X164632900Y-81063204D01*
X164505966Y-81148018D01*
X164398018Y-81255966D01*
X164313204Y-81382900D01*
X164254783Y-81523941D01*
X164225000Y-81673669D01*
X115400000Y-81673669D01*
X115400000Y-78423669D01*
X145725000Y-78423669D01*
X145725000Y-78576331D01*
X145754783Y-78726059D01*
X145813204Y-78867100D01*
X145898018Y-78994034D01*
X146005966Y-79101982D01*
X146132900Y-79186796D01*
X146273941Y-79245217D01*
X146423669Y-79275000D01*
X146576331Y-79275000D01*
X146726059Y-79245217D01*
X146867100Y-79186796D01*
X146994034Y-79101982D01*
X147101982Y-78994034D01*
X147186796Y-78867100D01*
X147245217Y-78726059D01*
X147275000Y-78576331D01*
X147275000Y-78423669D01*
X147245217Y-78273941D01*
X147186796Y-78132900D01*
X147101982Y-78005966D01*
X147000000Y-77903984D01*
X147000000Y-77430412D01*
X171239992Y-77430412D01*
X171335397Y-77660760D01*
X171474208Y-77868616D01*
X171650903Y-78045397D01*
X171858691Y-78184310D01*
X172089587Y-78280016D01*
X172285000Y-78216691D01*
X172285000Y-77235000D01*
X172635000Y-77235000D01*
X172635000Y-78216691D01*
X172830413Y-78280016D01*
X173061309Y-78184310D01*
X173269097Y-78045397D01*
X173445792Y-77868616D01*
X173584603Y-77660760D01*
X173680008Y-77430412D01*
X173615574Y-77235000D01*
X172635000Y-77235000D01*
X172285000Y-77235000D01*
X171304426Y-77235000D01*
X171239992Y-77430412D01*
X147000000Y-77430412D01*
X147000000Y-76381958D01*
X147140819Y-76381958D01*
X147246506Y-76651103D01*
X147402670Y-76894458D01*
X147603310Y-77102671D01*
X147840715Y-77267740D01*
X148105761Y-77383322D01*
X148158043Y-77399175D01*
X148385000Y-77337517D01*
X148385000Y-76155000D01*
X148735000Y-76155000D01*
X148735000Y-77337517D01*
X148961957Y-77399175D01*
X149014239Y-77383322D01*
X149279285Y-77267740D01*
X149516690Y-77102671D01*
X149717330Y-76894458D01*
X149873494Y-76651103D01*
X149979181Y-76381958D01*
X149918339Y-76155000D01*
X148735000Y-76155000D01*
X148385000Y-76155000D01*
X147201661Y-76155000D01*
X147140819Y-76381958D01*
X147000000Y-76381958D01*
X147000000Y-75859650D01*
X166195000Y-75859650D01*
X166195000Y-76140350D01*
X166249762Y-76415657D01*
X166357181Y-76674991D01*
X166513130Y-76908385D01*
X166711615Y-77106870D01*
X166945009Y-77262819D01*
X167204343Y-77370238D01*
X167479650Y-77425000D01*
X167760350Y-77425000D01*
X168035657Y-77370238D01*
X168294991Y-77262819D01*
X168528385Y-77106870D01*
X168695907Y-76939348D01*
X173775000Y-76939348D01*
X173775000Y-77180652D01*
X173822076Y-77417319D01*
X173914419Y-77640255D01*
X174048481Y-77840892D01*
X174219108Y-78011519D01*
X174419745Y-78145581D01*
X174642681Y-78237924D01*
X174879348Y-78285000D01*
X175120652Y-78285000D01*
X175357319Y-78237924D01*
X175580255Y-78145581D01*
X175780892Y-78011519D01*
X175951519Y-77840892D01*
X176085581Y-77640255D01*
X176177924Y-77417319D01*
X176225000Y-77180652D01*
X176225000Y-76939348D01*
X176177924Y-76702681D01*
X176085581Y-76479745D01*
X175951519Y-76279108D01*
X175780892Y-76108481D01*
X175580255Y-75974419D01*
X175357319Y-75882076D01*
X175120652Y-75835000D01*
X174879348Y-75835000D01*
X174642681Y-75882076D01*
X174419745Y-75974419D01*
X174219108Y-76108481D01*
X174048481Y-76279108D01*
X173914419Y-76479745D01*
X173822076Y-76702681D01*
X173775000Y-76939348D01*
X168695907Y-76939348D01*
X168726870Y-76908385D01*
X168873065Y-76689588D01*
X171239992Y-76689588D01*
X171304426Y-76885000D01*
X172285000Y-76885000D01*
X172285000Y-75903309D01*
X172635000Y-75903309D01*
X172635000Y-76885000D01*
X173615574Y-76885000D01*
X173680008Y-76689588D01*
X173584603Y-76459240D01*
X173445792Y-76251384D01*
X173269097Y-76074603D01*
X173061309Y-75935690D01*
X172830413Y-75839984D01*
X172635000Y-75903309D01*
X172285000Y-75903309D01*
X172089587Y-75839984D01*
X171858691Y-75935690D01*
X171650903Y-76074603D01*
X171474208Y-76251384D01*
X171335397Y-76459240D01*
X171239992Y-76689588D01*
X168873065Y-76689588D01*
X168882819Y-76674991D01*
X168990238Y-76415657D01*
X169045000Y-76140350D01*
X169045000Y-75859650D01*
X168990238Y-75584343D01*
X168882819Y-75325009D01*
X168726870Y-75091615D01*
X168528385Y-74893130D01*
X168294991Y-74737181D01*
X168035657Y-74629762D01*
X167760350Y-74575000D01*
X167479650Y-74575000D01*
X167204343Y-74629762D01*
X166945009Y-74737181D01*
X166711615Y-74893130D01*
X166513130Y-75091615D01*
X166357181Y-75325009D01*
X166249762Y-75584343D01*
X166195000Y-75859650D01*
X147000000Y-75859650D01*
X147000000Y-75590424D01*
X147016851Y-75579165D01*
X147017974Y-75578042D01*
X147140819Y-75578042D01*
X147201661Y-75805000D01*
X148385000Y-75805000D01*
X148385000Y-74622483D01*
X148735000Y-74622483D01*
X148735000Y-75805000D01*
X149918339Y-75805000D01*
X149979181Y-75578042D01*
X149873494Y-75308897D01*
X149717330Y-75065542D01*
X149516690Y-74857329D01*
X149279285Y-74692260D01*
X149014239Y-74576678D01*
X148961957Y-74560825D01*
X148735000Y-74622483D01*
X148385000Y-74622483D01*
X148158043Y-74560825D01*
X148105761Y-74576678D01*
X147840715Y-74692260D01*
X147603310Y-74857329D01*
X147402670Y-75065542D01*
X147246506Y-75308897D01*
X147140819Y-75578042D01*
X147017974Y-75578042D01*
X147124799Y-75471217D01*
X147209613Y-75344283D01*
X147268034Y-75203242D01*
X147297817Y-75053514D01*
X147297817Y-74900852D01*
X147268034Y-74751124D01*
X147209613Y-74610083D01*
X147124799Y-74483149D01*
X147040998Y-74399348D01*
X171235000Y-74399348D01*
X171235000Y-74640652D01*
X171282076Y-74877319D01*
X171374419Y-75100255D01*
X171508481Y-75300892D01*
X171679108Y-75471519D01*
X171879745Y-75605581D01*
X172102681Y-75697924D01*
X172339348Y-75745000D01*
X172580652Y-75745000D01*
X172817319Y-75697924D01*
X173040255Y-75605581D01*
X173240892Y-75471519D01*
X173411519Y-75300892D01*
X173545581Y-75100255D01*
X173637924Y-74877319D01*
X173685000Y-74640652D01*
X173685000Y-74399348D01*
X173775000Y-74399348D01*
X173775000Y-74640652D01*
X173822076Y-74877319D01*
X173914419Y-75100255D01*
X174048481Y-75300892D01*
X174219108Y-75471519D01*
X174419745Y-75605581D01*
X174642681Y-75697924D01*
X174879348Y-75745000D01*
X175120652Y-75745000D01*
X175357319Y-75697924D01*
X175580255Y-75605581D01*
X175780892Y-75471519D01*
X175951519Y-75300892D01*
X176085581Y-75100255D01*
X176177924Y-74877319D01*
X176225000Y-74640652D01*
X176225000Y-74399348D01*
X176177924Y-74162681D01*
X176085581Y-73939745D01*
X175951519Y-73739108D01*
X175780892Y-73568481D01*
X175580255Y-73434419D01*
X175357319Y-73342076D01*
X175120652Y-73295000D01*
X174879348Y-73295000D01*
X174642681Y-73342076D01*
X174419745Y-73434419D01*
X174219108Y-73568481D01*
X174048481Y-73739108D01*
X173914419Y-73939745D01*
X173822076Y-74162681D01*
X173775000Y-74399348D01*
X173685000Y-74399348D01*
X173637924Y-74162681D01*
X173545581Y-73939745D01*
X173411519Y-73739108D01*
X173240892Y-73568481D01*
X173040255Y-73434419D01*
X172817319Y-73342076D01*
X172580652Y-73295000D01*
X172339348Y-73295000D01*
X172102681Y-73342076D01*
X171879745Y-73434419D01*
X171679108Y-73568481D01*
X171508481Y-73739108D01*
X171374419Y-73939745D01*
X171282076Y-74162681D01*
X171235000Y-74399348D01*
X147040998Y-74399348D01*
X147016851Y-74375201D01*
X146889917Y-74290387D01*
X146748876Y-74231966D01*
X146599148Y-74202183D01*
X146446486Y-74202183D01*
X146296758Y-74231966D01*
X146155717Y-74290387D01*
X146028783Y-74375201D01*
X145920835Y-74483149D01*
X145836021Y-74610083D01*
X145777600Y-74751124D01*
X145747817Y-74900852D01*
X145747817Y-75053514D01*
X145777600Y-75203242D01*
X145836021Y-75344283D01*
X145920835Y-75471217D01*
X146000001Y-75550383D01*
X146000000Y-77903984D01*
X145898018Y-78005966D01*
X145813204Y-78132900D01*
X145754783Y-78273941D01*
X145725000Y-78423669D01*
X115400000Y-78423669D01*
X115400000Y-71859348D01*
X171235000Y-71859348D01*
X171235000Y-72100652D01*
X171282076Y-72337319D01*
X171374419Y-72560255D01*
X171508481Y-72760892D01*
X171679108Y-72931519D01*
X171879745Y-73065581D01*
X172102681Y-73157924D01*
X172339348Y-73205000D01*
X172580652Y-73205000D01*
X172817319Y-73157924D01*
X173040255Y-73065581D01*
X173240892Y-72931519D01*
X173411519Y-72760892D01*
X173545581Y-72560255D01*
X173632500Y-72350412D01*
X173779992Y-72350412D01*
X173875397Y-72580760D01*
X174014208Y-72788616D01*
X174190903Y-72965397D01*
X174398691Y-73104310D01*
X174629587Y-73200016D01*
X174825000Y-73136691D01*
X174825000Y-72155000D01*
X175175000Y-72155000D01*
X175175000Y-73136691D01*
X175370413Y-73200016D01*
X175601309Y-73104310D01*
X175809097Y-72965397D01*
X175985792Y-72788616D01*
X176124603Y-72580760D01*
X176220008Y-72350412D01*
X176155574Y-72155000D01*
X175175000Y-72155000D01*
X174825000Y-72155000D01*
X173844426Y-72155000D01*
X173779992Y-72350412D01*
X173632500Y-72350412D01*
X173637924Y-72337319D01*
X173685000Y-72100652D01*
X173685000Y-71859348D01*
X173637924Y-71622681D01*
X173632501Y-71609588D01*
X173779992Y-71609588D01*
X173844426Y-71805000D01*
X174825000Y-71805000D01*
X174825000Y-70823309D01*
X175175000Y-70823309D01*
X175175000Y-71805000D01*
X176155574Y-71805000D01*
X176220008Y-71609588D01*
X176124603Y-71379240D01*
X175985792Y-71171384D01*
X175809097Y-70994603D01*
X175601309Y-70855690D01*
X175370413Y-70759984D01*
X175175000Y-70823309D01*
X174825000Y-70823309D01*
X174629587Y-70759984D01*
X174398691Y-70855690D01*
X174190903Y-70994603D01*
X174014208Y-71171384D01*
X173875397Y-71379240D01*
X173779992Y-71609588D01*
X173632501Y-71609588D01*
X173545581Y-71399745D01*
X173411519Y-71199108D01*
X173240892Y-71028481D01*
X173040255Y-70894419D01*
X172817319Y-70802076D01*
X172580652Y-70755000D01*
X172339348Y-70755000D01*
X172102681Y-70802076D01*
X171879745Y-70894419D01*
X171679108Y-71028481D01*
X171508481Y-71199108D01*
X171374419Y-71399745D01*
X171282076Y-71622681D01*
X171235000Y-71859348D01*
X115400000Y-71859348D01*
X115400000Y-70653971D01*
X136925000Y-70653971D01*
X136925000Y-70846029D01*
X136962468Y-71034397D01*
X137035966Y-71211836D01*
X137142668Y-71371527D01*
X137278473Y-71507332D01*
X137438164Y-71614034D01*
X137615603Y-71687532D01*
X137803971Y-71725000D01*
X137996029Y-71725000D01*
X138184397Y-71687532D01*
X138361836Y-71614034D01*
X138521527Y-71507332D01*
X138657332Y-71371527D01*
X138764034Y-71211836D01*
X138837532Y-71034397D01*
X138875000Y-70846029D01*
X138875000Y-70653971D01*
X138837532Y-70465603D01*
X138764034Y-70288164D01*
X138657332Y-70128473D01*
X138542141Y-70013282D01*
X138551761Y-70021177D01*
X138660129Y-70079101D01*
X138777715Y-70114770D01*
X138900000Y-70126814D01*
X140100000Y-70126814D01*
X140222285Y-70114770D01*
X140339871Y-70079101D01*
X140448239Y-70021177D01*
X140543224Y-69943224D01*
X140621177Y-69848239D01*
X140679101Y-69739871D01*
X140714770Y-69622285D01*
X140726814Y-69500000D01*
X140726814Y-68925002D01*
X140832965Y-68925002D01*
X140746303Y-69123878D01*
X140814069Y-69364160D01*
X140927409Y-69586605D01*
X141081969Y-69782664D01*
X141271808Y-69944803D01*
X141489631Y-70066791D01*
X141629588Y-70120008D01*
X141825000Y-70055574D01*
X141825000Y-68925000D01*
X142175000Y-68925000D01*
X142175000Y-70055574D01*
X142370412Y-70120008D01*
X142510369Y-70066791D01*
X142728192Y-69944803D01*
X142918031Y-69782664D01*
X143072591Y-69586605D01*
X143185931Y-69364160D01*
X143198569Y-69319348D01*
X171235000Y-69319348D01*
X171235000Y-69560652D01*
X171282076Y-69797319D01*
X171374419Y-70020255D01*
X171508481Y-70220892D01*
X171679108Y-70391519D01*
X171879745Y-70525581D01*
X172102681Y-70617924D01*
X172339348Y-70665000D01*
X172580652Y-70665000D01*
X172817319Y-70617924D01*
X173040255Y-70525581D01*
X173240892Y-70391519D01*
X173411519Y-70220892D01*
X173545581Y-70020255D01*
X173637924Y-69797319D01*
X173685000Y-69560652D01*
X173685000Y-69319348D01*
X173775000Y-69319348D01*
X173775000Y-69560652D01*
X173822076Y-69797319D01*
X173914419Y-70020255D01*
X174048481Y-70220892D01*
X174219108Y-70391519D01*
X174419745Y-70525581D01*
X174642681Y-70617924D01*
X174879348Y-70665000D01*
X175120652Y-70665000D01*
X175357319Y-70617924D01*
X175580255Y-70525581D01*
X175780892Y-70391519D01*
X175951519Y-70220892D01*
X176085581Y-70020255D01*
X176177924Y-69797319D01*
X176225000Y-69560652D01*
X176225000Y-69319348D01*
X176177924Y-69082681D01*
X176085581Y-68859745D01*
X175951519Y-68659108D01*
X175780892Y-68488481D01*
X175580255Y-68354419D01*
X175357319Y-68262076D01*
X175120652Y-68215000D01*
X174879348Y-68215000D01*
X174642681Y-68262076D01*
X174419745Y-68354419D01*
X174219108Y-68488481D01*
X174048481Y-68659108D01*
X173914419Y-68859745D01*
X173822076Y-69082681D01*
X173775000Y-69319348D01*
X173685000Y-69319348D01*
X173637924Y-69082681D01*
X173545581Y-68859745D01*
X173411519Y-68659108D01*
X173240892Y-68488481D01*
X173040255Y-68354419D01*
X172817319Y-68262076D01*
X172580652Y-68215000D01*
X172339348Y-68215000D01*
X172102681Y-68262076D01*
X171879745Y-68354419D01*
X171679108Y-68488481D01*
X171508481Y-68659108D01*
X171374419Y-68859745D01*
X171282076Y-69082681D01*
X171235000Y-69319348D01*
X143198569Y-69319348D01*
X143253697Y-69123878D01*
X143167034Y-68925000D01*
X142175000Y-68925000D01*
X141825000Y-68925000D01*
X141805000Y-68925000D01*
X141805000Y-68575000D01*
X141825000Y-68575000D01*
X141825000Y-67444426D01*
X142175000Y-67444426D01*
X142175000Y-68575000D01*
X143167034Y-68575000D01*
X143253697Y-68376122D01*
X143185931Y-68135840D01*
X143072591Y-67913395D01*
X142918031Y-67717336D01*
X142728192Y-67555197D01*
X142510369Y-67433209D01*
X142370412Y-67379992D01*
X142175000Y-67444426D01*
X141825000Y-67444426D01*
X141629588Y-67379992D01*
X141489631Y-67433209D01*
X141271808Y-67555197D01*
X141081969Y-67717336D01*
X140927409Y-67913395D01*
X140814069Y-68135840D01*
X140746303Y-68376122D01*
X140832965Y-68574998D01*
X140726814Y-68574998D01*
X140726814Y-68000000D01*
X140714770Y-67877715D01*
X140679101Y-67760129D01*
X140621177Y-67651761D01*
X140543224Y-67556776D01*
X140448239Y-67478823D01*
X140339871Y-67420899D01*
X140222285Y-67385230D01*
X140100000Y-67373186D01*
X138900000Y-67373186D01*
X138777715Y-67385230D01*
X138660129Y-67420899D01*
X138551761Y-67478823D01*
X138456776Y-67556776D01*
X138378823Y-67651761D01*
X138320899Y-67760129D01*
X138285230Y-67877715D01*
X138273186Y-68000000D01*
X138273186Y-69500000D01*
X138285230Y-69622285D01*
X138320899Y-69739871D01*
X138378823Y-69848239D01*
X138456776Y-69943224D01*
X138497290Y-69976474D01*
X138361836Y-69885966D01*
X138184397Y-69812468D01*
X137996029Y-69775000D01*
X137803971Y-69775000D01*
X137615603Y-69812468D01*
X137438164Y-69885966D01*
X137278473Y-69992668D01*
X137142668Y-70128473D01*
X137035966Y-70288164D01*
X136962468Y-70465603D01*
X136925000Y-70653971D01*
X115400000Y-70653971D01*
X115400000Y-68085027D01*
X125325000Y-68085027D01*
X125325000Y-68414973D01*
X125389369Y-68738580D01*
X125515634Y-69043410D01*
X125698942Y-69317751D01*
X125932249Y-69551058D01*
X126206590Y-69734366D01*
X126511420Y-69860631D01*
X126835027Y-69925000D01*
X127164973Y-69925000D01*
X127488580Y-69860631D01*
X127793410Y-69734366D01*
X128067751Y-69551058D01*
X128068809Y-69550000D01*
X130272944Y-69550000D01*
X130281150Y-69633314D01*
X130305452Y-69713427D01*
X130344916Y-69787260D01*
X130398026Y-69851974D01*
X130462740Y-69905084D01*
X130536573Y-69944548D01*
X130616686Y-69968850D01*
X130700000Y-69977056D01*
X131718750Y-69975000D01*
X131825000Y-69868750D01*
X131825000Y-68425000D01*
X132175000Y-68425000D01*
X132175000Y-69868750D01*
X132281250Y-69975000D01*
X133300000Y-69977056D01*
X133383314Y-69968850D01*
X133463427Y-69944548D01*
X133537260Y-69905084D01*
X133601974Y-69851974D01*
X133655084Y-69787260D01*
X133694548Y-69713427D01*
X133718850Y-69633314D01*
X133727056Y-69550000D01*
X133725000Y-68531250D01*
X133618750Y-68425000D01*
X132175000Y-68425000D01*
X131825000Y-68425000D01*
X130381250Y-68425000D01*
X130275000Y-68531250D01*
X130272944Y-69550000D01*
X128068809Y-69550000D01*
X128301058Y-69317751D01*
X128484366Y-69043410D01*
X128610631Y-68738580D01*
X128675000Y-68414973D01*
X128675000Y-68085027D01*
X128610631Y-67761420D01*
X128484366Y-67456590D01*
X128301058Y-67182249D01*
X128068809Y-66950000D01*
X130272944Y-66950000D01*
X130275000Y-67968750D01*
X130381250Y-68075000D01*
X131825000Y-68075000D01*
X131825000Y-66631250D01*
X132175000Y-66631250D01*
X132175000Y-68075000D01*
X133618750Y-68075000D01*
X133725000Y-67968750D01*
X133727056Y-66950000D01*
X133718850Y-66866686D01*
X133694548Y-66786573D01*
X133655084Y-66712740D01*
X133601974Y-66648026D01*
X133537260Y-66594916D01*
X133463427Y-66555452D01*
X133383314Y-66531150D01*
X133300000Y-66522944D01*
X132281250Y-66525000D01*
X132175000Y-66631250D01*
X131825000Y-66631250D01*
X131718750Y-66525000D01*
X130700000Y-66522944D01*
X130616686Y-66531150D01*
X130536573Y-66555452D01*
X130462740Y-66594916D01*
X130398026Y-66648026D01*
X130344916Y-66712740D01*
X130305452Y-66786573D01*
X130281150Y-66866686D01*
X130272944Y-66950000D01*
X128068809Y-66950000D01*
X128067751Y-66948942D01*
X127793410Y-66765634D01*
X127488580Y-66639369D01*
X127164973Y-66575000D01*
X126835027Y-66575000D01*
X126511420Y-66639369D01*
X126206590Y-66765634D01*
X125932249Y-66948942D01*
X125698942Y-67182249D01*
X125515634Y-67456590D01*
X125389369Y-67761420D01*
X125325000Y-68085027D01*
X115400000Y-68085027D01*
X115400000Y-63673669D01*
X163725000Y-63673669D01*
X163725000Y-63826331D01*
X163754783Y-63976059D01*
X163813204Y-64117100D01*
X163898018Y-64244034D01*
X164005966Y-64351982D01*
X164132900Y-64436796D01*
X164273941Y-64495217D01*
X164383035Y-64516917D01*
X167186346Y-67320229D01*
X167205920Y-67344080D01*
X167301089Y-67422183D01*
X167409666Y-67480219D01*
X167527479Y-67515957D01*
X167619296Y-67525000D01*
X167619298Y-67525000D01*
X167650000Y-67528024D01*
X167680702Y-67525000D01*
X171233186Y-67525000D01*
X171233186Y-67750000D01*
X171240426Y-67823513D01*
X171261869Y-67894200D01*
X171296691Y-67959347D01*
X171343552Y-68016448D01*
X171400653Y-68063309D01*
X171465800Y-68098131D01*
X171536487Y-68119574D01*
X171610000Y-68126814D01*
X173310000Y-68126814D01*
X173383513Y-68119574D01*
X173454200Y-68098131D01*
X173519347Y-68063309D01*
X173576448Y-68016448D01*
X173623309Y-67959347D01*
X173658131Y-67894200D01*
X173679574Y-67823513D01*
X173686814Y-67750000D01*
X173686814Y-66779348D01*
X173775000Y-66779348D01*
X173775000Y-67020652D01*
X173822076Y-67257319D01*
X173914419Y-67480255D01*
X174048481Y-67680892D01*
X174219108Y-67851519D01*
X174419745Y-67985581D01*
X174642681Y-68077924D01*
X174879348Y-68125000D01*
X175120652Y-68125000D01*
X175357319Y-68077924D01*
X175580255Y-67985581D01*
X175780892Y-67851519D01*
X175951519Y-67680892D01*
X176085581Y-67480255D01*
X176177924Y-67257319D01*
X176225000Y-67020652D01*
X176225000Y-66779348D01*
X176177924Y-66542681D01*
X176085581Y-66319745D01*
X175951519Y-66119108D01*
X175780892Y-65948481D01*
X175580255Y-65814419D01*
X175357319Y-65722076D01*
X175120652Y-65675000D01*
X174879348Y-65675000D01*
X174642681Y-65722076D01*
X174419745Y-65814419D01*
X174219108Y-65948481D01*
X174048481Y-66119108D01*
X173914419Y-66319745D01*
X173822076Y-66542681D01*
X173775000Y-66779348D01*
X173686814Y-66779348D01*
X173686814Y-66050000D01*
X173679574Y-65976487D01*
X173658131Y-65905800D01*
X173623309Y-65840653D01*
X173576448Y-65783552D01*
X173519347Y-65736691D01*
X173454200Y-65701869D01*
X173383513Y-65680426D01*
X173310000Y-65673186D01*
X171610000Y-65673186D01*
X171536487Y-65680426D01*
X171465800Y-65701869D01*
X171400653Y-65736691D01*
X171343552Y-65783552D01*
X171296691Y-65840653D01*
X171261869Y-65905800D01*
X171240426Y-65976487D01*
X171233186Y-66050000D01*
X171233186Y-66275000D01*
X167908883Y-66275000D01*
X165266917Y-63633035D01*
X165245217Y-63523941D01*
X165186796Y-63382900D01*
X165101982Y-63255966D01*
X164994034Y-63148018D01*
X164867100Y-63063204D01*
X164726059Y-63004783D01*
X164576331Y-62975000D01*
X164423669Y-62975000D01*
X164273941Y-63004783D01*
X164132900Y-63063204D01*
X164005966Y-63148018D01*
X163898018Y-63255966D01*
X163813204Y-63382900D01*
X163754783Y-63523941D01*
X163725000Y-63673669D01*
X115400000Y-63673669D01*
X115400000Y-60400000D01*
X179600001Y-60400000D01*
X179600000Y-119600000D01*
G37*
X179600000Y-119600000D02*
X115400000Y-119600000D01*
X115400000Y-115530412D01*
X171239992Y-115530412D01*
X171335397Y-115760760D01*
X171474208Y-115968616D01*
X171650903Y-116145397D01*
X171858691Y-116284310D01*
X172089587Y-116380016D01*
X172285000Y-116316691D01*
X172285000Y-115335000D01*
X172635000Y-115335000D01*
X172635000Y-116316691D01*
X172830413Y-116380016D01*
X173061309Y-116284310D01*
X173269097Y-116145397D01*
X173445792Y-115968616D01*
X173584603Y-115760760D01*
X173680008Y-115530412D01*
X173615574Y-115335000D01*
X172635000Y-115335000D01*
X172285000Y-115335000D01*
X171304426Y-115335000D01*
X171239992Y-115530412D01*
X115400000Y-115530412D01*
X115400000Y-115039348D01*
X173775000Y-115039348D01*
X173775000Y-115280652D01*
X173822076Y-115517319D01*
X173914419Y-115740255D01*
X174048481Y-115940892D01*
X174219108Y-116111519D01*
X174419745Y-116245581D01*
X174642681Y-116337924D01*
X174879348Y-116385000D01*
X175120652Y-116385000D01*
X175357319Y-116337924D01*
X175580255Y-116245581D01*
X175780892Y-116111519D01*
X175951519Y-115940892D01*
X176085581Y-115740255D01*
X176177924Y-115517319D01*
X176225000Y-115280652D01*
X176225000Y-115039348D01*
X176177924Y-114802681D01*
X176085581Y-114579745D01*
X175951519Y-114379108D01*
X175780892Y-114208481D01*
X175580255Y-114074419D01*
X175357319Y-113982076D01*
X175120652Y-113935000D01*
X174879348Y-113935000D01*
X174642681Y-113982076D01*
X174419745Y-114074419D01*
X174219108Y-114208481D01*
X174048481Y-114379108D01*
X173914419Y-114579745D01*
X173822076Y-114802681D01*
X173775000Y-115039348D01*
X115400000Y-115039348D01*
X115400000Y-114789588D01*
X171239992Y-114789588D01*
X171304426Y-114985000D01*
X172285000Y-114985000D01*
X172285000Y-114003309D01*
X172635000Y-114003309D01*
X172635000Y-114985000D01*
X173615574Y-114985000D01*
X173680008Y-114789588D01*
X173584603Y-114559240D01*
X173445792Y-114351384D01*
X173269097Y-114174603D01*
X173061309Y-114035690D01*
X172830413Y-113939984D01*
X172635000Y-114003309D01*
X172285000Y-114003309D01*
X172089587Y-113939984D01*
X171858691Y-114035690D01*
X171650903Y-114174603D01*
X171474208Y-114351384D01*
X171335397Y-114559240D01*
X171239992Y-114789588D01*
X115400000Y-114789588D01*
X115400000Y-111990000D01*
X147092944Y-111990000D01*
X147101150Y-112073314D01*
X147125452Y-112153427D01*
X147164916Y-112227260D01*
X147218026Y-112291974D01*
X147282740Y-112345084D01*
X147356573Y-112384548D01*
X147436686Y-112408850D01*
X147520000Y-112417056D01*
X148288750Y-112415000D01*
X148395000Y-112308750D01*
X148395000Y-111115000D01*
X148745000Y-111115000D01*
X148745000Y-112308750D01*
X148851250Y-112415000D01*
X149620000Y-112417056D01*
X149703314Y-112408850D01*
X149783427Y-112384548D01*
X149857260Y-112345084D01*
X149921974Y-112291974D01*
X149975084Y-112227260D01*
X150014548Y-112153427D01*
X150038850Y-112073314D01*
X150047056Y-111990000D01*
X150045000Y-111221250D01*
X149938750Y-111115000D01*
X148745000Y-111115000D01*
X148395000Y-111115000D01*
X147201250Y-111115000D01*
X147095000Y-111221250D01*
X147092944Y-111990000D01*
X115400000Y-111990000D01*
X115400000Y-109890000D01*
X147092944Y-109890000D01*
X147095000Y-110658750D01*
X147201250Y-110765000D01*
X148395000Y-110765000D01*
X148395000Y-109571250D01*
X148745000Y-109571250D01*
X148745000Y-110765000D01*
X149938750Y-110765000D01*
X150045000Y-110658750D01*
X150047056Y-109890000D01*
X150038850Y-109806686D01*
X150014548Y-109726573D01*
X149975084Y-109652740D01*
X149921974Y-109588026D01*
X149857260Y-109534916D01*
X149783427Y-109495452D01*
X149703314Y-109471150D01*
X149620000Y-109462944D01*
X148851250Y-109465000D01*
X148745000Y-109571250D01*
X148395000Y-109571250D01*
X148288750Y-109465000D01*
X147520000Y-109462944D01*
X147436686Y-109471150D01*
X147356573Y-109495452D01*
X147282740Y-109534916D01*
X147218026Y-109588026D01*
X147164916Y-109652740D01*
X147125452Y-109726573D01*
X147101150Y-109806686D01*
X147092944Y-109890000D01*
X115400000Y-109890000D01*
X115400000Y-106698669D01*
X163225000Y-106698669D01*
X163225000Y-106851331D01*
X163254783Y-107001059D01*
X163313204Y-107142100D01*
X163398018Y-107269034D01*
X163500001Y-107371017D01*
X163500000Y-111443984D01*
X163398018Y-111545966D01*
X163313204Y-111672900D01*
X163254783Y-111813941D01*
X163225000Y-111963669D01*
X163225000Y-112116331D01*
X163254783Y-112266059D01*
X163313204Y-112407100D01*
X163398018Y-112534034D01*
X163505966Y-112641982D01*
X163632900Y-112726796D01*
X163773941Y-112785217D01*
X163923669Y-112815000D01*
X164076331Y-112815000D01*
X164226059Y-112785217D01*
X164367100Y-112726796D01*
X164494034Y-112641982D01*
X164601982Y-112534034D01*
X164625158Y-112499348D01*
X171235000Y-112499348D01*
X171235000Y-112740652D01*
X171282076Y-112977319D01*
X171374419Y-113200255D01*
X171508481Y-113400892D01*
X171679108Y-113571519D01*
X171879745Y-113705581D01*
X172102681Y-113797924D01*
X172339348Y-113845000D01*
X172580652Y-113845000D01*
X172817319Y-113797924D01*
X173040255Y-113705581D01*
X173240892Y-113571519D01*
X173411519Y-113400892D01*
X173545581Y-113200255D01*
X173637924Y-112977319D01*
X173685000Y-112740652D01*
X173685000Y-112499348D01*
X173775000Y-112499348D01*
X173775000Y-112740652D01*
X173822076Y-112977319D01*
X173914419Y-113200255D01*
X174048481Y-113400892D01*
X174219108Y-113571519D01*
X174419745Y-113705581D01*
X174642681Y-113797924D01*
X174879348Y-113845000D01*
X175120652Y-113845000D01*
X175357319Y-113797924D01*
X175580255Y-113705581D01*
X175780892Y-113571519D01*
X175951519Y-113400892D01*
X176085581Y-113200255D01*
X176177924Y-112977319D01*
X176225000Y-112740652D01*
X176225000Y-112499348D01*
X176177924Y-112262681D01*
X176085581Y-112039745D01*
X175951519Y-111839108D01*
X175780892Y-111668481D01*
X175580255Y-111534419D01*
X175357319Y-111442076D01*
X175120652Y-111395000D01*
X174879348Y-111395000D01*
X174642681Y-111442076D01*
X174419745Y-111534419D01*
X174219108Y-111668481D01*
X174048481Y-111839108D01*
X173914419Y-112039745D01*
X173822076Y-112262681D01*
X173775000Y-112499348D01*
X173685000Y-112499348D01*
X173637924Y-112262681D01*
X173545581Y-112039745D01*
X173411519Y-111839108D01*
X173240892Y-111668481D01*
X173040255Y-111534419D01*
X172817319Y-111442076D01*
X172580652Y-111395000D01*
X172339348Y-111395000D01*
X172102681Y-111442076D01*
X171879745Y-111534419D01*
X171679108Y-111668481D01*
X171508481Y-111839108D01*
X171374419Y-112039745D01*
X171282076Y-112262681D01*
X171235000Y-112499348D01*
X164625158Y-112499348D01*
X164686796Y-112407100D01*
X164745217Y-112266059D01*
X164775000Y-112116331D01*
X164775000Y-111963669D01*
X164745217Y-111813941D01*
X164686796Y-111672900D01*
X164601982Y-111545966D01*
X164500000Y-111443984D01*
X164500000Y-110799650D01*
X166195000Y-110799650D01*
X166195000Y-111080350D01*
X166249762Y-111355657D01*
X166357181Y-111614991D01*
X166513130Y-111848385D01*
X166711615Y-112046870D01*
X166945009Y-112202819D01*
X167204343Y-112310238D01*
X167479650Y-112365000D01*
X167760350Y-112365000D01*
X168035657Y-112310238D01*
X168294991Y-112202819D01*
X168528385Y-112046870D01*
X168726870Y-111848385D01*
X168882819Y-111614991D01*
X168990238Y-111355657D01*
X169045000Y-111080350D01*
X169045000Y-110799650D01*
X168990238Y-110524343D01*
X168882819Y-110265009D01*
X168726870Y-110031615D01*
X168654603Y-109959348D01*
X171235000Y-109959348D01*
X171235000Y-110200652D01*
X171282076Y-110437319D01*
X171374419Y-110660255D01*
X171508481Y-110860892D01*
X171679108Y-111031519D01*
X171879745Y-111165581D01*
X172102681Y-111257924D01*
X172339348Y-111305000D01*
X172580652Y-111305000D01*
X172817319Y-111257924D01*
X173040255Y-111165581D01*
X173240892Y-111031519D01*
X173411519Y-110860892D01*
X173545581Y-110660255D01*
X173637924Y-110437319D01*
X173685000Y-110200652D01*
X173685000Y-109959348D01*
X173775000Y-109959348D01*
X173775000Y-110200652D01*
X173822076Y-110437319D01*
X173914419Y-110660255D01*
X174048481Y-110860892D01*
X174219108Y-111031519D01*
X174419745Y-111165581D01*
X174642681Y-111257924D01*
X174879348Y-111305000D01*
X175120652Y-111305000D01*
X175357319Y-111257924D01*
X175580255Y-111165581D01*
X175780892Y-111031519D01*
X175951519Y-110860892D01*
X176085581Y-110660255D01*
X176177924Y-110437319D01*
X176225000Y-110200652D01*
X176225000Y-109959348D01*
X176177924Y-109722681D01*
X176085581Y-109499745D01*
X175951519Y-109299108D01*
X175780892Y-109128481D01*
X175580255Y-108994419D01*
X175357319Y-108902076D01*
X175120652Y-108855000D01*
X174879348Y-108855000D01*
X174642681Y-108902076D01*
X174419745Y-108994419D01*
X174219108Y-109128481D01*
X174048481Y-109299108D01*
X173914419Y-109499745D01*
X173822076Y-109722681D01*
X173775000Y-109959348D01*
X173685000Y-109959348D01*
X173637924Y-109722681D01*
X173545581Y-109499745D01*
X173411519Y-109299108D01*
X173240892Y-109128481D01*
X173040255Y-108994419D01*
X172817319Y-108902076D01*
X172580652Y-108855000D01*
X172339348Y-108855000D01*
X172102681Y-108902076D01*
X171879745Y-108994419D01*
X171679108Y-109128481D01*
X171508481Y-109299108D01*
X171374419Y-109499745D01*
X171282076Y-109722681D01*
X171235000Y-109959348D01*
X168654603Y-109959348D01*
X168528385Y-109833130D01*
X168294991Y-109677181D01*
X168035657Y-109569762D01*
X167760350Y-109515000D01*
X167479650Y-109515000D01*
X167204343Y-109569762D01*
X166945009Y-109677181D01*
X166711615Y-109833130D01*
X166513130Y-110031615D01*
X166357181Y-110265009D01*
X166249762Y-110524343D01*
X166195000Y-110799650D01*
X164500000Y-110799650D01*
X164500000Y-107423669D01*
X169225000Y-107423669D01*
X169225000Y-107576331D01*
X169254783Y-107726059D01*
X169313204Y-107867100D01*
X169398018Y-107994034D01*
X169505966Y-108101982D01*
X169632900Y-108186796D01*
X169773941Y-108245217D01*
X169923669Y-108275000D01*
X170076331Y-108275000D01*
X170226059Y-108245217D01*
X170367100Y-108186796D01*
X170494034Y-108101982D01*
X170596016Y-108000000D01*
X171324608Y-108000000D01*
X171374419Y-108120255D01*
X171508481Y-108320892D01*
X171679108Y-108491519D01*
X171879745Y-108625581D01*
X172102681Y-108717924D01*
X172339348Y-108765000D01*
X172580652Y-108765000D01*
X172817319Y-108717924D01*
X173040255Y-108625581D01*
X173240892Y-108491519D01*
X173411519Y-108320892D01*
X173545581Y-108120255D01*
X173632500Y-107910412D01*
X173779992Y-107910412D01*
X173875397Y-108140760D01*
X174014208Y-108348616D01*
X174190903Y-108525397D01*
X174398691Y-108664310D01*
X174629587Y-108760016D01*
X174825000Y-108696691D01*
X174825000Y-107715000D01*
X175175000Y-107715000D01*
X175175000Y-108696691D01*
X175370413Y-108760016D01*
X175601309Y-108664310D01*
X175809097Y-108525397D01*
X175985792Y-108348616D01*
X176124603Y-108140760D01*
X176220008Y-107910412D01*
X176155574Y-107715000D01*
X175175000Y-107715000D01*
X174825000Y-107715000D01*
X173844426Y-107715000D01*
X173779992Y-107910412D01*
X173632500Y-107910412D01*
X173637924Y-107897319D01*
X173685000Y-107660652D01*
X173685000Y-107419348D01*
X173637924Y-107182681D01*
X173632501Y-107169588D01*
X173779992Y-107169588D01*
X173844426Y-107365000D01*
X174825000Y-107365000D01*
X174825000Y-106383309D01*
X175175000Y-106383309D01*
X175175000Y-107365000D01*
X176155574Y-107365000D01*
X176220008Y-107169588D01*
X176124603Y-106939240D01*
X175985792Y-106731384D01*
X175809097Y-106554603D01*
X175601309Y-106415690D01*
X175370413Y-106319984D01*
X175175000Y-106383309D01*
X174825000Y-106383309D01*
X174629587Y-106319984D01*
X174398691Y-106415690D01*
X174190903Y-106554603D01*
X174014208Y-106731384D01*
X173875397Y-106939240D01*
X173779992Y-107169588D01*
X173632501Y-107169588D01*
X173545581Y-106959745D01*
X173411519Y-106759108D01*
X173240892Y-106588481D01*
X173040255Y-106454419D01*
X172817319Y-106362076D01*
X172580652Y-106315000D01*
X172339348Y-106315000D01*
X172102681Y-106362076D01*
X171879745Y-106454419D01*
X171679108Y-106588481D01*
X171508481Y-106759108D01*
X171374419Y-106959745D01*
X171357745Y-107000000D01*
X170596016Y-107000000D01*
X170494034Y-106898018D01*
X170367100Y-106813204D01*
X170226059Y-106754783D01*
X170076331Y-106725000D01*
X169923669Y-106725000D01*
X169773941Y-106754783D01*
X169632900Y-106813204D01*
X169505966Y-106898018D01*
X169398018Y-107005966D01*
X169313204Y-107132900D01*
X169254783Y-107273941D01*
X169225000Y-107423669D01*
X164500000Y-107423669D01*
X164500000Y-107371016D01*
X164601982Y-107269034D01*
X164686796Y-107142100D01*
X164745217Y-107001059D01*
X164775000Y-106851331D01*
X164775000Y-106698669D01*
X164745217Y-106548941D01*
X164686796Y-106407900D01*
X164601982Y-106280966D01*
X164494034Y-106173018D01*
X164367100Y-106088204D01*
X164226059Y-106029783D01*
X164076331Y-106000000D01*
X163923669Y-106000000D01*
X163773941Y-106029783D01*
X163632900Y-106088204D01*
X163505966Y-106173018D01*
X163398018Y-106280966D01*
X163313204Y-106407900D01*
X163254783Y-106548941D01*
X163225000Y-106698669D01*
X115400000Y-106698669D01*
X115400000Y-104676840D01*
X141276984Y-104676840D01*
X141276984Y-104829502D01*
X141306767Y-104979230D01*
X141365188Y-105120271D01*
X141450002Y-105247205D01*
X141557950Y-105355153D01*
X141684884Y-105439967D01*
X141825925Y-105498388D01*
X141975653Y-105528171D01*
X142119877Y-105528171D01*
X142177892Y-105586186D01*
X142193549Y-105605264D01*
X142269684Y-105667746D01*
X142356546Y-105714175D01*
X142450796Y-105742765D01*
X142524253Y-105750000D01*
X142524262Y-105750000D01*
X142548812Y-105752418D01*
X142573362Y-105750000D01*
X148903984Y-105750000D01*
X149005966Y-105851982D01*
X149132900Y-105936796D01*
X149273941Y-105995217D01*
X149423669Y-106025000D01*
X149576331Y-106025000D01*
X149726059Y-105995217D01*
X149867100Y-105936796D01*
X149994034Y-105851982D01*
X150101982Y-105744034D01*
X150186796Y-105617100D01*
X150245217Y-105476059D01*
X150275000Y-105326331D01*
X150275000Y-105173669D01*
X150245217Y-105023941D01*
X150186796Y-104882900D01*
X150184423Y-104879348D01*
X171235000Y-104879348D01*
X171235000Y-105120652D01*
X171282076Y-105357319D01*
X171374419Y-105580255D01*
X171508481Y-105780892D01*
X171679108Y-105951519D01*
X171879745Y-106085581D01*
X172102681Y-106177924D01*
X172339348Y-106225000D01*
X172580652Y-106225000D01*
X172817319Y-106177924D01*
X173040255Y-106085581D01*
X173240892Y-105951519D01*
X173411519Y-105780892D01*
X173545581Y-105580255D01*
X173637924Y-105357319D01*
X173685000Y-105120652D01*
X173685000Y-104879348D01*
X173775000Y-104879348D01*
X173775000Y-105120652D01*
X173822076Y-105357319D01*
X173914419Y-105580255D01*
X174048481Y-105780892D01*
X174219108Y-105951519D01*
X174419745Y-106085581D01*
X174642681Y-106177924D01*
X174879348Y-106225000D01*
X175120652Y-106225000D01*
X175357319Y-106177924D01*
X175580255Y-106085581D01*
X175780892Y-105951519D01*
X175951519Y-105780892D01*
X176085581Y-105580255D01*
X176177924Y-105357319D01*
X176225000Y-105120652D01*
X176225000Y-104879348D01*
X176177924Y-104642681D01*
X176085581Y-104419745D01*
X175951519Y-104219108D01*
X175780892Y-104048481D01*
X175580255Y-103914419D01*
X175357319Y-103822076D01*
X175120652Y-103775000D01*
X174879348Y-103775000D01*
X174642681Y-103822076D01*
X174419745Y-103914419D01*
X174219108Y-104048481D01*
X174048481Y-104219108D01*
X173914419Y-104419745D01*
X173822076Y-104642681D01*
X173775000Y-104879348D01*
X173685000Y-104879348D01*
X173637924Y-104642681D01*
X173545581Y-104419745D01*
X173411519Y-104219108D01*
X173240892Y-104048481D01*
X173040255Y-103914419D01*
X172817319Y-103822076D01*
X172580652Y-103775000D01*
X172339348Y-103775000D01*
X172102681Y-103822076D01*
X171879745Y-103914419D01*
X171679108Y-104048481D01*
X171508481Y-104219108D01*
X171374419Y-104419745D01*
X171282076Y-104642681D01*
X171235000Y-104879348D01*
X150184423Y-104879348D01*
X150101982Y-104755966D01*
X149994034Y-104648018D01*
X149867100Y-104563204D01*
X149726059Y-104504783D01*
X149576331Y-104475000D01*
X149423669Y-104475000D01*
X149273941Y-104504783D01*
X149132900Y-104563204D01*
X149005966Y-104648018D01*
X148903984Y-104750000D01*
X142826984Y-104750000D01*
X142826984Y-104676840D01*
X142797201Y-104527112D01*
X142738780Y-104386071D01*
X142653966Y-104259137D01*
X142546018Y-104151189D01*
X142419084Y-104066375D01*
X142278043Y-104007954D01*
X142128315Y-103978171D01*
X141975653Y-103978171D01*
X141825925Y-104007954D01*
X141684884Y-104066375D01*
X141557950Y-104151189D01*
X141450002Y-104259137D01*
X141365188Y-104386071D01*
X141306767Y-104527112D01*
X141276984Y-104676840D01*
X115400000Y-104676840D01*
X115400000Y-102339348D01*
X171235000Y-102339348D01*
X171235000Y-102580652D01*
X171282076Y-102817319D01*
X171374419Y-103040255D01*
X171508481Y-103240892D01*
X171679108Y-103411519D01*
X171879745Y-103545581D01*
X172102681Y-103637924D01*
X172339348Y-103685000D01*
X172580652Y-103685000D01*
X172817319Y-103637924D01*
X173040255Y-103545581D01*
X173240892Y-103411519D01*
X173411519Y-103240892D01*
X173545581Y-103040255D01*
X173632500Y-102830412D01*
X173779992Y-102830412D01*
X173875397Y-103060760D01*
X174014208Y-103268616D01*
X174190903Y-103445397D01*
X174398691Y-103584310D01*
X174629587Y-103680016D01*
X174825000Y-103616691D01*
X174825000Y-102635000D01*
X175175000Y-102635000D01*
X175175000Y-103616691D01*
X175370413Y-103680016D01*
X175601309Y-103584310D01*
X175809097Y-103445397D01*
X175985792Y-103268616D01*
X176124603Y-103060760D01*
X176220008Y-102830412D01*
X176155574Y-102635000D01*
X175175000Y-102635000D01*
X174825000Y-102635000D01*
X173844426Y-102635000D01*
X173779992Y-102830412D01*
X173632500Y-102830412D01*
X173637924Y-102817319D01*
X173685000Y-102580652D01*
X173685000Y-102339348D01*
X173637924Y-102102681D01*
X173632501Y-102089588D01*
X173779992Y-102089588D01*
X173844426Y-102285000D01*
X174825000Y-102285000D01*
X174825000Y-101303309D01*
X175175000Y-101303309D01*
X175175000Y-102285000D01*
X176155574Y-102285000D01*
X176220008Y-102089588D01*
X176124603Y-101859240D01*
X175985792Y-101651384D01*
X175809097Y-101474603D01*
X175601309Y-101335690D01*
X175370413Y-101239984D01*
X175175000Y-101303309D01*
X174825000Y-101303309D01*
X174629587Y-101239984D01*
X174398691Y-101335690D01*
X174190903Y-101474603D01*
X174014208Y-101651384D01*
X173875397Y-101859240D01*
X173779992Y-102089588D01*
X173632501Y-102089588D01*
X173545581Y-101879745D01*
X173411519Y-101679108D01*
X173240892Y-101508481D01*
X173040255Y-101374419D01*
X172817319Y-101282076D01*
X172580652Y-101235000D01*
X172339348Y-101235000D01*
X172102681Y-101282076D01*
X171879745Y-101374419D01*
X171679108Y-101508481D01*
X171508481Y-101679108D01*
X171374419Y-101879745D01*
X171282076Y-102102681D01*
X171235000Y-102339348D01*
X115400000Y-102339348D01*
X115400000Y-99923669D01*
X145875000Y-99923669D01*
X145875000Y-100076331D01*
X145904783Y-100226059D01*
X145963204Y-100367100D01*
X146048018Y-100494034D01*
X146155966Y-100601982D01*
X146282900Y-100686796D01*
X146423941Y-100745217D01*
X146573669Y-100775000D01*
X146726331Y-100775000D01*
X146876059Y-100745217D01*
X147017100Y-100686796D01*
X147144034Y-100601982D01*
X147246016Y-100500000D01*
X148253984Y-100500000D01*
X148355966Y-100601982D01*
X148482900Y-100686796D01*
X148623941Y-100745217D01*
X148773669Y-100775000D01*
X148926331Y-100775000D01*
X149076059Y-100745217D01*
X149217100Y-100686796D01*
X149344034Y-100601982D01*
X149451982Y-100494034D01*
X149536796Y-100367100D01*
X149595217Y-100226059D01*
X149625000Y-100076331D01*
X149625000Y-99936322D01*
X163212347Y-99936322D01*
X163212347Y-100088984D01*
X163242130Y-100238712D01*
X163300551Y-100379753D01*
X163385365Y-100506687D01*
X163493313Y-100614635D01*
X163620247Y-100699449D01*
X163761288Y-100757870D01*
X163911016Y-100787653D01*
X164063678Y-100787653D01*
X164213406Y-100757870D01*
X164354447Y-100699449D01*
X164481381Y-100614635D01*
X164589329Y-100506687D01*
X164674143Y-100379753D01*
X164732564Y-100238712D01*
X164762347Y-100088984D01*
X164762347Y-99944758D01*
X164907757Y-99799348D01*
X171235000Y-99799348D01*
X171235000Y-100040652D01*
X171282076Y-100277319D01*
X171374419Y-100500255D01*
X171508481Y-100700892D01*
X171679108Y-100871519D01*
X171879745Y-101005581D01*
X172102681Y-101097924D01*
X172339348Y-101145000D01*
X172580652Y-101145000D01*
X172817319Y-101097924D01*
X173040255Y-101005581D01*
X173240892Y-100871519D01*
X173411519Y-100700892D01*
X173545581Y-100500255D01*
X173637924Y-100277319D01*
X173685000Y-100040652D01*
X173685000Y-99799348D01*
X173775000Y-99799348D01*
X173775000Y-100040652D01*
X173822076Y-100277319D01*
X173914419Y-100500255D01*
X174048481Y-100700892D01*
X174219108Y-100871519D01*
X174419745Y-101005581D01*
X174642681Y-101097924D01*
X174879348Y-101145000D01*
X175120652Y-101145000D01*
X175357319Y-101097924D01*
X175580255Y-101005581D01*
X175780892Y-100871519D01*
X175951519Y-100700892D01*
X176085581Y-100500255D01*
X176177924Y-100277319D01*
X176225000Y-100040652D01*
X176225000Y-99799348D01*
X176177924Y-99562681D01*
X176085581Y-99339745D01*
X175951519Y-99139108D01*
X175780892Y-98968481D01*
X175580255Y-98834419D01*
X175357319Y-98742076D01*
X175120652Y-98695000D01*
X174879348Y-98695000D01*
X174642681Y-98742076D01*
X174419745Y-98834419D01*
X174219108Y-98968481D01*
X174048481Y-99139108D01*
X173914419Y-99339745D01*
X173822076Y-99562681D01*
X173775000Y-99799348D01*
X173685000Y-99799348D01*
X173637924Y-99562681D01*
X173545581Y-99339745D01*
X173411519Y-99139108D01*
X173240892Y-98968481D01*
X173040255Y-98834419D01*
X172817319Y-98742076D01*
X172580652Y-98695000D01*
X172339348Y-98695000D01*
X172102681Y-98742076D01*
X171879745Y-98834419D01*
X171679108Y-98968481D01*
X171508481Y-99139108D01*
X171374419Y-99339745D01*
X171282076Y-99562681D01*
X171235000Y-99799348D01*
X164907757Y-99799348D01*
X165896333Y-98810773D01*
X165915416Y-98795112D01*
X165977898Y-98718977D01*
X166024327Y-98632115D01*
X166052917Y-98537865D01*
X166060152Y-98464408D01*
X166060152Y-98464407D01*
X166062571Y-98439849D01*
X166060152Y-98415291D01*
X166060152Y-98099650D01*
X166195000Y-98099650D01*
X166195000Y-98380350D01*
X166249762Y-98655657D01*
X166357181Y-98914991D01*
X166513130Y-99148385D01*
X166711615Y-99346870D01*
X166945009Y-99502819D01*
X167204343Y-99610238D01*
X167479650Y-99665000D01*
X167760350Y-99665000D01*
X168035657Y-99610238D01*
X168294991Y-99502819D01*
X168528385Y-99346870D01*
X168726870Y-99148385D01*
X168882819Y-98914991D01*
X168990238Y-98655657D01*
X169045000Y-98380350D01*
X169045000Y-98099650D01*
X168990238Y-97824343D01*
X168959615Y-97750412D01*
X171239992Y-97750412D01*
X171335397Y-97980760D01*
X171474208Y-98188616D01*
X171650903Y-98365397D01*
X171858691Y-98504310D01*
X172089587Y-98600016D01*
X172285000Y-98536691D01*
X172285000Y-97555000D01*
X172635000Y-97555000D01*
X172635000Y-98536691D01*
X172830413Y-98600016D01*
X173061309Y-98504310D01*
X173269097Y-98365397D01*
X173445792Y-98188616D01*
X173584603Y-97980760D01*
X173680008Y-97750412D01*
X173615574Y-97555000D01*
X172635000Y-97555000D01*
X172285000Y-97555000D01*
X171304426Y-97555000D01*
X171239992Y-97750412D01*
X168959615Y-97750412D01*
X168882819Y-97565009D01*
X168726870Y-97331615D01*
X168654603Y-97259348D01*
X173775000Y-97259348D01*
X173775000Y-97500652D01*
X173822076Y-97737319D01*
X173914419Y-97960255D01*
X174048481Y-98160892D01*
X174219108Y-98331519D01*
X174419745Y-98465581D01*
X174642681Y-98557924D01*
X174879348Y-98605000D01*
X175120652Y-98605000D01*
X175357319Y-98557924D01*
X175580255Y-98465581D01*
X175780892Y-98331519D01*
X175951519Y-98160892D01*
X176085581Y-97960255D01*
X176177924Y-97737319D01*
X176225000Y-97500652D01*
X176225000Y-97259348D01*
X176177924Y-97022681D01*
X176085581Y-96799745D01*
X175951519Y-96599108D01*
X175780892Y-96428481D01*
X175580255Y-96294419D01*
X175357319Y-96202076D01*
X175120652Y-96155000D01*
X174879348Y-96155000D01*
X174642681Y-96202076D01*
X174419745Y-96294419D01*
X174219108Y-96428481D01*
X174048481Y-96599108D01*
X173914419Y-96799745D01*
X173822076Y-97022681D01*
X173775000Y-97259348D01*
X168654603Y-97259348D01*
X168528385Y-97133130D01*
X168343492Y-97009588D01*
X171239992Y-97009588D01*
X171304426Y-97205000D01*
X172285000Y-97205000D01*
X172285000Y-96223309D01*
X172635000Y-96223309D01*
X172635000Y-97205000D01*
X173615574Y-97205000D01*
X173680008Y-97009588D01*
X173584603Y-96779240D01*
X173445792Y-96571384D01*
X173269097Y-96394603D01*
X173061309Y-96255690D01*
X172830413Y-96159984D01*
X172635000Y-96223309D01*
X172285000Y-96223309D01*
X172089587Y-96159984D01*
X171858691Y-96255690D01*
X171650903Y-96394603D01*
X171474208Y-96571384D01*
X171335397Y-96779240D01*
X171239992Y-97009588D01*
X168343492Y-97009588D01*
X168294991Y-96977181D01*
X168035657Y-96869762D01*
X167760350Y-96815000D01*
X167479650Y-96815000D01*
X167204343Y-96869762D01*
X166945009Y-96977181D01*
X166711615Y-97133130D01*
X166513130Y-97331615D01*
X166357181Y-97565009D01*
X166249762Y-97824343D01*
X166195000Y-98099650D01*
X166060152Y-98099650D01*
X166060152Y-97785864D01*
X166162134Y-97683882D01*
X166246948Y-97556948D01*
X166305369Y-97415907D01*
X166335152Y-97266179D01*
X166335152Y-97113517D01*
X166305369Y-96963789D01*
X166246948Y-96822748D01*
X166162134Y-96695814D01*
X166054186Y-96587866D01*
X165927252Y-96503052D01*
X165786211Y-96444631D01*
X165636483Y-96414848D01*
X165483821Y-96414848D01*
X165334093Y-96444631D01*
X165193052Y-96503052D01*
X165066118Y-96587866D01*
X164958170Y-96695814D01*
X164873356Y-96822748D01*
X164814935Y-96963789D01*
X164785152Y-97113517D01*
X164785152Y-97266179D01*
X164814935Y-97415907D01*
X164873356Y-97556948D01*
X164958170Y-97683882D01*
X165060152Y-97785864D01*
X165060153Y-98232741D01*
X164055242Y-99237653D01*
X163911016Y-99237653D01*
X163761288Y-99267436D01*
X163620247Y-99325857D01*
X163493313Y-99410671D01*
X163385365Y-99518619D01*
X163300551Y-99645553D01*
X163242130Y-99786594D01*
X163212347Y-99936322D01*
X149625000Y-99936322D01*
X149625000Y-99923669D01*
X149595217Y-99773941D01*
X149536796Y-99632900D01*
X149451982Y-99505966D01*
X149344034Y-99398018D01*
X149217100Y-99313204D01*
X149076059Y-99254783D01*
X148926331Y-99225000D01*
X148773669Y-99225000D01*
X148623941Y-99254783D01*
X148482900Y-99313204D01*
X148355966Y-99398018D01*
X148253984Y-99500000D01*
X147246016Y-99500000D01*
X147144034Y-99398018D01*
X147017100Y-99313204D01*
X146876059Y-99254783D01*
X146726331Y-99225000D01*
X146573669Y-99225000D01*
X146423941Y-99254783D01*
X146282900Y-99313204D01*
X146155966Y-99398018D01*
X146048018Y-99505966D01*
X145963204Y-99632900D01*
X145904783Y-99773941D01*
X145875000Y-99923669D01*
X115400000Y-99923669D01*
X115400000Y-97423669D01*
X160475000Y-97423669D01*
X160475000Y-97576331D01*
X160504783Y-97726059D01*
X160563204Y-97867100D01*
X160648018Y-97994034D01*
X160755966Y-98101982D01*
X160882900Y-98186796D01*
X161023941Y-98245217D01*
X161173669Y-98275000D01*
X161326331Y-98275000D01*
X161476059Y-98245217D01*
X161617100Y-98186796D01*
X161744034Y-98101982D01*
X161851982Y-97994034D01*
X161936796Y-97867100D01*
X161995217Y-97726059D01*
X162025000Y-97576331D01*
X162025000Y-97432105D01*
X163492259Y-95964848D01*
X163636483Y-95964848D01*
X163786211Y-95935065D01*
X163927252Y-95876644D01*
X164054186Y-95791830D01*
X164162134Y-95683882D01*
X164246948Y-95556948D01*
X164305369Y-95415907D01*
X164335152Y-95266179D01*
X164335152Y-95113517D01*
X164305369Y-94963789D01*
X164287087Y-94919650D01*
X166195000Y-94919650D01*
X166195000Y-95200350D01*
X166249762Y-95475657D01*
X166357181Y-95734991D01*
X166513130Y-95968385D01*
X166711615Y-96166870D01*
X166945009Y-96322819D01*
X167204343Y-96430238D01*
X167479650Y-96485000D01*
X167760350Y-96485000D01*
X168035657Y-96430238D01*
X168294991Y-96322819D01*
X168528385Y-96166870D01*
X168726870Y-95968385D01*
X168882819Y-95734991D01*
X168990238Y-95475657D01*
X169045000Y-95200350D01*
X169045000Y-94919650D01*
X169005158Y-94719348D01*
X171235000Y-94719348D01*
X171235000Y-94960652D01*
X171282076Y-95197319D01*
X171374419Y-95420255D01*
X171508481Y-95620892D01*
X171679108Y-95791519D01*
X171879745Y-95925581D01*
X172102681Y-96017924D01*
X172339348Y-96065000D01*
X172580652Y-96065000D01*
X172817319Y-96017924D01*
X173040255Y-95925581D01*
X173240892Y-95791519D01*
X173411519Y-95620892D01*
X173545581Y-95420255D01*
X173637924Y-95197319D01*
X173685000Y-94960652D01*
X173685000Y-94719348D01*
X173775000Y-94719348D01*
X173775000Y-94960652D01*
X173822076Y-95197319D01*
X173914419Y-95420255D01*
X174048481Y-95620892D01*
X174219108Y-95791519D01*
X174419745Y-95925581D01*
X174642681Y-96017924D01*
X174879348Y-96065000D01*
X175120652Y-96065000D01*
X175357319Y-96017924D01*
X175580255Y-95925581D01*
X175780892Y-95791519D01*
X175951519Y-95620892D01*
X176085581Y-95420255D01*
X176177924Y-95197319D01*
X176225000Y-94960652D01*
X176225000Y-94719348D01*
X176177924Y-94482681D01*
X176085581Y-94259745D01*
X175951519Y-94059108D01*
X175780892Y-93888481D01*
X175580255Y-93754419D01*
X175357319Y-93662076D01*
X175120652Y-93615000D01*
X174879348Y-93615000D01*
X174642681Y-93662076D01*
X174419745Y-93754419D01*
X174219108Y-93888481D01*
X174048481Y-94059108D01*
X173914419Y-94259745D01*
X173822076Y-94482681D01*
X173775000Y-94719348D01*
X173685000Y-94719348D01*
X173637924Y-94482681D01*
X173545581Y-94259745D01*
X173411519Y-94059108D01*
X173240892Y-93888481D01*
X173040255Y-93754419D01*
X172817319Y-93662076D01*
X172580652Y-93615000D01*
X172339348Y-93615000D01*
X172102681Y-93662076D01*
X171879745Y-93754419D01*
X171679108Y-93888481D01*
X171508481Y-94059108D01*
X171374419Y-94259745D01*
X171282076Y-94482681D01*
X171235000Y-94719348D01*
X169005158Y-94719348D01*
X168990238Y-94644343D01*
X168882819Y-94385009D01*
X168726870Y-94151615D01*
X168528385Y-93953130D01*
X168294991Y-93797181D01*
X168035657Y-93689762D01*
X167760350Y-93635000D01*
X167479650Y-93635000D01*
X167204343Y-93689762D01*
X166945009Y-93797181D01*
X166711615Y-93953130D01*
X166513130Y-94151615D01*
X166357181Y-94385009D01*
X166249762Y-94644343D01*
X166195000Y-94919650D01*
X164287087Y-94919650D01*
X164246948Y-94822748D01*
X164162134Y-94695814D01*
X164054186Y-94587866D01*
X163927252Y-94503052D01*
X163786211Y-94444631D01*
X163636483Y-94414848D01*
X163483821Y-94414848D01*
X163334093Y-94444631D01*
X163193052Y-94503052D01*
X163066118Y-94587866D01*
X162958170Y-94695814D01*
X162873356Y-94822748D01*
X162814935Y-94963789D01*
X162785152Y-95113517D01*
X162785152Y-95257741D01*
X161317895Y-96725000D01*
X161173669Y-96725000D01*
X161023941Y-96754783D01*
X160882900Y-96813204D01*
X160755966Y-96898018D01*
X160648018Y-97005966D01*
X160563204Y-97132900D01*
X160504783Y-97273941D01*
X160475000Y-97423669D01*
X115400000Y-97423669D01*
X115400000Y-95423669D01*
X121625000Y-95423669D01*
X121625000Y-95576331D01*
X121654783Y-95726059D01*
X121713204Y-95867100D01*
X121798018Y-95994034D01*
X121905966Y-96101982D01*
X122032900Y-96186796D01*
X122173941Y-96245217D01*
X122323669Y-96275000D01*
X122476331Y-96275000D01*
X122626059Y-96245217D01*
X122767100Y-96186796D01*
X122894034Y-96101982D01*
X122996016Y-96000000D01*
X124153984Y-96000000D01*
X124255966Y-96101982D01*
X124382900Y-96186796D01*
X124523941Y-96245217D01*
X124673669Y-96275000D01*
X124826331Y-96275000D01*
X124976059Y-96245217D01*
X125117100Y-96186796D01*
X125244034Y-96101982D01*
X125351982Y-95994034D01*
X125436796Y-95867100D01*
X125495217Y-95726059D01*
X125525000Y-95576331D01*
X125525000Y-95423669D01*
X125495217Y-95273941D01*
X125436796Y-95132900D01*
X125351982Y-95005966D01*
X125244034Y-94898018D01*
X125117100Y-94813204D01*
X124976059Y-94754783D01*
X124826331Y-94725000D01*
X124673669Y-94725000D01*
X124523941Y-94754783D01*
X124382900Y-94813204D01*
X124255966Y-94898018D01*
X124153984Y-95000000D01*
X122996016Y-95000000D01*
X122894034Y-94898018D01*
X122767100Y-94813204D01*
X122626059Y-94754783D01*
X122476331Y-94725000D01*
X122323669Y-94725000D01*
X122173941Y-94754783D01*
X122032900Y-94813204D01*
X121905966Y-94898018D01*
X121798018Y-95005966D01*
X121713204Y-95132900D01*
X121654783Y-95273941D01*
X121625000Y-95423669D01*
X115400000Y-95423669D01*
X115400000Y-94423669D01*
X129725000Y-94423669D01*
X129725000Y-94576331D01*
X129754783Y-94726059D01*
X129813204Y-94867100D01*
X129898018Y-94994034D01*
X130005966Y-95101982D01*
X130132900Y-95186796D01*
X130273941Y-95245217D01*
X130423669Y-95275000D01*
X130450010Y-95275000D01*
X130450010Y-95326331D01*
X130479793Y-95476059D01*
X130538214Y-95617100D01*
X130623028Y-95744034D01*
X130730976Y-95851982D01*
X130857910Y-95936796D01*
X130998951Y-95995217D01*
X131148679Y-96025000D01*
X131301341Y-96025000D01*
X131451069Y-95995217D01*
X131592110Y-95936796D01*
X131719044Y-95851982D01*
X131821026Y-95750000D01*
X132828994Y-95750000D01*
X132930976Y-95851982D01*
X133057910Y-95936796D01*
X133198951Y-95995217D01*
X133348679Y-96025000D01*
X133501341Y-96025000D01*
X133651069Y-95995217D01*
X133792110Y-95936796D01*
X133919044Y-95851982D01*
X134026992Y-95744034D01*
X134111806Y-95617100D01*
X134170227Y-95476059D01*
X134200010Y-95326331D01*
X134200010Y-95173669D01*
X134170227Y-95023941D01*
X134111806Y-94882900D01*
X134026992Y-94755966D01*
X134021025Y-94749999D01*
X134026992Y-94744031D01*
X134111806Y-94617097D01*
X134170227Y-94476056D01*
X134200010Y-94326328D01*
X134200010Y-94173666D01*
X134189130Y-94118968D01*
X137892948Y-94118968D01*
X137892948Y-94271630D01*
X137922731Y-94421358D01*
X137981152Y-94562399D01*
X138065966Y-94689333D01*
X138173914Y-94797281D01*
X138300848Y-94882095D01*
X138441889Y-94940516D01*
X138591617Y-94970299D01*
X138744279Y-94970299D01*
X138753281Y-94968508D01*
X138754783Y-94976059D01*
X138813204Y-95117100D01*
X138898018Y-95244034D01*
X139005966Y-95351982D01*
X139132900Y-95436796D01*
X139273941Y-95495217D01*
X139352998Y-95510943D01*
X139288214Y-95607900D01*
X139229793Y-95748941D01*
X139200010Y-95898669D01*
X139200010Y-96051331D01*
X139229793Y-96201059D01*
X139288214Y-96342100D01*
X139373028Y-96469034D01*
X139480976Y-96576982D01*
X139607910Y-96661796D01*
X139748951Y-96720217D01*
X139898679Y-96750000D01*
X140051341Y-96750000D01*
X140201069Y-96720217D01*
X140342110Y-96661796D01*
X140469044Y-96576982D01*
X140571026Y-96475000D01*
X141560310Y-96475000D01*
X141573028Y-96494034D01*
X141680976Y-96601982D01*
X141807910Y-96686796D01*
X141948951Y-96745217D01*
X142098679Y-96775000D01*
X142251341Y-96775000D01*
X142401069Y-96745217D01*
X142542110Y-96686796D01*
X142669044Y-96601982D01*
X142776992Y-96494034D01*
X142861806Y-96367100D01*
X142920227Y-96226059D01*
X142950010Y-96076331D01*
X142950010Y-95923669D01*
X142920227Y-95773941D01*
X142861806Y-95632900D01*
X142776992Y-95505966D01*
X142671484Y-95400458D01*
X142744034Y-95351982D01*
X142851982Y-95244034D01*
X142936796Y-95117100D01*
X142995217Y-94976059D01*
X143025000Y-94826331D01*
X143025000Y-94673669D01*
X142995217Y-94523941D01*
X142936796Y-94382900D01*
X142851982Y-94255966D01*
X142846016Y-94250000D01*
X142851982Y-94244034D01*
X142936796Y-94117100D01*
X142995217Y-93976059D01*
X143025000Y-93826331D01*
X143025000Y-93673669D01*
X144975000Y-93673669D01*
X144975000Y-93826331D01*
X145004783Y-93976059D01*
X145063204Y-94117100D01*
X145148018Y-94244034D01*
X145153984Y-94250000D01*
X145148018Y-94255966D01*
X145063204Y-94382900D01*
X145004783Y-94523941D01*
X144975000Y-94673669D01*
X144975000Y-94826331D01*
X145004783Y-94976059D01*
X145063204Y-95117100D01*
X145148018Y-95244034D01*
X145255966Y-95351982D01*
X145290415Y-95375000D01*
X145255966Y-95398018D01*
X145148018Y-95505966D01*
X145063204Y-95632900D01*
X145004783Y-95773941D01*
X144975000Y-95923669D01*
X144975000Y-96076331D01*
X145004783Y-96226059D01*
X145063204Y-96367100D01*
X145148018Y-96494034D01*
X145255966Y-96601982D01*
X145382900Y-96686796D01*
X145523941Y-96745217D01*
X145673669Y-96775000D01*
X145826331Y-96775000D01*
X145976059Y-96745217D01*
X146117100Y-96686796D01*
X146244034Y-96601982D01*
X146346016Y-96500000D01*
X148403984Y-96500000D01*
X148505966Y-96601982D01*
X148632900Y-96686796D01*
X148773941Y-96745217D01*
X148923669Y-96775000D01*
X149076331Y-96775000D01*
X149226059Y-96745217D01*
X149367100Y-96686796D01*
X149494034Y-96601982D01*
X149601982Y-96494034D01*
X149686796Y-96367100D01*
X149745217Y-96226059D01*
X149775000Y-96076331D01*
X149775000Y-95923669D01*
X158975000Y-95923669D01*
X158975000Y-96076331D01*
X159004783Y-96226059D01*
X159063204Y-96367100D01*
X159148018Y-96494034D01*
X159255966Y-96601982D01*
X159382900Y-96686796D01*
X159523941Y-96745217D01*
X159673669Y-96775000D01*
X159826331Y-96775000D01*
X159976059Y-96745217D01*
X160117100Y-96686796D01*
X160244034Y-96601982D01*
X160351982Y-96494034D01*
X160436796Y-96367100D01*
X160495217Y-96226059D01*
X160525000Y-96076331D01*
X160525000Y-95932105D01*
X161992259Y-94464848D01*
X162136483Y-94464848D01*
X162286211Y-94435065D01*
X162427252Y-94376644D01*
X162554186Y-94291830D01*
X162662134Y-94183882D01*
X162746948Y-94056948D01*
X162805369Y-93915907D01*
X162835152Y-93766179D01*
X162835152Y-93613517D01*
X162805369Y-93463789D01*
X162746948Y-93322748D01*
X162662134Y-93195814D01*
X162554186Y-93087866D01*
X162427252Y-93003052D01*
X162286211Y-92944631D01*
X162136483Y-92914848D01*
X161983821Y-92914848D01*
X161834093Y-92944631D01*
X161693052Y-93003052D01*
X161566118Y-93087866D01*
X161458170Y-93195814D01*
X161373356Y-93322748D01*
X161314935Y-93463789D01*
X161285152Y-93613517D01*
X161285152Y-93757741D01*
X159817895Y-95225000D01*
X159673669Y-95225000D01*
X159523941Y-95254783D01*
X159382900Y-95313204D01*
X159255966Y-95398018D01*
X159148018Y-95505966D01*
X159063204Y-95632900D01*
X159004783Y-95773941D01*
X158975000Y-95923669D01*
X149775000Y-95923669D01*
X149745217Y-95773941D01*
X149686796Y-95632900D01*
X149601982Y-95505966D01*
X149494034Y-95398018D01*
X149459585Y-95375000D01*
X149494034Y-95351982D01*
X149601982Y-95244034D01*
X149686796Y-95117100D01*
X149745217Y-94976059D01*
X149775000Y-94826331D01*
X149775000Y-94673669D01*
X149745217Y-94523941D01*
X149686796Y-94382900D01*
X149601982Y-94255966D01*
X149596016Y-94250000D01*
X149601982Y-94244034D01*
X149686796Y-94117100D01*
X149745217Y-93976059D01*
X149775000Y-93826331D01*
X149775000Y-93673669D01*
X149745217Y-93523941D01*
X149686796Y-93382900D01*
X149601982Y-93255966D01*
X149494034Y-93148018D01*
X149367100Y-93063204D01*
X149226059Y-93004783D01*
X149076331Y-92975000D01*
X148923669Y-92975000D01*
X148773941Y-93004783D01*
X148632900Y-93063204D01*
X148505966Y-93148018D01*
X148403984Y-93250000D01*
X146346016Y-93250000D01*
X146244034Y-93148018D01*
X146117100Y-93063204D01*
X145976059Y-93004783D01*
X145826331Y-92975000D01*
X145673669Y-92975000D01*
X145523941Y-93004783D01*
X145382900Y-93063204D01*
X145255966Y-93148018D01*
X145148018Y-93255966D01*
X145063204Y-93382900D01*
X145004783Y-93523941D01*
X144975000Y-93673669D01*
X143025000Y-93673669D01*
X142995217Y-93523941D01*
X142936796Y-93382900D01*
X142851982Y-93255966D01*
X142744034Y-93148018D01*
X142617100Y-93063204D01*
X142476059Y-93004783D01*
X142326331Y-92975000D01*
X142173669Y-92975000D01*
X142023941Y-93004783D01*
X141882900Y-93063204D01*
X141755966Y-93148018D01*
X141653984Y-93250000D01*
X139137807Y-93250000D01*
X139113247Y-93247581D01*
X139073265Y-93251519D01*
X139015230Y-93257235D01*
X138920980Y-93285825D01*
X138834118Y-93332254D01*
X138757983Y-93394736D01*
X138742326Y-93413814D01*
X138735841Y-93420299D01*
X138591617Y-93420299D01*
X138441889Y-93450082D01*
X138300848Y-93508503D01*
X138173914Y-93593317D01*
X138065966Y-93701265D01*
X137981152Y-93828199D01*
X137922731Y-93969240D01*
X137892948Y-94118968D01*
X134189130Y-94118968D01*
X134170227Y-94023938D01*
X134111806Y-93882897D01*
X134026992Y-93755963D01*
X133919044Y-93648015D01*
X133792110Y-93563201D01*
X133651069Y-93504780D01*
X133501341Y-93474997D01*
X133348679Y-93474997D01*
X133198951Y-93504780D01*
X133057910Y-93563201D01*
X132930976Y-93648015D01*
X132823028Y-93755963D01*
X132738214Y-93882897D01*
X132689708Y-94000000D01*
X131096016Y-94000000D01*
X130994034Y-93898018D01*
X130867100Y-93813204D01*
X130726059Y-93754783D01*
X130576331Y-93725000D01*
X130423669Y-93725000D01*
X130273941Y-93754783D01*
X130132900Y-93813204D01*
X130005966Y-93898018D01*
X129898018Y-94005966D01*
X129813204Y-94132900D01*
X129754783Y-94273941D01*
X129725000Y-94423669D01*
X115400000Y-94423669D01*
X115400000Y-91739650D01*
X166205000Y-91739650D01*
X166205000Y-92020350D01*
X166259762Y-92295657D01*
X166367181Y-92554991D01*
X166523130Y-92788385D01*
X166721615Y-92986870D01*
X166955009Y-93142819D01*
X167214343Y-93250238D01*
X167489650Y-93305000D01*
X167770350Y-93305000D01*
X168045657Y-93250238D01*
X168304991Y-93142819D01*
X168538385Y-92986870D01*
X168736870Y-92788385D01*
X168892819Y-92554991D01*
X169000238Y-92295657D01*
X169023373Y-92179348D01*
X171235000Y-92179348D01*
X171235000Y-92420652D01*
X171282076Y-92657319D01*
X171374419Y-92880255D01*
X171508481Y-93080892D01*
X171679108Y-93251519D01*
X171879745Y-93385581D01*
X172102681Y-93477924D01*
X172339348Y-93525000D01*
X172580652Y-93525000D01*
X172817319Y-93477924D01*
X173040255Y-93385581D01*
X173240892Y-93251519D01*
X173411519Y-93080892D01*
X173545581Y-92880255D01*
X173637924Y-92657319D01*
X173685000Y-92420652D01*
X173685000Y-92179348D01*
X173775000Y-92179348D01*
X173775000Y-92420652D01*
X173822076Y-92657319D01*
X173914419Y-92880255D01*
X174048481Y-93080892D01*
X174219108Y-93251519D01*
X174419745Y-93385581D01*
X174642681Y-93477924D01*
X174879348Y-93525000D01*
X175120652Y-93525000D01*
X175357319Y-93477924D01*
X175580255Y-93385581D01*
X175780892Y-93251519D01*
X175951519Y-93080892D01*
X176085581Y-92880255D01*
X176177924Y-92657319D01*
X176225000Y-92420652D01*
X176225000Y-92179348D01*
X176177924Y-91942681D01*
X176085581Y-91719745D01*
X175951519Y-91519108D01*
X175780892Y-91348481D01*
X175580255Y-91214419D01*
X175357319Y-91122076D01*
X175120652Y-91075000D01*
X174879348Y-91075000D01*
X174642681Y-91122076D01*
X174419745Y-91214419D01*
X174219108Y-91348481D01*
X174048481Y-91519108D01*
X173914419Y-91719745D01*
X173822076Y-91942681D01*
X173775000Y-92179348D01*
X173685000Y-92179348D01*
X173637924Y-91942681D01*
X173545581Y-91719745D01*
X173411519Y-91519108D01*
X173240892Y-91348481D01*
X173040255Y-91214419D01*
X172817319Y-91122076D01*
X172580652Y-91075000D01*
X172339348Y-91075000D01*
X172102681Y-91122076D01*
X171879745Y-91214419D01*
X171679108Y-91348481D01*
X171508481Y-91519108D01*
X171374419Y-91719745D01*
X171282076Y-91942681D01*
X171235000Y-92179348D01*
X169023373Y-92179348D01*
X169055000Y-92020350D01*
X169055000Y-91739650D01*
X169000238Y-91464343D01*
X168892819Y-91205009D01*
X168736870Y-90971615D01*
X168538385Y-90773130D01*
X168304991Y-90617181D01*
X168045657Y-90509762D01*
X167770350Y-90455000D01*
X167489650Y-90455000D01*
X167214343Y-90509762D01*
X166955009Y-90617181D01*
X166721615Y-90773130D01*
X166523130Y-90971615D01*
X166367181Y-91205009D01*
X166259762Y-91464343D01*
X166205000Y-91739650D01*
X115400000Y-91739650D01*
X115400000Y-89639348D01*
X171235000Y-89639348D01*
X171235000Y-89880652D01*
X171282076Y-90117319D01*
X171374419Y-90340255D01*
X171508481Y-90540892D01*
X171679108Y-90711519D01*
X171879745Y-90845581D01*
X172102681Y-90937924D01*
X172339348Y-90985000D01*
X172580652Y-90985000D01*
X172817319Y-90937924D01*
X173040255Y-90845581D01*
X173240892Y-90711519D01*
X173411519Y-90540892D01*
X173545581Y-90340255D01*
X173632500Y-90130412D01*
X173779992Y-90130412D01*
X173875397Y-90360760D01*
X174014208Y-90568616D01*
X174190903Y-90745397D01*
X174398691Y-90884310D01*
X174629587Y-90980016D01*
X174825000Y-90916691D01*
X174825000Y-89935000D01*
X175175000Y-89935000D01*
X175175000Y-90916691D01*
X175370413Y-90980016D01*
X175601309Y-90884310D01*
X175809097Y-90745397D01*
X175985792Y-90568616D01*
X176124603Y-90360760D01*
X176220008Y-90130412D01*
X176155574Y-89935000D01*
X175175000Y-89935000D01*
X174825000Y-89935000D01*
X173844426Y-89935000D01*
X173779992Y-90130412D01*
X173632500Y-90130412D01*
X173637924Y-90117319D01*
X173685000Y-89880652D01*
X173685000Y-89639348D01*
X173637924Y-89402681D01*
X173632501Y-89389588D01*
X173779992Y-89389588D01*
X173844426Y-89585000D01*
X174825000Y-89585000D01*
X174825000Y-88603309D01*
X175175000Y-88603309D01*
X175175000Y-89585000D01*
X176155574Y-89585000D01*
X176220008Y-89389588D01*
X176124603Y-89159240D01*
X175985792Y-88951384D01*
X175809097Y-88774603D01*
X175601309Y-88635690D01*
X175370413Y-88539984D01*
X175175000Y-88603309D01*
X174825000Y-88603309D01*
X174629587Y-88539984D01*
X174398691Y-88635690D01*
X174190903Y-88774603D01*
X174014208Y-88951384D01*
X173875397Y-89159240D01*
X173779992Y-89389588D01*
X173632501Y-89389588D01*
X173545581Y-89179745D01*
X173411519Y-88979108D01*
X173240892Y-88808481D01*
X173040255Y-88674419D01*
X172817319Y-88582076D01*
X172580652Y-88535000D01*
X172339348Y-88535000D01*
X172102681Y-88582076D01*
X171879745Y-88674419D01*
X171679108Y-88808481D01*
X171508481Y-88979108D01*
X171374419Y-89179745D01*
X171282076Y-89402681D01*
X171235000Y-89639348D01*
X115400000Y-89639348D01*
X115400000Y-87099348D01*
X171235000Y-87099348D01*
X171235000Y-87340652D01*
X171282076Y-87577319D01*
X171374419Y-87800255D01*
X171508481Y-88000892D01*
X171679108Y-88171519D01*
X171879745Y-88305581D01*
X172102681Y-88397924D01*
X172339348Y-88445000D01*
X172580652Y-88445000D01*
X172817319Y-88397924D01*
X173040255Y-88305581D01*
X173240892Y-88171519D01*
X173411519Y-88000892D01*
X173545581Y-87800255D01*
X173637924Y-87577319D01*
X173685000Y-87340652D01*
X173685000Y-87099348D01*
X173775000Y-87099348D01*
X173775000Y-87340652D01*
X173822076Y-87577319D01*
X173914419Y-87800255D01*
X174048481Y-88000892D01*
X174219108Y-88171519D01*
X174419745Y-88305581D01*
X174642681Y-88397924D01*
X174879348Y-88445000D01*
X175120652Y-88445000D01*
X175357319Y-88397924D01*
X175580255Y-88305581D01*
X175780892Y-88171519D01*
X175951519Y-88000892D01*
X176085581Y-87800255D01*
X176177924Y-87577319D01*
X176225000Y-87340652D01*
X176225000Y-87099348D01*
X176177924Y-86862681D01*
X176085581Y-86639745D01*
X175951519Y-86439108D01*
X175780892Y-86268481D01*
X175580255Y-86134419D01*
X175357319Y-86042076D01*
X175120652Y-85995000D01*
X174879348Y-85995000D01*
X174642681Y-86042076D01*
X174419745Y-86134419D01*
X174219108Y-86268481D01*
X174048481Y-86439108D01*
X173914419Y-86639745D01*
X173822076Y-86862681D01*
X173775000Y-87099348D01*
X173685000Y-87099348D01*
X173637924Y-86862681D01*
X173545581Y-86639745D01*
X173411519Y-86439108D01*
X173240892Y-86268481D01*
X173040255Y-86134419D01*
X172817319Y-86042076D01*
X172580652Y-85995000D01*
X172339348Y-85995000D01*
X172102681Y-86042076D01*
X171879745Y-86134419D01*
X171679108Y-86268481D01*
X171508481Y-86439108D01*
X171374419Y-86639745D01*
X171282076Y-86862681D01*
X171235000Y-87099348D01*
X115400000Y-87099348D01*
X115400000Y-84559348D01*
X171235000Y-84559348D01*
X171235000Y-84800652D01*
X171282076Y-85037319D01*
X171374419Y-85260255D01*
X171508481Y-85460892D01*
X171679108Y-85631519D01*
X171879745Y-85765581D01*
X172102681Y-85857924D01*
X172339348Y-85905000D01*
X172580652Y-85905000D01*
X172817319Y-85857924D01*
X173040255Y-85765581D01*
X173240892Y-85631519D01*
X173411519Y-85460892D01*
X173545581Y-85260255D01*
X173637924Y-85037319D01*
X173685000Y-84800652D01*
X173685000Y-84559348D01*
X173775000Y-84559348D01*
X173775000Y-84800652D01*
X173822076Y-85037319D01*
X173914419Y-85260255D01*
X174048481Y-85460892D01*
X174219108Y-85631519D01*
X174419745Y-85765581D01*
X174642681Y-85857924D01*
X174879348Y-85905000D01*
X175120652Y-85905000D01*
X175357319Y-85857924D01*
X175580255Y-85765581D01*
X175780892Y-85631519D01*
X175951519Y-85460892D01*
X176085581Y-85260255D01*
X176177924Y-85037319D01*
X176225000Y-84800652D01*
X176225000Y-84559348D01*
X176177924Y-84322681D01*
X176085581Y-84099745D01*
X175951519Y-83899108D01*
X175780892Y-83728481D01*
X175580255Y-83594419D01*
X175357319Y-83502076D01*
X175120652Y-83455000D01*
X174879348Y-83455000D01*
X174642681Y-83502076D01*
X174419745Y-83594419D01*
X174219108Y-83728481D01*
X174048481Y-83899108D01*
X173914419Y-84099745D01*
X173822076Y-84322681D01*
X173775000Y-84559348D01*
X173685000Y-84559348D01*
X173637924Y-84322681D01*
X173545581Y-84099745D01*
X173411519Y-83899108D01*
X173240892Y-83728481D01*
X173040255Y-83594419D01*
X172817319Y-83502076D01*
X172580652Y-83455000D01*
X172339348Y-83455000D01*
X172102681Y-83502076D01*
X171879745Y-83594419D01*
X171679108Y-83728481D01*
X171508481Y-83899108D01*
X171374419Y-84099745D01*
X171282076Y-84322681D01*
X171235000Y-84559348D01*
X115400000Y-84559348D01*
X115400000Y-81673669D01*
X164225000Y-81673669D01*
X164225000Y-81826331D01*
X164254783Y-81976059D01*
X164313204Y-82117100D01*
X164398018Y-82244034D01*
X164505966Y-82351982D01*
X164632900Y-82436796D01*
X164773941Y-82495217D01*
X164923669Y-82525000D01*
X165076331Y-82525000D01*
X165226059Y-82495217D01*
X165367100Y-82436796D01*
X165494034Y-82351982D01*
X165601982Y-82244034D01*
X165686796Y-82117100D01*
X165745217Y-81976059D01*
X165775000Y-81826331D01*
X165775000Y-81682106D01*
X166182106Y-81275001D01*
X171592588Y-81275001D01*
X171508481Y-81359108D01*
X171374419Y-81559745D01*
X171282076Y-81782681D01*
X171235000Y-82019348D01*
X171235000Y-82260652D01*
X171282076Y-82497319D01*
X171374419Y-82720255D01*
X171508481Y-82920892D01*
X171679108Y-83091519D01*
X171879745Y-83225581D01*
X172102681Y-83317924D01*
X172339348Y-83365000D01*
X172580652Y-83365000D01*
X172817319Y-83317924D01*
X173040255Y-83225581D01*
X173240892Y-83091519D01*
X173411519Y-82920892D01*
X173545581Y-82720255D01*
X173632500Y-82510412D01*
X173779992Y-82510412D01*
X173875397Y-82740760D01*
X174014208Y-82948616D01*
X174190903Y-83125397D01*
X174398691Y-83264310D01*
X174629587Y-83360016D01*
X174825000Y-83296691D01*
X174825000Y-82315000D01*
X175175000Y-82315000D01*
X175175000Y-83296691D01*
X175370413Y-83360016D01*
X175601309Y-83264310D01*
X175809097Y-83125397D01*
X175985792Y-82948616D01*
X176124603Y-82740760D01*
X176220008Y-82510412D01*
X176155574Y-82315000D01*
X175175000Y-82315000D01*
X174825000Y-82315000D01*
X173844426Y-82315000D01*
X173779992Y-82510412D01*
X173632500Y-82510412D01*
X173637924Y-82497319D01*
X173685000Y-82260652D01*
X173685000Y-82019348D01*
X173637924Y-81782681D01*
X173632501Y-81769588D01*
X173779992Y-81769588D01*
X173844426Y-81965000D01*
X174825000Y-81965000D01*
X174825000Y-80983309D01*
X175175000Y-80983309D01*
X175175000Y-81965000D01*
X176155574Y-81965000D01*
X176220008Y-81769588D01*
X176124603Y-81539240D01*
X175985792Y-81331384D01*
X175809097Y-81154603D01*
X175601309Y-81015690D01*
X175370413Y-80919984D01*
X175175000Y-80983309D01*
X174825000Y-80983309D01*
X174629587Y-80919984D01*
X174398691Y-81015690D01*
X174190903Y-81154603D01*
X174014208Y-81331384D01*
X173875397Y-81539240D01*
X173779992Y-81769588D01*
X173632501Y-81769588D01*
X173545581Y-81559745D01*
X173411519Y-81359108D01*
X173327412Y-81275001D01*
X173800439Y-81275001D01*
X173824999Y-81277420D01*
X173849559Y-81275001D01*
X173923016Y-81267766D01*
X174017266Y-81239176D01*
X174104128Y-81192747D01*
X174180263Y-81130265D01*
X174195928Y-81111177D01*
X174520920Y-80786186D01*
X174520924Y-80786181D01*
X174562424Y-80744681D01*
X174642681Y-80777924D01*
X174879348Y-80825000D01*
X175120652Y-80825000D01*
X175357319Y-80777924D01*
X175580255Y-80685581D01*
X175780892Y-80551519D01*
X175951519Y-80380892D01*
X176085581Y-80180255D01*
X176177924Y-79957319D01*
X176225000Y-79720652D01*
X176225000Y-79479348D01*
X176177924Y-79242681D01*
X176085581Y-79019745D01*
X175951519Y-78819108D01*
X175780892Y-78648481D01*
X175580255Y-78514419D01*
X175357319Y-78422076D01*
X175120652Y-78375000D01*
X174879348Y-78375000D01*
X174642681Y-78422076D01*
X174419745Y-78514419D01*
X174219108Y-78648481D01*
X174048481Y-78819108D01*
X173914419Y-79019745D01*
X173822076Y-79242681D01*
X173775000Y-79479348D01*
X173775000Y-79720652D01*
X173822076Y-79957319D01*
X173855319Y-80037576D01*
X173813819Y-80079076D01*
X173813814Y-80079080D01*
X173617894Y-80275001D01*
X173482273Y-80275001D01*
X173545581Y-80180255D01*
X173637924Y-79957319D01*
X173685000Y-79720652D01*
X173685000Y-79479348D01*
X173637924Y-79242681D01*
X173545581Y-79019745D01*
X173411519Y-78819108D01*
X173240892Y-78648481D01*
X173040255Y-78514419D01*
X172817319Y-78422076D01*
X172580652Y-78375000D01*
X172339348Y-78375000D01*
X172102681Y-78422076D01*
X171879745Y-78514419D01*
X171679108Y-78648481D01*
X171508481Y-78819108D01*
X171374419Y-79019745D01*
X171282076Y-79242681D01*
X171235000Y-79479348D01*
X171235000Y-79720652D01*
X171282076Y-79957319D01*
X171374419Y-80180255D01*
X171437727Y-80275001D01*
X165999559Y-80275001D01*
X165974999Y-80272582D01*
X165950439Y-80275001D01*
X165876982Y-80282236D01*
X165782732Y-80310826D01*
X165695870Y-80357255D01*
X165619735Y-80419737D01*
X165604079Y-80438814D01*
X165067894Y-80975000D01*
X164923669Y-80975000D01*
X164773941Y-81004783D01*
X164632900Y-81063204D01*
X164505966Y-81148018D01*
X164398018Y-81255966D01*
X164313204Y-81382900D01*
X164254783Y-81523941D01*
X164225000Y-81673669D01*
X115400000Y-81673669D01*
X115400000Y-78423669D01*
X145725000Y-78423669D01*
X145725000Y-78576331D01*
X145754783Y-78726059D01*
X145813204Y-78867100D01*
X145898018Y-78994034D01*
X146005966Y-79101982D01*
X146132900Y-79186796D01*
X146273941Y-79245217D01*
X146423669Y-79275000D01*
X146576331Y-79275000D01*
X146726059Y-79245217D01*
X146867100Y-79186796D01*
X146994034Y-79101982D01*
X147101982Y-78994034D01*
X147186796Y-78867100D01*
X147245217Y-78726059D01*
X147275000Y-78576331D01*
X147275000Y-78423669D01*
X147245217Y-78273941D01*
X147186796Y-78132900D01*
X147101982Y-78005966D01*
X147000000Y-77903984D01*
X147000000Y-77430412D01*
X171239992Y-77430412D01*
X171335397Y-77660760D01*
X171474208Y-77868616D01*
X171650903Y-78045397D01*
X171858691Y-78184310D01*
X172089587Y-78280016D01*
X172285000Y-78216691D01*
X172285000Y-77235000D01*
X172635000Y-77235000D01*
X172635000Y-78216691D01*
X172830413Y-78280016D01*
X173061309Y-78184310D01*
X173269097Y-78045397D01*
X173445792Y-77868616D01*
X173584603Y-77660760D01*
X173680008Y-77430412D01*
X173615574Y-77235000D01*
X172635000Y-77235000D01*
X172285000Y-77235000D01*
X171304426Y-77235000D01*
X171239992Y-77430412D01*
X147000000Y-77430412D01*
X147000000Y-76381958D01*
X147140819Y-76381958D01*
X147246506Y-76651103D01*
X147402670Y-76894458D01*
X147603310Y-77102671D01*
X147840715Y-77267740D01*
X148105761Y-77383322D01*
X148158043Y-77399175D01*
X148385000Y-77337517D01*
X148385000Y-76155000D01*
X148735000Y-76155000D01*
X148735000Y-77337517D01*
X148961957Y-77399175D01*
X149014239Y-77383322D01*
X149279285Y-77267740D01*
X149516690Y-77102671D01*
X149717330Y-76894458D01*
X149873494Y-76651103D01*
X149979181Y-76381958D01*
X149918339Y-76155000D01*
X148735000Y-76155000D01*
X148385000Y-76155000D01*
X147201661Y-76155000D01*
X147140819Y-76381958D01*
X147000000Y-76381958D01*
X147000000Y-75859650D01*
X166195000Y-75859650D01*
X166195000Y-76140350D01*
X166249762Y-76415657D01*
X166357181Y-76674991D01*
X166513130Y-76908385D01*
X166711615Y-77106870D01*
X166945009Y-77262819D01*
X167204343Y-77370238D01*
X167479650Y-77425000D01*
X167760350Y-77425000D01*
X168035657Y-77370238D01*
X168294991Y-77262819D01*
X168528385Y-77106870D01*
X168695907Y-76939348D01*
X173775000Y-76939348D01*
X173775000Y-77180652D01*
X173822076Y-77417319D01*
X173914419Y-77640255D01*
X174048481Y-77840892D01*
X174219108Y-78011519D01*
X174419745Y-78145581D01*
X174642681Y-78237924D01*
X174879348Y-78285000D01*
X175120652Y-78285000D01*
X175357319Y-78237924D01*
X175580255Y-78145581D01*
X175780892Y-78011519D01*
X175951519Y-77840892D01*
X176085581Y-77640255D01*
X176177924Y-77417319D01*
X176225000Y-77180652D01*
X176225000Y-76939348D01*
X176177924Y-76702681D01*
X176085581Y-76479745D01*
X175951519Y-76279108D01*
X175780892Y-76108481D01*
X175580255Y-75974419D01*
X175357319Y-75882076D01*
X175120652Y-75835000D01*
X174879348Y-75835000D01*
X174642681Y-75882076D01*
X174419745Y-75974419D01*
X174219108Y-76108481D01*
X174048481Y-76279108D01*
X173914419Y-76479745D01*
X173822076Y-76702681D01*
X173775000Y-76939348D01*
X168695907Y-76939348D01*
X168726870Y-76908385D01*
X168873065Y-76689588D01*
X171239992Y-76689588D01*
X171304426Y-76885000D01*
X172285000Y-76885000D01*
X172285000Y-75903309D01*
X172635000Y-75903309D01*
X172635000Y-76885000D01*
X173615574Y-76885000D01*
X173680008Y-76689588D01*
X173584603Y-76459240D01*
X173445792Y-76251384D01*
X173269097Y-76074603D01*
X173061309Y-75935690D01*
X172830413Y-75839984D01*
X172635000Y-75903309D01*
X172285000Y-75903309D01*
X172089587Y-75839984D01*
X171858691Y-75935690D01*
X171650903Y-76074603D01*
X171474208Y-76251384D01*
X171335397Y-76459240D01*
X171239992Y-76689588D01*
X168873065Y-76689588D01*
X168882819Y-76674991D01*
X168990238Y-76415657D01*
X169045000Y-76140350D01*
X169045000Y-75859650D01*
X168990238Y-75584343D01*
X168882819Y-75325009D01*
X168726870Y-75091615D01*
X168528385Y-74893130D01*
X168294991Y-74737181D01*
X168035657Y-74629762D01*
X167760350Y-74575000D01*
X167479650Y-74575000D01*
X167204343Y-74629762D01*
X166945009Y-74737181D01*
X166711615Y-74893130D01*
X166513130Y-75091615D01*
X166357181Y-75325009D01*
X166249762Y-75584343D01*
X166195000Y-75859650D01*
X147000000Y-75859650D01*
X147000000Y-75590424D01*
X147016851Y-75579165D01*
X147017974Y-75578042D01*
X147140819Y-75578042D01*
X147201661Y-75805000D01*
X148385000Y-75805000D01*
X148385000Y-74622483D01*
X148735000Y-74622483D01*
X148735000Y-75805000D01*
X149918339Y-75805000D01*
X149979181Y-75578042D01*
X149873494Y-75308897D01*
X149717330Y-75065542D01*
X149516690Y-74857329D01*
X149279285Y-74692260D01*
X149014239Y-74576678D01*
X148961957Y-74560825D01*
X148735000Y-74622483D01*
X148385000Y-74622483D01*
X148158043Y-74560825D01*
X148105761Y-74576678D01*
X147840715Y-74692260D01*
X147603310Y-74857329D01*
X147402670Y-75065542D01*
X147246506Y-75308897D01*
X147140819Y-75578042D01*
X147017974Y-75578042D01*
X147124799Y-75471217D01*
X147209613Y-75344283D01*
X147268034Y-75203242D01*
X147297817Y-75053514D01*
X147297817Y-74900852D01*
X147268034Y-74751124D01*
X147209613Y-74610083D01*
X147124799Y-74483149D01*
X147040998Y-74399348D01*
X171235000Y-74399348D01*
X171235000Y-74640652D01*
X171282076Y-74877319D01*
X171374419Y-75100255D01*
X171508481Y-75300892D01*
X171679108Y-75471519D01*
X171879745Y-75605581D01*
X172102681Y-75697924D01*
X172339348Y-75745000D01*
X172580652Y-75745000D01*
X172817319Y-75697924D01*
X173040255Y-75605581D01*
X173240892Y-75471519D01*
X173411519Y-75300892D01*
X173545581Y-75100255D01*
X173637924Y-74877319D01*
X173685000Y-74640652D01*
X173685000Y-74399348D01*
X173775000Y-74399348D01*
X173775000Y-74640652D01*
X173822076Y-74877319D01*
X173914419Y-75100255D01*
X174048481Y-75300892D01*
X174219108Y-75471519D01*
X174419745Y-75605581D01*
X174642681Y-75697924D01*
X174879348Y-75745000D01*
X175120652Y-75745000D01*
X175357319Y-75697924D01*
X175580255Y-75605581D01*
X175780892Y-75471519D01*
X175951519Y-75300892D01*
X176085581Y-75100255D01*
X176177924Y-74877319D01*
X176225000Y-74640652D01*
X176225000Y-74399348D01*
X176177924Y-74162681D01*
X176085581Y-73939745D01*
X175951519Y-73739108D01*
X175780892Y-73568481D01*
X175580255Y-73434419D01*
X175357319Y-73342076D01*
X175120652Y-73295000D01*
X174879348Y-73295000D01*
X174642681Y-73342076D01*
X174419745Y-73434419D01*
X174219108Y-73568481D01*
X174048481Y-73739108D01*
X173914419Y-73939745D01*
X173822076Y-74162681D01*
X173775000Y-74399348D01*
X173685000Y-74399348D01*
X173637924Y-74162681D01*
X173545581Y-73939745D01*
X173411519Y-73739108D01*
X173240892Y-73568481D01*
X173040255Y-73434419D01*
X172817319Y-73342076D01*
X172580652Y-73295000D01*
X172339348Y-73295000D01*
X172102681Y-73342076D01*
X171879745Y-73434419D01*
X171679108Y-73568481D01*
X171508481Y-73739108D01*
X171374419Y-73939745D01*
X171282076Y-74162681D01*
X171235000Y-74399348D01*
X147040998Y-74399348D01*
X147016851Y-74375201D01*
X146889917Y-74290387D01*
X146748876Y-74231966D01*
X146599148Y-74202183D01*
X146446486Y-74202183D01*
X146296758Y-74231966D01*
X146155717Y-74290387D01*
X146028783Y-74375201D01*
X145920835Y-74483149D01*
X145836021Y-74610083D01*
X145777600Y-74751124D01*
X145747817Y-74900852D01*
X145747817Y-75053514D01*
X145777600Y-75203242D01*
X145836021Y-75344283D01*
X145920835Y-75471217D01*
X146000001Y-75550383D01*
X146000000Y-77903984D01*
X145898018Y-78005966D01*
X145813204Y-78132900D01*
X145754783Y-78273941D01*
X145725000Y-78423669D01*
X115400000Y-78423669D01*
X115400000Y-71859348D01*
X171235000Y-71859348D01*
X171235000Y-72100652D01*
X171282076Y-72337319D01*
X171374419Y-72560255D01*
X171508481Y-72760892D01*
X171679108Y-72931519D01*
X171879745Y-73065581D01*
X172102681Y-73157924D01*
X172339348Y-73205000D01*
X172580652Y-73205000D01*
X172817319Y-73157924D01*
X173040255Y-73065581D01*
X173240892Y-72931519D01*
X173411519Y-72760892D01*
X173545581Y-72560255D01*
X173632500Y-72350412D01*
X173779992Y-72350412D01*
X173875397Y-72580760D01*
X174014208Y-72788616D01*
X174190903Y-72965397D01*
X174398691Y-73104310D01*
X174629587Y-73200016D01*
X174825000Y-73136691D01*
X174825000Y-72155000D01*
X175175000Y-72155000D01*
X175175000Y-73136691D01*
X175370413Y-73200016D01*
X175601309Y-73104310D01*
X175809097Y-72965397D01*
X175985792Y-72788616D01*
X176124603Y-72580760D01*
X176220008Y-72350412D01*
X176155574Y-72155000D01*
X175175000Y-72155000D01*
X174825000Y-72155000D01*
X173844426Y-72155000D01*
X173779992Y-72350412D01*
X173632500Y-72350412D01*
X173637924Y-72337319D01*
X173685000Y-72100652D01*
X173685000Y-71859348D01*
X173637924Y-71622681D01*
X173632501Y-71609588D01*
X173779992Y-71609588D01*
X173844426Y-71805000D01*
X174825000Y-71805000D01*
X174825000Y-70823309D01*
X175175000Y-70823309D01*
X175175000Y-71805000D01*
X176155574Y-71805000D01*
X176220008Y-71609588D01*
X176124603Y-71379240D01*
X175985792Y-71171384D01*
X175809097Y-70994603D01*
X175601309Y-70855690D01*
X175370413Y-70759984D01*
X175175000Y-70823309D01*
X174825000Y-70823309D01*
X174629587Y-70759984D01*
X174398691Y-70855690D01*
X174190903Y-70994603D01*
X174014208Y-71171384D01*
X173875397Y-71379240D01*
X173779992Y-71609588D01*
X173632501Y-71609588D01*
X173545581Y-71399745D01*
X173411519Y-71199108D01*
X173240892Y-71028481D01*
X173040255Y-70894419D01*
X172817319Y-70802076D01*
X172580652Y-70755000D01*
X172339348Y-70755000D01*
X172102681Y-70802076D01*
X171879745Y-70894419D01*
X171679108Y-71028481D01*
X171508481Y-71199108D01*
X171374419Y-71399745D01*
X171282076Y-71622681D01*
X171235000Y-71859348D01*
X115400000Y-71859348D01*
X115400000Y-70653971D01*
X136925000Y-70653971D01*
X136925000Y-70846029D01*
X136962468Y-71034397D01*
X137035966Y-71211836D01*
X137142668Y-71371527D01*
X137278473Y-71507332D01*
X137438164Y-71614034D01*
X137615603Y-71687532D01*
X137803971Y-71725000D01*
X137996029Y-71725000D01*
X138184397Y-71687532D01*
X138361836Y-71614034D01*
X138521527Y-71507332D01*
X138657332Y-71371527D01*
X138764034Y-71211836D01*
X138837532Y-71034397D01*
X138875000Y-70846029D01*
X138875000Y-70653971D01*
X138837532Y-70465603D01*
X138764034Y-70288164D01*
X138657332Y-70128473D01*
X138542141Y-70013282D01*
X138551761Y-70021177D01*
X138660129Y-70079101D01*
X138777715Y-70114770D01*
X138900000Y-70126814D01*
X140100000Y-70126814D01*
X140222285Y-70114770D01*
X140339871Y-70079101D01*
X140448239Y-70021177D01*
X140543224Y-69943224D01*
X140621177Y-69848239D01*
X140679101Y-69739871D01*
X140714770Y-69622285D01*
X140726814Y-69500000D01*
X140726814Y-68925002D01*
X140832965Y-68925002D01*
X140746303Y-69123878D01*
X140814069Y-69364160D01*
X140927409Y-69586605D01*
X141081969Y-69782664D01*
X141271808Y-69944803D01*
X141489631Y-70066791D01*
X141629588Y-70120008D01*
X141825000Y-70055574D01*
X141825000Y-68925000D01*
X142175000Y-68925000D01*
X142175000Y-70055574D01*
X142370412Y-70120008D01*
X142510369Y-70066791D01*
X142728192Y-69944803D01*
X142918031Y-69782664D01*
X143072591Y-69586605D01*
X143185931Y-69364160D01*
X143198569Y-69319348D01*
X171235000Y-69319348D01*
X171235000Y-69560652D01*
X171282076Y-69797319D01*
X171374419Y-70020255D01*
X171508481Y-70220892D01*
X171679108Y-70391519D01*
X171879745Y-70525581D01*
X172102681Y-70617924D01*
X172339348Y-70665000D01*
X172580652Y-70665000D01*
X172817319Y-70617924D01*
X173040255Y-70525581D01*
X173240892Y-70391519D01*
X173411519Y-70220892D01*
X173545581Y-70020255D01*
X173637924Y-69797319D01*
X173685000Y-69560652D01*
X173685000Y-69319348D01*
X173775000Y-69319348D01*
X173775000Y-69560652D01*
X173822076Y-69797319D01*
X173914419Y-70020255D01*
X174048481Y-70220892D01*
X174219108Y-70391519D01*
X174419745Y-70525581D01*
X174642681Y-70617924D01*
X174879348Y-70665000D01*
X175120652Y-70665000D01*
X175357319Y-70617924D01*
X175580255Y-70525581D01*
X175780892Y-70391519D01*
X175951519Y-70220892D01*
X176085581Y-70020255D01*
X176177924Y-69797319D01*
X176225000Y-69560652D01*
X176225000Y-69319348D01*
X176177924Y-69082681D01*
X176085581Y-68859745D01*
X175951519Y-68659108D01*
X175780892Y-68488481D01*
X175580255Y-68354419D01*
X175357319Y-68262076D01*
X175120652Y-68215000D01*
X174879348Y-68215000D01*
X174642681Y-68262076D01*
X174419745Y-68354419D01*
X174219108Y-68488481D01*
X174048481Y-68659108D01*
X173914419Y-68859745D01*
X173822076Y-69082681D01*
X173775000Y-69319348D01*
X173685000Y-69319348D01*
X173637924Y-69082681D01*
X173545581Y-68859745D01*
X173411519Y-68659108D01*
X173240892Y-68488481D01*
X173040255Y-68354419D01*
X172817319Y-68262076D01*
X172580652Y-68215000D01*
X172339348Y-68215000D01*
X172102681Y-68262076D01*
X171879745Y-68354419D01*
X171679108Y-68488481D01*
X171508481Y-68659108D01*
X171374419Y-68859745D01*
X171282076Y-69082681D01*
X171235000Y-69319348D01*
X143198569Y-69319348D01*
X143253697Y-69123878D01*
X143167034Y-68925000D01*
X142175000Y-68925000D01*
X141825000Y-68925000D01*
X141805000Y-68925000D01*
X141805000Y-68575000D01*
X141825000Y-68575000D01*
X141825000Y-67444426D01*
X142175000Y-67444426D01*
X142175000Y-68575000D01*
X143167034Y-68575000D01*
X143253697Y-68376122D01*
X143185931Y-68135840D01*
X143072591Y-67913395D01*
X142918031Y-67717336D01*
X142728192Y-67555197D01*
X142510369Y-67433209D01*
X142370412Y-67379992D01*
X142175000Y-67444426D01*
X141825000Y-67444426D01*
X141629588Y-67379992D01*
X141489631Y-67433209D01*
X141271808Y-67555197D01*
X141081969Y-67717336D01*
X140927409Y-67913395D01*
X140814069Y-68135840D01*
X140746303Y-68376122D01*
X140832965Y-68574998D01*
X140726814Y-68574998D01*
X140726814Y-68000000D01*
X140714770Y-67877715D01*
X140679101Y-67760129D01*
X140621177Y-67651761D01*
X140543224Y-67556776D01*
X140448239Y-67478823D01*
X140339871Y-67420899D01*
X140222285Y-67385230D01*
X140100000Y-67373186D01*
X138900000Y-67373186D01*
X138777715Y-67385230D01*
X138660129Y-67420899D01*
X138551761Y-67478823D01*
X138456776Y-67556776D01*
X138378823Y-67651761D01*
X138320899Y-67760129D01*
X138285230Y-67877715D01*
X138273186Y-68000000D01*
X138273186Y-69500000D01*
X138285230Y-69622285D01*
X138320899Y-69739871D01*
X138378823Y-69848239D01*
X138456776Y-69943224D01*
X138497290Y-69976474D01*
X138361836Y-69885966D01*
X138184397Y-69812468D01*
X137996029Y-69775000D01*
X137803971Y-69775000D01*
X137615603Y-69812468D01*
X137438164Y-69885966D01*
X137278473Y-69992668D01*
X137142668Y-70128473D01*
X137035966Y-70288164D01*
X136962468Y-70465603D01*
X136925000Y-70653971D01*
X115400000Y-70653971D01*
X115400000Y-68085027D01*
X125325000Y-68085027D01*
X125325000Y-68414973D01*
X125389369Y-68738580D01*
X125515634Y-69043410D01*
X125698942Y-69317751D01*
X125932249Y-69551058D01*
X126206590Y-69734366D01*
X126511420Y-69860631D01*
X126835027Y-69925000D01*
X127164973Y-69925000D01*
X127488580Y-69860631D01*
X127793410Y-69734366D01*
X128067751Y-69551058D01*
X128068809Y-69550000D01*
X130272944Y-69550000D01*
X130281150Y-69633314D01*
X130305452Y-69713427D01*
X130344916Y-69787260D01*
X130398026Y-69851974D01*
X130462740Y-69905084D01*
X130536573Y-69944548D01*
X130616686Y-69968850D01*
X130700000Y-69977056D01*
X131718750Y-69975000D01*
X131825000Y-69868750D01*
X131825000Y-68425000D01*
X132175000Y-68425000D01*
X132175000Y-69868750D01*
X132281250Y-69975000D01*
X133300000Y-69977056D01*
X133383314Y-69968850D01*
X133463427Y-69944548D01*
X133537260Y-69905084D01*
X133601974Y-69851974D01*
X133655084Y-69787260D01*
X133694548Y-69713427D01*
X133718850Y-69633314D01*
X133727056Y-69550000D01*
X133725000Y-68531250D01*
X133618750Y-68425000D01*
X132175000Y-68425000D01*
X131825000Y-68425000D01*
X130381250Y-68425000D01*
X130275000Y-68531250D01*
X130272944Y-69550000D01*
X128068809Y-69550000D01*
X128301058Y-69317751D01*
X128484366Y-69043410D01*
X128610631Y-68738580D01*
X128675000Y-68414973D01*
X128675000Y-68085027D01*
X128610631Y-67761420D01*
X128484366Y-67456590D01*
X128301058Y-67182249D01*
X128068809Y-66950000D01*
X130272944Y-66950000D01*
X130275000Y-67968750D01*
X130381250Y-68075000D01*
X131825000Y-68075000D01*
X131825000Y-66631250D01*
X132175000Y-66631250D01*
X132175000Y-68075000D01*
X133618750Y-68075000D01*
X133725000Y-67968750D01*
X133727056Y-66950000D01*
X133718850Y-66866686D01*
X133694548Y-66786573D01*
X133655084Y-66712740D01*
X133601974Y-66648026D01*
X133537260Y-66594916D01*
X133463427Y-66555452D01*
X133383314Y-66531150D01*
X133300000Y-66522944D01*
X132281250Y-66525000D01*
X132175000Y-66631250D01*
X131825000Y-66631250D01*
X131718750Y-66525000D01*
X130700000Y-66522944D01*
X130616686Y-66531150D01*
X130536573Y-66555452D01*
X130462740Y-66594916D01*
X130398026Y-66648026D01*
X130344916Y-66712740D01*
X130305452Y-66786573D01*
X130281150Y-66866686D01*
X130272944Y-66950000D01*
X128068809Y-66950000D01*
X128067751Y-66948942D01*
X127793410Y-66765634D01*
X127488580Y-66639369D01*
X127164973Y-66575000D01*
X126835027Y-66575000D01*
X126511420Y-66639369D01*
X126206590Y-66765634D01*
X125932249Y-66948942D01*
X125698942Y-67182249D01*
X125515634Y-67456590D01*
X125389369Y-67761420D01*
X125325000Y-68085027D01*
X115400000Y-68085027D01*
X115400000Y-63673669D01*
X163725000Y-63673669D01*
X163725000Y-63826331D01*
X163754783Y-63976059D01*
X163813204Y-64117100D01*
X163898018Y-64244034D01*
X164005966Y-64351982D01*
X164132900Y-64436796D01*
X164273941Y-64495217D01*
X164383035Y-64516917D01*
X167186346Y-67320229D01*
X167205920Y-67344080D01*
X167301089Y-67422183D01*
X167409666Y-67480219D01*
X167527479Y-67515957D01*
X167619296Y-67525000D01*
X167619298Y-67525000D01*
X167650000Y-67528024D01*
X167680702Y-67525000D01*
X171233186Y-67525000D01*
X171233186Y-67750000D01*
X171240426Y-67823513D01*
X171261869Y-67894200D01*
X171296691Y-67959347D01*
X171343552Y-68016448D01*
X171400653Y-68063309D01*
X171465800Y-68098131D01*
X171536487Y-68119574D01*
X171610000Y-68126814D01*
X173310000Y-68126814D01*
X173383513Y-68119574D01*
X173454200Y-68098131D01*
X173519347Y-68063309D01*
X173576448Y-68016448D01*
X173623309Y-67959347D01*
X173658131Y-67894200D01*
X173679574Y-67823513D01*
X173686814Y-67750000D01*
X173686814Y-66779348D01*
X173775000Y-66779348D01*
X173775000Y-67020652D01*
X173822076Y-67257319D01*
X173914419Y-67480255D01*
X174048481Y-67680892D01*
X174219108Y-67851519D01*
X174419745Y-67985581D01*
X174642681Y-68077924D01*
X174879348Y-68125000D01*
X175120652Y-68125000D01*
X175357319Y-68077924D01*
X175580255Y-67985581D01*
X175780892Y-67851519D01*
X175951519Y-67680892D01*
X176085581Y-67480255D01*
X176177924Y-67257319D01*
X176225000Y-67020652D01*
X176225000Y-66779348D01*
X176177924Y-66542681D01*
X176085581Y-66319745D01*
X175951519Y-66119108D01*
X175780892Y-65948481D01*
X175580255Y-65814419D01*
X175357319Y-65722076D01*
X175120652Y-65675000D01*
X174879348Y-65675000D01*
X174642681Y-65722076D01*
X174419745Y-65814419D01*
X174219108Y-65948481D01*
X174048481Y-66119108D01*
X173914419Y-66319745D01*
X173822076Y-66542681D01*
X173775000Y-66779348D01*
X173686814Y-66779348D01*
X173686814Y-66050000D01*
X173679574Y-65976487D01*
X173658131Y-65905800D01*
X173623309Y-65840653D01*
X173576448Y-65783552D01*
X173519347Y-65736691D01*
X173454200Y-65701869D01*
X173383513Y-65680426D01*
X173310000Y-65673186D01*
X171610000Y-65673186D01*
X171536487Y-65680426D01*
X171465800Y-65701869D01*
X171400653Y-65736691D01*
X171343552Y-65783552D01*
X171296691Y-65840653D01*
X171261869Y-65905800D01*
X171240426Y-65976487D01*
X171233186Y-66050000D01*
X171233186Y-66275000D01*
X167908883Y-66275000D01*
X165266917Y-63633035D01*
X165245217Y-63523941D01*
X165186796Y-63382900D01*
X165101982Y-63255966D01*
X164994034Y-63148018D01*
X164867100Y-63063204D01*
X164726059Y-63004783D01*
X164576331Y-62975000D01*
X164423669Y-62975000D01*
X164273941Y-63004783D01*
X164132900Y-63063204D01*
X164005966Y-63148018D01*
X163898018Y-63255966D01*
X163813204Y-63382900D01*
X163754783Y-63523941D01*
X163725000Y-63673669D01*
X115400000Y-63673669D01*
X115400000Y-60400000D01*
X179600001Y-60400000D01*
X179600000Y-119600000D01*
M02*
