M48
; DRILL file {KiCad 5.1.5-52549c5~84~ubuntu18.04.1} date Mon 27 Jan 2020 13:55:41 NZDT
; FORMAT={-:-/ absolute / inch / decimal}
; #@! TF.CreationDate,2020-01-27T13:55:41+13:00
; #@! TF.GenerationSoftware,Kicad,Pcbnew,5.1.5-52549c5~84~ubuntu18.04.1
FMAT,2
INCH
T1C0.0157
T2C0.0394
T3C0.0512
T4C0.0551
T5C0.0472
%
G90
G05
T1
X4.5768Y-4.1535
X4.5768Y-4.2323
X4.5866Y-4.3209
X4.6063Y-4.6457
X4.626Y-2.4606
X4.626Y-2.6575
X4.626Y-2.8543
X4.626Y-3.0512
X4.626Y-3.248
X4.626Y-3.4449
X4.626Y-3.6417
X4.6457Y-3.7697
X4.7244Y-3.5433
X4.7638Y-4.1043
X4.7638Y-4.6457
X4.7933Y-4.065
X4.8189Y-3.7598
X4.8228Y-2.4606
X4.8228Y-2.6575
X4.8228Y-3.5433
X4.8228Y-3.6417
X4.8425Y-4.3209
X4.8524Y-4.2224
X4.8819Y-4.6457
X4.9016Y-4.1535
X4.9114Y-3.7598
X4.9213Y-3.1496
X4.9213Y-3.248
X4.9213Y-3.3465
X5.0197Y-2.4606
X5.0197Y-3.3465
X5.0394Y-3.7795
X5.0787Y-4.6457
X5.1181Y-3.4646
X5.1181Y-4.065
X5.1181Y-4.3406
X5.128Y-4.252
X5.1378Y-3.7205
X5.1575Y-2.7953
X5.1575Y-4.6457
X5.1663Y-3.75
X5.1673Y-4.1831
X5.2165Y-2.4606
X5.2264Y-4.124
X5.253Y-3.7106
X5.253Y-3.75
X5.2756Y-2.7953
X5.2756Y-3.4646
X5.3543Y-2.6378
X5.3543Y-2.7165
X5.3543Y-2.7953
X5.3543Y-4.6457
X5.374Y-3.8071
X5.3937Y-3.4646
X5.4035Y-4.3406
X5.4134Y-2.4606
X5.4134Y-3.2677
X5.4331Y-4.6457
X5.4594Y-3.7085
X5.4724Y-3.2677
X5.4724Y-4.0945
X5.4823Y-4.2815
X5.4921Y-3.7303
X5.5108Y-3.7785
X5.5217Y-4.2126
X5.5315Y-3.2677
X5.5512Y-3.4646
X5.5807Y-4.252
X5.5906Y-3.2677
X5.5906Y-4.1929
X5.5926Y-4.1241
X5.5974Y-3.7795
X5.6004Y-3.6909
X5.6004Y-3.7303
X5.6102Y-2.4606
X5.6102Y-2.5591
X5.6201Y-3.1299
X5.6398Y-3.189
X5.6398Y-3.248
X5.6398Y-4.1732
X5.6693Y-3.4646
X5.6693Y-4.6457
X5.6988Y-4.311
X5.7087Y-4.4685
X5.7382Y-3.6909
X5.7382Y-3.7303
X5.7382Y-3.7795
X5.7677Y-3.0906
X5.7686Y-2.9519
X5.7736Y-3.937
X5.7874Y-4.5276
X5.7874Y-4.6457
X5.8071Y-2.4606
X5.8071Y-2.5591
X5.8602Y-3.937
X5.8661Y-3.6909
X5.8661Y-3.7303
X5.8661Y-3.7795
X5.8858Y-4.1437
X5.9449Y-4.5276
X5.9449Y-4.6457
X6.0039Y-2.4606
X6.0039Y-2.5591
X6.1024Y-2.9528
X6.1024Y-3.1496
X6.1024Y-3.3465
X6.1024Y-4.5276
X6.1024Y-4.6457
X6.2598Y-4.5276
X6.2598Y-4.6457
X6.2894Y-3.7795
X6.2992Y-2.9528
X6.2992Y-3.1496
X6.2992Y-3.3465
X6.2992Y-3.5433
X6.3484Y-3.8386
X6.3803Y-3.6886
X6.4394Y-3.7476
X6.4562Y-3.9375
X6.4567Y-4.2037
X6.4567Y-4.411
X6.4567Y-4.6457
X6.4764Y-2.5098
X6.4961Y-3.2185
X6.5181Y-3.8264
X6.6535Y-4.5276
X6.6535Y-4.6457
X6.6929Y-4.2323
X6.8504Y-4.6457
X7.0079Y-2.8346
X7.0079Y-2.9921
X7.0079Y-3.1299
X7.0079Y-3.2677
X7.0079Y-3.4252
X7.0079Y-3.563
X7.0079Y-3.7008
X7.0079Y-3.878
X7.0079Y-4.0551
X7.0079Y-4.2126
X7.0079Y-4.3898
X7.0079Y-4.5669
T2
X6.7898Y-2.6339
X6.7898Y-2.7339
X6.7898Y-2.8339
X6.7898Y-2.9339
X6.7898Y-3.0339
X6.7898Y-3.1339
X6.7898Y-3.2339
X6.7898Y-3.3339
X6.7898Y-3.4339
X6.7898Y-3.5339
X6.7898Y-3.6339
X6.7898Y-3.7339
X6.7898Y-3.8339
X6.7898Y-3.9339
X6.7898Y-4.0339
X6.7898Y-4.1339
X6.7898Y-4.2339
X6.7898Y-4.3339
X6.7898Y-4.4339
X6.7898Y-4.5339
X6.8898Y-2.6339
X6.8898Y-2.7339
X6.8898Y-2.8339
X6.8898Y-2.9339
X6.8898Y-3.0339
X6.8898Y-3.1339
X6.8898Y-3.2339
X6.8898Y-3.3339
X6.8898Y-3.4339
X6.8898Y-3.5339
X6.8898Y-3.6339
X6.8898Y-3.7339
X6.8898Y-3.8339
X6.8898Y-3.9339
X6.8898Y-4.0339
X6.8898Y-4.1339
X6.8898Y-4.2339
X6.8898Y-4.3339
X6.8898Y-4.4339
X6.8898Y-4.5339
X5.4921Y-2.7067
X5.5906Y-2.7067
T3
X5.0Y-2.687
X5.1969Y-2.687
T4
X5.8488Y-2.9913
X5.8492Y-4.3677
X6.5992Y-2.9921
X6.5992Y-3.7425
X6.5992Y-3.8677
X6.5992Y-4.3677
X6.5996Y-3.6173
T5
X5.4291Y-2.7854
T0
M30
